<?xml version="1.0"?>
<svg xmlns="http://www.w3.org/2000/svg" xmlns:lc="http://www.librecad.org" xmlns:xlink="http://www.w3.org/1999/xlink" width="1.592678mm" height="1.592678mm" viewBox="0 0 1.592678 1.592678">
    <g lc:layername="0" lc:is_locked="false" lc:is_construction="false" fill="none" stroke="black" stroke-width="1"/>
    <g lc:layername="mask" lc:is_locked="false" lc:is_construction="false" fill="none" stroke="black" stroke-width="1">
        <path d="M0.062285,0.180573 L0.022412,0.054107 L0,0 L0.054107,0.022412 L0.180572,0.062286 L0.310032,0.090986 L0.4415,0.108295 L0.573978,0.114078 L0.690195,0.109004 L0.712442,0.104073 L0.777312,0.095532 L0.842678,0.092678 L0.908044,0.095532 L0.972914,0.104073 L1.036792,0.118234 L1.099193,0.137908 L1.159642,0.162948 L1.217678,0.193159 L1.272861,0.228314 L1.324769,0.268145 L1.373008,0.312348 L1.417212,0.360588 L1.457042,0.412496 L1.492197,0.467678 L1.522409,0.525715 L1.547448,0.586163 L1.567122,0.648564 L1.581284,0.712442 L1.589824,0.777312 L1.592678,0.842678 L1.589824,0.908044 L1.581284,0.972914 L1.567122,1.036792 L1.547448,1.099193 L1.522409,1.159642 L1.492197,1.217679 L1.457042,1.272861 L1.417212,1.324769 L1.373008,1.373008 L1.324769,1.417212 L1.272861,1.457042 L1.217679,1.492197 L1.159642,1.522409 L1.099193,1.547448 L1.036792,1.567122 L0.972914,1.581284 L0.908044,1.589824 L0.842678,1.592678 L0.777312,1.589824 L0.712442,1.581284 L0.648564,1.567122 L0.586163,1.547448 L0.525714,1.522409 L0.467677,1.492197 L0.412496,1.457042 L0.360588,1.417212 L0.312348,1.373008 L0.268145,1.324769 L0.228314,1.272861 L0.193159,1.217679 L0.162947,1.159642 L0.137908,1.099193 L0.118234,1.036792 L0.104073,0.972914 L0.095532,0.908044 L0.092678,0.842678 L0.095532,0.777312 L0.104073,0.712442 L0.109004,0.690195 L0.114078,0.573978 L0.108294,0.441501 L0.090986,0.310032 L0.062285,0.180573 L0.062285,0.180573 Z "/>
    </g>
</svg>
