<?xml version="1.0" encoding="UTF-8" standalone="no"?>
<!-- Created with Inkscape (http://www.inkscape.org/) -->

<svg
   xmlns:dc="http://purl.org/dc/elements/1.1/"
   xmlns:cc="http://creativecommons.org/ns#"
   xmlns:rdf="http://www.w3.org/1999/02/22-rdf-syntax-ns#"
   xmlns:svg="http://www.w3.org/2000/svg"
   xmlns="http://www.w3.org/2000/svg"
   xmlns:sodipodi="http://sodipodi.sourceforge.net/DTD/sodipodi-0.dtd"
   xmlns:inkscape="http://www.inkscape.org/namespaces/inkscape"
   width="24.261023mm"
   height="54.053783mm"
   viewBox="0 0 24.261023 54.053783"
   version="1.1"
   id="svg1229"
   inkscape:version="0.92.4 5da689c313, 2019-01-14"
   sodipodi:docname="arches_3b.svg">
  <defs
     id="defs1223" />
  <sodipodi:namedview
     id="base"
     pagecolor="#ffffff"
     bordercolor="#666666"
     borderopacity="1.0"
     inkscape:pageopacity="0.0"
     inkscape:pageshadow="2"
     inkscape:zoom="5.6"
     inkscape:cx="12.46612"
     inkscape:cy="58.757571"
     inkscape:document-units="mm"
     inkscape:current-layer="layer1"
     showgrid="false"
     fit-margin-top="0"
     fit-margin-left="0"
     fit-margin-right="0"
     fit-margin-bottom="0"
     inkscape:window-width="1920"
     inkscape:window-height="1015"
     inkscape:window-x="0"
     inkscape:window-y="0"
     inkscape:window-maximized="1" />
  <metadata
     id="metadata1226">
    <rdf:RDF>
      <cc:Work
         rdf:about="">
        <dc:format>image/svg+xml</dc:format>
        <dc:type
           rdf:resource="http://purl.org/dc/dcmitype/StillImage" />
        <dc:title></dc:title>
      </cc:Work>
    </rdf:RDF>
  </metadata>
  <g
     inkscape:label="Calque 1"
     inkscape:groupmode="layer"
     id="layer1"
     transform="translate(156.66401,-160.59184)">
    <path
       style="fill:none;fill-opacity:1;stroke:#260704;stroke-width:0.18688834;stroke-linecap:round;stroke-miterlimit:4;stroke-dasharray:none;stroke-dashoffset:0;stroke-opacity:1"
       d="m -144.51107,160.7387 v 53.77463 h 5.98765 5e-4 5.98764 V 160.7387 h -5.98764 -5e-4 z"
       id="rect959"
       inkscape:connector-curvature="0"
       sodipodi:nodetypes="ccccccccc" />
    <path
       sodipodi:nodetypes="ccccc"
       inkscape:connector-curvature="0"
       id="path971"
       d="m -136.78041,202.27653 -0.0433,-3.00565 c 0.64816,0.81892 1.91471,0.81257 2.55563,0 v 3.00565 z"
       style="fill:none;stroke:#000000;stroke-width:0.26458332px;stroke-linecap:butt;stroke-linejoin:miter;stroke-opacity:1" />
    <path
       style="fill:none;stroke:#000000;stroke-width:0.26458332px;stroke-linecap:butt;stroke-linejoin:miter;stroke-opacity:1"
       d="m -136.78041,189.60433 -0.0433,-8.27332 c 0.64816,0.81892 1.91471,0.81257 2.55563,0 v 8.27332 c -0.68343,1.10772 -1.89557,1.07649 -2.51232,0 z"
       id="path973"
       inkscape:connector-curvature="0"
       sodipodi:nodetypes="ccccc" />
    <path
       sodipodi:nodetypes="ccccc"
       inkscape:connector-curvature="0"
       id="path975"
       d="m -136.78041,180.66078 -0.0433,-7.91049 h 2.55563 v 7.91049 c -0.68343,1.10772 -1.89557,1.07649 -2.51232,0 z"
       style="fill:none;stroke:#000000;stroke-width:0.26458332px;stroke-linecap:butt;stroke-linejoin:miter;stroke-opacity:1" />
    <path
       style="fill:none;stroke:#000000;stroke-width:0.26458332px;stroke-linecap:butt;stroke-linejoin:miter;stroke-opacity:1"
       d="m -139.77163,202.27653 -0.0433,-6.01903 c 0.64817,0.81892 1.91472,0.81257 2.55563,0 v 6.01903 z"
       id="path977"
       inkscape:connector-curvature="0"
       sodipodi:nodetypes="ccccc" />
    <path
       sodipodi:nodetypes="ccccc"
       inkscape:connector-curvature="0"
       id="path979"
       d="m -139.77163,186.67435 -0.0433,-8.24268 c 0.64817,0.81891 1.91472,0.81257 2.55563,0 v 8.24268 c -0.68343,1.10772 -1.89557,1.0765 -2.51231,0 z"
       style="fill:none;stroke:#000000;stroke-width:0.26458332px;stroke-linecap:butt;stroke-linejoin:miter;stroke-opacity:1" />
    <path
       style="fill:none;stroke:#000000;stroke-width:0.26458332px;stroke-linecap:butt;stroke-linejoin:miter;stroke-opacity:1"
       d="m -139.77163,177.76144 -0.0433,-5.01115 h 2.55563 v 5.01115 c -0.68343,1.10772 -1.89557,1.07649 -2.51231,0 z"
       id="path981"
       inkscape:connector-curvature="0"
       sodipodi:nodetypes="ccccc" />
    <path
       style="fill:none;stroke:#000000;stroke-width:0.26458332px;stroke-linecap:butt;stroke-linejoin:miter;stroke-opacity:1"
       d="m -142.76286,202.27653 -0.0433,-3.00565 c 0.64817,0.81892 1.91472,0.81257 2.55563,0 v 3.00565 z"
       id="path983"
       inkscape:connector-curvature="0"
       sodipodi:nodetypes="ccccc" />
    <path
       sodipodi:nodetypes="ccccc"
       inkscape:connector-curvature="0"
       id="path985"
       d="m -142.76286,189.60433 -0.0433,-8.27332 c 0.64817,0.81892 1.91472,0.81257 2.55563,0 v 8.27332 c -0.68343,1.10772 -1.89556,1.07649 -2.51231,0 z"
       style="fill:none;stroke:#000000;stroke-width:0.26458332px;stroke-linecap:butt;stroke-linejoin:miter;stroke-opacity:1" />
    <path
       style="fill:none;stroke:#000000;stroke-width:0.26458332px;stroke-linecap:butt;stroke-linejoin:miter;stroke-opacity:1"
       d="m -142.76286,180.66078 -0.0433,-7.91049 h 2.55563 v 7.91049 c -0.68343,1.10772 -1.89556,1.07649 -2.51231,0 z"
       id="path987"
       inkscape:connector-curvature="0"
       sodipodi:nodetypes="ccccc" />
    <path
       sodipodi:nodetypes="ccccc"
       id="path989"
       d="m -133.81129,196.25741 0.0429,6.01894 h 1.23299 v -5.40709 c -0.47623,-5.3e-4 -0.95285,-0.20371 -1.27589,-0.61185 z"
       style="fill:none;stroke:#000000;stroke-width:0.26458332px;stroke-linecap:butt;stroke-linejoin:miter;stroke-opacity:1"
       inkscape:connector-curvature="0" />
    <path
       sodipodi:nodetypes="ccccc"
       id="path991"
       d="m -133.81129,178.43167 0.0429,8.24277 c 0.30871,0.53884 0.76691,0.81576 1.23299,0.81907 v -8.44999 c -0.47623,-5.3e-4 -0.95285,-0.20372 -1.27589,-0.61185 z"
       style="fill:none;stroke:#000000;stroke-width:0.26458332px;stroke-linecap:butt;stroke-linejoin:miter;stroke-opacity:1"
       inkscape:connector-curvature="0" />
    <path
       sodipodi:nodetypes="ccccc"
       id="path993"
       d="m -133.81129,172.7505 0.0429,5.01107 c 0.30871,0.53884 0.76691,0.81576 1.23299,0.81907 v -5.83014 z"
       style="fill:none;stroke:#000000;stroke-width:0.26458332px;stroke-linecap:butt;stroke-linejoin:miter;stroke-opacity:1"
       inkscape:connector-curvature="0" />
    <path
       sodipodi:nodetypes="ccccc"
       inkscape:connector-curvature="0"
       id="path1003"
       d="m -136.78041,198.56953 -0.0433,-8.27331 c 0.64816,0.81891 1.91471,0.81257 2.55563,0 v 8.27331 c -0.68343,1.10772 -1.89557,1.0765 -2.51232,0 z"
       style="fill:none;stroke:#000000;stroke-width:0.26458332px;stroke-linecap:butt;stroke-linejoin:miter;stroke-opacity:1" />
    <path
       style="fill:none;stroke:#000000;stroke-width:0.26458332px;stroke-linecap:butt;stroke-linejoin:miter;stroke-opacity:1"
       d="m -142.76286,198.56953 -0.0433,-8.27331 c 0.64817,0.81891 1.91472,0.81257 2.55563,0 v 8.27331 c -0.68343,1.10772 -1.89556,1.0765 -2.51231,0 z"
       id="path1005"
       inkscape:connector-curvature="0"
       sodipodi:nodetypes="ccccc" />
    <path
       style="fill:none;stroke:#000000;stroke-width:0.26458332px;stroke-linecap:butt;stroke-linejoin:miter;stroke-opacity:1"
       d="m -139.77163,195.5783 -0.0433,-8.24268 c 0.64817,0.81891 1.91472,0.81257 2.55563,0 v 8.24268 c -0.68343,1.10772 -1.89557,1.07649 -2.51231,0 z"
       id="path1007"
       inkscape:connector-curvature="0"
       sodipodi:nodetypes="ccccc" />
    <path
       inkscape:connector-curvature="0"
       style="fill:none;stroke:#000000;stroke-width:0.26458332px;stroke-linecap:butt;stroke-linejoin:miter;stroke-opacity:1"
       d="m -133.81129,187.33562 0.0429,8.24276 c 0.30871,0.53884 0.76691,0.81577 1.23299,0.81907 v -8.44998 c -0.47623,-5.3e-4 -0.95285,-0.20372 -1.27589,-0.61185 z"
       id="path1009"
       sodipodi:nodetypes="ccccc" />
    <path
       sodipodi:nodetypes="ccccc"
       id="path989-3"
       d="m -143.2106,196.25741 -0.0429,6.01894 h -1.23299 v -5.40709 c 0.47623,-5.3e-4 0.95285,-0.20371 1.27589,-0.61185 z"
       style="fill:none;stroke:#000000;stroke-width:0.26458332px;stroke-linecap:butt;stroke-linejoin:miter;stroke-opacity:1"
       inkscape:connector-curvature="0" />
    <path
       sodipodi:nodetypes="ccccc"
       id="path991-6"
       d="m -143.2106,178.43167 -0.0429,8.24277 c -0.30871,0.53884 -0.76691,0.81576 -1.23299,0.81907 v -8.44999 c 0.47623,-5.3e-4 0.95285,-0.20372 1.27589,-0.61185 z"
       style="fill:none;stroke:#000000;stroke-width:0.26458332px;stroke-linecap:butt;stroke-linejoin:miter;stroke-opacity:1"
       inkscape:connector-curvature="0" />
    <path
       sodipodi:nodetypes="ccccc"
       id="path993-7"
       d="m -143.2106,172.7505 -0.0429,5.01107 c -0.30871,0.53884 -0.76691,0.81576 -1.23299,0.81907 v -5.83014 z"
       style="fill:none;stroke:#000000;stroke-width:0.26458332px;stroke-linecap:butt;stroke-linejoin:miter;stroke-opacity:1"
       inkscape:connector-curvature="0" />
    <path
       inkscape:connector-curvature="0"
       style="fill:none;stroke:#000000;stroke-width:0.26458332px;stroke-linecap:butt;stroke-linejoin:miter;stroke-opacity:1"
       d="m -143.2106,187.33562 -0.0429,8.24276 c -0.30871,0.53884 -0.76691,0.81577 -1.23299,0.81907 v -8.44998 c 0.47623,-5.3e-4 0.95285,-0.20372 1.27589,-0.61185 z"
       id="path1009-5"
       sodipodi:nodetypes="ccccc" />
  </g>
</svg>
