<?xml version="1.0" encoding="UTF-8" standalone="no"?>
<!-- Created with Inkscape (http://www.inkscape.org/) -->

<svg
   xmlns:dc="http://purl.org/dc/elements/1.1/"
   xmlns:cc="http://creativecommons.org/ns#"
   xmlns:rdf="http://www.w3.org/1999/02/22-rdf-syntax-ns#"
   xmlns:svg="http://www.w3.org/2000/svg"
   xmlns="http://www.w3.org/2000/svg"
   xmlns:sodipodi="http://sodipodi.sourceforge.net/DTD/sodipodi-0.dtd"
   xmlns:inkscape="http://www.inkscape.org/namespaces/inkscape"
   width="24.261023mm"
   height="54.053783mm"
   viewBox="0 0 24.261023 54.053783"
   version="1.1"
   id="svg1229"
   inkscape:version="0.92.2 2405546, 2018-03-11"
   sodipodi:docname="arches_3.svg">
  <defs
     id="defs1223" />
  <sodipodi:namedview
     id="base"
     pagecolor="#ffffff"
     bordercolor="#666666"
     borderopacity="1.0"
     inkscape:pageopacity="0.0"
     inkscape:pageshadow="2"
     inkscape:zoom="1.979899"
     inkscape:cx="58.48176"
     inkscape:cy="172.39868"
     inkscape:document-units="mm"
     inkscape:current-layer="layer1"
     showgrid="false"
     fit-margin-top="0"
     fit-margin-left="0"
     fit-margin-right="0"
     fit-margin-bottom="0"
     inkscape:window-width="1920"
     inkscape:window-height="1056"
     inkscape:window-x="1080"
     inkscape:window-y="436"
     inkscape:window-maximized="1" />
  <metadata
     id="metadata1226">
    <rdf:RDF>
      <cc:Work
         rdf:about="">
        <dc:format>image/svg+xml</dc:format>
        <dc:type
           rdf:resource="http://purl.org/dc/dcmitype/StillImage" />
        <dc:title></dc:title>
      </cc:Work>
    </rdf:RDF>
  </metadata>
  <g
     inkscape:label="Calque 1"
     inkscape:groupmode="layer"
     id="layer1"
     transform="translate(156.66401,-160.59184)">
    <path
       style="fill:none;stroke:#000000;stroke-width:0.26458332px;stroke-linecap:butt;stroke-linejoin:miter;stroke-opacity:1"
       d="m -148.77798,172.75029 -0.0433,3.00564 c 0.64816,-0.81891 1.91471,-0.81257 2.55563,0 v -3.00564 z"
       id="path929"
       inkscape:connector-curvature="0"
       sodipodi:nodetypes="ccccc" />
    <path
       sodipodi:nodetypes="ccccc"
       inkscape:connector-curvature="0"
       id="path931"
       d="m -148.77798,185.42249 -0.0433,8.27331 c 0.64816,-0.81891 1.91471,-0.81257 2.55563,0 v -8.27331 c -0.68343,-1.10772 -1.89557,-1.0765 -2.51232,0 z"
       style="fill:none;stroke:#000000;stroke-width:0.26458332px;stroke-linecap:butt;stroke-linejoin:miter;stroke-opacity:1" />
    <path
       style="fill:none;stroke:#000000;stroke-width:0.26458332px;stroke-linecap:butt;stroke-linejoin:miter;stroke-opacity:1"
       d="m -148.77798,194.36604 -0.0433,7.91049 h 2.55563 v -7.91049 c -0.68343,-1.10772 -1.89557,-1.0765 -2.51232,0 z"
       id="path933"
       inkscape:connector-curvature="0"
       sodipodi:nodetypes="ccccc" />
    <path
       sodipodi:nodetypes="ccccc"
       inkscape:connector-curvature="0"
       id="path935"
       d="m -151.76921,172.75029 -0.0433,6.01902 c 0.64817,-0.81892 1.91472,-0.81257 2.55563,0 v -6.01902 z"
       style="fill:none;stroke:#000000;stroke-width:0.26458332px;stroke-linecap:butt;stroke-linejoin:miter;stroke-opacity:1" />
    <path
       style="fill:none;stroke:#000000;stroke-width:0.26458332px;stroke-linecap:butt;stroke-linejoin:miter;stroke-opacity:1"
       d="m -151.76921,188.35246 -0.0433,8.24269 c 0.64817,-0.81892 1.91472,-0.81257 2.55563,0 v -8.24269 c -0.68343,-1.10772 -1.89557,-1.07649 -2.51232,0 z"
       id="path937"
       inkscape:connector-curvature="0"
       sodipodi:nodetypes="ccccc" />
    <path
       sodipodi:nodetypes="ccccc"
       inkscape:connector-curvature="0"
       id="path939"
       d="m -151.76921,197.26538 -0.0433,5.01115 h 2.55563 v -5.01115 c -0.68343,-1.10772 -1.89557,-1.0765 -2.51232,0 z"
       style="fill:none;stroke:#000000;stroke-width:0.26458332px;stroke-linecap:butt;stroke-linejoin:miter;stroke-opacity:1" />
    <path
       sodipodi:nodetypes="ccccc"
       inkscape:connector-curvature="0"
       id="path941"
       d="m -154.76043,172.75029 -0.0433,3.00564 c 0.64817,-0.81891 1.91472,-0.81257 2.55563,0 v -3.00564 z"
       style="fill:none;stroke:#000000;stroke-width:0.26458332px;stroke-linecap:butt;stroke-linejoin:miter;stroke-opacity:1" />
    <path
       style="fill:none;stroke:#000000;stroke-width:0.26458332px;stroke-linecap:butt;stroke-linejoin:miter;stroke-opacity:1"
       d="m -154.76043,185.42249 -0.0433,8.27331 c 0.64817,-0.81891 1.91472,-0.81257 2.55563,0 v -8.27331 c -0.68343,-1.10772 -1.89556,-1.0765 -2.51231,0 z"
       id="path943"
       inkscape:connector-curvature="0"
       sodipodi:nodetypes="ccccc" />
    <path
       sodipodi:nodetypes="ccccc"
       inkscape:connector-curvature="0"
       id="path945"
       d="m -154.76043,194.36604 -0.0433,7.91049 h 2.55563 v -7.91049 c -0.68343,-1.10772 -1.89556,-1.0765 -2.51231,0 z"
       style="fill:none;stroke:#000000;stroke-width:0.26458332px;stroke-linecap:butt;stroke-linejoin:miter;stroke-opacity:1" />
    <path
       inkscape:connector-curvature="0"
       style="fill:none;stroke:#000000;stroke-width:0.26458332px;stroke-linecap:butt;stroke-linejoin:miter;stroke-opacity:1"
       d="m -144.63374,160.72436 v 12.02614 h -1.13223 l -0.0429,6.01876 c 0.2679,-0.33848 0.64167,-0.53384 1.03301,-0.5917 v 0.48162 c -0.37862,0.0815 -0.73546,0.34461 -0.99012,0.7891 l -0.0429,8.24291 c 0.2679,-0.33847 0.64167,-0.53383 1.03301,-0.59169 v 0.46353 c -0.37862,0.0815 -0.73546,0.34461 -0.99012,0.7891 l -0.0429,8.24291 c 0.2679,-0.33848 0.64167,-0.53383 1.03301,-0.59169 v 0.47283 c -0.37862,0.0815 -0.73546,0.34461 -0.99012,0.7891 l -0.0429,5.01107 h 1.27589 1.27951 v -6.01876 c -0.25596,0.32451 -0.61183,0.51794 -0.98805,0.58395 v -0.48059 c 0.36557,-0.088 0.71814,-0.3449 0.98805,-0.78239 v -8.2429 c -0.25596,0.3245 -0.61183,0.51794 -0.98805,0.58394 v -0.46302 c 0.36557,-0.088 0.71814,-0.34491 0.98805,-0.78238 v -8.24239 c -0.25596,0.32451 -0.61183,0.51794 -0.98805,0.58394 v -0.4718 c 0.36557,-0.088 0.71814,-0.3449 0.98805,-0.78239 v -5.01106 h -1.01234 v -12.02614 h -0.26717 -0.001 z"
       id="path947" />
    <path
       inkscape:connector-curvature="0"
       style="fill:none;stroke:#000000;stroke-width:0.26458332px;stroke-linecap:butt;stroke-linejoin:miter;stroke-opacity:1"
       d="m -155.25117,178.7694 c -0.32174,-0.4079 -0.80087,-0.61216 -1.28055,-0.61133 v -5.4076 h 1.28055 z"
       id="path953"
       sodipodi:nodetypes="ccccc" />
    <path
       inkscape:connector-curvature="0"
       style="fill:none;stroke:#000000;stroke-width:0.26458332px;stroke-linecap:butt;stroke-linejoin:miter;stroke-opacity:1"
       d="m -155.25117,196.59514 c -0.32174,-0.4079 -0.80087,-0.61216 -1.28055,-0.61133 v -8.4505 c 0.46539,-0.004 0.93896,0.26541 1.28055,0.81907 z"
       id="path955"
       sodipodi:nodetypes="ccccc" />
    <path
       inkscape:connector-curvature="0"
       style="fill:none;stroke:#000000;stroke-width:0.26458332px;stroke-linecap:butt;stroke-linejoin:miter;stroke-opacity:1"
       d="m -156.53172,202.27631 v -5.83013 c 0.46539,-0.004 0.93896,0.26541 1.28055,0.81907 v 5.01106 z"
       id="path957"
       sodipodi:nodetypes="ccccc" />
    <path
       style="fill:none;fill-opacity:1;stroke:#260704;stroke-width:0.26458332;stroke-linecap:round;stroke-miterlimit:4;stroke-dasharray:none;stroke-dashoffset:0;stroke-opacity:1"
       d="m -156.53172,160.72413 v 53.7892 h 11.99772 0.001 11.99772 v -53.7892 h -11.99772 -0.001 z"
       id="rect959"
       inkscape:connector-curvature="0"
       sodipodi:nodetypes="ccccccccc" />
    <path
       style="fill:none;stroke:#000000;stroke-width:0.26458332px;stroke-linecap:butt;stroke-linejoin:miter;stroke-opacity:1"
       d="m -148.77798,176.45728 -0.0433,8.27332 c 0.64816,-0.81892 1.91471,-0.81257 2.55563,0 v -8.27332 c -0.68343,-1.10772 -1.89557,-1.07649 -2.51232,0 z"
       id="path961"
       inkscape:connector-curvature="0"
       sodipodi:nodetypes="ccccc" />
    <path
       sodipodi:nodetypes="ccccc"
       inkscape:connector-curvature="0"
       id="path963"
       d="m -154.76043,176.45728 -0.0433,8.27332 c 0.64817,-0.81892 1.91472,-0.81257 2.55563,0 v -8.27332 c -0.68343,-1.10772 -1.89556,-1.07649 -2.51231,0 z"
       style="fill:none;stroke:#000000;stroke-width:0.26458332px;stroke-linecap:butt;stroke-linejoin:miter;stroke-opacity:1" />
    <path
       sodipodi:nodetypes="ccccc"
       inkscape:connector-curvature="0"
       id="path965"
       d="m -151.76921,179.44851 -0.0433,8.24269 c 0.64817,-0.81892 1.91472,-0.81257 2.55563,0 v -8.24269 c -0.68343,-1.10772 -1.89557,-1.07649 -2.51232,0 z"
       style="fill:none;stroke:#000000;stroke-width:0.26458332px;stroke-linecap:butt;stroke-linejoin:miter;stroke-opacity:1" />
    <path
       sodipodi:nodetypes="ccccc"
       id="path969"
       d="m -155.25117,187.6912 c -0.32174,-0.40791 -0.80087,-0.61217 -1.28055,-0.61134 v -8.4505 c 0.46539,-0.004 0.93896,0.26542 1.28055,0.81907 z"
       style="fill:none;stroke:#000000;stroke-width:0.26458332px;stroke-linecap:butt;stroke-linejoin:miter;stroke-opacity:1"
       inkscape:connector-curvature="0" />
    <path
       sodipodi:nodetypes="ccccc"
       inkscape:connector-curvature="0"
       id="path971"
       d="m -136.78041,202.27653 -0.0433,-3.00565 c 0.64816,0.81892 1.91471,0.81257 2.55563,0 v 3.00565 z"
       style="fill:none;stroke:#000000;stroke-width:0.26458332px;stroke-linecap:butt;stroke-linejoin:miter;stroke-opacity:1" />
    <path
       style="fill:none;stroke:#000000;stroke-width:0.26458332px;stroke-linecap:butt;stroke-linejoin:miter;stroke-opacity:1"
       d="m -136.78041,189.60433 -0.0433,-8.27332 c 0.64816,0.81892 1.91471,0.81257 2.55563,0 v 8.27332 c -0.68343,1.10772 -1.89557,1.07649 -2.51232,0 z"
       id="path973"
       inkscape:connector-curvature="0"
       sodipodi:nodetypes="ccccc" />
    <path
       sodipodi:nodetypes="ccccc"
       inkscape:connector-curvature="0"
       id="path975"
       d="m -136.78041,180.66078 -0.0433,-7.91049 h 2.55563 v 7.91049 c -0.68343,1.10772 -1.89557,1.07649 -2.51232,0 z"
       style="fill:none;stroke:#000000;stroke-width:0.26458332px;stroke-linecap:butt;stroke-linejoin:miter;stroke-opacity:1" />
    <path
       style="fill:none;stroke:#000000;stroke-width:0.26458332px;stroke-linecap:butt;stroke-linejoin:miter;stroke-opacity:1"
       d="m -139.77163,202.27653 -0.0433,-6.01903 c 0.64817,0.81892 1.91472,0.81257 2.55563,0 v 6.01903 z"
       id="path977"
       inkscape:connector-curvature="0"
       sodipodi:nodetypes="ccccc" />
    <path
       sodipodi:nodetypes="ccccc"
       inkscape:connector-curvature="0"
       id="path979"
       d="m -139.77163,186.67435 -0.0433,-8.24268 c 0.64817,0.81891 1.91472,0.81257 2.55563,0 v 8.24268 c -0.68343,1.10772 -1.89557,1.0765 -2.51231,0 z"
       style="fill:none;stroke:#000000;stroke-width:0.26458332px;stroke-linecap:butt;stroke-linejoin:miter;stroke-opacity:1" />
    <path
       style="fill:none;stroke:#000000;stroke-width:0.26458332px;stroke-linecap:butt;stroke-linejoin:miter;stroke-opacity:1"
       d="m -139.77163,177.76144 -0.0433,-5.01115 h 2.55563 v 5.01115 c -0.68343,1.10772 -1.89557,1.07649 -2.51231,0 z"
       id="path981"
       inkscape:connector-curvature="0"
       sodipodi:nodetypes="ccccc" />
    <path
       style="fill:none;stroke:#000000;stroke-width:0.26458332px;stroke-linecap:butt;stroke-linejoin:miter;stroke-opacity:1"
       d="m -142.76286,202.27653 -0.0433,-3.00565 c 0.64817,0.81892 1.91472,0.81257 2.55563,0 v 3.00565 z"
       id="path983"
       inkscape:connector-curvature="0"
       sodipodi:nodetypes="ccccc" />
    <path
       sodipodi:nodetypes="ccccc"
       inkscape:connector-curvature="0"
       id="path985"
       d="m -142.76286,189.60433 -0.0433,-8.27332 c 0.64817,0.81892 1.91472,0.81257 2.55563,0 v 8.27332 c -0.68343,1.10772 -1.89556,1.07649 -2.51231,0 z"
       style="fill:none;stroke:#000000;stroke-width:0.26458332px;stroke-linecap:butt;stroke-linejoin:miter;stroke-opacity:1" />
    <path
       style="fill:none;stroke:#000000;stroke-width:0.26458332px;stroke-linecap:butt;stroke-linejoin:miter;stroke-opacity:1"
       d="m -142.76286,180.66078 -0.0433,-7.91049 h 2.55563 v 7.91049 c -0.68343,1.10772 -1.89556,1.07649 -2.51231,0 z"
       id="path987"
       inkscape:connector-curvature="0"
       sodipodi:nodetypes="ccccc" />
    <path
       sodipodi:nodetypes="ccccc"
       id="path989"
       d="m -133.81129,196.25741 0.0429,6.01894 h 1.23299 v -5.40709 c -0.47623,-5.3e-4 -0.95285,-0.20371 -1.27589,-0.61185 z"
       style="fill:none;stroke:#000000;stroke-width:0.26458332px;stroke-linecap:butt;stroke-linejoin:miter;stroke-opacity:1"
       inkscape:connector-curvature="0" />
    <path
       sodipodi:nodetypes="ccccc"
       id="path991"
       d="m -133.81129,178.43167 0.0429,8.24277 c 0.30871,0.53884 0.76691,0.81576 1.23299,0.81907 v -8.44999 c -0.47623,-5.3e-4 -0.95285,-0.20372 -1.27589,-0.61185 z"
       style="fill:none;stroke:#000000;stroke-width:0.26458332px;stroke-linecap:butt;stroke-linejoin:miter;stroke-opacity:1"
       inkscape:connector-curvature="0" />
    <path
       sodipodi:nodetypes="ccccc"
       id="path993"
       d="m -133.81129,172.7505 0.0429,5.01107 c 0.30871,0.53884 0.76691,0.81576 1.23299,0.81907 v -5.83014 z"
       style="fill:none;stroke:#000000;stroke-width:0.26458332px;stroke-linecap:butt;stroke-linejoin:miter;stroke-opacity:1"
       inkscape:connector-curvature="0" />
    <path
       sodipodi:nodetypes="ccccc"
       inkscape:connector-curvature="0"
       id="path1003"
       d="m -136.78041,198.56953 -0.0433,-8.27331 c 0.64816,0.81891 1.91471,0.81257 2.55563,0 v 8.27331 c -0.68343,1.10772 -1.89557,1.0765 -2.51232,0 z"
       style="fill:none;stroke:#000000;stroke-width:0.26458332px;stroke-linecap:butt;stroke-linejoin:miter;stroke-opacity:1" />
    <path
       style="fill:none;stroke:#000000;stroke-width:0.26458332px;stroke-linecap:butt;stroke-linejoin:miter;stroke-opacity:1"
       d="m -142.76286,198.56953 -0.0433,-8.27331 c 0.64817,0.81891 1.91472,0.81257 2.55563,0 v 8.27331 c -0.68343,1.10772 -1.89556,1.0765 -2.51231,0 z"
       id="path1005"
       inkscape:connector-curvature="0"
       sodipodi:nodetypes="ccccc" />
    <path
       style="fill:none;stroke:#000000;stroke-width:0.26458332px;stroke-linecap:butt;stroke-linejoin:miter;stroke-opacity:1"
       d="m -139.77163,195.5783 -0.0433,-8.24268 c 0.64817,0.81891 1.91472,0.81257 2.55563,0 v 8.24268 c -0.68343,1.10772 -1.89557,1.07649 -2.51231,0 z"
       id="path1007"
       inkscape:connector-curvature="0"
       sodipodi:nodetypes="ccccc" />
    <path
       inkscape:connector-curvature="0"
       style="fill:none;stroke:#000000;stroke-width:0.26458332px;stroke-linecap:butt;stroke-linejoin:miter;stroke-opacity:1"
       d="m -133.81129,187.33562 0.0429,8.24276 c 0.30871,0.53884 0.76691,0.81577 1.23299,0.81907 v -8.44998 c -0.47623,-5.3e-4 -0.95285,-0.20372 -1.27589,-0.61185 z"
       id="path1009"
       sodipodi:nodetypes="ccccc" />
  </g>
</svg>
