999
dxfrw 0.6.3
  0
SECTION
  2
HEADER
  9
$ACADVER
  1
AC1021
  9
$DWGCODEPAGE
  3
ANSI_1252
  9
$INSBASE
 10
0
 20
0
 30
0
  9
$EXTMIN
 10
-2674481.74588415
 20
-10553507.76318175
 30
0
  9
$EXTMAX
 10
-1274481.74588415
 20
-9523492.236818502
 30
0
  9
$LIMMIN
 10
0
 20
0
  9
$LIMMAX
 10
12
 20
9
  9
$ORTHOMODE
 70
    0
  9
$REGENMODE
 70
    1
  9
$FILLMODE
 70
    1
  9
$QTEXTMODE
 70
    0
  9
$MIRRTEXT
 70
    1
  9
$LTSCALE
 40
1
  9
$ATTMODE
 70
    1
  9
$TEXTSIZE
 40
0.2
  9
$TRACEWID
 40
0.05
  9
$TEXTSTYLE
  7
Standard
  9
$CLAYER
  8
Microcanaux 3um hauteur
  9
$CELTYPE
  6
ByLayer
  9
$CECOLOR
 62
  256
  9
$CELTSCALE
 40
1
  9
$DISPSILH
 70
    0
  9
$DIMSCALE
 40
1
  9
$DIMASZ
 40
2.5
  9
$DIMEXO
 40
0.625
  9
$DIMDLI
 40
0.38
  9
$DIMRND
 40
0
  9
$DIMDLE
 40
0
  9
$DIMEXE
 40
1.25
  9
$DIMTP
 40
0
  9
$DIMTM
 40
0
  9
$DIMTXT
 40
2.5
  9
$DIMCEN
 40
0.09
  9
$DIMTSZ
 40
0
  9
$DIMTOL
 70
    0
  9
$DIMLIM
 70
    0
  9
$DIMTIH
 70
    1
  9
$DIMTOH
 70
    1
  9
$DIMSE1
 70
    0
  9
$DIMSE2
 70
    0
  9
$DIMTAD
 70
    0
  9
$DIMZIN
 70
    8
  9
$DIMBLK
  1

  9
$DIMASO
 70
    1
  9
$DIMSHO
 70
    1
  9
$DIMPOST
  1

  9
$DIMAPOST
  1

  9
$DIMALT
 70
    0
  9
$DIMALTD
 70
    2
  9
$DIMALTF
 40
25.4
  9
$DIMLFAC
 40
1
  9
$DIMTOFL
 70
    0
  9
$DIMTVP
 40
0
  9
$DIMTIX
 70
    0
  9
$DIMSOXD
 70
    0
  9
$DIMSAH
 70
    0
  9
$DIMBLK1
  1

  9
$DIMBLK2
  1

  9
$DIMSTYLE
  2
Standard
  9
$DIMCLRD
 70
    0
  9
$DIMCLRE
 70
    0
  9
$DIMCLRT
 70
    0
  9
$DIMTFAC
 40
1
  9
$DIMGAP
 40
0.625
  9
$DIMJUST
 70
    0
  9
$DIMSD1
 70
    0
  9
$DIMSD2
 70
    0
  9
$DIMTOLJ
 70
    1
  9
$DIMTZIN
 70
    0
  9
$DIMALTZ
 70
    0
  9
$DIMALTTZ
 70
    0
  9
$DIMUPT
 70
    0
  9
$DIMDEC
 70
    4
  9
$DIMTDEC
 70
    4
  9
$DIMALTU
 70
    2
  9
$DIMALTTD
 70
    2
  9
$DIMTXSTY
  7
Standard
  9
$DIMAUNIT
 70
    0
  9
$DIMADEC
 70
    0
  9
$DIMALTRND
 40
0
  9
$DIMAZIN
 70
    2
  9
$DIMDSEP
 70
   46
  9
$DIMATFIT
 70
    3
  9
$DIMFRAC
 70
    0
  9
$DIMLDRBLK
  1

  9
$DIMLUNIT
 70
    2
  9
$DIMLWD
 70
   -2
  9
$DIMLWE
 70
   -2
  9
$DIMTMOVE
 70
    0
  9
$DIMFXL
 40
1
  9
$DIMFXLON
 70
    0
  9
$DIMJOGANG
 40
0.7853981633974483
  9
$DIMTFILL
 70
    0
  9
$DIMTFILLCLR
 70
    0
  9
$DIMARCSYM
 70
    0
  9
$DIMLTYPE
  6

  9
$DIMLTEX1
  6

  9
$DIMLTEX2
  6

  9
$LUNITS
 70
    2
  9
$LUPREC
 70
    4
  9
$SKETCHINC
 40
0.1
  9
$FILLETRAD
 40
0.5
  9
$AUNITS
 70
    0
  9
$AUPREC
 70
    0
  9
$MENU
  1
.
  9
$ELEVATION
 40
0
  9
$PELEVATION
 40
0
  9
$THICKNESS
 40
0
  9
$LIMCHECK
 70
    0
  9
$CHAMFERA
 40
0
  9
$CHAMFERB
 40
0
  9
$CHAMFERC
 40
0
  9
$CHAMFERD
 40
0
  9
$SKPOLY
 70
    0
  9
$USRTIMER
 70
    1
  9
$ANGBASE
 50
0
  9
$ANGDIR
 70
    0
  9
$PDMODE
 70
    0
  9
$PDSIZE
 40
0
  9
$PLINEWID
 40
0
  9
$SPLFRAME
 70
    0
  9
$SPLINETYPE
 70
    6
  9
$SPLINESEGS
 70
    8
  9
$HANDSEED
  5
20000
  9
$SURFTAB1
 70
    6
  9
$SURFTAB2
 70
    6
  9
$SURFTYPE
 70
    6
  9
$SURFU
 70
    6
  9
$SURFV
 70
    6
  9
$UCSBASE
  2

  9
$UCSNAME
  2

  9
$UCSORG
 10
0
 20
0
 30
0
  9
$UCSXDIR
 10
1
 20
0
 30
0
  9
$UCSYDIR
 10
0
 20
1
 30
0
  9
$UCSORTHOREF
  2

  9
$UCSORTHOVIEW
 70
    0
  9
$UCSORGTOP
 10
0
 20
0
 30
0
  9
$UCSORGBOTTOM
 10
0
 20
0
 30
0
  9
$UCSORGLEFT
 10
0
 20
0
 30
0
  9
$UCSORGRIGHT
 10
0
 20
0
 30
0
  9
$UCSORGFRONT
 10
0
 20
0
 30
0
  9
$UCSORGBACK
 10
0
 20
0
 30
0
  9
$PUCSBASE
  2

  9
$PUCSNAME
  2

  9
$PUCSORG
 10
0
 20
0
 30
0
  9
$PUCSXDIR
 10
1
 20
0
 30
0
  9
$PUCSYDIR
 10
0
 20
1
 30
0
  9
$PUCSORTHOREF
  2

  9
$PUCSORTHOVIEW
 70
    0
  9
$PUCSORGTOP
 10
0
 20
0
 30
0
  9
$PUCSORGBOTTOM
 10
0
 20
0
 30
0
  9
$PUCSORGLEFT
 10
0
 20
0
 30
0
  9
$PUCSORGRIGHT
 10
0
 20
0
 30
0
  9
$PUCSORGFRONT
 10
0
 20
0
 30
0
  9
$PUCSORGBACK
 10
0
 20
0
 30
0
  9
$USERI1
 70
    0
  9
$USERI2
 70
    0
  9
$USERI3
 70
    0
  9
$USERI4
 70
    0
  9
$USERI5
 70
    0
  9
$USERR1
 40
0
  9
$USERR2
 40
0
  9
$USERR3
 40
0
  9
$USERR4
 40
0
  9
$USERR5
 40
0
  9
$WORLDVIEW
 70
    1
  9
$SHADEDGE
 70
    3
  9
$SHADEDIF
 70
   70
  9
$TILEMODE
 70
    1
  9
$MAXACTVP
 70
   64
  9
$PINSBASE
 10
0
 20
0
 30
0
  9
$PLIMCHECK
 70
    0
  9
$PEXTMIN
 10
0
 20
0
 30
0
  9
$PEXTMAX
 10
0
 20
0
 30
0
  9
$GRIDMODE
 70
    0
  9
$SNAPSTYLE
 70
    0
  9
$PLIMMIN
 10
-0.25
 20
-0.25
  9
$PLIMMAX
 10
10.75
 20
8.25
  9
$UNITMODE
 70
    0
  9
$VISRETAIN
 70
    1
  9
$PLINEGEN
 70
    0
  9
$PSLTSCALE
 70
    1
  9
$TREEDEPTH
 70
 3020
  9
$CMLSTYLE
  2
Standard
  9
$CMLJUST
 70
    0
  9
$CMLSCALE
 40
1
  9
$PROXYGRAPHICS
 70
    1
  9
$MEASUREMENT
 70
    0
  9
$CELWEIGHT
370
   -1
  9
$ENDCAPS
280
    0
  9
$JOINSTYLE
280
    0
  9
$LWDISPLAY
290
    0
  9
$INSUNITS
 70
   13
  9
$HYPERLINKBASE
  1

  9
$STYLESHEET
  1

  9
$XEDIT
290
    1
  9
$CEPSNTYPE
380
    0
  9
$PSTYLEMODE
290
    1
  9
$EXTNAMES
290
    1
  9
$PSVPSCALE
 40
0
  9
$OLESTARTUP
290
    0
  9
$SORTENTS
280
  127
  9
$INDEXCTL
280
    0
  9
$HIDETEXT
280
    1
  9
$XCLIPFRAME
290
    2
  9
$HALOGAP
280
    0
  9
$OBSCOLOR
 70
  257
  9
$OBSLTYPE
280
    0
  9
$INTERSECTIONDISPLAY
280
    0
  9
$INTERSECTIONCOLOR
 70
  257
  9
$DIMASSOC
280
    2
  9
$PROJECTNAME
  1

  9
$CAMERADISPLAY
290
    0
  9
$LENSLENGTH
 40
50
  9
$CAMERAHEIGHT
 40
0
  9
$STEPSPERSEC
 40
2
  9
$STEPSIZE
 40
6
  9
$3DDWFPREC
 40
2
  9
$PSOLWIDTH
 40
0.25
  9
$PSOLHEIGHT
 40
4
  9
$LOFTANG1
 40
1.570796326794897
  9
$LOFTANG2
 40
1.570796326794897
  9
$LOFTMAG1
 40
0
  9
$LOFTMAG2
 40
0
  9
$LOFTPARAM
 70
    7
  9
$LOFTNORMALS
280
    1
  9
$LATITUDE
 40
37.795
  9
$LONGITUDE
 40
-122.394
  9
$NORTHDIRECTION
 40
0
  9
$TIMEZONE
 70
-8000
  9
$LIGHTGLYPHDISPLAY
280
    1
  9
$TILEMODELIGHTSYNCH
280
    1
  9
$SOLIDHIST
280
    0
  9
$SHOWHIST
280
    1
  9
$DWFFRAME
280
    2
  9
$DGNFRAME
280
    2
  9
$REALWORLDSCALE
290
    1
  9
$INTERFERECOLOR
 62
  256
  9
$CSHADOW
280
    0
  9
$SHADOWPLANELOCATION
 40
0
  0
ENDSEC
  0
SECTION
  2
CLASSES
  0
ENDSEC
  0
SECTION
  2
TABLES
  0
TABLE
  2
VPORT
  5
8
330
0
100
AcDbSymbolTable
 70
    1
  0
VPORT
  5
31
330
2
100
AcDbSymbolTableRecord
100
AcDbViewportTableRecord
  2
*ACTIVE
 70
    0
 10
0
 20
0
 11
1
 21
1
 12
-282463.1006834612
 22
-4719180.615476727
 13
0
 23
0
 14
10
 24
10
 15
10
 25
10
 16
0
 26
0
 36
1
 17
0
 27
0
 37
0
 40
1300148.996769091
 41
2.069269521410579
 42
50
 43
0
 44
0
 50
0
 51
0
 71
    0
 72
  100
 73
    1
 74
    3
 75
    0
 76
    0
 77
    0
 78
    0
281
    0
 65
    1
110
0
120
0
130
0
111
1
121
0
131
0
112
0
122
1
132
0
 79
    0
146
0
348
10020
 60
    7
 61
    5
292
1
282
    1
141
0
142
0
 63
  250
421
3358443
  0
ENDTAB
  0
TABLE
  2
LTYPE
  5
5
330
0
100
AcDbSymbolTable
 70
    4
  0
LTYPE
  5
14
330
5
100
AcDbSymbolTableRecord
100
AcDbLinetypeTableRecord
  2
ByBlock
 70
    0
  3

 72
   65
 73
    0
 40
0
  0
LTYPE
  5
15
330
5
100
AcDbSymbolTableRecord
100
AcDbLinetypeTableRecord
  2
ByLayer
 70
    0
  3

 72
   65
 73
    0
 40
0
  0
LTYPE
  5
16
330
5
100
AcDbSymbolTableRecord
100
AcDbLinetypeTableRecord
  2
Continuous
 70
    0
  3
Solid line
 72
   65
 73
    0
 40
0
  0
LTYPE
  5
32
330
5
100
AcDbSymbolTableRecord
100
AcDbLinetypeTableRecord
  2
DOT
 70
    0
  3
Dot . . . . . . . . . . . . . . . . . . . . . .
 72
   65
 73
    2
 40
6.35
 49
0
 74
    0
 49
-6.35
 74
    0
  0
LTYPE
  5
33
330
5
100
AcDbSymbolTableRecord
100
AcDbLinetypeTableRecord
  2
DOTTINY
 70
    0
  3
Dot (.15x) .....................................
 72
   65
 73
    2
 40
0.9525
 49
0
 74
    0
 49
-0.9525
 74
    0
  0
LTYPE
  5
34
330
5
100
AcDbSymbolTableRecord
100
AcDbLinetypeTableRecord
  2
DOT2
 70
    0
  3
Dot (.5x) .....................................
 72
   65
 73
    2
 40
3.175
 49
0
 74
    0
 49
-3.175
 74
    0
  0
LTYPE
  5
35
330
5
100
AcDbSymbolTableRecord
100
AcDbLinetypeTableRecord
  2
DOTX2
 70
    0
  3
Dot (2x) .  .  .  .  .  .  .  .  .  .  .  .  .
 72
   65
 73
    2
 40
12.7
 49
0
 74
    0
 49
-12.7
 74
    0
  0
LTYPE
  5
36
330
5
100
AcDbSymbolTableRecord
100
AcDbLinetypeTableRecord
  2
DASHED
 70
    0
  3
Dashed _ _ _ _ _ _ _ _ _ _ _ _ _ _ _ _ _
 72
   65
 73
    2
 40
19.05
 49
12.7
 74
    0
 49
-6.35
 74
    0
  0
LTYPE
  5
37
330
5
100
AcDbSymbolTableRecord
100
AcDbLinetypeTableRecord
  2
DASHEDTINY
 70
    0
  3
Dashed (.15x) _ _ _ _ _ _ _ _ _ _ _ _ _ _ _ _ _
 72
   65
 73
    2
 40
2.8575
 49
1.905
 74
    0
 49
-0.9525
 74
    0
  0
LTYPE
  5
38
330
5
100
AcDbSymbolTableRecord
100
AcDbLinetypeTableRecord
  2
DASHED2
 70
    0
  3
Dashed (.5x) _ _ _ _ _ _ _ _ _ _ _ _ _ _ _ _ _
 72
   65
 73
    2
 40
9.524999999999999
 49
6.35
 74
    0
 49
-3.175
 74
    0
  0
LTYPE
  5
39
330
5
100
AcDbSymbolTableRecord
100
AcDbLinetypeTableRecord
  2
DASHEDX2
 70
    0
  3
Dashed (2x) ____  ____  ____  ____  ____  ___
 72
   65
 73
    2
 40
38.09999999999999
 49
25.4
 74
    0
 49
-12.7
 74
    0
  0
LTYPE
  5
3A
330
5
100
AcDbSymbolTableRecord
100
AcDbLinetypeTableRecord
  2
DASHDOT
 70
    0
  3
Dash dot __ . __ . __ . __ . __ . __ . __ . __
 72
   65
 73
    4
 40
25.4
 49
12.7
 74
    0
 49
-6.35
 74
    0
 49
0
 74
    0
 49
-6.35
 74
    0
  0
LTYPE
  5
3B
330
5
100
AcDbSymbolTableRecord
100
AcDbLinetypeTableRecord
  2
DASHDOTTINY
 70
    0
  3
Dash dot (.15x) _._._._._._._._._._._._._._._.
 72
   65
 73
    4
 40
3.81
 49
1.905
 74
    0
 49
-0.9525
 74
    0
 49
0
 74
    0
 49
-0.9525
 74
    0
  0
LTYPE
  5
3C
330
5
100
AcDbSymbolTableRecord
100
AcDbLinetypeTableRecord
  2
DASHDOT2
 70
    0
  3
Dash dot (.5x) _._._._._._._._._._._._._._._.
 72
   65
 73
    4
 40
12.7
 49
6.35
 74
    0
 49
-3.175
 74
    0
 49
0
 74
    0
 49
-3.175
 74
    0
  0
LTYPE
  5
3D
330
5
100
AcDbSymbolTableRecord
100
AcDbLinetypeTableRecord
  2
DASHDOTX2
 70
    0
  3
Dash dot (2x) ____  .  ____  .  ____  .  ___
 72
   65
 73
    4
 40
50.8
 49
25.4
 74
    0
 49
-12.7
 74
    0
 49
0
 74
    0
 49
-12.7
 74
    0
  0
LTYPE
  5
3E
330
5
100
AcDbSymbolTableRecord
100
AcDbLinetypeTableRecord
  2
DIVIDE
 70
    0
  3
Divide ____ . . ____ . . ____ . . ____ . . ____
 72
   65
 73
    6
 40
31.75
 49
12.7
 74
    0
 49
-6.35
 74
    0
 49
0
 74
    0
 49
-6.35
 74
    0
 49
0
 74
    0
 49
-6.35
 74
    0
  0
LTYPE
  5
3F
330
5
100
AcDbSymbolTableRecord
100
AcDbLinetypeTableRecord
  2
DIVIDETINY
 70
    0
  3
Divide (.15x) __..__..__..__..__..__..__..__.._
 72
   65
 73
    6
 40
4.7625
 49
1.905
 74
    0
 49
-0.9525
 74
    0
 49
0
 74
    0
 49
-0.9525
 74
    0
 49
0
 74
    0
 49
-0.9525
 74
    0
  0
LTYPE
  5
40
330
5
100
AcDbSymbolTableRecord
100
AcDbLinetypeTableRecord
  2
DIVIDE2
 70
    0
  3
Divide (.5x) __..__..__..__..__..__..__..__.._
 72
   65
 73
    6
 40
15.875
 49
6.35
 74
    0
 49
-3.175
 74
    0
 49
0
 74
    0
 49
-3.175
 74
    0
 49
0
 74
    0
 49
-3.175
 74
    0
  0
LTYPE
  5
41
330
5
100
AcDbSymbolTableRecord
100
AcDbLinetypeTableRecord
  2
DIVIDEX2
 70
    0
  3
Divide (2x) ________  .  .  ________  .  .  _
 72
   65
 73
    6
 40
63.5
 49
25.4
 74
    0
 49
-12.7
 74
    0
 49
0
 74
    0
 49
-12.7
 74
    0
 49
0
 74
    0
 49
-12.7
 74
    0
  0
LTYPE
  5
42
330
5
100
AcDbSymbolTableRecord
100
AcDbLinetypeTableRecord
  2
BORDER
 70
    0
  3
Border __ __ . __ __ . __ __ . __ __ . __ __ .
 72
   65
 73
    6
 40
44.45
 49
12.7
 74
    0
 49
-6.35
 74
    0
 49
12.7
 74
    0
 49
-6.35
 74
    0
 49
0
 74
    0
 49
-6.35
 74
    0
  0
LTYPE
  5
43
330
5
100
AcDbSymbolTableRecord
100
AcDbLinetypeTableRecord
  2
BORDERTINY
 70
    0
  3
Border (.15x) __.__.__.__.__.__.__.__.__.__.__.
 72
   65
 73
    6
 40
6.6675
 49
1.905
 74
    0
 49
-0.9525
 74
    0
 49
1.905
 74
    0
 49
-0.9525
 74
    0
 49
0
 74
    0
 49
-0.9525
 74
    0
  0
LTYPE
  5
44
330
5
100
AcDbSymbolTableRecord
100
AcDbLinetypeTableRecord
  2
BORDER2
 70
    0
  3
Border (.5x) __.__.__.__.__.__.__.__.__.__.__.
 72
   65
 73
    6
 40
22.225
 49
6.35
 74
    0
 49
-3.175
 74
    0
 49
6.35
 74
    0
 49
-3.175
 74
    0
 49
0
 74
    0
 49
-3.175
 74
    0
  0
LTYPE
  5
45
330
5
100
AcDbSymbolTableRecord
100
AcDbLinetypeTableRecord
  2
BORDERX2
 70
    0
  3
Border (2x) ____  ____  .  ____  ____  .  ___
 72
   65
 73
    6
 40
88.89999999999999
 49
25.4
 74
    0
 49
-12.7
 74
    0
 49
25.4
 74
    0
 49
-12.7
 74
    0
 49
0
 74
    0
 49
-12.7
 74
    0
  0
LTYPE
  5
46
330
5
100
AcDbSymbolTableRecord
100
AcDbLinetypeTableRecord
  2
CENTER
 70
    0
  3
Center ____ _ ____ _ ____ _ ____ _ ____ _ ____
 72
   65
 73
    4
 40
50.8
 49
31.75
 74
    0
 49
-6.35
 74
    0
 49
6.35
 74
    0
 49
-6.35
 74
    0
  0
LTYPE
  5
47
330
5
100
AcDbSymbolTableRecord
100
AcDbLinetypeTableRecord
  2
CENTERTINY
 70
    0
  3
Center (.15x) ___ _ ___ _ ___ _ ___ _ ___ _ ___
 72
   65
 73
    4
 40
7.619999999999999
 49
4.7625
 74
    0
 49
-0.9525
 74
    0
 49
0.9525
 74
    0
 49
-0.9525
 74
    0
  0
LTYPE
  5
48
330
5
100
AcDbSymbolTableRecord
100
AcDbLinetypeTableRecord
  2
CENTER2
 70
    0
  3
Center (.5x) ___ _ ___ _ ___ _ ___ _ ___ _ ___
 72
   65
 73
    4
 40
28.575
 49
19.05
 74
    0
 49
-3.175
 74
    0
 49
3.175
 74
    0
 49
-3.175
 74
    0
  0
LTYPE
  5
49
330
5
100
AcDbSymbolTableRecord
100
AcDbLinetypeTableRecord
  2
CENTERX2
 70
    0
  3
Center (2x) ________  __  ________  __  _____
 72
   65
 73
    4
 40
101.6
 49
63.5
 74
    0
 49
-12.7
 74
    0
 49
12.7
 74
    0
 49
-12.7
 74
    0
  0
ENDTAB
  0
TABLE
  2
LAYER
  5
2
330
0
100
AcDbSymbolTable
 70
    1
  0
LAYER
  5
10
330
2
100
AcDbSymbolTableRecord
100
AcDbLayerTableRecord
  2
0
 70
    0
 62
    7
  6
CONTINUOUS
370
   -3
390
F
  0
LAYER
  5
4A
330
2
100
AcDbSymbolTableRecord
100
AcDbLayerTableRecord
  2
Chambre seeding 50um hauteur
 70
    0
 62
    3
  6
CONTINUOUS
370
   -3
390
F
  0
LAYER
  5
4B
330
2
100
AcDbSymbolTableRecord
100
AcDbLayerTableRecord
  2
Microcanaux 3um hauteur
 70
    0
 62
    1
  6
CONTINUOUS
370
   -3
390
F
  0
ENDTAB
  0
TABLE
  2
STYLE
  5
3
330
0
100
AcDbSymbolTable
 70
    3
  0
STYLE
  5
4C
330
2
100
AcDbSymbolTableRecord
100
AcDbTextStyleTableRecord
  2
Standard
 70
    0
 40
0
 41
1
 50
0
 71
    0
 42
1
  3
txt
  4

  0
ENDTAB
  0
TABLE
  2
VIEW
  5
6
330
0
100
AcDbSymbolTable
 70
    0
  0
ENDTAB
  0
TABLE
  2
UCS
  5
7
330
0
100
AcDbSymbolTable
 70
    0
  0
ENDTAB
  0
TABLE
  2
APPID
  5
9
330
0
100
AcDbSymbolTable
 70
    1
  0
APPID
  5
12
330
9
100
AcDbSymbolTableRecord
100
AcDbRegAppTableRecord
  2
ACAD
 70
    0
  0
APPID
  5
4D
330
9
100
AcDbSymbolTableRecord
100
AcDbRegAppTableRecord
  2
LibreCad
 70
    0
  0
ENDTAB
  0
TABLE
  2
DIMSTYLE
  5
A
330
0
100
AcDbSymbolTable
 70
    1
100
AcDbDimStyleTable
 71
    1
  0
DIMSTYLE
105
4E
330
A
100
AcDbSymbolTableRecord
100
AcDbDimStyleTableRecord
  2
Standard
 70
    0
 40
1
 41
2.5
 42
0.625
 43
0.38
 44
1.25
 45
0
 46
0
 47
0
 48
0
 49
1
140
2.5
141
0.09
142
0
143
25.4
144
1
145
0
146
1
147
0.625
148
0
 71
    0
 72
    0
 73
    1
 74
    1
 75
    0
 76
    0
 77
    0
 78
    8
 79
    2
170
    0
171
    2
172
    0
173
    0
174
    0
175
    0
176
    0
177
    0
178
    0
179
    0
271
    4
272
    4
273
    2
274
    2
275
    0
276
    0
277
    2
278
   46
279
    0
280
    0
281
    0
282
    0
283
    1
284
    0
285
    0
286
    0
288
    0
289
    3
340
Standard
341

371
   -2
372
   -2
  0
ENDTAB
  0
TABLE
  2
BLOCK_RECORD
  5
1
330
0
100
AcDbSymbolTable
 70
    2
  0
BLOCK_RECORD
  5
1F
330
1
100
AcDbSymbolTableRecord
100
AcDbBlockTableRecord
  2
*Model_Space
 70
    0
280
    1
281
    0
  0
BLOCK_RECORD
  5
1E
330
1
100
AcDbSymbolTableRecord
100
AcDbBlockTableRecord
  2
*Paper_Space
 70
    0
280
    1
281
    0
  0
ENDTAB
  0
ENDSEC
  0
SECTION
  2
BLOCKS
  0
BLOCK
  5
20
330
1F
100
AcDbEntity
  8
0
100
AcDbBlockBegin
  2
*Model_Space
 70
    0
 10
0
 20
0
 30
0
  3
*Model_Space
  1

  0
ENDBLK
  5
21
330
1F
100
AcDbEntity
  8
0
100
AcDbBlockEnd
  0
BLOCK
  5
1C
330
1B
100
AcDbEntity
  8
0
100
AcDbBlockBegin
  2
*Paper_Space
 70
    0
 10
0
 20
0
 30
0
  3
*Paper_Space
  1

  0
ENDBLK
  5
1D
330
1F
100
AcDbEntity
  8
0
100
AcDbBlockEnd
  0
ENDSEC
  0
SECTION
  2
ENTITIES
  0
ARC
  5
4F
100
AcDbEntity
  8
0
  6
ByLayer
 62
  256
370
   -1
100
AcDbCircle
 10
-2103632.008097067
 20
-9578500.000000117
 40
55000
100
AcDbArc
 50
90
 51
235.1292721811898
  0
ARC
  5
50
100
AcDbEntity
  8
0
  6
ByLayer
 62
  256
370
   -1
100
AcDbCircle
 10
-2103632.008097067
 20
-10498500.00000012
 40
55000
100
AcDbArc
 50
124.8707278188103
 51
270
  0
ARC
  5
51
100
AcDbEntity
  8
0
  6
ByLayer
 62
  256
370
   -1
100
AcDbCircle
 10
-1822289.813561183
 20
-10406500.00000012
 40
45000
100
AcDbArc
 50
90
 51
270
  0
ARC
  5
52
100
AcDbEntity
  8
0
  6
ByLayer
 62
  256
370
   -1
100
AcDbCircle
 10
-1822289.813561182
 20
-9670500.000000117
 40
45000
100
AcDbArc
 50
90
 51
270
  0
ARC
  5
53
100
AcDbEntity
  8
0
  6
ByLayer
 62
  256
370
   -1
100
AcDbCircle
 10
-1822289.81356118
 20
-10038500.00000012
 40
45000
100
AcDbArc
 50
90
 51
270
  0
ARC
  5
54
100
AcDbEntity
  8
0
  6
ByLayer
 62
  256
370
   -1
100
AcDbCircle
 10
-1822289.813561178
 20
-9854500.000000117
 40
45000
100
AcDbArc
 50
90
 51
270
  0
ARC
  5
55
100
AcDbEntity
  8
0
  6
ByLayer
 62
  256
370
   -1
100
AcDbCircle
 10
-1822289.813561182
 20
-10222500.00000012
 40
45000
100
AcDbArc
 50
90
 51
270
  0
ARC
  5
56
100
AcDbEntity
  8
0
  6
ByLayer
 62
  256
370
   -1
100
AcDbCircle
 10
-1849084.308278888
 20
-10406500.00000012
 40
45000
100
AcDbArc
 50
90
 51
270
  0
ARC
  5
57
100
AcDbEntity
  8
0
  6
ByLayer
 62
  256
370
   -1
100
AcDbCircle
 10
-1849084.308278886
 20
-9670500.000000117
 40
45000
100
AcDbArc
 50
90
 51
270
  0
ARC
  5
58
100
AcDbEntity
  8
0
  6
ByLayer
 62
  256
370
   -1
100
AcDbCircle
 10
-1849084.308278884
 20
-10038500.00000012
 40
45000
100
AcDbArc
 50
90
 51
270
  0
ARC
  5
59
100
AcDbEntity
  8
0
  6
ByLayer
 62
  256
370
   -1
100
AcDbCircle
 10
-1849084.30827888
 20
-9854500.000000117
 40
45000
100
AcDbArc
 50
90
 51
270
  0
ARC
  5
5A
100
AcDbEntity
  8
0
  6
ByLayer
 62
  256
370
   -1
100
AcDbCircle
 10
-1849084.308278886
 20
-10222500.00000012
 40
45000
100
AcDbArc
 50
90
 51
270
  0
ARC
  5
5B
100
AcDbEntity
  8
0
  6
ByLayer
 62
  256
370
   -1
100
AcDbCircle
 10
-1795495.318843479
 20
-10222500.00000012
 40
45000
100
AcDbArc
 50
111.0394697813198
 51
248.9605302186802
  0
ARC
  5
5C
100
AcDbEntity
  8
0
  6
ByLayer
 62
  256
370
   -1
100
AcDbCircle
 10
-1795495.318843479
 20
-10038500.00000012
 40
45000
100
AcDbArc
 50
111.0394697813198
 51
248.9605302186802
  0
ARC
  5
5D
100
AcDbEntity
  8
0
  6
ByLayer
 62
  256
370
   -1
100
AcDbCircle
 10
-1795495.318843479
 20
-9854500.000000117
 40
45000
100
AcDbArc
 50
111.0394697813198
 51
248.9605302186802
  0
ARC
  5
5E
100
AcDbEntity
  8
0
  6
ByLayer
 62
  256
370
   -1
100
AcDbCircle
 10
-1795495.318843479
 20
-9670500.000000117
 40
45000
100
AcDbArc
 50
111.0394697813198
 51
248.9605302186802
  0
ARC
  5
5F
100
AcDbEntity
  8
0
  6
ByLayer
 62
  256
370
   -1
100
AcDbCircle
 10
-1795495.318843479
 20
-10406500.00000012
 40
45000
100
AcDbArc
 50
111.0394697813198
 51
248.9605302186802
  0
ARC
  5
60
100
AcDbEntity
  8
0
  6
ByLayer
 62
  256
370
   -1
100
AcDbCircle
 10
-2063440.266020513
 20
-10406500.00000012
 40
45000
100
AcDbArc
 50
90
 51
270
  0
ARC
  5
61
100
AcDbEntity
  8
0
  6
ByLayer
 62
  256
370
   -1
100
AcDbCircle
 10
-2063440.266020511
 20
-9670500.000000132
 40
45000
100
AcDbArc
 50
90
 51
270
  0
ARC
  5
62
100
AcDbEntity
  8
0
  6
ByLayer
 62
  256
370
   -1
100
AcDbCircle
 10
-2063440.266020511
 20
-10038500.00000012
 40
45000
100
AcDbArc
 50
90
 51
270
  0
ARC
  5
63
100
AcDbEntity
  8
0
  6
ByLayer
 62
  256
370
   -1
100
AcDbCircle
 10
-2063440.266020508
 20
-9854500.000000117
 40
45000
100
AcDbArc
 50
90
 51
270
  0
ARC
  5
64
100
AcDbEntity
  8
0
  6
ByLayer
 62
  256
370
   -1
100
AcDbCircle
 10
-2063440.266020513
 20
-10222500.00000012
 40
45000
100
AcDbArc
 50
90
 51
270
  0
ARC
  5
65
100
AcDbEntity
  8
0
  6
ByLayer
 62
  256
370
   -1
100
AcDbCircle
 10
-2090234.760738216
 20
-10406500.00000012
 40
45000
100
AcDbArc
 50
90
 51
270
  0
ARC
  5
66
100
AcDbEntity
  8
0
  6
ByLayer
 62
  256
370
   -1
100
AcDbCircle
 10
-2090234.760738213
 20
-9670500.000000132
 40
45000
100
AcDbArc
 50
90
 51
270
  0
ARC
  5
67
100
AcDbEntity
  8
0
  6
ByLayer
 62
  256
370
   -1
100
AcDbCircle
 10
-2090234.760738213
 20
-10038500.00000012
 40
45000
100
AcDbArc
 50
90
 51
270
  0
ARC
  5
68
100
AcDbEntity
  8
0
  6
ByLayer
 62
  256
370
   -1
100
AcDbCircle
 10
-2090234.76073821
 20
-9854500.000000117
 40
45000
100
AcDbArc
 50
90
 51
270
  0
ARC
  5
69
100
AcDbEntity
  8
0
  6
ByLayer
 62
  256
370
   -1
100
AcDbCircle
 10
-2090234.760738216
 20
-10222500.00000012
 40
45000
100
AcDbArc
 50
90
 51
270
  0
ARC
  5
6A
100
AcDbEntity
  8
0
  6
ByLayer
 62
  256
370
   -1
100
AcDbCircle
 10
-1875878.80299659
 20
-10406500.00000012
 40
45000
100
AcDbArc
 50
90
 51
270
  0
ARC
  5
6B
100
AcDbEntity
  8
0
  6
ByLayer
 62
  256
370
   -1
100
AcDbCircle
 10
-1875878.80299659
 20
-9670500.000000117
 40
45000
100
AcDbArc
 50
90
 51
270
  0
ARC
  5
6C
100
AcDbEntity
  8
0
  6
ByLayer
 62
  256
370
   -1
100
AcDbCircle
 10
-1875878.802996586
 20
-10038500.00000012
 40
45000
100
AcDbArc
 50
90
 51
270
  0
ARC
  5
6D
100
AcDbEntity
  8
0
  6
ByLayer
 62
  256
370
   -1
100
AcDbCircle
 10
-1875878.802996584
 20
-9854500.000000117
 40
45000
100
AcDbArc
 50
90
 51
270
  0
ARC
  5
6E
100
AcDbEntity
  8
0
  6
ByLayer
 62
  256
370
   -1
100
AcDbCircle
 10
-1875878.802996588
 20
-10222500.00000012
 40
45000
100
AcDbArc
 50
90
 51
270
  0
ARC
  5
6F
100
AcDbEntity
  8
0
  6
ByLayer
 62
  256
370
   -1
100
AcDbCircle
 10
-1902673.297714293
 20
-10406500.00000012
 40
45000
100
AcDbArc
 50
90
 51
270
  0
ARC
  5
70
100
AcDbEntity
  8
0
  6
ByLayer
 62
  256
370
   -1
100
AcDbCircle
 10
-1902673.297714291
 20
-9670500.000000117
 40
45000
100
AcDbArc
 50
90
 51
270
  0
ARC
  5
71
100
AcDbEntity
  8
0
  6
ByLayer
 62
  256
370
   -1
100
AcDbCircle
 10
-1902673.297714291
 20
-10038500.00000012
 40
45000
100
AcDbArc
 50
90
 51
270
  0
ARC
  5
72
100
AcDbEntity
  8
0
  6
ByLayer
 62
  256
370
   -1
100
AcDbCircle
 10
-1902673.297714287
 20
-9854500.000000117
 40
45000
100
AcDbArc
 50
90
 51
270
  0
ARC
  5
73
100
AcDbEntity
  8
0
  6
ByLayer
 62
  256
370
   -1
100
AcDbCircle
 10
-1902673.297714291
 20
-10222500.00000012
 40
45000
100
AcDbArc
 50
90
 51
270
  0
ARC
  5
74
100
AcDbEntity
  8
0
  6
ByLayer
 62
  256
370
   -1
100
AcDbCircle
 10
-2036645.771302809
 20
-10406500.00000012
 40
45000
100
AcDbArc
 50
90
 51
270
  0
ARC
  5
75
100
AcDbEntity
  8
0
  6
ByLayer
 62
  256
370
   -1
100
AcDbCircle
 10
-2036645.771302809
 20
-9670500.000000132
 40
45000
100
AcDbArc
 50
90
 51
270
  0
ARC
  5
76
100
AcDbEntity
  8
0
  6
ByLayer
 62
  256
370
   -1
100
AcDbCircle
 10
-2036645.771302807
 20
-10038500.00000012
 40
45000
100
AcDbArc
 50
90
 51
270
  0
ARC
  5
77
100
AcDbEntity
  8
0
  6
ByLayer
 62
  256
370
   -1
100
AcDbCircle
 10
-2036645.771302805
 20
-9854500.000000117
 40
45000
100
AcDbArc
 50
90
 51
270
  0
ARC
  5
78
100
AcDbEntity
  8
0
  6
ByLayer
 62
  256
370
   -1
100
AcDbCircle
 10
-2036645.771302809
 20
-10222500.00000012
 40
45000
100
AcDbArc
 50
90
 51
270
  0
ARC
  5
79
100
AcDbEntity
  8
0
  6
ByLayer
 62
  256
370
   -1
100
AcDbCircle
 10
-1983056.781867403
 20
-10406500.00000012
 40
45000
100
AcDbArc
 50
90
 51
270
  0
ARC
  5
7A
100
AcDbEntity
  8
0
  6
ByLayer
 62
  256
370
   -1
100
AcDbCircle
 10
-1983056.781867402
 20
-9670500.000000132
 40
45000
100
AcDbArc
 50
90
 51
270
  0
ARC
  5
7B
100
AcDbEntity
  8
0
  6
ByLayer
 62
  256
370
   -1
100
AcDbCircle
 10
-1983056.7818674
 20
-10038500.00000012
 40
45000
100
AcDbArc
 50
90
 51
270
  0
ARC
  5
7C
100
AcDbEntity
  8
0
  6
ByLayer
 62
  256
370
   -1
100
AcDbCircle
 10
-1983056.781867398
 20
-9854500.000000117
 40
45000
100
AcDbArc
 50
90
 51
270
  0
ARC
  5
7D
100
AcDbEntity
  8
0
  6
ByLayer
 62
  256
370
   -1
100
AcDbCircle
 10
-1983056.781867403
 20
-10222500.00000012
 40
45000
100
AcDbArc
 50
90
 51
270
  0
ARC
  5
7E
100
AcDbEntity
  8
0
  6
ByLayer
 62
  256
370
   -1
100
AcDbCircle
 10
-2117029.255455919
 20
-10222500.00000012
 40
45000
100
AcDbArc
 50
242.3226241148425
 51
270
  0
ARC
  5
7F
100
AcDbEntity
  8
0
  6
ByLayer
 62
  256
370
   -1
100
AcDbCircle
 10
-2117029.25545592
 20
-10406500.00000012
 40
45000
100
AcDbArc
 50
242.3226241148425
 51
270
  0
ARC
  5
80
100
AcDbEntity
  8
0
  6
ByLayer
 62
  256
370
   -1
100
AcDbCircle
 10
-2117029.25545592
 20
-10406500.00000012
 40
45000
100
AcDbArc
 50
90
 51
117.6773758851526
  0
ARC
  5
81
100
AcDbEntity
  8
0
  6
ByLayer
 62
  256
370
   -1
100
AcDbCircle
 10
-2117029.255455917
 20
-10038500.00000012
 40
45000
100
AcDbArc
 50
90
 51
117.6773758851526
  0
ARC
  5
82
100
AcDbEntity
  8
0
  6
ByLayer
 62
  256
370
   -1
100
AcDbCircle
 10
-2117029.255455919
 20
-9854500.000000117
 40
45000
100
AcDbArc
 50
242.3226241148425
 51
270
  0
ARC
  5
83
100
AcDbEntity
  8
0
  6
ByLayer
 62
  256
370
   -1
100
AcDbCircle
 10
-2117029.255455919
 20
-10222500.00000012
 40
45000
100
AcDbArc
 50
90
 51
117.6773758851526
  0
ARC
  5
84
100
AcDbEntity
  8
0
  6
ByLayer
 62
  256
370
   -1
100
AcDbCircle
 10
-2117029.255455917
 20
-10038500.00000012
 40
45000
100
AcDbArc
 50
242.3226241148425
 51
270
  0
ARC
  5
85
100
AcDbEntity
  8
0
  6
ByLayer
 62
  256
370
   -1
100
AcDbCircle
 10
-2117029.255455919
 20
-9670500.000000117
 40
45000
100
AcDbArc
 50
90
 51
117.6773758851526
  0
ARC
  5
86
100
AcDbEntity
  8
0
  6
ByLayer
 62
  256
370
   -1
100
AcDbCircle
 10
-2117029.255455919
 20
-9854500.000000117
 40
45000
100
AcDbArc
 50
90
 51
117.6773758851526
  0
ARC
  5
87
100
AcDbEntity
  8
0
  6
ByLayer
 62
  256
370
   -1
100
AcDbCircle
 10
-2117029.255455919
 20
-9670500.000000117
 40
45000
100
AcDbArc
 50
242.3226241148425
 51
270
  0
ARC
  5
88
100
AcDbEntity
  8
0
  6
ByLayer
 62
  256
370
   -1
100
AcDbCircle
 10
-2009851.276585107
 20
-10406500.00000012
 40
45000
100
AcDbArc
 50
90
 51
270
  0
ARC
  5
89
100
AcDbEntity
  8
0
  6
ByLayer
 62
  256
370
   -1
100
AcDbCircle
 10
-2009851.276585105
 20
-9670500.000000132
 40
45000
100
AcDbArc
 50
90
 51
270
  0
ARC
  5
8A
100
AcDbEntity
  8
0
  6
ByLayer
 62
  256
370
   -1
100
AcDbCircle
 10
-2009851.276585103
 20
-10038500.00000012
 40
45000
100
AcDbArc
 50
90
 51
270
  0
ARC
  5
8B
100
AcDbEntity
  8
0
  6
ByLayer
 62
  256
370
   -1
100
AcDbCircle
 10
-2009851.276585101
 20
-9854500.000000117
 40
45000
100
AcDbArc
 50
90
 51
270
  0
ARC
  5
8C
100
AcDbEntity
  8
0
  6
ByLayer
 62
  256
370
   -1
100
AcDbCircle
 10
-2009851.276585105
 20
-10222500.00000012
 40
45000
100
AcDbArc
 50
90
 51
270
  0
ARC
  5
8D
100
AcDbEntity
  8
0
  6
ByLayer
 62
  256
370
   -1
100
AcDbCircle
 10
-1835687.060920035
 20
-10498500.00000012
 40
45000
100
AcDbArc
 50
90
 51
270
  0
ARC
  5
8E
100
AcDbEntity
  8
0
  6
ByLayer
 62
  256
370
   -1
100
AcDbCircle
 10
-1835687.060920039
 20
-9578500.000000117
 40
45000
100
AcDbArc
 50
90
 51
270
  0
ARC
  5
8F
100
AcDbEntity
  8
0
  6
ByLayer
 62
  256
370
   -1
100
AcDbCircle
 10
-1835687.060920031
 20
-9946500.000000117
 40
45000
100
AcDbArc
 50
90
 51
270
  0
ARC
  5
90
100
AcDbEntity
  8
0
  6
ByLayer
 62
  256
370
   -1
100
AcDbCircle
 10
-1835687.060920029
 20
-9762500.000000117
 40
45000
100
AcDbArc
 50
90
 51
270
  0
ARC
  5
91
100
AcDbEntity
  8
0
  6
ByLayer
 62
  256
370
   -1
100
AcDbCircle
 10
-1835687.060920033
 20
-10130500.00000012
 40
45000
100
AcDbArc
 50
90
 51
270
  0
ARC
  5
92
100
AcDbEntity
  8
0
  6
ByLayer
 62
  256
370
   -1
100
AcDbCircle
 10
-1835687.060920035
 20
-10314500.00000012
 40
45000
100
AcDbArc
 50
90
 51
270
  0
ARC
  5
93
100
AcDbEntity
  8
0
  6
ByLayer
 62
  256
370
   -1
100
AcDbCircle
 10
-1808892.56620233
 20
-10498500.00000012
 40
45000
100
AcDbArc
 50
90
 51
270
  0
ARC
  5
94
100
AcDbEntity
  8
0
  6
ByLayer
 62
  256
370
   -1
100
AcDbCircle
 10
-1808892.566202334
 20
-9578500.000000117
 40
45000
100
AcDbArc
 50
90
 51
270
  0
ARC
  5
95
100
AcDbEntity
  8
0
  6
ByLayer
 62
  256
370
   -1
100
AcDbCircle
 10
-1808892.566202327
 20
-9946500.000000117
 40
45000
100
AcDbArc
 50
90
 51
270
  0
ARC
  5
96
100
AcDbEntity
  8
0
  6
ByLayer
 62
  256
370
   -1
100
AcDbCircle
 10
-1808892.566202324
 20
-9762500.000000117
 40
45000
100
AcDbArc
 50
90
 51
270
  0
ARC
  5
97
100
AcDbEntity
  8
0
  6
ByLayer
 62
  256
370
   -1
100
AcDbCircle
 10
-1808892.56620233
 20
-10314500.00000012
 40
45000
100
AcDbArc
 50
90
 51
270
  0
ARC
  5
98
100
AcDbEntity
  8
0
  6
ByLayer
 62
  256
370
   -1
100
AcDbCircle
 10
-1808892.566202329
 20
-10130500.00000012
 40
45000
100
AcDbArc
 50
90
 51
270
  0
ARC
  5
99
100
AcDbEntity
  8
0
  6
ByLayer
 62
  256
370
   -1
100
AcDbCircle
 10
-1889276.050355442
 20
-10498500.00000012
 40
45000
100
AcDbArc
 50
90
 51
270
  0
ARC
  5
9A
100
AcDbEntity
  8
0
  6
ByLayer
 62
  256
370
   -1
100
AcDbCircle
 10
-1889276.050355446
 20
-9578500.000000117
 40
45000
100
AcDbArc
 50
90
 51
270
  0
ARC
  5
9B
100
AcDbEntity
  8
0
  6
ByLayer
 62
  256
370
   -1
100
AcDbCircle
 10
-1889276.050355439
 20
-9946500.000000117
 40
45000
100
AcDbArc
 50
90
 51
270
  0
ARC
  5
9C
100
AcDbEntity
  8
0
  6
ByLayer
 62
  256
370
   -1
100
AcDbCircle
 10
-1889276.050355435
 20
-9762500.000000117
 40
45000
100
AcDbArc
 50
90
 51
270
  0
ARC
  5
9D
100
AcDbEntity
  8
0
  6
ByLayer
 62
  256
370
   -1
100
AcDbCircle
 10
-1889276.05035544
 20
-10314500.00000012
 40
45000
100
AcDbArc
 50
90
 51
270
  0
ARC
  5
9E
100
AcDbEntity
  8
0
  6
ByLayer
 62
  256
370
   -1
100
AcDbCircle
 10
-1889276.050355439
 20
-10130500.00000012
 40
45000
100
AcDbArc
 50
90
 51
270
  0
ARC
  5
9F
100
AcDbEntity
  8
0
  6
ByLayer
 62
  256
370
   -1
100
AcDbCircle
 10
-2023248.523943958
 20
-10498500.00000012
 40
45000
100
AcDbArc
 50
90
 51
270
  0
ARC
  5
A0
100
AcDbEntity
  8
0
  6
ByLayer
 62
  256
370
   -1
100
AcDbCircle
 10
-2023248.523943963
 20
-9578500.000000132
 40
45000
100
AcDbArc
 50
90
 51
270
  0
ARC
  5
A1
100
AcDbEntity
  8
0
  6
ByLayer
 62
  256
370
   -1
100
AcDbCircle
 10
-2023248.523943956
 20
-9946500.000000117
 40
45000
100
AcDbArc
 50
90
 51
270
  0
ARC
  5
A2
100
AcDbEntity
  8
0
  6
ByLayer
 62
  256
370
   -1
100
AcDbCircle
 10
-2023248.52394395
 20
-9762500.000000117
 40
45000
100
AcDbArc
 50
90
 51
270
  0
ARC
  5
A3
100
AcDbEntity
  8
0
  6
ByLayer
 62
  256
370
   -1
100
AcDbCircle
 10
-2023248.523943956
 20
-10130500.00000012
 40
45000
100
AcDbArc
 50
90
 51
270
  0
ARC
  5
A4
100
AcDbEntity
  8
0
  6
ByLayer
 62
  256
370
   -1
100
AcDbCircle
 10
-2023248.523943958
 20
-10314500.00000012
 40
45000
100
AcDbArc
 50
90
 51
270
  0
ARC
  5
A5
100
AcDbEntity
  8
0
  6
ByLayer
 62
  256
370
   -1
100
AcDbCircle
 10
-1862481.555637739
 20
-10498500.00000012
 40
45000
100
AcDbArc
 50
90
 51
270
  0
ARC
  5
A6
100
AcDbEntity
  8
0
  6
ByLayer
 62
  256
370
   -1
100
AcDbCircle
 10
-1862481.555637742
 20
-9578500.000000117
 40
45000
100
AcDbArc
 50
90
 51
270
  0
ARC
  5
A7
100
AcDbEntity
  8
0
  6
ByLayer
 62
  256
370
   -1
100
AcDbCircle
 10
-1862481.555637735
 20
-9946500.000000117
 40
45000
100
AcDbArc
 50
90
 51
270
  0
ARC
  5
A8
100
AcDbEntity
  8
0
  6
ByLayer
 62
  256
370
   -1
100
AcDbCircle
 10
-1862481.555637731
 20
-9762500.000000117
 40
45000
100
AcDbArc
 50
90
 51
270
  0
ARC
  5
A9
100
AcDbEntity
  8
0
  6
ByLayer
 62
  256
370
   -1
100
AcDbCircle
 10
-1862481.555637737
 20
-10130500.00000012
 40
45000
100
AcDbArc
 50
90
 51
270
  0
ARC
  5
AA
100
AcDbEntity
  8
0
  6
ByLayer
 62
  256
370
   -1
100
AcDbCircle
 10
-1862481.555637739
 20
-10314500.00000012
 40
45000
100
AcDbArc
 50
90
 51
270
  0
ARC
  5
AB
100
AcDbEntity
  8
0
  6
ByLayer
 62
  256
370
   -1
100
AcDbCircle
 10
-2076837.513379365
 20
-10498500.00000012
 40
45000
100
AcDbArc
 50
90
 51
270
  0
ARC
  5
AC
100
AcDbEntity
  8
0
  6
ByLayer
 62
  256
370
   -1
100
AcDbCircle
 10
-2076837.513379371
 20
-9578500.000000132
 40
45000
100
AcDbArc
 50
90
 51
270
  0
ARC
  5
AD
100
AcDbEntity
  8
0
  6
ByLayer
 62
  256
370
   -1
100
AcDbCircle
 10
-2076837.513379362
 20
-9946500.000000117
 40
45000
100
AcDbArc
 50
90
 51
270
  0
ARC
  5
AE
100
AcDbEntity
  8
0
  6
ByLayer
 62
  256
370
   -1
100
AcDbCircle
 10
-2076837.513379357
 20
-9762500.000000117
 40
45000
100
AcDbArc
 50
90
 51
270
  0
ARC
  5
AF
100
AcDbEntity
  8
0
  6
ByLayer
 62
  256
370
   -1
100
AcDbCircle
 10
-2076837.513379364
 20
-10130500.00000012
 40
45000
100
AcDbArc
 50
90
 51
270
  0
ARC
  5
B0
100
AcDbEntity
  8
0
  6
ByLayer
 62
  256
370
   -1
100
AcDbCircle
 10
-2076837.513379365
 20
-10314500.00000012
 40
45000
100
AcDbArc
 50
90
 51
270
  0
ARC
  5
B1
100
AcDbEntity
  8
0
  6
ByLayer
 62
  256
370
   -1
100
AcDbCircle
 10
-1916070.545073144
 20
-10498500.00000012
 40
45000
100
AcDbArc
 50
90
 51
270
  0
ARC
  5
B2
100
AcDbEntity
  8
0
  6
ByLayer
 62
  256
370
   -1
100
AcDbCircle
 10
-1916070.54507315
 20
-9578500.000000132
 40
45000
100
AcDbArc
 50
90
 51
270
  0
ARC
  5
B3
100
AcDbEntity
  8
0
  6
ByLayer
 62
  256
370
   -1
100
AcDbCircle
 10
-1916070.54507314
 20
-9946500.000000117
 40
45000
100
AcDbArc
 50
90
 51
270
  0
ARC
  5
B4
100
AcDbEntity
  8
0
  6
ByLayer
 62
  256
370
   -1
100
AcDbCircle
 10
-1916070.545073137
 20
-9762500.000000117
 40
45000
100
AcDbArc
 50
90
 51
270
  0
ARC
  5
B5
100
AcDbEntity
  8
0
  6
ByLayer
 62
  256
370
   -1
100
AcDbCircle
 10
-1916070.545073142
 20
-10130500.00000012
 40
45000
100
AcDbArc
 50
90
 51
270
  0
ARC
  5
B6
100
AcDbEntity
  8
0
  6
ByLayer
 62
  256
370
   -1
100
AcDbCircle
 10
-1916070.545073144
 20
-10314500.00000012
 40
45000
100
AcDbArc
 50
90
 51
270
  0
ARC
  5
B7
100
AcDbEntity
  8
0
  6
ByLayer
 62
  256
370
   -1
100
AcDbCircle
 10
-2050043.018661662
 20
-10498500.00000012
 40
45000
100
AcDbArc
 50
90
 51
270
  0
ARC
  5
B8
100
AcDbEntity
  8
0
  6
ByLayer
 62
  256
370
   -1
100
AcDbCircle
 10
-2050043.018661669
 20
-9578500.000000132
 40
45000
100
AcDbArc
 50
90
 51
270
  0
ARC
  5
B9
100
AcDbEntity
  8
0
  6
ByLayer
 62
  256
370
   -1
100
AcDbCircle
 10
-2050043.018661658
 20
-9946500.000000117
 40
45000
100
AcDbArc
 50
90
 51
270
  0
ARC
  5
BA
100
AcDbEntity
  8
0
  6
ByLayer
 62
  256
370
   -1
100
AcDbCircle
 10
-2050043.018661655
 20
-9762500.000000117
 40
45000
100
AcDbArc
 50
90
 51
270
  0
ARC
  5
BB
100
AcDbEntity
  8
0
  6
ByLayer
 62
  256
370
   -1
100
AcDbCircle
 10
-2050043.018661658
 20
-10130500.00000012
 40
45000
100
AcDbArc
 50
90
 51
270
  0
ARC
  5
BC
100
AcDbEntity
  8
0
  6
ByLayer
 62
  256
370
   -1
100
AcDbCircle
 10
-2050043.018661662
 20
-10314500.00000012
 40
45000
100
AcDbArc
 50
90
 51
270
  0
ARC
  5
BD
100
AcDbEntity
  8
0
  6
ByLayer
 62
  256
370
   -1
100
AcDbCircle
 10
-1996454.029226256
 20
-10498500.00000012
 40
45000
100
AcDbArc
 50
90
 51
270
  0
ARC
  5
BE
100
AcDbEntity
  8
0
  6
ByLayer
 62
  256
370
   -1
100
AcDbCircle
 10
-1996454.029226259
 20
-9578500.000000132
 40
45000
100
AcDbArc
 50
90
 51
270
  0
ARC
  5
BF
100
AcDbEntity
  8
0
  6
ByLayer
 62
  256
370
   -1
100
AcDbCircle
 10
-1996454.029226252
 20
-9946500.000000117
 40
45000
100
AcDbArc
 50
90
 51
270
  0
ARC
  5
C0
100
AcDbEntity
  8
0
  6
ByLayer
 62
  256
370
   -1
100
AcDbCircle
 10
-1996454.029226248
 20
-9762500.000000117
 40
45000
100
AcDbArc
 50
90
 51
270
  0
ARC
  5
C1
100
AcDbEntity
  8
0
  6
ByLayer
 62
  256
370
   -1
100
AcDbCircle
 10
-1996454.029226252
 20
-10130500.00000012
 40
45000
100
AcDbArc
 50
90
 51
270
  0
ARC
  5
C2
100
AcDbEntity
  8
0
  6
ByLayer
 62
  256
370
   -1
100
AcDbCircle
 10
-1996454.029226254
 20
-10314500.00000012
 40
45000
100
AcDbArc
 50
90
 51
270
  0
ARC
  5
C3
100
AcDbEntity
  8
0
  6
ByLayer
 62
  256
370
   -1
100
AcDbCircle
 10
-2103632.008097067
 20
-10498500.00000012
 40
45000
100
AcDbArc
 50
90
 51
270
  0
ARC
  5
C4
100
AcDbEntity
  8
0
  6
ByLayer
 62
  256
370
   -1
100
AcDbCircle
 10
-2103632.008097073
 20
-9578500.000000132
 40
45000
100
AcDbArc
 50
90
 51
270
  0
ARC
  5
C5
100
AcDbEntity
  8
0
  6
ByLayer
 62
  256
370
   -1
100
AcDbCircle
 10
-2103632.008097067
 20
-10314500.00000012
 40
45000
100
AcDbArc
 50
240.2744098643277
 51
270
  0
ARC
  5
C6
100
AcDbEntity
  8
0
  6
ByLayer
 62
  256
370
   -1
100
AcDbCircle
 10
-2103632.008097067
 20
-10314500.00000012
 40
45000
100
AcDbArc
 50
90
 51
119.7255901356696
  0
ARC
  5
C7
100
AcDbEntity
  8
0
  6
ByLayer
 62
  256
370
   -1
100
AcDbCircle
 10
-2103632.008097066
 20
-9946500.000000117
 40
45000
100
AcDbArc
 50
90
 51
119.7255901356696
  0
ARC
  5
C8
100
AcDbEntity
  8
0
  6
ByLayer
 62
  256
370
   -1
100
AcDbCircle
 10
-2103632.008097066
 20
-9946500.000000117
 40
45000
100
AcDbArc
 50
240.2744098643277
 51
270
  0
ARC
  5
C9
100
AcDbEntity
  8
0
  6
ByLayer
 62
  256
370
   -1
100
AcDbCircle
 10
-2103632.008097067
 20
-10130500.00000012
 40
45000
100
AcDbArc
 50
90
 51
119.7255901356696
  0
ARC
  5
CA
100
AcDbEntity
  8
0
  6
ByLayer
 62
  256
370
   -1
100
AcDbCircle
 10
-2103632.008097067
 20
-10130500.00000012
 40
45000
100
AcDbArc
 50
240.2744098643277
 51
270
  0
ARC
  5
CB
100
AcDbEntity
  8
0
  6
ByLayer
 62
  256
370
   -1
100
AcDbCircle
 10
-2103632.008097066
 20
-9762500.000000117
 40
45000
100
AcDbArc
 50
90
 51
119.7255901356696
  0
ARC
  5
CC
100
AcDbEntity
  8
0
  6
ByLayer
 62
  256
370
   -1
100
AcDbCircle
 10
-2103632.008097066
 20
-9762500.000000117
 40
45000
100
AcDbArc
 50
240.2744098643277
 51
270
  0
ARC
  5
CD
100
AcDbEntity
  8
0
  6
ByLayer
 62
  256
370
   -1
100
AcDbCircle
 10
-1782098.071484629
 20
-10498500.00000012
 40
45000
100
AcDbArc
 50
90
 51
268.5673157018994
  0
ARC
  5
CE
100
AcDbEntity
  8
0
  6
ByLayer
 62
  256
370
   -1
100
AcDbCircle
 10
-1782098.071484632
 20
-9578500.000000117
 40
45000
100
AcDbArc
 50
91.43268429809292
 51
269.9999999999915
  0
ARC
  5
CF
100
AcDbEntity
  8
0
  6
ByLayer
 62
  256
370
   -1
100
AcDbCircle
 10
-1782098.071484625
 20
-9946500.000000117
 40
45000
100
AcDbArc
 50
90.0000000000248
 51
270.0000000000248
  0
ARC
  5
D0
100
AcDbEntity
  8
0
  6
ByLayer
 62
  256
370
   -1
100
AcDbCircle
 10
-1782098.071484622
 20
-9762500.000000117
 40
45000
100
AcDbArc
 50
90
 51
270.0000000000239
  0
ARC
  5
D1
100
AcDbEntity
  8
0
  6
ByLayer
 62
  256
370
   -1
100
AcDbCircle
 10
-1782098.071484627
 20
-10130500.00000012
 40
45000
100
AcDbArc
 50
90.00000000001967
 51
270.0000000000196
  0
ARC
  5
D2
100
AcDbEntity
  8
0
  6
ByLayer
 62
  256
370
   -1
100
AcDbCircle
 10
-1782098.071484629
 20
-10314500.00000012
 40
45000
100
AcDbArc
 50
90.00000000000513
 51
270.0000000000052
  0
ARC
  5
D3
100
AcDbEntity
  8
0
  6
ByLayer
 62
  256
370
   -1
100
AcDbCircle
 10
-1854084.308278888
 20
-10406500.00000012
 40
50000
100
AcDbArc
 50
115.8419327631672
 51
244.1580672368329
  0
ARC
  5
D4
100
AcDbEntity
  8
0
  6
ByLayer
 62
  256
370
   -1
100
AcDbCircle
 10
-1854084.308278886
 20
-9670500.000000117
 40
50000
100
AcDbArc
 50
115.8419327631705
 51
244.1580672368364
  0
ARC
  5
D5
100
AcDbEntity
  8
0
  6
ByLayer
 62
  256
370
   -1
100
AcDbCircle
 10
-1854084.308278884
 20
-10038500.00000012
 40
50000
100
AcDbArc
 50
115.8419327631668
 51
244.1580672368326
  0
ARC
  5
D6
100
AcDbEntity
  8
0
  6
ByLayer
 62
  256
370
   -1
100
AcDbCircle
 10
-1854084.308278882
 20
-9854500.000000117
 40
50000
100
AcDbArc
 50
115.841932763166
 51
244.158067236832
  0
ARC
  5
D7
100
AcDbEntity
  8
0
  6
ByLayer
 62
  256
370
   -1
100
AcDbCircle
 10
-1854084.308278886
 20
-10222500.00000012
 40
50000
100
AcDbArc
 50
115.8419327631663
 51
244.1580672368322
  0
ARC
  5
D8
100
AcDbEntity
  8
0
  6
ByLayer
 62
  256
370
   -1
100
AcDbCircle
 10
-1880878.80299659
 20
-10406500.00000012
 40
50000
100
AcDbArc
 50
115.8419327631672
 51
244.1580672368329
  0
ARC
  5
D9
100
AcDbEntity
  8
0
  6
ByLayer
 62
  256
370
   -1
100
AcDbCircle
 10
-1880878.80299659
 20
-9670500.000000117
 40
50000
100
AcDbArc
 50
115.8419327631705
 51
244.1580672368364
  0
ARC
  5
DA
100
AcDbEntity
  8
0
  6
ByLayer
 62
  256
370
   -1
100
AcDbCircle
 10
-1880878.802996586
 20
-10038500.00000012
 40
50000
100
AcDbArc
 50
115.8419327631668
 51
244.1580672368326
  0
ARC
  5
DB
100
AcDbEntity
  8
0
  6
ByLayer
 62
  256
370
   -1
100
AcDbCircle
 10
-1880878.802996584
 20
-9854500.000000117
 40
50000
100
AcDbArc
 50
115.841932763166
 51
244.158067236832
  0
ARC
  5
DC
100
AcDbEntity
  8
0
  6
ByLayer
 62
  256
370
   -1
100
AcDbCircle
 10
-1880878.80299659
 20
-10222500.00000012
 40
50000
100
AcDbArc
 50
115.8419327631663
 51
244.1580672368322
  0
ARC
  5
DD
100
AcDbEntity
  8
0
  6
ByLayer
 62
  256
370
   -1
100
AcDbCircle
 10
-2014851.276585107
 20
-10406500.00000012
 40
50000
100
AcDbArc
 50
115.8419327631672
 51
244.1580672368329
  0
ARC
  5
DE
100
AcDbEntity
  8
0
  6
ByLayer
 62
  256
370
   -1
100
AcDbCircle
 10
-2014851.276585105
 20
-9670500.000000132
 40
50000
100
AcDbArc
 50
115.8419327631705
 51
244.1580672368364
  0
ARC
  5
DF
100
AcDbEntity
  8
0
  6
ByLayer
 62
  256
370
   -1
100
AcDbCircle
 10
-2014851.276585103
 20
-10038500.00000012
 40
50000
100
AcDbArc
 50
115.8419327631668
 51
244.1580672368326
  0
ARC
  5
E0
100
AcDbEntity
  8
0
  6
ByLayer
 62
  256
370
   -1
100
AcDbCircle
 10
-2014851.276585101
 20
-9854500.000000117
 40
50000
100
AcDbArc
 50
115.841932763166
 51
244.158067236832
  0
ARC
  5
E1
100
AcDbEntity
  8
0
  6
ByLayer
 62
  256
370
   -1
100
AcDbCircle
 10
-2014851.276585105
 20
-10222500.00000012
 40
50000
100
AcDbArc
 50
115.8419327631663
 51
244.1580672368322
  0
ARC
  5
E2
100
AcDbEntity
  8
0
  6
ByLayer
 62
  256
370
   -1
100
AcDbCircle
 10
-1800495.318843479
 20
-10406500.00000012
 40
50000
100
AcDbArc
 50
115.8419327631672
 51
244.1580672368329
  0
ARC
  5
E3
100
AcDbEntity
  8
0
  6
ByLayer
 62
  256
370
   -1
100
AcDbCircle
 10
-1800495.318843477
 20
-9670500.000000117
 40
50000
100
AcDbArc
 50
115.8419327631705
 51
244.1580672368364
  0
ARC
  5
E4
100
AcDbEntity
  8
0
  6
ByLayer
 62
  256
370
   -1
100
AcDbCircle
 10
-1800495.318843476
 20
-10038500.00000012
 40
50000
100
AcDbArc
 50
115.8419327631668
 51
244.1580672368326
  0
ARC
  5
E5
100
AcDbEntity
  8
0
  6
ByLayer
 62
  256
370
   -1
100
AcDbCircle
 10
-1800495.318843476
 20
-9854500.000000117
 40
50000
100
AcDbArc
 50
115.841932763166
 51
244.158067236832
  0
ARC
  5
E6
100
AcDbEntity
  8
0
  6
ByLayer
 62
  256
370
   -1
100
AcDbCircle
 10
-1800495.318843477
 20
-10222500.00000012
 40
50000
100
AcDbArc
 50
115.8419327631663
 51
244.1580672368322
  0
ARC
  5
E7
100
AcDbEntity
  8
0
  6
ByLayer
 62
  256
370
   -1
100
AcDbCircle
 10
-1827289.813561183
 20
-10406500.00000012
 40
50000
100
AcDbArc
 50
115.8419327631672
 51
244.1580672368329
  0
ARC
  5
E8
100
AcDbEntity
  8
0
  6
ByLayer
 62
  256
370
   -1
100
AcDbCircle
 10
-1827289.813561183
 20
-9670500.000000117
 40
50000
100
AcDbArc
 50
115.8419327631705
 51
244.1580672368364
  0
ARC
  5
E9
100
AcDbEntity
  8
0
  6
ByLayer
 62
  256
370
   -1
100
AcDbCircle
 10
-1827289.81356118
 20
-10038500.00000012
 40
50000
100
AcDbArc
 50
115.8419327631668
 51
244.1580672368326
  0
ARC
  5
EA
100
AcDbEntity
  8
0
  6
ByLayer
 62
  256
370
   -1
100
AcDbCircle
 10
-1827289.813561178
 20
-9854500.000000117
 40
50000
100
AcDbArc
 50
115.841932763166
 51
244.158067236832
  0
ARC
  5
EB
100
AcDbEntity
  8
0
  6
ByLayer
 62
  256
370
   -1
100
AcDbCircle
 10
-1827289.813561182
 20
-10222500.00000012
 40
50000
100
AcDbArc
 50
115.8419327631663
 51
244.1580672368322
  0
ARC
  5
EC
100
AcDbEntity
  8
0
  6
ByLayer
 62
  256
370
   -1
100
AcDbCircle
 10
-1961262.287149698
 20
-10406500.00000012
 40
50000
100
AcDbArc
 50
115.8419327631672
 51
244.1580672368329
  0
ARC
  5
ED
100
AcDbEntity
  8
0
  6
ByLayer
 62
  256
370
   -1
100
AcDbCircle
 10
-1961262.287149698
 20
-9670500.000000132
 40
50000
100
AcDbArc
 50
115.8419327631705
 51
244.1580672368364
  0
ARC
  5
EE
100
AcDbEntity
  8
0
  6
ByLayer
 62
  256
370
   -1
100
AcDbCircle
 10
-1961262.287149698
 20
-10038500.00000012
 40
50000
100
AcDbArc
 50
115.8419327631668
 51
244.1580672368326
  0
ARC
  5
EF
100
AcDbEntity
  8
0
  6
ByLayer
 62
  256
370
   -1
100
AcDbCircle
 10
-1961262.287149694
 20
-9854500.000000117
 40
50000
100
AcDbArc
 50
115.841932763166
 51
244.158067236832
  0
ARC
  5
F0
100
AcDbEntity
  8
0
  6
ByLayer
 62
  256
370
   -1
100
AcDbCircle
 10
-1961262.287149698
 20
-10222500.00000012
 40
50000
100
AcDbArc
 50
115.8419327631663
 51
244.1580672368322
  0
ARC
  5
F1
100
AcDbEntity
  8
0
  6
ByLayer
 62
  256
370
   -1
100
AcDbCircle
 10
-2095234.760738216
 20
-10406500.00000012
 40
50000
100
AcDbArc
 50
115.8419327631672
 51
244.1580672368329
  0
ARC
  5
F2
100
AcDbEntity
  8
0
  6
ByLayer
 62
  256
370
   -1
100
AcDbCircle
 10
-2095234.760738214
 20
-10038500.00000012
 40
50000
100
AcDbArc
 50
115.8419327631672
 51
244.1580672368329
  0
ARC
  5
F3
100
AcDbEntity
  8
0
  6
ByLayer
 62
  256
370
   -1
100
AcDbCircle
 10
-2095234.760738214
 20
-10222500.00000012
 40
50000
100
AcDbArc
 50
115.8419327631672
 51
244.1580672368329
  0
ARC
  5
F4
100
AcDbEntity
  8
0
  6
ByLayer
 62
  256
370
   -1
100
AcDbCircle
 10
-2095234.760738214
 20
-9670500.000000117
 40
50000
100
AcDbArc
 50
115.8419327631672
 51
244.1580672368329
  0
ARC
  5
F5
100
AcDbEntity
  8
0
  6
ByLayer
 62
  256
370
   -1
100
AcDbCircle
 10
-2095234.760738213
 20
-9854500.000000117
 40
50000
100
AcDbArc
 50
115.8419327631672
 51
244.1580672368329
  0
ARC
  5
F6
100
AcDbEntity
  8
0
  6
ByLayer
 62
  256
370
   -1
100
AcDbCircle
 10
-1988056.781867403
 20
-10406500.00000012
 40
50000
100
AcDbArc
 50
115.8419327631672
 51
244.1580672368329
  0
ARC
  5
F7
100
AcDbEntity
  8
0
  6
ByLayer
 62
  256
370
   -1
100
AcDbCircle
 10
-1988056.781867403
 20
-9670500.000000132
 40
50000
100
AcDbArc
 50
115.8419327631705
 51
244.1580672368364
  0
ARC
  5
F8
100
AcDbEntity
  8
0
  6
ByLayer
 62
  256
370
   -1
100
AcDbCircle
 10
-1988056.781867402
 20
-10038500.00000012
 40
50000
100
AcDbArc
 50
115.8419327631668
 51
244.1580672368326
  0
ARC
  5
F9
100
AcDbEntity
  8
0
  6
ByLayer
 62
  256
370
   -1
100
AcDbCircle
 10
-1988056.781867398
 20
-9854500.000000117
 40
50000
100
AcDbArc
 50
115.841932763166
 51
244.158067236832
  0
ARC
  5
FA
100
AcDbEntity
  8
0
  6
ByLayer
 62
  256
370
   -1
100
AcDbCircle
 10
-1988056.781867403
 20
-10222500.00000012
 40
50000
100
AcDbArc
 50
115.8419327631663
 51
244.1580672368322
  0
ARC
  5
FB
100
AcDbEntity
  8
0
  6
ByLayer
 62
  256
370
   -1
100
AcDbCircle
 10
-2041645.771302811
 20
-10406500.00000012
 40
50000
100
AcDbArc
 50
115.8419327631672
 51
244.1580672368329
  0
ARC
  5
FC
100
AcDbEntity
  8
0
  6
ByLayer
 62
  256
370
   -1
100
AcDbCircle
 10
-2041645.771302811
 20
-9670500.000000132
 40
50000
100
AcDbArc
 50
115.8419327631705
 51
244.1580672368364
  0
ARC
  5
FD
100
AcDbEntity
  8
0
  6
ByLayer
 62
  256
370
   -1
100
AcDbCircle
 10
-2041645.771302807
 20
-10038500.00000012
 40
50000
100
AcDbArc
 50
115.8419327631668
 51
244.1580672368326
  0
ARC
  5
FE
100
AcDbEntity
  8
0
  6
ByLayer
 62
  256
370
   -1
100
AcDbCircle
 10
-2041645.771302805
 20
-9854500.000000117
 40
50000
100
AcDbArc
 50
115.841932763166
 51
244.158067236832
  0
ARC
  5
FF
100
AcDbEntity
  8
0
  6
ByLayer
 62
  256
370
   -1
100
AcDbCircle
 10
-2041645.771302809
 20
-10222500.00000012
 40
50000
100
AcDbArc
 50
115.8419327631663
 51
244.1580672368322
  0
ARC
  5
100
100
AcDbEntity
  8
0
  6
ByLayer
 62
  256
370
   -1
100
AcDbCircle
 10
-2068440.266020513
 20
-10406500.00000012
 40
50000
100
AcDbArc
 50
115.8419327631672
 51
244.1580672368329
  0
ARC
  5
101
100
AcDbEntity
  8
0
  6
ByLayer
 62
  256
370
   -1
100
AcDbCircle
 10
-2068440.266020513
 20
-9670500.000000132
 40
50000
100
AcDbArc
 50
115.8419327631705
 51
244.1580672368364
  0
ARC
  5
102
100
AcDbEntity
  8
0
  6
ByLayer
 62
  256
370
   -1
100
AcDbCircle
 10
-2068440.266020508
 20
-9854500.000000117
 40
50000
100
AcDbArc
 50
115.841932763166
 51
244.158067236832
  0
ARC
  5
103
100
AcDbEntity
  8
0
  6
ByLayer
 62
  256
370
   -1
100
AcDbCircle
 10
-2068440.266020511
 20
-10038500.00000012
 40
50000
100
AcDbArc
 50
115.8419327631668
 51
244.1580672368326
  0
ARC
  5
104
100
AcDbEntity
  8
0
  6
ByLayer
 62
  256
370
   -1
100
AcDbCircle
 10
-2068440.266020513
 20
-10222500.00000012
 40
50000
100
AcDbArc
 50
115.8419327631663
 51
244.1580672368322
  0
ARC
  5
105
100
AcDbEntity
  8
0
  6
ByLayer
 62
  256
370
   -1
100
AcDbCircle
 10
-1813892.566202332
 20
-10498500.00000012
 40
50000
100
AcDbArc
 50
115.8419327631672
 51
244.1580672368329
  0
ARC
  5
106
100
AcDbEntity
  8
0
  6
ByLayer
 62
  256
370
   -1
100
AcDbCircle
 10
-1813892.566202334
 20
-9578500.000000117
 40
50000
100
AcDbArc
 50
115.8419327631705
 51
244.1580672368364
  0
ARC
  5
107
100
AcDbEntity
  8
0
  6
ByLayer
 62
  256
370
   -1
100
AcDbCircle
 10
-1813892.566202329
 20
-9946500.000000117
 40
50000
100
AcDbArc
 50
115.841932763166
 51
244.158067236832
  0
ARC
  5
108
100
AcDbEntity
  8
0
  6
ByLayer
 62
  256
370
   -1
100
AcDbCircle
 10
-1813892.566202325
 20
-9762500.000000117
 40
50000
100
AcDbArc
 50
115.841932763166
 51
244.158067236832
  0
ARC
  5
109
100
AcDbEntity
  8
0
  6
ByLayer
 62
  256
370
   -1
100
AcDbCircle
 10
-1813892.566202329
 20
-10130500.00000012
 40
50000
100
AcDbArc
 50
115.8419327631663
 51
244.1580672368322
  0
ARC
  5
10A
100
AcDbEntity
  8
0
  6
ByLayer
 62
  256
370
   -1
100
AcDbCircle
 10
-1813892.56620233
 20
-10314500.00000012
 40
50000
100
AcDbArc
 50
115.8419327631671
 51
244.1580672368329
  0
ARC
  5
10B
100
AcDbEntity
  8
0
  6
ByLayer
 62
  256
370
   -1
100
AcDbCircle
 10
-1787098.071484629
 20
-10498500.00000012
 40
50000
100
AcDbArc
 50
115.8419327631672
 51
244.1580672368329
  0
ARC
  5
10C
100
AcDbEntity
  8
0
  6
ByLayer
 62
  256
370
   -1
100
AcDbCircle
 10
-1787098.071484632
 20
-9578500.000000117
 40
50000
100
AcDbArc
 50
115.8419327631705
 51
244.1580672368364
  0
ARC
  5
10D
100
AcDbEntity
  8
0
  6
ByLayer
 62
  256
370
   -1
100
AcDbCircle
 10
-1787098.071484625
 20
-9946500.000000117
 40
50000
100
AcDbArc
 50
115.841932763166
 51
244.158067236832
  0
ARC
  5
10E
100
AcDbEntity
  8
0
  6
ByLayer
 62
  256
370
   -1
100
AcDbCircle
 10
-1787098.071484622
 20
-9762500.000000117
 40
50000
100
AcDbArc
 50
115.841932763166
 51
244.158067236832
  0
ARC
  5
10F
100
AcDbEntity
  8
0
  6
ByLayer
 62
  256
370
   -1
100
AcDbCircle
 10
-1787098.071484625
 20
-10130500.00000012
 40
50000
100
AcDbArc
 50
115.8419327631663
 51
244.1580672368322
  0
ARC
  5
110
100
AcDbEntity
  8
0
  6
ByLayer
 62
  256
370
   -1
100
AcDbCircle
 10
-1787098.071484629
 20
-10314500.00000012
 40
50000
100
AcDbArc
 50
115.8419327631671
 51
244.1580672368329
  0
ARC
  5
111
100
AcDbEntity
  8
0
  6
ByLayer
 62
  256
370
   -1
100
AcDbCircle
 10
-1867481.555637739
 20
-10498500.00000012
 40
50000
100
AcDbArc
 50
115.8419327631672
 51
244.1580672368329
  0
ARC
  5
112
100
AcDbEntity
  8
0
  6
ByLayer
 62
  256
370
   -1
100
AcDbCircle
 10
-1867481.555637742
 20
-9578500.000000117
 40
50000
100
AcDbArc
 50
115.8419327631705
 51
244.1580672368364
  0
ARC
  5
113
100
AcDbEntity
  8
0
  6
ByLayer
 62
  256
370
   -1
100
AcDbCircle
 10
-1867481.555637735
 20
-9946500.000000117
 40
50000
100
AcDbArc
 50
115.841932763166
 51
244.158067236832
  0
ARC
  5
114
100
AcDbEntity
  8
0
  6
ByLayer
 62
  256
370
   -1
100
AcDbCircle
 10
-1867481.555637731
 20
-9762500.000000117
 40
50000
100
AcDbArc
 50
115.841932763166
 51
244.158067236832
  0
ARC
  5
115
100
AcDbEntity
  8
0
  6
ByLayer
 62
  256
370
   -1
100
AcDbCircle
 10
-1867481.555637737
 20
-10130500.00000012
 40
50000
100
AcDbArc
 50
115.8419327631663
 51
244.1580672368322
  0
ARC
  5
116
100
AcDbEntity
  8
0
  6
ByLayer
 62
  256
370
   -1
100
AcDbCircle
 10
-1867481.555637739
 20
-10314500.00000012
 40
50000
100
AcDbArc
 50
115.8419327631671
 51
244.1580672368329
  0
ARC
  5
117
100
AcDbEntity
  8
0
  6
ByLayer
 62
  256
370
   -1
100
AcDbCircle
 10
-2001454.029226254
 20
-10498500.00000012
 40
50000
100
AcDbArc
 50
115.8419327631672
 51
244.1580672368329
  0
ARC
  5
118
100
AcDbEntity
  8
0
  6
ByLayer
 62
  256
370
   -1
100
AcDbCircle
 10
-2001454.029226257
 20
-9578500.000000132
 40
50000
100
AcDbArc
 50
115.8419327631705
 51
244.1580672368364
  0
ARC
  5
119
100
AcDbEntity
  8
0
  6
ByLayer
 62
  256
370
   -1
100
AcDbCircle
 10
-2001454.02922625
 20
-9946500.000000117
 40
50000
100
AcDbArc
 50
115.841932763166
 51
244.158067236832
  0
ARC
  5
11A
100
AcDbEntity
  8
0
  6
ByLayer
 62
  256
370
   -1
100
AcDbCircle
 10
-2001454.029226248
 20
-9762500.000000117
 40
50000
100
AcDbArc
 50
115.841932763166
 51
244.158067236832
  0
ARC
  5
11B
100
AcDbEntity
  8
0
  6
ByLayer
 62
  256
370
   -1
100
AcDbCircle
 10
-2001454.029226252
 20
-10130500.00000012
 40
50000
100
AcDbArc
 50
115.8419327631663
 51
244.1580672368322
  0
ARC
  5
11C
100
AcDbEntity
  8
0
  6
ByLayer
 62
  256
370
   -1
100
AcDbCircle
 10
-2001454.029226254
 20
-10314500.00000012
 40
50000
100
AcDbArc
 50
115.8419327631671
 51
244.1580672368329
  0
ARC
  5
11D
100
AcDbEntity
  8
0
  6
ByLayer
 62
  256
370
   -1
100
AcDbCircle
 10
-1840687.060920035
 20
-10498500.00000012
 40
50000
100
AcDbArc
 50
115.8419327631672
 51
244.1580672368329
  0
ARC
  5
11E
100
AcDbEntity
  8
0
  6
ByLayer
 62
  256
370
   -1
100
AcDbCircle
 10
-1840687.060920039
 20
-9578500.000000117
 40
50000
100
AcDbArc
 50
115.8419327631705
 51
244.1580672368364
  0
ARC
  5
11F
100
AcDbEntity
  8
0
  6
ByLayer
 62
  256
370
   -1
100
AcDbCircle
 10
-1840687.060920029
 20
-9762500.000000117
 40
50000
100
AcDbArc
 50
115.841932763166
 51
244.158067236832
  0
ARC
  5
120
100
AcDbEntity
  8
0
  6
ByLayer
 62
  256
370
   -1
100
AcDbCircle
 10
-1840687.060920033
 20
-9946500.000000117
 40
50000
100
AcDbArc
 50
115.841932763166
 51
244.158067236832
  0
ARC
  5
121
100
AcDbEntity
  8
0
  6
ByLayer
 62
  256
370
   -1
100
AcDbCircle
 10
-1840687.060920035
 20
-10314500.00000012
 40
50000
100
AcDbArc
 50
115.8419327631671
 51
244.1580672368329
  0
ARC
  5
122
100
AcDbEntity
  8
0
  6
ByLayer
 62
  256
370
   -1
100
AcDbCircle
 10
-1840687.060920033
 20
-10130500.00000012
 40
50000
100
AcDbArc
 50
115.8419327631663
 51
244.1580672368322
  0
ARC
  5
123
100
AcDbEntity
  8
0
  6
ByLayer
 62
  256
370
   -1
100
AcDbCircle
 10
-2055043.018661662
 20
-10498500.00000012
 40
50000
100
AcDbArc
 50
115.8419327631672
 51
244.1580672368329
  0
ARC
  5
124
100
AcDbEntity
  8
0
  6
ByLayer
 62
  256
370
   -1
100
AcDbCircle
 10
-2055043.018661669
 20
-9578500.000000132
 40
50000
100
AcDbArc
 50
115.8419327631705
 51
244.1580672368364
  0
ARC
  5
125
100
AcDbEntity
  8
0
  6
ByLayer
 62
  256
370
   -1
100
AcDbCircle
 10
-2055043.018661655
 20
-9762500.000000117
 40
50000
100
AcDbArc
 50
115.841932763166
 51
244.158067236832
  0
ARC
  5
126
100
AcDbEntity
  8
0
  6
ByLayer
 62
  256
370
   -1
100
AcDbCircle
 10
-2055043.018661658
 20
-9946500.000000117
 40
50000
100
AcDbArc
 50
115.841932763166
 51
244.158067236832
  0
ARC
  5
127
100
AcDbEntity
  8
0
  6
ByLayer
 62
  256
370
   -1
100
AcDbCircle
 10
-2055043.018661662
 20
-10314500.00000012
 40
50000
100
AcDbArc
 50
115.8419327631671
 51
244.1580672368329
  0
ARC
  5
128
100
AcDbEntity
  8
0
  6
ByLayer
 62
  256
370
   -1
100
AcDbCircle
 10
-2055043.018661658
 20
-10130500.00000012
 40
50000
100
AcDbArc
 50
115.8419327631663
 51
244.1580672368322
  0
ARC
  5
129
100
AcDbEntity
  8
0
  6
ByLayer
 62
  256
370
   -1
100
AcDbCircle
 10
-1894276.050355442
 20
-10498500.00000012
 40
50000
100
AcDbArc
 50
115.8419327631672
 51
244.1580672368329
  0
ARC
  5
12A
100
AcDbEntity
  8
0
  6
ByLayer
 62
  256
370
   -1
100
AcDbCircle
 10
-1894276.050355446
 20
-9578500.000000117
 40
50000
100
AcDbArc
 50
115.8419327631705
 51
244.1580672368364
  0
ARC
  5
12B
100
AcDbEntity
  8
0
  6
ByLayer
 62
  256
370
   -1
100
AcDbCircle
 10
-1894276.050355435
 20
-9762500.000000117
 40
50000
100
AcDbArc
 50
115.841932763166
 51
244.158067236832
  0
ARC
  5
12C
100
AcDbEntity
  8
0
  6
ByLayer
 62
  256
370
   -1
100
AcDbCircle
 10
-1894276.050355439
 20
-9946500.000000117
 40
50000
100
AcDbArc
 50
115.841932763166
 51
244.158067236832
  0
ARC
  5
12D
100
AcDbEntity
  8
0
  6
ByLayer
 62
  256
370
   -1
100
AcDbCircle
 10
-1894276.050355442
 20
-10314500.00000012
 40
50000
100
AcDbArc
 50
115.8419327631671
 51
244.1580672368329
  0
ARC
  5
12E
100
AcDbEntity
  8
0
  6
ByLayer
 62
  256
370
   -1
100
AcDbCircle
 10
-1894276.05035544
 20
-10130500.00000012
 40
50000
100
AcDbArc
 50
115.8419327631663
 51
244.1580672368322
  0
ARC
  5
12F
100
AcDbEntity
  8
0
  6
ByLayer
 62
  256
370
   -1
100
AcDbCircle
 10
-2028248.523943958
 20
-10498500.00000012
 40
50000
100
AcDbArc
 50
115.8419327631672
 51
244.1580672368329
  0
ARC
  5
130
100
AcDbEntity
  8
0
  6
ByLayer
 62
  256
370
   -1
100
AcDbCircle
 10
-2028248.523943962
 20
-9578500.000000132
 40
50000
100
AcDbArc
 50
115.8419327631705
 51
244.1580672368364
  0
ARC
  5
131
100
AcDbEntity
  8
0
  6
ByLayer
 62
  256
370
   -1
100
AcDbCircle
 10
-2028248.523943952
 20
-9762500.000000117
 40
50000
100
AcDbArc
 50
115.841932763166
 51
244.158067236832
  0
ARC
  5
132
100
AcDbEntity
  8
0
  6
ByLayer
 62
  256
370
   -1
100
AcDbCircle
 10
-2028248.523943954
 20
-9946500.000000117
 40
50000
100
AcDbArc
 50
115.841932763166
 51
244.158067236832
  0
ARC
  5
133
100
AcDbEntity
  8
0
  6
ByLayer
 62
  256
370
   -1
100
AcDbCircle
 10
-2028248.523943958
 20
-10314500.00000012
 40
50000
100
AcDbArc
 50
115.8419327631671
 51
244.1580672368329
  0
ARC
  5
134
100
AcDbEntity
  8
0
  6
ByLayer
 62
  256
370
   -1
100
AcDbCircle
 10
-2028248.523943956
 20
-10130500.00000012
 40
50000
100
AcDbArc
 50
115.8419327631663
 51
244.1580672368322
  0
ARC
  5
135
100
AcDbEntity
  8
0
  6
ByLayer
 62
  256
370
   -1
100
AcDbCircle
 10
-1974659.534508552
 20
-10498500.00000012
 40
50000
100
AcDbArc
 50
115.8419327631672
 51
244.1580672368329
  0
ARC
  5
136
100
AcDbEntity
  8
0
  6
ByLayer
 62
  256
370
   -1
100
AcDbCircle
 10
-1974659.534508555
 20
-9578500.000000132
 40
50000
100
AcDbArc
 50
115.8419327631705
 51
244.1580672368364
  0
ARC
  5
137
100
AcDbEntity
  8
0
  6
ByLayer
 62
  256
370
   -1
100
AcDbCircle
 10
-1974659.534508545
 20
-9762500.000000117
 40
50000
100
AcDbArc
 50
115.841932763166
 51
244.158067236832
  0
ARC
  5
138
100
AcDbEntity
  8
0
  6
ByLayer
 62
  256
370
   -1
100
AcDbCircle
 10
-1974659.534508549
 20
-9946500.000000117
 40
50000
100
AcDbArc
 50
115.841932763166
 51
244.158067236832
  0
ARC
  5
139
100
AcDbEntity
  8
0
  6
ByLayer
 62
  256
370
   -1
100
AcDbCircle
 10
-1974659.534508552
 20
-10314500.00000012
 40
50000
100
AcDbArc
 50
115.8419327631671
 51
244.1580672368329
  0
ARC
  5
13A
100
AcDbEntity
  8
0
  6
ByLayer
 62
  256
370
   -1
100
AcDbCircle
 10
-1974659.534508551
 20
-10130500.00000012
 40
50000
100
AcDbArc
 50
115.8419327631663
 51
244.1580672368322
  0
ARC
  5
13B
100
AcDbEntity
  8
0
  6
ByLayer
 62
  256
370
   -1
100
AcDbCircle
 10
-2081837.513379365
 20
-10498500.00000012
 40
50000
100
AcDbArc
 50
115.8419327631672
 51
244.1580672368329
  0
ARC
  5
13C
100
AcDbEntity
  8
0
  6
ByLayer
 62
  256
370
   -1
100
AcDbCircle
 10
-2081837.513379367
 20
-9578500.000000132
 40
50000
100
AcDbArc
 50
115.8419327631705
 51
244.1580672368364
  0
ARC
  5
13D
100
AcDbEntity
  8
0
  6
ByLayer
 62
  256
370
   -1
100
AcDbCircle
 10
-2081837.513379364
 20
-9946500.000000117
 40
50000
100
AcDbArc
 50
115.8419327631671
 51
244.1580672368329
  0
ARC
  5
13E
100
AcDbEntity
  8
0
  6
ByLayer
 62
  256
370
   -1
100
AcDbCircle
 10
-2081837.513379364
 20
-10130500.00000012
 40
50000
100
AcDbArc
 50
115.8419327631671
 51
244.1580672368329
  0
ARC
  5
13F
100
AcDbEntity
  8
0
  6
ByLayer
 62
  256
370
   -1
100
AcDbCircle
 10
-2081837.513379362
 20
-9762500.000000117
 40
50000
100
AcDbArc
 50
115.8419327631671
 51
244.1580672368329
  0
ARC
  5
140
100
AcDbEntity
  8
0
  6
ByLayer
 62
  256
370
   -1
100
AcDbCircle
 10
-2081837.513379365
 20
-10314500.00000012
 40
50000
100
AcDbArc
 50
115.8419327631671
 51
244.1580672368329
  0
ARC
  5
141
100
AcDbEntity
  8
0
  6
ByLayer
 62
  256
370
   -1
100
AcDbCircle
 10
-2134481.74588415
 20
-10314500.00000012
 40
40000
100
AcDbArc
 50
77.67738329380659
 51
282.3226167061934
  0
ARC
  5
142
100
AcDbEntity
  8
0
  6
ByLayer
 62
  256
370
   -1
100
AcDbCircle
 10
-2134481.745884147
 20
-9946500.000000117
 40
40000
100
AcDbArc
 50
77.67738329380659
 51
282.3226167061934
  0
ARC
  5
143
100
AcDbEntity
  8
0
  6
ByLayer
 62
  256
370
   -1
100
AcDbCircle
 10
-2134481.745884148
 20
-10130500.00000012
 40
40000
100
AcDbArc
 50
77.67738329380659
 51
282.3226167061934
  0
ARC
  5
144
100
AcDbEntity
  8
0
  6
ByLayer
 62
  256
370
   -1
100
AcDbCircle
 10
-2134481.745884147
 20
-9762500.000000117
 40
40000
100
AcDbArc
 50
77.67738329380659
 51
282.3226167061934
  0
ARC
  5
145
100
AcDbEntity
  8
0
  6
ByLayer
 62
  256
370
   -1
100
AcDbCircle
 10
-2134481.74588415
 20
-10406500.00000012
 40
40000
100
AcDbArc
 50
94.9474305358795
 51
265.0525694641156
  0
ARC
  5
146
100
AcDbEntity
  8
0
  6
ByLayer
 62
  256
370
   -1
100
AcDbCircle
 10
-2134481.745884148
 20
-10038500.00000012
 40
40000
100
AcDbArc
 50
94.9474305358795
 51
265.0525694641156
  0
ARC
  5
147
100
AcDbEntity
  8
0
  6
ByLayer
 62
  256
370
   -1
100
AcDbCircle
 10
-2134481.745884148
 20
-10222500.00000012
 40
40000
100
AcDbArc
 50
94.9474305358795
 51
265.0525694641156
  0
ARC
  5
148
100
AcDbEntity
  8
0
  6
ByLayer
 62
  256
370
   -1
100
AcDbCircle
 10
-2134481.745884148
 20
-9670500.000000117
 40
40000
100
AcDbArc
 50
94.9474305358795
 51
265.0525694641156
  0
ARC
  5
149
100
AcDbEntity
  8
0
  6
ByLayer
 62
  256
370
   -1
100
AcDbCircle
 10
-2134481.74588415
 20
-9854500.000000117
 40
40000
100
AcDbArc
 50
94.9474305358795
 51
265.0525694641156
  0
ARC
  5
14A
100
AcDbEntity
  8
0
  6
ByLayer
 62
  256
370
   -1
100
AcDbCircle
 10
-2139481.745884147
 20
-9588902.701151086
 40
35000
100
AcDbArc
 50
180
 51
277.22986881998
  0
ARC
  5
14B
100
AcDbEntity
  8
0
  6
ByLayer
 62
  256
370
   -1
100
AcDbCircle
 10
-2139481.74588415
 20
-10488097.29884914
 40
35000
100
AcDbArc
 50
82.77013118001989
 51
180
  0
LINE
  5
14C
100
AcDbEntity
  8
0
  6
ByLayer
 62
  256
370
   -1
100
AcDbLine
 10
-2239884.447034742
 20
-10553500.00000012
 11
-2674481.74588415
 21
-10553500.00000012
  0
LINE
  5
14D
100
AcDbEntity
  8
0
  6
ByLayer
 62
  256
370
   -1
100
AcDbLine
 10
-1774481.745884148
 20
-9530000.000000117
 11
-1783223.181846105
 21
-9533514.067458106
  0
LINE
  5
14E
100
AcDbEntity
  8
0
  6
ByLayer
 62
  256
370
   -1
100
AcDbLine
 10
-1774481.74588415
 20
-10547000.00000012
 11
-1783223.181846106
 21
-10543485.93254213
  0
ARC
  5
14F
100
AcDbEntity
  8
0
  6
ByLayer
 62
  256
370
   -1
100
AcDbCircle
 10
-2238884.447035127
 20
-9587902.701151108
 40
64410.46433260608
100
AcDbArc
 50
359.1104227844322
 51
90.88957721523005
  0
ARC
  5
150
100
AcDbEntity
  8
0
  6
ByLayer
 62
  256
370
   -1
100
AcDbCircle
 10
-2238884.447035125
 20
-10489097.29884914
 40
64410.46433260608
100
AcDbArc
 50
269.11042278477
 51
0.8895772155678463
  0
LINE
  5
151
100
AcDbEntity
  8
0
  6
ByLayer
 62
  256
370
   -1
100
AcDbLine
 10
-1774481.745884148
 20
-9523500.000000117
 11
-1274481.74588415
 21
-9523500.000000117
  0
LINE
  5
152
100
AcDbEntity
  8
0
  6
ByLayer
 62
  256
370
   -1
100
AcDbLine
 10
-1774481.745884152
 20
-10553500.00000012
 11
-1274481.74588415
 21
-10553500.00000012
  0
LINE
  5
153
100
AcDbEntity
  8
0
  6
ByLayer
 62
  256
370
   -1
100
AcDbLine
 10
-2674481.74588415
 20
-10553500.00000012
 11
-2674481.74588415
 21
-9523500.000000117
  0
LINE
  5
154
100
AcDbEntity
  8
0
  6
ByLayer
 62
  256
370
   -1
100
AcDbLine
 10
-1274481.74588415
 20
-9523500.000000117
 11
-1274481.74588415
 21
-10553500.00000012
  0
LINE
  5
155
100
AcDbEntity
  8
0
  6
ByLayer
 62
  256
370
   -1
100
AcDbLine
 10
-1774481.74588415
 20
-10547000.00000012
 11
-1774481.74588415
 21
-10543500.00000012
  0
LINE
  5
156
100
AcDbEntity
  8
0
  6
ByLayer
 62
  256
370
   -1
100
AcDbLine
 10
-1774481.74588415
 20
-10359500.00000012
 11
-1778481.745884152
 21
-10355500.00000012
  0
LINE
  5
157
100
AcDbEntity
  8
0
  6
ByLayer
 62
  256
370
   -1
100
AcDbLine
 10
-1774481.745884143
 20
-9901500.000000117
 11
-1778481.745884147
 21
-9905500.000000117
  0
LINE
  5
158
100
AcDbEntity
  8
0
  6
ByLayer
 62
  256
370
   -1
100
AcDbLine
 10
-1774481.745884152
 20
-9623500.000000117
 11
-1778481.745884152
 21
-9619500.000000117
  0
LINE
  5
159
100
AcDbEntity
  8
0
  6
ByLayer
 62
  256
370
   -1
100
AcDbLine
 10
-1774481.74588415
 20
-9533500.000000097
 11
-1778481.745884156
 21
-9537500.000000117
  0
LINE
  5
15A
100
AcDbEntity
  8
0
  6
ByLayer
 62
  256
370
   -1
100
AcDbLine
 10
-1774481.745884152
 20
-9991500.000000117
 11
-1778481.745884148
 21
-9987500.000000117
  0
LINE
  5
15B
100
AcDbEntity
  8
0
  6
ByLayer
 62
  256
370
   -1
100
AcDbLine
 10
-1774481.745884139
 20
-9717500.000000117
 11
-1778481.745884142
 21
-9721500.000000117
  0
LINE
  5
15C
100
AcDbEntity
  8
0
  6
ByLayer
 62
  256
370
   -1
100
AcDbLine
 10
-1774481.745884148
 20
-9807500.000000117
 11
-1778481.745884145
 21
-9803500.000000117
  0
LINE
  5
15D
100
AcDbEntity
  8
0
  6
ByLayer
 62
  256
370
   -1
100
AcDbLine
 10
-1774481.745884145
 20
-10085500.00000012
 11
-1778481.745884147
 21
-10089500.00000012
  0
LINE
  5
15E
100
AcDbEntity
  8
0
  6
ByLayer
 62
  256
370
   -1
100
AcDbLine
 10
-1774481.745884152
 20
-10175500.00000012
 11
-1778481.745884148
 21
-10171500.00000012
  0
LINE
  5
15F
100
AcDbEntity
  8
0
  6
ByLayer
 62
  256
370
   -1
100
AcDbLine
 10
-1774481.74588415
 20
-10269500.00000012
 11
-1778481.74588415
 21
-10273500.00000012
  0
LINE
  5
160
100
AcDbEntity
  8
0
  6
ByLayer
 62
  256
370
   -1
100
AcDbLine
 10
-1774481.74588415
 20
-10453500.00000012
 11
-1778481.74588415
 21
-10457500.00000012
  0
LINE
  5
161
100
AcDbEntity
  8
0
  6
ByLayer
 62
  256
370
   -1
100
AcDbLine
 10
-1774481.74588415
 20
-10543500.00000012
 11
-1778481.74588415
 21
-10539500.00000012
  0
LINE
  5
162
100
AcDbEntity
  8
0
  6
ByLayer
 62
  256
370
   -1
100
AcDbLine
 10
-1778481.745884152
 20
-10355500.00000012
 11
-1788481.745884152
 21
-10355500.00000012
  0
LINE
  5
163
100
AcDbEntity
  8
0
  6
ByLayer
 62
  256
370
   -1
100
AcDbLine
 10
-1778481.745884147
 20
-9905500.000000117
 11
-1788481.745884147
 21
-9905500.000000117
  0
LINE
  5
164
100
AcDbEntity
  8
0
  6
ByLayer
 62
  256
370
   -1
100
AcDbLine
 10
-1778481.745884152
 20
-9619500.000000117
 11
-1788481.745884152
 21
-9619500.000000117
  0
LINE
  5
165
100
AcDbEntity
  8
0
  6
ByLayer
 62
  256
370
   -1
100
AcDbLine
 10
-1778481.745884156
 20
-9537500.000000117
 11
-1788481.745884158
 21
-9537500.000000117
  0
LINE
  5
166
100
AcDbEntity
  8
0
  6
ByLayer
 62
  256
370
   -1
100
AcDbLine
 10
-1778481.745884148
 20
-9987500.000000117
 11
-1788481.745884147
 21
-9987500.000000117
  0
LINE
  5
167
100
AcDbEntity
  8
0
  6
ByLayer
 62
  256
370
   -1
100
AcDbLine
 10
-1778481.745884142
 20
-9721500.000000117
 11
-1788481.745884143
 21
-9721500.000000117
  0
LINE
  5
168
100
AcDbEntity
  8
0
  6
ByLayer
 62
  256
370
   -1
100
AcDbLine
 10
-1778481.745884145
 20
-9803500.000000117
 11
-1788481.745884145
 21
-9803500.000000117
  0
LINE
  5
169
100
AcDbEntity
  8
0
  6
ByLayer
 62
  256
370
   -1
100
AcDbLine
 10
-1778481.745884147
 20
-10089500.00000012
 11
-1788481.745884147
 21
-10089500.00000012
  0
LINE
  5
16A
100
AcDbEntity
  8
0
  6
ByLayer
 62
  256
370
   -1
100
AcDbLine
 10
-1778481.745884148
 20
-10171500.00000012
 11
-1788481.745884148
 21
-10171500.00000012
  0
LINE
  5
16B
100
AcDbEntity
  8
0
  6
ByLayer
 62
  256
370
   -1
100
AcDbLine
 10
-1778481.74588415
 20
-10273500.00000012
 11
-1788481.74588415
 21
-10273500.00000012
  0
LINE
  5
16C
100
AcDbEntity
  8
0
  6
ByLayer
 62
  256
370
   -1
100
AcDbLine
 10
-1778481.74588415
 20
-10457500.00000012
 11
-1788481.74588415
 21
-10457500.00000012
  0
LINE
  5
16D
100
AcDbEntity
  8
0
  6
ByLayer
 62
  256
370
   -1
100
AcDbLine
 10
-1778481.74588415
 20
-10539500.00000012
 11
-1788481.74588415
 21
-10539500.00000012
  0
LINE
  5
16E
100
AcDbEntity
  8
0
  6
ByLayer
 62
  256
370
   -1
100
AcDbLine
 10
-1778481.745884156
 20
-9542500.000000117
 11
-1788481.745884156
 21
-9542500.000000117
  0
LINE
  5
16F
100
AcDbEntity
  8
0
  6
ByLayer
 62
  256
370
   -1
100
AcDbLine
 10
-1778481.745884152
 20
-10350500.00000012
 11
-1788481.745884152
 21
-10350500.00000012
  0
LINE
  5
170
100
AcDbEntity
  8
0
  6
ByLayer
 62
  256
370
   -1
100
AcDbLine
 10
-1778481.745884147
 20
-9910500.000000117
 11
-1788481.745884145
 21
-9910500.000000117
  0
LINE
  5
171
100
AcDbEntity
  8
0
  6
ByLayer
 62
  256
370
   -1
100
AcDbLine
 10
-1778481.745884152
 20
-9614500.000000117
 11
-1788481.745884154
 21
-9614500.000000117
  0
LINE
  5
172
100
AcDbEntity
  8
0
  6
ByLayer
 62
  256
370
   -1
100
AcDbLine
 10
-1778481.745884147
 20
-9982500.000000117
 11
-1788481.745884147
 21
-9982500.000000117
  0
LINE
  5
173
100
AcDbEntity
  8
0
  6
ByLayer
 62
  256
370
   -1
100
AcDbLine
 10
-1778481.745884143
 20
-9798500.000000117
 11
-1788481.745884143
 21
-9798500.000000117
  0
LINE
  5
174
100
AcDbEntity
  8
0
  6
ByLayer
 62
  256
370
   -1
100
AcDbLine
 10
-1778481.745884142
 20
-9726500.000000117
 11
-1788481.745884143
 21
-9726500.000000117
  0
LINE
  5
175
100
AcDbEntity
  8
0
  6
ByLayer
 62
  256
370
   -1
100
AcDbLine
 10
-1778481.74588415
 20
-10278500.00000012
 11
-1788481.74588415
 21
-10278500.00000012
  0
LINE
  5
176
100
AcDbEntity
  8
0
  6
ByLayer
 62
  256
370
   -1
100
AcDbLine
 10
-1778481.745884147
 20
-10094500.00000012
 11
-1788481.745884147
 21
-10094500.00000012
  0
LINE
  5
177
100
AcDbEntity
  8
0
  6
ByLayer
 62
  256
370
   -1
100
AcDbLine
 10
-1778481.745884148
 20
-10166500.00000012
 11
-1788481.745884148
 21
-10166500.00000012
  0
LINE
  5
178
100
AcDbEntity
  8
0
  6
ByLayer
 62
  256
370
   -1
100
AcDbLine
 10
-1778481.74588415
 20
-10462500.00000012
 11
-1788481.74588415
 21
-10462500.00000012
  0
LINE
  5
179
100
AcDbEntity
  8
0
  6
ByLayer
 62
  256
370
   -1
100
AcDbLine
 10
-1778481.74588415
 20
-10534500.00000012
 11
-1788481.74588415
 21
-10534500.00000012
  0
LINE
  5
17A
100
AcDbEntity
  8
0
  6
ByLayer
 62
  256
370
   -1
100
AcDbLine
 10
-1778481.745884156
 20
-9542500.000000117
 11
-1776481.745884156
 21
-9542500.000000117
  0
LINE
  5
17B
100
AcDbEntity
  8
0
  6
ByLayer
 62
  256
370
   -1
100
AcDbLine
 10
-1778481.745884152
 20
-10350500.00000012
 11
-1776481.745884152
 21
-10350500.00000012
  0
LINE
  5
17C
100
AcDbEntity
  8
0
  6
ByLayer
 62
  256
370
   -1
100
AcDbLine
 10
-1778481.745884147
 20
-9910500.000000117
 11
-1776481.745884147
 21
-9910500.000000117
  0
LINE
  5
17D
100
AcDbEntity
  8
0
  6
ByLayer
 62
  256
370
   -1
100
AcDbLine
 10
-1778481.745884152
 20
-9614500.000000117
 11
-1776481.745884152
 21
-9614500.000000117
  0
LINE
  5
17E
100
AcDbEntity
  8
0
  6
ByLayer
 62
  256
370
   -1
100
AcDbLine
 10
-1778481.745884147
 20
-9982500.000000117
 11
-1776481.745884147
 21
-9982500.000000117
  0
LINE
  5
17F
100
AcDbEntity
  8
0
  6
ByLayer
 62
  256
370
   -1
100
AcDbLine
 10
-1778481.745884143
 20
-9798500.000000117
 11
-1776481.745884145
 21
-9798500.000000117
  0
LINE
  5
180
100
AcDbEntity
  8
0
  6
ByLayer
 62
  256
370
   -1
100
AcDbLine
 10
-1778481.745884142
 20
-9726500.000000117
 11
-1776481.745884143
 21
-9726500.000000117
  0
LINE
  5
181
100
AcDbEntity
  8
0
  6
ByLayer
 62
  256
370
   -1
100
AcDbLine
 10
-1778481.74588415
 20
-10278500.00000012
 11
-1776481.74588415
 21
-10278500.00000012
  0
LINE
  5
182
100
AcDbEntity
  8
0
  6
ByLayer
 62
  256
370
   -1
100
AcDbLine
 10
-1778481.745884147
 20
-10094500.00000012
 11
-1776481.745884147
 21
-10094500.00000012
  0
LINE
  5
183
100
AcDbEntity
  8
0
  6
ByLayer
 62
  256
370
   -1
100
AcDbLine
 10
-1778481.745884148
 20
-10166500.00000012
 11
-1776481.745884148
 21
-10166500.00000012
  0
LINE
  5
184
100
AcDbEntity
  8
0
  6
ByLayer
 62
  256
370
   -1
100
AcDbLine
 10
-1778481.74588415
 20
-10462500.00000012
 11
-1776481.74588415
 21
-10462500.00000012
  0
LINE
  5
185
100
AcDbEntity
  8
0
  6
ByLayer
 62
  256
370
   -1
100
AcDbLine
 10
-1778481.74588415
 20
-10534500.00000012
 11
-1776481.74588415
 21
-10534500.00000012
  0
LINE
  5
186
100
AcDbEntity
  8
0
  6
ByLayer
 62
  256
370
   -1
100
AcDbLine
 10
-1776481.745884152
 20
-9614500.000000117
 11
-1774481.745884152
 21
-9612500.000000117
  0
LINE
  5
187
100
AcDbEntity
  8
0
  6
ByLayer
 62
  256
370
   -1
100
AcDbLine
 10
-1776481.745884156
 20
-9542500.000000117
 11
-1774481.745884156
 21
-9544500.000000117
  0
LINE
  5
188
100
AcDbEntity
  8
0
  6
ByLayer
 62
  256
370
   -1
100
AcDbLine
 10
-1776481.745884147
 20
-9910500.000000117
 11
-1774481.745884147
 21
-9912500.000000117
  0
LINE
  5
189
100
AcDbEntity
  8
0
  6
ByLayer
 62
  256
370
   -1
100
AcDbLine
 10
-1776481.745884147
 20
-9982500.000000117
 11
-1774481.745884147
 21
-9980500.000000117
  0
LINE
  5
18A
100
AcDbEntity
  8
0
  6
ByLayer
 62
  256
370
   -1
100
AcDbLine
 10
-1776481.745884143
 20
-9726500.000000117
 11
-1774481.745884143
 21
-9728500.000000117
  0
LINE
  5
18B
100
AcDbEntity
  8
0
  6
ByLayer
 62
  256
370
   -1
100
AcDbLine
 10
-1776481.745884145
 20
-9798500.000000117
 11
-1774481.745884143
 21
-9796500.000000117
  0
LINE
  5
18C
100
AcDbEntity
  8
0
  6
ByLayer
 62
  256
370
   -1
100
AcDbLine
 10
-1776481.74588415
 20
-10350500.00000012
 11
-1774481.74588415
 21
-10348500.00000012
  0
LINE
  5
18D
100
AcDbEntity
  8
0
  6
ByLayer
 62
  256
370
   -1
100
AcDbLine
 10
-1776481.745884147
 20
-10094500.00000012
 11
-1774481.745884147
 21
-10096500.00000012
  0
LINE
  5
18E
100
AcDbEntity
  8
0
  6
ByLayer
 62
  256
370
   -1
100
AcDbLine
 10
-1776481.745884148
 20
-10166500.00000012
 11
-1774481.745884148
 21
-10164500.00000012
  0
LINE
  5
18F
100
AcDbEntity
  8
0
  6
ByLayer
 62
  256
370
   -1
100
AcDbLine
 10
-1776481.74588415
 20
-10534500.00000012
 11
-1774481.74588415
 21
-10532500.00000012
  0
LINE
  5
190
100
AcDbEntity
  8
0
  6
ByLayer
 62
  256
370
   -1
100
AcDbLine
 10
-1776481.74588415
 20
-10278500.00000012
 11
-1774481.74588415
 21
-10280500.00000012
  0
LINE
  5
191
100
AcDbEntity
  8
0
  6
ByLayer
 62
  256
370
   -1
100
AcDbLine
 10
-1776481.74588415
 20
-10462500.00000012
 11
-1774481.74588415
 21
-10464500.00000012
  0
LINE
  5
192
100
AcDbEntity
  8
0
  6
ByLayer
 62
  256
370
   -1
100
AcDbLine
 10
-1774481.745884156
 20
-9553500.000000117
 11
-1776481.745884156
 21
-9555500.000000117
  0
LINE
  5
193
100
AcDbEntity
  8
0
  6
ByLayer
 62
  256
370
   -1
100
AcDbLine
 10
-1774481.745884152
 20
-9603500.000000117
 11
-1776481.745884152
 21
-9601500.000000117
  0
LINE
  5
194
100
AcDbEntity
  8
0
  6
ByLayer
 62
  256
370
   -1
100
AcDbLine
 10
-1774481.745884152
 20
-9594500.000000117
 11
-1776481.745884154
 21
-9592500.000000117
  0
LINE
  5
195
100
AcDbEntity
  8
0
  6
ByLayer
 62
  256
370
   -1
100
AcDbLine
 10
-1774481.745884152
 20
-9612500.000000117
 11
-1776481.745884152
 21
-9610500.000000117
  0
LINE
  5
196
100
AcDbEntity
  8
0
  6
ByLayer
 62
  256
370
   -1
100
AcDbLine
 10
-1774481.745884156
 20
-9562500.000000117
 11
-1776481.745884156
 21
-9564500.000000117
  0
LINE
  5
197
100
AcDbEntity
  8
0
  6
ByLayer
 62
  256
370
   -1
100
AcDbLine
 10
-1774481.745884156
 20
-9544500.000000117
 11
-1776481.745884156
 21
-9546500.000000117
  0
LINE
  5
198
100
AcDbEntity
  8
0
  6
ByLayer
 62
  256
370
   -1
100
AcDbLine
 10
-1774481.745884156
 20
-9571500.000000117
 11
-1776481.745884154
 21
-9573500.000000117
  0
LINE
  5
199
100
AcDbEntity
  8
0
  6
ByLayer
 62
  256
370
   -1
100
AcDbLine
 10
-1774481.745884147
 20
-9912500.000000117
 11
-1776481.745884147
 21
-9914500.000000117
  0
LINE
  5
19A
100
AcDbEntity
  8
0
  6
ByLayer
 62
  256
370
   -1
100
AcDbLine
 10
-1774481.745884147
 20
-9930500.000000117
 11
-1776481.745884147
 21
-9932500.000000117
  0
LINE
  5
19B
100
AcDbEntity
  8
0
  6
ByLayer
 62
  256
370
   -1
100
AcDbLine
 10
-1774481.745884147
 20
-9921500.000000117
 11
-1776481.745884147
 21
-9923500.000000117
  0
LINE
  5
19C
100
AcDbEntity
  8
0
  6
ByLayer
 62
  256
370
   -1
100
AcDbLine
 10
-1774481.745884147
 20
-9971500.000000117
 11
-1776481.745884147
 21
-9969500.000000117
  0
LINE
  5
19D
100
AcDbEntity
  8
0
  6
ByLayer
 62
  256
370
   -1
100
AcDbLine
 10
-1774481.745884147
 20
-9953500.000000117
 11
-1776481.745884147
 21
-9951500.000000117
  0
LINE
  5
19E
100
AcDbEntity
  8
0
  6
ByLayer
 62
  256
370
   -1
100
AcDbLine
 10
-1774481.745884147
 20
-9980500.000000117
 11
-1776481.745884147
 21
-9978500.000000117
  0
LINE
  5
19F
100
AcDbEntity
  8
0
  6
ByLayer
 62
  256
370
   -1
100
AcDbLine
 10
-1774481.745884147
 20
-9962500.000000117
 11
-1776481.745884147
 21
-9960500.000000117
  0
LINE
  5
1A0
100
AcDbEntity
  8
0
  6
ByLayer
 62
  256
370
   -1
100
AcDbLine
 10
-1774481.745884143
 20
-9755500.000000117
 11
-1776481.745884143
 21
-9757500.000000117
  0
LINE
  5
1A1
100
AcDbEntity
  8
0
  6
ByLayer
 62
  256
370
   -1
100
AcDbLine
 10
-1774481.745884143
 20
-9728500.000000117
 11
-1776481.745884143
 21
-9730500.000000117
  0
LINE
  5
1A2
100
AcDbEntity
  8
0
  6
ByLayer
 62
  256
370
   -1
100
AcDbLine
 10
-1774481.745884143
 20
-9746500.000000117
 11
-1776481.745884143
 21
-9748500.000000117
  0
LINE
  5
1A3
100
AcDbEntity
  8
0
  6
ByLayer
 62
  256
370
   -1
100
AcDbLine
 10
-1774481.745884143
 20
-9787500.000000117
 11
-1776481.745884143
 21
-9785500.000000117
  0
LINE
  5
1A4
100
AcDbEntity
  8
0
  6
ByLayer
 62
  256
370
   -1
100
AcDbLine
 10
-1774481.745884143
 20
-9737500.000000117
 11
-1776481.745884143
 21
-9739500.000000117
  0
LINE
  5
1A5
100
AcDbEntity
  8
0
  6
ByLayer
 62
  256
370
   -1
100
AcDbLine
 10
-1774481.745884143
 20
-9796500.000000117
 11
-1776481.745884145
 21
-9794500.000000117
  0
LINE
  5
1A6
100
AcDbEntity
  8
0
  6
ByLayer
 62
  256
370
   -1
100
AcDbLine
 10
-1774481.745884143
 20
-9778500.000000117
 11
-1776481.745884145
 21
-9776500.000000117
  0
LINE
  5
1A7
100
AcDbEntity
  8
0
  6
ByLayer
 62
  256
370
   -1
100
AcDbLine
 10
-1774481.74588415
 20
-10339500.00000012
 11
-1776481.74588415
 21
-10337500.00000012
  0
LINE
  5
1A8
100
AcDbEntity
  8
0
  6
ByLayer
 62
  256
370
   -1
100
AcDbLine
 10
-1774481.74588415
 20
-10289500.00000012
 11
-1776481.74588415
 21
-10291500.00000012
  0
LINE
  5
1A9
100
AcDbEntity
  8
0
  6
ByLayer
 62
  256
370
   -1
100
AcDbLine
 10
-1774481.74588415
 20
-10330500.00000012
 11
-1776481.74588415
 21
-10328500.00000012
  0
LINE
  5
1AA
100
AcDbEntity
  8
0
  6
ByLayer
 62
  256
370
   -1
100
AcDbLine
 10
-1774481.74588415
 20
-10348500.00000012
 11
-1776481.74588415
 21
-10346500.00000012
  0
LINE
  5
1AB
100
AcDbEntity
  8
0
  6
ByLayer
 62
  256
370
   -1
100
AcDbLine
 10
-1774481.745884148
 20
-10114500.00000012
 11
-1776481.745884148
 21
-10116500.00000012
  0
LINE
  5
1AC
100
AcDbEntity
  8
0
  6
ByLayer
 62
  256
370
   -1
100
AcDbLine
 10
-1774481.745884147
 20
-10096500.00000012
 11
-1776481.745884148
 21
-10098500.00000012
  0
LINE
  5
1AD
100
AcDbEntity
  8
0
  6
ByLayer
 62
  256
370
   -1
100
AcDbLine
 10
-1774481.745884148
 20
-10123500.00000012
 11
-1776481.745884148
 21
-10125500.00000012
  0
LINE
  5
1AE
100
AcDbEntity
  8
0
  6
ByLayer
 62
  256
370
   -1
100
AcDbLine
 10
-1774481.745884148
 20
-10155500.00000012
 11
-1776481.745884148
 21
-10153500.00000012
  0
LINE
  5
1AF
100
AcDbEntity
  8
0
  6
ByLayer
 62
  256
370
   -1
100
AcDbLine
 10
-1774481.745884147
 20
-10105500.00000012
 11
-1776481.745884147
 21
-10107500.00000012
  0
LINE
  5
1B0
100
AcDbEntity
  8
0
  6
ByLayer
 62
  256
370
   -1
100
AcDbLine
 10
-1774481.745884148
 20
-10164500.00000012
 11
-1776481.745884148
 21
-10162500.00000012
  0
LINE
  5
1B1
100
AcDbEntity
  8
0
  6
ByLayer
 62
  256
370
   -1
100
AcDbLine
 10
-1774481.745884147
 20
-10146500.00000012
 11
-1776481.745884148
 21
-10144500.00000012
  0
LINE
  5
1B2
100
AcDbEntity
  8
0
  6
ByLayer
 62
  256
370
   -1
100
AcDbLine
 10
-1774481.74588415
 20
-10505500.00000012
 11
-1776481.74588415
 21
-10503500.00000012
  0
LINE
  5
1B3
100
AcDbEntity
  8
0
  6
ByLayer
 62
  256
370
   -1
100
AcDbLine
 10
-1774481.74588415
 20
-10514500.00000012
 11
-1776481.74588415
 21
-10512500.00000012
  0
LINE
  5
1B4
100
AcDbEntity
  8
0
  6
ByLayer
 62
  256
370
   -1
100
AcDbLine
 10
-1774481.74588415
 20
-10532500.00000012
 11
-1776481.74588415
 21
-10530500.00000012
  0
LINE
  5
1B5
100
AcDbEntity
  8
0
  6
ByLayer
 62
  256
370
   -1
100
AcDbLine
 10
-1774481.74588415
 20
-10238500.00000012
 11
-1776481.74588415
 21
-10236500.00000012
  0
LINE
  5
1B6
100
AcDbEntity
  8
0
  6
ByLayer
 62
  256
370
   -1
100
AcDbLine
 10
-1774481.74588415
 20
-10054500.00000012
 11
-1776481.74588415
 21
-10052500.00000012
  0
LINE
  5
1B7
100
AcDbEntity
  8
0
  6
ByLayer
 62
  256
370
   -1
100
AcDbLine
 10
-1774481.74588415
 20
-9870500.000000117
 11
-1776481.74588415
 21
-9868500.000000117
  0
LINE
  5
1B8
100
AcDbEntity
  8
0
  6
ByLayer
 62
  256
370
   -1
100
AcDbLine
 10
-1774481.74588415
 20
-9686500.000000117
 11
-1776481.745884148
 21
-9684500.000000117
  0
LINE
  5
1B9
100
AcDbEntity
  8
0
  6
ByLayer
 62
  256
370
   -1
100
AcDbLine
 10
-1774481.74588415
 20
-10422500.00000012
 11
-1776481.74588415
 21
-10420500.00000012
  0
LINE
  5
1BA
100
AcDbEntity
  8
0
  6
ByLayer
 62
  256
370
   -1
100
AcDbLine
 10
-1774481.74588415
 20
-10229500.00000012
 11
-1776481.74588415
 21
-10227500.00000012
  0
LINE
  5
1BB
100
AcDbEntity
  8
0
  6
ByLayer
 62
  256
370
   -1
100
AcDbLine
 10
-1774481.74588415
 20
-10045500.00000012
 11
-1776481.74588415
 21
-10043500.00000012
  0
LINE
  5
1BC
100
AcDbEntity
  8
0
  6
ByLayer
 62
  256
370
   -1
100
AcDbLine
 10
-1774481.74588415
 20
-9861500.000000117
 11
-1776481.74588415
 21
-9859500.000000117
  0
LINE
  5
1BD
100
AcDbEntity
  8
0
  6
ByLayer
 62
  256
370
   -1
100
AcDbLine
 10
-1774481.74588415
 20
-9677500.000000117
 11
-1776481.74588415
 21
-9675500.000000117
  0
LINE
  5
1BE
100
AcDbEntity
  8
0
  6
ByLayer
 62
  256
370
   -1
100
AcDbLine
 10
-1774481.74588415
 20
-10413500.00000012
 11
-1776481.74588415
 21
-10411500.00000012
  0
LINE
  5
1BF
100
AcDbEntity
  8
0
  6
ByLayer
 62
  256
370
   -1
100
AcDbLine
 10
-1774481.74588415
 20
-10247500.00000012
 11
-1776481.74588415
 21
-10245500.00000012
  0
LINE
  5
1C0
100
AcDbEntity
  8
0
  6
ByLayer
 62
  256
370
   -1
100
AcDbLine
 10
-1774481.74588415
 20
-10063500.00000012
 11
-1776481.74588415
 21
-10061500.00000012
  0
LINE
  5
1C1
100
AcDbEntity
  8
0
  6
ByLayer
 62
  256
370
   -1
100
AcDbLine
 10
-1774481.74588415
 20
-9879500.000000117
 11
-1776481.74588415
 21
-9877500.000000117
  0
LINE
  5
1C2
100
AcDbEntity
  8
0
  6
ByLayer
 62
  256
370
   -1
100
AcDbLine
 10
-1774481.74588415
 20
-9695500.000000117
 11
-1776481.74588415
 21
-9693500.000000117
  0
LINE
  5
1C3
100
AcDbEntity
  8
0
  6
ByLayer
 62
  256
370
   -1
100
AcDbLine
 10
-1774481.74588415
 20
-10431500.00000012
 11
-1776481.74588415
 21
-10429500.00000012
  0
LINE
  5
1C4
100
AcDbEntity
  8
0
  6
ByLayer
 62
  256
370
   -1
100
AcDbLine
 10
-1774481.74588415
 20
-10206500.00000012
 11
-1776481.74588415
 21
-10208500.00000012
  0
LINE
  5
1C5
100
AcDbEntity
  8
0
  6
ByLayer
 62
  256
370
   -1
100
AcDbLine
 10
-1774481.74588415
 20
-10022500.00000012
 11
-1776481.74588415
 21
-10024500.00000012
  0
LINE
  5
1C6
100
AcDbEntity
  8
0
  6
ByLayer
 62
  256
370
   -1
100
AcDbLine
 10
-1774481.745884152
 20
-9838500.000000117
 11
-1776481.74588415
 21
-9840500.000000117
  0
LINE
  5
1C7
100
AcDbEntity
  8
0
  6
ByLayer
 62
  256
370
   -1
100
AcDbLine
 10
-1774481.74588415
 20
-9654500.000000117
 11
-1776481.74588415
 21
-9656500.000000117
  0
LINE
  5
1C8
100
AcDbEntity
  8
0
  6
ByLayer
 62
  256
370
   -1
100
AcDbLine
 10
-1774481.74588415
 20
-10390500.00000012
 11
-1776481.74588415
 21
-10392500.00000012
  0
LINE
  5
1C9
100
AcDbEntity
  8
0
  6
ByLayer
 62
  256
370
   -1
100
AcDbLine
 10
-1774481.74588415
 20
-10215500.00000012
 11
-1776481.74588415
 21
-10217500.00000012
  0
LINE
  5
1CA
100
AcDbEntity
  8
0
  6
ByLayer
 62
  256
370
   -1
100
AcDbLine
 10
-1774481.74588415
 20
-10031500.00000012
 11
-1776481.74588415
 21
-10033500.00000012
  0
LINE
  5
1CB
100
AcDbEntity
  8
0
  6
ByLayer
 62
  256
370
   -1
100
AcDbLine
 10
-1774481.74588415
 20
-9847500.000000117
 11
-1776481.74588415
 21
-9849500.000000117
  0
LINE
  5
1CC
100
AcDbEntity
  8
0
  6
ByLayer
 62
  256
370
   -1
100
AcDbLine
 10
-1774481.74588415
 20
-9663500.000000117
 11
-1776481.74588415
 21
-9665500.000000117
  0
LINE
  5
1CD
100
AcDbEntity
  8
0
  6
ByLayer
 62
  256
370
   -1
100
AcDbLine
 10
-1774481.74588415
 20
-10399500.00000012
 11
-1776481.74588415
 21
-10401500.00000012
  0
LINE
  5
1CE
100
AcDbEntity
  8
0
  6
ByLayer
 62
  256
370
   -1
100
AcDbLine
 10
-1774481.74588415
 20
-10197500.00000012
 11
-1776481.74588415
 21
-10199500.00000012
  0
LINE
  5
1CF
100
AcDbEntity
  8
0
  6
ByLayer
 62
  256
370
   -1
100
AcDbLine
 10
-1774481.74588415
 20
-10013500.00000012
 11
-1776481.74588415
 21
-10015500.00000012
  0
LINE
  5
1D0
100
AcDbEntity
  8
0
  6
ByLayer
 62
  256
370
   -1
100
AcDbLine
 10
-1774481.74588415
 20
-9829500.000000117
 11
-1776481.74588415
 21
-9831500.000000117
  0
LINE
  5
1D1
100
AcDbEntity
  8
0
  6
ByLayer
 62
  256
370
   -1
100
AcDbLine
 10
-1774481.745884152
 20
-9645500.000000117
 11
-1776481.74588415
 21
-9647500.000000117
  0
LINE
  5
1D2
100
AcDbEntity
  8
0
  6
ByLayer
 62
  256
370
   -1
100
AcDbLine
 10
-1774481.745884152
 20
-10381500.00000012
 11
-1776481.74588415
 21
-10383500.00000012
  0
LINE
  5
1D3
100
AcDbEntity
  8
0
  6
ByLayer
 62
  256
370
   -1
100
AcDbLine
 10
-1774481.74588415
 20
-10298500.00000012
 11
-1776481.74588415
 21
-10300500.00000012
  0
LINE
  5
1D4
100
AcDbEntity
  8
0
  6
ByLayer
 62
  256
370
   -1
100
AcDbLine
 10
-1774481.74588415
 20
-10280500.00000012
 11
-1776481.74588415
 21
-10282500.00000012
  0
LINE
  5
1D5
100
AcDbEntity
  8
0
  6
ByLayer
 62
  256
370
   -1
100
AcDbLine
 10
-1774481.74588415
 20
-10307500.00000012
 11
-1776481.74588415
 21
-10309500.00000012
  0
LINE
  5
1D6
100
AcDbEntity
  8
0
  6
ByLayer
 62
  256
370
   -1
100
AcDbLine
 10
-1774481.74588415
 20
-10464500.00000012
 11
-1776481.74588415
 21
-10466500.00000012
  0
LINE
  5
1D7
100
AcDbEntity
  8
0
  6
ByLayer
 62
  256
370
   -1
100
AcDbLine
 10
-1774481.74588415
 20
-10482500.00000012
 11
-1776481.74588415
 21
-10484500.00000012
  0
LINE
  5
1D8
100
AcDbEntity
  8
0
  6
ByLayer
 62
  256
370
   -1
100
AcDbLine
 10
-1774481.74588415
 20
-10473500.00000012
 11
-1776481.74588415
 21
-10475500.00000012
  0
LINE
  5
1D9
100
AcDbEntity
  8
0
  6
ByLayer
 62
  256
370
   -1
100
AcDbLine
 10
-1774481.74588415
 20
-10523500.00000012
 11
-1776481.74588415
 21
-10521500.00000012
  0
LINE
  5
1DA
100
AcDbEntity
  8
0
  6
ByLayer
 62
  256
370
   -1
100
AcDbLine
 10
-1776481.745884154
 20
-9592500.000000117
 11
-1814481.745884154
 21
-9592500.000000117
  0
LINE
  5
1DB
100
AcDbEntity
  8
0
  6
ByLayer
 62
  256
370
   -1
100
AcDbLine
 10
-1776481.745884152
 20
-9610500.000000117
 11
-1804481.745884154
 21
-9610500.000000117
  0
LINE
  5
1DC
100
AcDbEntity
  8
0
  6
ByLayer
 62
  256
370
   -1
100
AcDbLine
 10
-1776481.745884152
 20
-9601500.000000117
 11
-1811481.745884152
 21
-9601500.000000117
  0
LINE
  5
1DD
100
AcDbEntity
  8
0
  6
ByLayer
 62
  256
370
   -1
100
AcDbLine
 10
-1776481.745884156
 20
-9564500.000000117
 11
-1814481.745884156
 21
-9564500.000000117
  0
LINE
  5
1DE
100
AcDbEntity
  8
0
  6
ByLayer
 62
  256
370
   -1
100
AcDbLine
 10
-1776481.745884156
 20
-9546500.000000117
 11
-1804481.745884156
 21
-9546500.000000117
  0
LINE
  5
1DF
100
AcDbEntity
  8
0
  6
ByLayer
 62
  256
370
   -1
100
AcDbLine
 10
-1776481.745884156
 20
-9555500.000000117
 11
-1811481.745884156
 21
-9555500.000000117
  0
LINE
  5
1E0
100
AcDbEntity
  8
0
  6
ByLayer
 62
  256
370
   -1
100
AcDbLine
 10
-1776481.745884154
 20
-9573500.000000117
 11
-1811481.745884156
 21
-9573500.000000117
  0
LINE
  5
1E1
100
AcDbEntity
  8
0
  6
ByLayer
 62
  256
370
   -1
100
AcDbLine
 10
-1776481.745884147
 20
-9923500.000000117
 11
-1811481.745884147
 21
-9923500.000000117
  0
LINE
  5
1E2
100
AcDbEntity
  8
0
  6
ByLayer
 62
  256
370
   -1
100
AcDbLine
 10
-1776481.745884147
 20
-9932500.000000117
 11
-1814481.745884147
 21
-9932500.000000117
  0
LINE
  5
1E3
100
AcDbEntity
  8
0
  6
ByLayer
 62
  256
370
   -1
100
AcDbLine
 10
-1776481.745884147
 20
-9914500.000000117
 11
-1804481.745884145
 21
-9914500.000000117
  0
LINE
  5
1E4
100
AcDbEntity
  8
0
  6
ByLayer
 62
  256
370
   -1
100
AcDbLine
 10
-1776481.745884147
 20
-9969500.000000117
 11
-1811481.745884147
 21
-9969500.000000117
  0
LINE
  5
1E5
100
AcDbEntity
  8
0
  6
ByLayer
 62
  256
370
   -1
100
AcDbLine
 10
-1776481.745884147
 20
-9951500.000000117
 11
-1811481.745884147
 21
-9951500.000000117
  0
LINE
  5
1E6
100
AcDbEntity
  8
0
  6
ByLayer
 62
  256
370
   -1
100
AcDbLine
 10
-1776481.745884147
 20
-9978500.000000117
 11
-1804481.745884147
 21
-9978500.000000117
  0
LINE
  5
1E7
100
AcDbEntity
  8
0
  6
ByLayer
 62
  256
370
   -1
100
AcDbLine
 10
-1776481.745884147
 20
-9960500.000000117
 11
-1814481.745884147
 21
-9960500.000000117
  0
LINE
  5
1E8
100
AcDbEntity
  8
0
  6
ByLayer
 62
  256
370
   -1
100
AcDbLine
 10
-1776481.745884143
 20
-9757500.000000117
 11
-1811481.745884143
 21
-9757500.000000117
  0
LINE
  5
1E9
100
AcDbEntity
  8
0
  6
ByLayer
 62
  256
370
   -1
100
AcDbLine
 10
-1776481.745884143
 20
-9730500.000000117
 11
-1804481.745884143
 21
-9730500.000000117
  0
LINE
  5
1EA
100
AcDbEntity
  8
0
  6
ByLayer
 62
  256
370
   -1
100
AcDbLine
 10
-1776481.745884143
 20
-9748500.000000117
 11
-1814481.745884143
 21
-9748500.000000117
  0
LINE
  5
1EB
100
AcDbEntity
  8
0
  6
ByLayer
 62
  256
370
   -1
100
AcDbLine
 10
-1776481.745884143
 20
-9739500.000000117
 11
-1811481.745884143
 21
-9739500.000000117
  0
LINE
  5
1EC
100
AcDbEntity
  8
0
  6
ByLayer
 62
  256
370
   -1
100
AcDbLine
 10
-1776481.745884143
 20
-9785500.000000117
 11
-1811481.745884143
 21
-9785500.000000117
  0
LINE
  5
1ED
100
AcDbEntity
  8
0
  6
ByLayer
 62
  256
370
   -1
100
AcDbLine
 10
-1776481.745884145
 20
-9794500.000000117
 11
-1804481.745884143
 21
-9794500.000000117
  0
LINE
  5
1EE
100
AcDbEntity
  8
0
  6
ByLayer
 62
  256
370
   -1
100
AcDbLine
 10
-1776481.745884145
 20
-9776500.000000117
 11
-1814481.745884143
 21
-9776500.000000117
  0
LINE
  5
1EF
100
AcDbEntity
  8
0
  6
ByLayer
 62
  256
370
   -1
100
AcDbLine
 10
-1776481.74588415
 20
-10337500.00000012
 11
-1811481.74588415
 21
-10337500.00000012
  0
LINE
  5
1F0
100
AcDbEntity
  8
0
  6
ByLayer
 62
  256
370
   -1
100
AcDbLine
 10
-1776481.74588415
 20
-10328500.00000012
 11
-1814481.74588415
 21
-10328500.00000012
  0
LINE
  5
1F1
100
AcDbEntity
  8
0
  6
ByLayer
 62
  256
370
   -1
100
AcDbLine
 10
-1776481.74588415
 20
-10346500.00000012
 11
-1804481.74588415
 21
-10346500.00000012
  0
LINE
  5
1F2
100
AcDbEntity
  8
0
  6
ByLayer
 62
  256
370
   -1
100
AcDbLine
 10
-1776481.745884148
 20
-10116500.00000012
 11
-1814481.745884147
 21
-10116500.00000012
  0
LINE
  5
1F3
100
AcDbEntity
  8
0
  6
ByLayer
 62
  256
370
   -1
100
AcDbLine
 10
-1776481.745884148
 20
-10098500.00000012
 11
-1804481.745884148
 21
-10098500.00000012
  0
LINE
  5
1F4
100
AcDbEntity
  8
0
  6
ByLayer
 62
  256
370
   -1
100
AcDbLine
 10
-1776481.745884147
 20
-10107500.00000012
 11
-1811481.745884148
 21
-10107500.00000012
  0
LINE
  5
1F5
100
AcDbEntity
  8
0
  6
ByLayer
 62
  256
370
   -1
100
AcDbLine
 10
-1776481.745884148
 20
-10125500.00000012
 11
-1811481.745884148
 21
-10125500.00000012
  0
LINE
  5
1F6
100
AcDbEntity
  8
0
  6
ByLayer
 62
  256
370
   -1
100
AcDbLine
 10
-1776481.745884148
 20
-10153500.00000012
 11
-1811481.745884148
 21
-10153500.00000012
  0
LINE
  5
1F7
100
AcDbEntity
  8
0
  6
ByLayer
 62
  256
370
   -1
100
AcDbLine
 10
-1776481.745884148
 20
-10162500.00000012
 11
-1804481.745884148
 21
-10162500.00000012
  0
LINE
  5
1F8
100
AcDbEntity
  8
0
  6
ByLayer
 62
  256
370
   -1
100
AcDbLine
 10
-1776481.745884148
 20
-10144500.00000012
 11
-1814481.745884148
 21
-10144500.00000012
  0
LINE
  5
1F9
100
AcDbEntity
  8
0
  6
ByLayer
 62
  256
370
   -1
100
AcDbLine
 10
-1776481.74588415
 20
-10503500.00000012
 11
-1811481.74588415
 21
-10503500.00000012
  0
LINE
  5
1FA
100
AcDbEntity
  8
0
  6
ByLayer
 62
  256
370
   -1
100
AcDbLine
 10
-1776481.74588415
 20
-10512500.00000012
 11
-1814481.74588415
 21
-10512500.00000012
  0
LINE
  5
1FB
100
AcDbEntity
  8
0
  6
ByLayer
 62
  256
370
   -1
100
AcDbLine
 10
-1776481.74588415
 20
-10530500.00000012
 11
-1804481.74588415
 21
-10530500.00000012
  0
LINE
  5
1FC
100
AcDbEntity
  8
0
  6
ByLayer
 62
  256
370
   -1
100
AcDbLine
 10
-1776481.74588415
 20
-10227500.00000012
 11
-1824481.74588415
 21
-10227500.00000012
  0
LINE
  5
1FD
100
AcDbEntity
  8
0
  6
ByLayer
 62
  256
370
   -1
100
AcDbLine
 10
-1776481.74588415
 20
-10043500.00000012
 11
-1824481.74588415
 21
-10043500.00000012
  0
LINE
  5
1FE
100
AcDbEntity
  8
0
  6
ByLayer
 62
  256
370
   -1
100
AcDbLine
 10
-1776481.74588415
 20
-9859500.000000117
 11
-1824481.74588415
 21
-9859500.000000117
  0
LINE
  5
1FF
100
AcDbEntity
  8
0
  6
ByLayer
 62
  256
370
   -1
100
AcDbLine
 10
-1776481.74588415
 20
-9675500.000000117
 11
-1824481.74588415
 21
-9675500.000000117
  0
LINE
  5
200
100
AcDbEntity
  8
0
  6
ByLayer
 62
  256
370
   -1
100
AcDbLine
 10
-1776481.74588415
 20
-10411500.00000012
 11
-1824481.74588415
 21
-10411500.00000012
  0
LINE
  5
201
100
AcDbEntity
  8
0
  6
ByLayer
 62
  256
370
   -1
100
AcDbLine
 10
-1776481.74588415
 20
-10245500.00000012
 11
-1824481.74588415
 21
-10245500.00000012
  0
LINE
  5
202
100
AcDbEntity
  8
0
  6
ByLayer
 62
  256
370
   -1
100
AcDbLine
 10
-1776481.74588415
 20
-10061500.00000012
 11
-1824481.74588415
 21
-10061500.00000012
  0
LINE
  5
203
100
AcDbEntity
  8
0
  6
ByLayer
 62
  256
370
   -1
100
AcDbLine
 10
-1776481.74588415
 20
-9877500.000000117
 11
-1824481.74588415
 21
-9877500.000000117
  0
LINE
  5
204
100
AcDbEntity
  8
0
  6
ByLayer
 62
  256
370
   -1
100
AcDbLine
 10
-1776481.74588415
 20
-9693500.000000117
 11
-1824481.74588415
 21
-9693500.000000117
  0
LINE
  5
205
100
AcDbEntity
  8
0
  6
ByLayer
 62
  256
370
   -1
100
AcDbLine
 10
-1776481.74588415
 20
-10429500.00000012
 11
-1824481.74588415
 21
-10429500.00000012
  0
LINE
  5
206
100
AcDbEntity
  8
0
  6
ByLayer
 62
  256
370
   -1
100
AcDbLine
 10
-1776481.74588415
 20
-10236500.00000012
 11
-1828481.74588415
 21
-10236500.00000012
  0
LINE
  5
207
100
AcDbEntity
  8
0
  6
ByLayer
 62
  256
370
   -1
100
AcDbLine
 10
-1776481.74588415
 20
-10052500.00000012
 11
-1828481.74588415
 21
-10052500.00000012
  0
LINE
  5
208
100
AcDbEntity
  8
0
  6
ByLayer
 62
  256
370
   -1
100
AcDbLine
 10
-1776481.74588415
 20
-9868500.000000117
 11
-1828481.74588415
 21
-9868500.000000117
  0
LINE
  5
209
100
AcDbEntity
  8
0
  6
ByLayer
 62
  256
370
   -1
100
AcDbLine
 10
-1776481.745884148
 20
-9684500.000000117
 11
-1828481.74588415
 21
-9684500.000000117
  0
LINE
  5
20A
100
AcDbEntity
  8
0
  6
ByLayer
 62
  256
370
   -1
100
AcDbLine
 10
-1776481.74588415
 20
-10420500.00000012
 11
-1828481.74588415
 21
-10420500.00000012
  0
LINE
  5
20B
100
AcDbEntity
  8
0
  6
ByLayer
 62
  256
370
   -1
100
AcDbLine
 10
-1784481.745884148
 20
-10254500.00000012
 11
-1818481.74588415
 21
-10254500.00000012
  0
LINE
  5
20C
100
AcDbEntity
  8
0
  6
ByLayer
 62
  256
370
   -1
100
AcDbLine
 10
-1784481.745884148
 20
-10070500.00000012
 11
-1818481.74588415
 21
-10070500.00000012
  0
LINE
  5
20D
100
AcDbEntity
  8
0
  6
ByLayer
 62
  256
370
   -1
100
AcDbLine
 10
-1784481.745884148
 20
-9886500.000000117
 11
-1818481.74588415
 21
-9886500.000000117
  0
LINE
  5
20E
100
AcDbEntity
  8
0
  6
ByLayer
 62
  256
370
   -1
100
AcDbLine
 10
-1784481.745884147
 20
-9702500.000000117
 11
-1818481.74588415
 21
-9702500.000000117
  0
LINE
  5
20F
100
AcDbEntity
  8
0
  6
ByLayer
 62
  256
370
   -1
100
AcDbLine
 10
-1784481.745884148
 20
-10438500.00000012
 11
-1818481.74588415
 21
-10438500.00000012
  0
LINE
  5
210
100
AcDbEntity
  8
0
  6
ByLayer
 62
  256
370
   -1
100
AcDbLine
 10
-1776481.74588415
 20
-10199500.00000012
 11
-1824481.74588415
 21
-10199500.00000012
  0
LINE
  5
211
100
AcDbEntity
  8
0
  6
ByLayer
 62
  256
370
   -1
100
AcDbLine
 10
-1776481.74588415
 20
-10015500.00000012
 11
-1824481.74588415
 21
-10015500.00000012
  0
LINE
  5
212
100
AcDbEntity
  8
0
  6
ByLayer
 62
  256
370
   -1
100
AcDbLine
 10
-1776481.74588415
 20
-9831500.000000117
 11
-1824481.74588415
 21
-9831500.000000117
  0
LINE
  5
213
100
AcDbEntity
  8
0
  6
ByLayer
 62
  256
370
   -1
100
AcDbLine
 10
-1776481.74588415
 20
-9647500.000000117
 11
-1824481.74588415
 21
-9647500.000000117
  0
LINE
  5
214
100
AcDbEntity
  8
0
  6
ByLayer
 62
  256
370
   -1
100
AcDbLine
 10
-1776481.74588415
 20
-10383500.00000012
 11
-1824481.745884152
 21
-10383500.00000012
  0
LINE
  5
215
100
AcDbEntity
  8
0
  6
ByLayer
 62
  256
370
   -1
100
AcDbLine
 10
-1776481.74588415
 20
-10208500.00000012
 11
-1828481.74588415
 21
-10208500.00000012
  0
LINE
  5
216
100
AcDbEntity
  8
0
  6
ByLayer
 62
  256
370
   -1
100
AcDbLine
 10
-1776481.74588415
 20
-10024500.00000012
 11
-1828481.74588415
 21
-10024500.00000012
  0
LINE
  5
217
100
AcDbEntity
  8
0
  6
ByLayer
 62
  256
370
   -1
100
AcDbLine
 10
-1776481.74588415
 20
-9840500.000000117
 11
-1828481.74588415
 21
-9840500.000000117
  0
LINE
  5
218
100
AcDbEntity
  8
0
  6
ByLayer
 62
  256
370
   -1
100
AcDbLine
 10
-1776481.74588415
 20
-9656500.000000117
 11
-1828481.74588415
 21
-9656500.000000117
  0
LINE
  5
219
100
AcDbEntity
  8
0
  6
ByLayer
 62
  256
370
   -1
100
AcDbLine
 10
-1776481.74588415
 20
-10392500.00000012
 11
-1828481.74588415
 21
-10392500.00000012
  0
LINE
  5
21A
100
AcDbEntity
  8
0
  6
ByLayer
 62
  256
370
   -1
100
AcDbLine
 10
-1784481.745884145
 20
-10190500.00000012
 11
-1818481.745884152
 21
-10190500.00000012
  0
LINE
  5
21B
100
AcDbEntity
  8
0
  6
ByLayer
 62
  256
370
   -1
100
AcDbLine
 10
-1784481.745884145
 20
-10006500.00000012
 11
-1818481.74588415
 21
-10006500.00000012
  0
LINE
  5
21C
100
AcDbEntity
  8
0
  6
ByLayer
 62
  256
370
   -1
100
AcDbLine
 10
-1784481.745884143
 20
-9822500.000000117
 11
-1818481.745884152
 21
-9822500.000000117
  0
LINE
  5
21D
100
AcDbEntity
  8
0
  6
ByLayer
 62
  256
370
   -1
100
AcDbLine
 10
-1784481.745884145
 20
-9638500.000000117
 11
-1818481.745884152
 21
-9638500.000000117
  0
LINE
  5
21E
100
AcDbEntity
  8
0
  6
ByLayer
 62
  256
370
   -1
100
AcDbLine
 10
-1784481.745884145
 20
-10374500.00000012
 11
-1818481.745884152
 21
-10374500.00000012
  0
LINE
  5
21F
100
AcDbEntity
  8
0
  6
ByLayer
 62
  256
370
   -1
100
AcDbLine
 10
-1776481.74588415
 20
-10300500.00000012
 11
-1814481.74588415
 21
-10300500.00000012
  0
LINE
  5
220
100
AcDbEntity
  8
0
  6
ByLayer
 62
  256
370
   -1
100
AcDbLine
 10
-1776481.74588415
 20
-10282500.00000012
 11
-1804481.74588415
 21
-10282500.00000012
  0
LINE
  5
221
100
AcDbEntity
  8
0
  6
ByLayer
 62
  256
370
   -1
100
AcDbLine
 10
-1776481.74588415
 20
-10217500.00000012
 11
-1824481.74588415
 21
-10217500.00000012
  0
LINE
  5
222
100
AcDbEntity
  8
0
  6
ByLayer
 62
  256
370
   -1
100
AcDbLine
 10
-1776481.74588415
 20
-10033500.00000012
 11
-1824481.74588415
 21
-10033500.00000012
  0
LINE
  5
223
100
AcDbEntity
  8
0
  6
ByLayer
 62
  256
370
   -1
100
AcDbLine
 10
-1776481.74588415
 20
-9849500.000000117
 11
-1824481.74588415
 21
-9849500.000000117
  0
LINE
  5
224
100
AcDbEntity
  8
0
  6
ByLayer
 62
  256
370
   -1
100
AcDbLine
 10
-1776481.74588415
 20
-9665500.000000117
 11
-1824481.74588415
 21
-9665500.000000117
  0
LINE
  5
225
100
AcDbEntity
  8
0
  6
ByLayer
 62
  256
370
   -1
100
AcDbLine
 10
-1776481.74588415
 20
-10401500.00000012
 11
-1824481.74588415
 21
-10401500.00000012
  0
LINE
  5
226
100
AcDbEntity
  8
0
  6
ByLayer
 62
  256
370
   -1
100
AcDbLine
 10
-1776481.74588415
 20
-10291500.00000012
 11
-1811481.74588415
 21
-10291500.00000012
  0
LINE
  5
227
100
AcDbEntity
  8
0
  6
ByLayer
 62
  256
370
   -1
100
AcDbLine
 10
-1776481.74588415
 20
-10309500.00000012
 11
-1811481.74588415
 21
-10309500.00000012
  0
LINE
  5
228
100
AcDbEntity
  8
0
  6
ByLayer
 62
  256
370
   -1
100
AcDbLine
 10
-1776481.74588415
 20
-10466500.00000012
 11
-1804481.74588415
 21
-10466500.00000012
  0
LINE
  5
229
100
AcDbEntity
  8
0
  6
ByLayer
 62
  256
370
   -1
100
AcDbLine
 10
-1776481.74588415
 20
-10484500.00000012
 11
-1814481.74588415
 21
-10484500.00000012
  0
LINE
  5
22A
100
AcDbEntity
  8
0
  6
ByLayer
 62
  256
370
   -1
100
AcDbLine
 10
-1776481.74588415
 20
-10475500.00000012
 11
-1811481.74588415
 21
-10475500.00000012
  0
LINE
  5
22B
100
AcDbEntity
  8
0
  6
ByLayer
 62
  256
370
   -1
100
AcDbLine
 10
-1776481.74588415
 20
-10521500.00000012
 11
-1811481.74588415
 21
-10521500.00000012
  0
LINE
  5
22C
100
AcDbEntity
  8
0
  6
ByLayer
 62
  256
370
   -1
100
AcDbLine
 10
-1776481.745884154
 20
-9587500.000000117
 11
-1814481.745884154
 21
-9587500.000000117
  0
LINE
  5
22D
100
AcDbEntity
  8
0
  6
ByLayer
 62
  256
370
   -1
100
AcDbLine
 10
-1776481.745884152
 20
-9605500.000000117
 11
-1804481.745884152
 21
-9605500.000000117
  0
LINE
  5
22E
100
AcDbEntity
  8
0
  6
ByLayer
 62
  256
370
   -1
100
AcDbLine
 10
-1776481.745884154
 20
-9596500.000000117
 11
-1811481.745884152
 21
-9596500.000000117
  0
LINE
  5
22F
100
AcDbEntity
  8
0
  6
ByLayer
 62
  256
370
   -1
100
AcDbLine
 10
-1776481.745884156
 20
-9551500.000000117
 11
-1804481.745884156
 21
-9551500.000000117
  0
LINE
  5
230
100
AcDbEntity
  8
0
  6
ByLayer
 62
  256
370
   -1
100
AcDbLine
 10
-1776481.745884156
 20
-9569500.000000117
 11
-1814481.745884156
 21
-9569500.000000117
  0
LINE
  5
231
100
AcDbEntity
  8
0
  6
ByLayer
 62
  256
370
   -1
100
AcDbLine
 10
-1776481.745884154
 20
-9583500.000000117
 11
-1811481.745884154
 21
-9583500.000000117
  0
LINE
  5
232
100
AcDbEntity
  8
0
  6
ByLayer
 62
  256
370
   -1
100
AcDbLine
 10
-1776481.745884156
 20
-9560500.000000117
 11
-1811481.745884156
 21
-9560500.000000117
  0
LINE
  5
233
100
AcDbEntity
  8
0
  6
ByLayer
 62
  256
370
   -1
100
AcDbLine
 10
-1776481.745884145
 20
-9928500.000000117
 11
-1811481.745884147
 21
-9928500.000000117
  0
LINE
  5
234
100
AcDbEntity
  8
0
  6
ByLayer
 62
  256
370
   -1
100
AcDbLine
 10
-1776481.745884147
 20
-9919500.000000117
 11
-1804481.745884145
 21
-9919500.000000117
  0
LINE
  5
235
100
AcDbEntity
  8
0
  6
ByLayer
 62
  256
370
   -1
100
AcDbLine
 10
-1776481.745884147
 20
-9937500.000000117
 11
-1814481.745884147
 21
-9937500.000000117
  0
LINE
  5
236
100
AcDbEntity
  8
0
  6
ByLayer
 62
  256
370
   -1
100
AcDbLine
 10
-1776481.745884147
 20
-9941500.000000117
 11
-1811481.745884147
 21
-9941500.000000117
  0
LINE
  5
237
100
AcDbEntity
  8
0
  6
ByLayer
 62
  256
370
   -1
100
AcDbLine
 10
-1776481.745884147
 20
-9964500.000000117
 11
-1811481.745884147
 21
-9964500.000000117
  0
LINE
  5
238
100
AcDbEntity
  8
0
  6
ByLayer
 62
  256
370
   -1
100
AcDbLine
 10
-1776481.745884147
 20
-9955500.000000117
 11
-1814481.745884147
 21
-9955500.000000117
  0
LINE
  5
239
100
AcDbEntity
  8
0
  6
ByLayer
 62
  256
370
   -1
100
AcDbLine
 10
-1776481.745884147
 20
-9973500.000000117
 11
-1804481.745884147
 21
-9973500.000000117
  0
LINE
  5
23A
100
AcDbEntity
  8
0
  6
ByLayer
 62
  256
370
   -1
100
AcDbLine
 10
-1776481.745884143
 20
-9767500.000000117
 11
-1811481.745884143
 21
-9767500.000000117
  0
LINE
  5
23B
100
AcDbEntity
  8
0
  6
ByLayer
 62
  256
370
   -1
100
AcDbLine
 10
-1776481.745884143
 20
-9753500.000000117
 11
-1814481.745884143
 21
-9753500.000000117
  0
LINE
  5
23C
100
AcDbEntity
  8
0
  6
ByLayer
 62
  256
370
   -1
100
AcDbLine
 10
-1776481.745884143
 20
-9735500.000000117
 11
-1804481.745884143
 21
-9735500.000000117
  0
LINE
  5
23D
100
AcDbEntity
  8
0
  6
ByLayer
 62
  256
370
   -1
100
AcDbLine
 10
-1776481.745884143
 20
-9744500.000000117
 11
-1811481.745884143
 21
-9744500.000000117
  0
LINE
  5
23E
100
AcDbEntity
  8
0
  6
ByLayer
 62
  256
370
   -1
100
AcDbLine
 10
-1776481.745884143
 20
-9780500.000000117
 11
-1811481.745884143
 21
-9780500.000000117
  0
LINE
  5
23F
100
AcDbEntity
  8
0
  6
ByLayer
 62
  256
370
   -1
100
AcDbLine
 10
-1776481.745884145
 20
-9789500.000000117
 11
-1804481.745884145
 21
-9789500.000000117
  0
LINE
  5
240
100
AcDbEntity
  8
0
  6
ByLayer
 62
  256
370
   -1
100
AcDbLine
 10
-1776481.745884143
 20
-9771500.000000117
 11
-1814481.745884143
 21
-9771500.000000117
  0
LINE
  5
241
100
AcDbEntity
  8
0
  6
ByLayer
 62
  256
370
   -1
100
AcDbLine
 10
-1776481.74588415
 20
-10332500.00000012
 11
-1811481.74588415
 21
-10332500.00000012
  0
LINE
  5
242
100
AcDbEntity
  8
0
  6
ByLayer
 62
  256
370
   -1
100
AcDbLine
 10
-1776481.74588415
 20
-10323500.00000012
 11
-1814481.74588415
 21
-10323500.00000012
  0
LINE
  5
243
100
AcDbEntity
  8
0
  6
ByLayer
 62
  256
370
   -1
100
AcDbLine
 10
-1776481.74588415
 20
-10341500.00000012
 11
-1804481.74588415
 21
-10341500.00000012
  0
LINE
  5
244
100
AcDbEntity
  8
0
  6
ByLayer
 62
  256
370
   -1
100
AcDbLine
 10
-1776481.745884148
 20
-10103500.00000012
 11
-1804481.745884147
 21
-10103500.00000012
  0
LINE
  5
245
100
AcDbEntity
  8
0
  6
ByLayer
 62
  256
370
   -1
100
AcDbLine
 10
-1776481.745884147
 20
-10121500.00000012
 11
-1814481.745884147
 21
-10121500.00000012
  0
LINE
  5
246
100
AcDbEntity
  8
0
  6
ByLayer
 62
  256
370
   -1
100
AcDbLine
 10
-1776481.745884147
 20
-10112500.00000012
 11
-1811481.745884147
 21
-10112500.00000012
  0
LINE
  5
247
100
AcDbEntity
  8
0
  6
ByLayer
 62
  256
370
   -1
100
AcDbLine
 10
-1776481.745884148
 20
-10135500.00000012
 11
-1811481.745884148
 21
-10135500.00000012
  0
LINE
  5
248
100
AcDbEntity
  8
0
  6
ByLayer
 62
  256
370
   -1
100
AcDbLine
 10
-1776481.745884148
 20
-10148500.00000012
 11
-1811481.745884148
 21
-10148500.00000012
  0
LINE
  5
249
100
AcDbEntity
  8
0
  6
ByLayer
 62
  256
370
   -1
100
AcDbLine
 10
-1776481.745884148
 20
-10157500.00000012
 11
-1804481.745884148
 21
-10157500.00000012
  0
LINE
  5
24A
100
AcDbEntity
  8
0
  6
ByLayer
 62
  256
370
   -1
100
AcDbLine
 10
-1776481.745884148
 20
-10139500.00000012
 11
-1814481.745884148
 21
-10139500.00000012
  0
LINE
  5
24B
100
AcDbEntity
  8
0
  6
ByLayer
 62
  256
370
   -1
100
AcDbLine
 10
-1776481.74588415
 20
-10493500.00000012
 11
-1811481.74588415
 21
-10493500.00000012
  0
LINE
  5
24C
100
AcDbEntity
  8
0
  6
ByLayer
 62
  256
370
   -1
100
AcDbLine
 10
-1776481.74588415
 20
-10507500.00000012
 11
-1814481.74588415
 21
-10507500.00000012
  0
LINE
  5
24D
100
AcDbEntity
  8
0
  6
ByLayer
 62
  256
370
   -1
100
AcDbLine
 10
-1776481.74588415
 20
-10525500.00000012
 11
-1804481.74588415
 21
-10525500.00000012
  0
LINE
  5
24E
100
AcDbEntity
  8
0
  6
ByLayer
 62
  256
370
   -1
100
AcDbLine
 10
-1776481.74588415
 20
-10249500.00000012
 11
-1818481.74588415
 21
-10249500.00000012
  0
LINE
  5
24F
100
AcDbEntity
  8
0
  6
ByLayer
 62
  256
370
   -1
100
AcDbLine
 10
-1776481.74588415
 20
-10065500.00000012
 11
-1818481.74588415
 21
-10065500.00000012
  0
LINE
  5
250
100
AcDbEntity
  8
0
  6
ByLayer
 62
  256
370
   -1
100
AcDbLine
 10
-1776481.74588415
 20
-9881500.000000117
 11
-1818481.74588415
 21
-9881500.000000117
  0
LINE
  5
251
100
AcDbEntity
  8
0
  6
ByLayer
 62
  256
370
   -1
100
AcDbLine
 10
-1776481.74588415
 20
-9697500.000000117
 11
-1818481.74588415
 21
-9697500.000000117
  0
LINE
  5
252
100
AcDbEntity
  8
0
  6
ByLayer
 62
  256
370
   -1
100
AcDbLine
 10
-1776481.74588415
 20
-10433500.00000012
 11
-1818481.74588415
 21
-10433500.00000012
  0
LINE
  5
253
100
AcDbEntity
  8
0
  6
ByLayer
 62
  256
370
   -1
100
AcDbLine
 10
-1776481.74588415
 20
-10231500.00000012
 11
-1828481.74588415
 21
-10231500.00000012
  0
LINE
  5
254
100
AcDbEntity
  8
0
  6
ByLayer
 62
  256
370
   -1
100
AcDbLine
 10
-1776481.74588415
 20
-10047500.00000012
 11
-1828481.74588415
 21
-10047500.00000012
  0
LINE
  5
255
100
AcDbEntity
  8
0
  6
ByLayer
 62
  256
370
   -1
100
AcDbLine
 10
-1776481.74588415
 20
-9863500.000000117
 11
-1828481.74588415
 21
-9863500.000000117
  0
LINE
  5
256
100
AcDbEntity
  8
0
  6
ByLayer
 62
  256
370
   -1
100
AcDbLine
 10
-1776481.74588415
 20
-9679500.000000117
 11
-1828481.74588415
 21
-9679500.000000117
  0
LINE
  5
257
100
AcDbEntity
  8
0
  6
ByLayer
 62
  256
370
   -1
100
AcDbLine
 10
-1776481.74588415
 20
-10415500.00000012
 11
-1828481.74588415
 21
-10415500.00000012
  0
LINE
  5
258
100
AcDbEntity
  8
0
  6
ByLayer
 62
  256
370
   -1
100
AcDbLine
 10
-1776481.74588415
 20
-10240500.00000012
 11
-1824481.74588415
 21
-10240500.00000012
  0
LINE
  5
259
100
AcDbEntity
  8
0
  6
ByLayer
 62
  256
370
   -1
100
AcDbLine
 10
-1776481.74588415
 20
-10056500.00000012
 11
-1824481.74588415
 21
-10056500.00000012
  0
LINE
  5
25A
100
AcDbEntity
  8
0
  6
ByLayer
 62
  256
370
   -1
100
AcDbLine
 10
-1776481.74588415
 20
-9872500.000000117
 11
-1824481.74588415
 21
-9872500.000000117
  0
LINE
  5
25B
100
AcDbEntity
  8
0
  6
ByLayer
 62
  256
370
   -1
100
AcDbLine
 10
-1776481.745884148
 20
-9688500.000000117
 11
-1824481.74588415
 21
-9688500.000000117
  0
LINE
  5
25C
100
AcDbEntity
  8
0
  6
ByLayer
 62
  256
370
   -1
100
AcDbLine
 10
-1776481.74588415
 20
-10424500.00000012
 11
-1824481.74588415
 21
-10424500.00000012
  0
LINE
  5
25D
100
AcDbEntity
  8
0
  6
ByLayer
 62
  256
370
   -1
100
AcDbLine
 10
-1776481.74588415
 20
-10204500.00000012
 11
-1824481.74588415
 21
-10204500.00000012
  0
LINE
  5
25E
100
AcDbEntity
  8
0
  6
ByLayer
 62
  256
370
   -1
100
AcDbLine
 10
-1776481.745884152
 20
-10020500.00000012
 11
-1824481.74588415
 21
-10020500.00000012
  0
LINE
  5
25F
100
AcDbEntity
  8
0
  6
ByLayer
 62
  256
370
   -1
100
AcDbLine
 10
-1776481.74588415
 20
-9836500.000000117
 11
-1824481.74588415
 21
-9836500.000000117
  0
LINE
  5
260
100
AcDbEntity
  8
0
  6
ByLayer
 62
  256
370
   -1
100
AcDbLine
 10
-1776481.74588415
 20
-9652500.000000117
 11
-1824481.74588415
 21
-9652500.000000117
  0
LINE
  5
261
100
AcDbEntity
  8
0
  6
ByLayer
 62
  256
370
   -1
100
AcDbLine
 10
-1776481.745884152
 20
-10388500.00000012
 11
-1824481.74588415
 21
-10388500.00000012
  0
LINE
  5
262
100
AcDbEntity
  8
0
  6
ByLayer
 62
  256
370
   -1
100
AcDbLine
 10
-1776481.74588415
 20
-10287500.00000012
 11
-1804481.74588415
 21
-10287500.00000012
  0
LINE
  5
263
100
AcDbEntity
  8
0
  6
ByLayer
 62
  256
370
   -1
100
AcDbLine
 10
-1776481.74588415
 20
-10305500.00000012
 11
-1814481.74588415
 21
-10305500.00000012
  0
LINE
  5
264
100
AcDbEntity
  8
0
  6
ByLayer
 62
  256
370
   -1
100
AcDbLine
 10
-1776481.74588415
 20
-10195500.00000012
 11
-1818481.74588415
 21
-10195500.00000012
  0
LINE
  5
265
100
AcDbEntity
  8
0
  6
ByLayer
 62
  256
370
   -1
100
AcDbLine
 10
-1776481.74588415
 20
-10011500.00000012
 11
-1818481.745884152
 21
-10011500.00000012
  0
LINE
  5
266
100
AcDbEntity
  8
0
  6
ByLayer
 62
  256
370
   -1
100
AcDbLine
 10
-1776481.745884152
 20
-9827500.000000117
 11
-1818481.745884152
 21
-9827500.000000117
  0
LINE
  5
267
100
AcDbEntity
  8
0
  6
ByLayer
 62
  256
370
   -1
100
AcDbLine
 10
-1776481.74588415
 20
-9643500.000000117
 11
-1818481.74588415
 21
-9643500.000000117
  0
LINE
  5
268
100
AcDbEntity
  8
0
  6
ByLayer
 62
  256
370
   -1
100
AcDbLine
 10
-1776481.745884152
 20
-10379500.00000012
 11
-1818481.745884152
 21
-10379500.00000012
  0
LINE
  5
269
100
AcDbEntity
  8
0
  6
ByLayer
 62
  256
370
   -1
100
AcDbLine
 10
-1776481.74588415
 20
-10213500.00000012
 11
-1828481.74588415
 21
-10213500.00000012
  0
LINE
  5
26A
100
AcDbEntity
  8
0
  6
ByLayer
 62
  256
370
   -1
100
AcDbLine
 10
-1776481.74588415
 20
-10029500.00000012
 11
-1828481.74588415
 21
-10029500.00000012
  0
LINE
  5
26B
100
AcDbEntity
  8
0
  6
ByLayer
 62
  256
370
   -1
100
AcDbLine
 10
-1776481.74588415
 20
-9845500.000000117
 11
-1828481.74588415
 21
-9845500.000000117
  0
LINE
  5
26C
100
AcDbEntity
  8
0
  6
ByLayer
 62
  256
370
   -1
100
AcDbLine
 10
-1776481.74588415
 20
-9661500.000000117
 11
-1828481.745884148
 21
-9661500.000000117
  0
LINE
  5
26D
100
AcDbEntity
  8
0
  6
ByLayer
 62
  256
370
   -1
100
AcDbLine
 10
-1776481.74588415
 20
-10397500.00000012
 11
-1828481.74588415
 21
-10397500.00000012
  0
LINE
  5
26E
100
AcDbEntity
  8
0
  6
ByLayer
 62
  256
370
   -1
100
AcDbLine
 10
-1776481.74588415
 20
-10296500.00000012
 11
-1811481.74588415
 21
-10296500.00000012
  0
LINE
  5
26F
100
AcDbEntity
  8
0
  6
ByLayer
 62
  256
370
   -1
100
AcDbLine
 10
-1776481.74588415
 20
-10319500.00000012
 11
-1811481.74588415
 21
-10319500.00000012
  0
LINE
  5
270
100
AcDbEntity
  8
0
  6
ByLayer
 62
  256
370
   -1
100
AcDbLine
 10
-1776481.74588415
 20
-10471500.00000012
 11
-1804481.74588415
 21
-10471500.00000012
  0
LINE
  5
271
100
AcDbEntity
  8
0
  6
ByLayer
 62
  256
370
   -1
100
AcDbLine
 10
-1776481.74588415
 20
-10489500.00000012
 11
-1814481.74588415
 21
-10489500.00000012
  0
LINE
  5
272
100
AcDbEntity
  8
0
  6
ByLayer
 62
  256
370
   -1
100
AcDbLine
 10
-1776481.74588415
 20
-10480500.00000012
 11
-1811481.74588415
 21
-10480500.00000012
  0
LINE
  5
273
100
AcDbEntity
  8
0
  6
ByLayer
 62
  256
370
   -1
100
AcDbLine
 10
-1776481.74588415
 20
-10516500.00000012
 11
-1811481.74588415
 21
-10516500.00000012
  0
LINE
  5
274
100
AcDbEntity
  8
0
  6
ByLayer
 62
  256
370
   -1
100
AcDbLine
 10
-1776481.745884152
 20
-9605500.000000117
 11
-1774481.745884152
 21
-9603500.000000117
  0
LINE
  5
275
100
AcDbEntity
  8
0
  6
ByLayer
 62
  256
370
   -1
100
AcDbLine
 10
-1776481.745884154
 20
-9596500.000000117
 11
-1774481.745884152
 21
-9594500.000000117
  0
LINE
  5
276
100
AcDbEntity
  8
0
  6
ByLayer
 62
  256
370
   -1
100
AcDbLine
 10
-1776481.745884154
 20
-9587500.000000117
 11
-1774481.745884154
 21
-9585500.000000117
  0
LINE
  5
277
100
AcDbEntity
  8
0
  6
ByLayer
 62
  256
370
   -1
100
AcDbLine
 10
-1776481.745884156
 20
-9551500.000000117
 11
-1774481.745884156
 21
-9553500.000000117
  0
LINE
  5
278
100
AcDbEntity
  8
0
  6
ByLayer
 62
  256
370
   -1
100
AcDbLine
 10
-1776481.745884156
 20
-9560500.000000117
 11
-1774481.745884156
 21
-9562500.000000117
  0
LINE
  5
279
100
AcDbEntity
  8
0
  6
ByLayer
 62
  256
370
   -1
100
AcDbLine
 10
-1776481.745884156
 20
-9569500.000000117
 11
-1774481.745884156
 21
-9571500.000000117
  0
LINE
  5
27A
100
AcDbEntity
  8
0
  6
ByLayer
 62
  256
370
   -1
100
AcDbLine
 10
-1776481.745884154
 20
-9583500.000000117
 11
-1774481.745884154
 21
-9585500.000000117
  0
LINE
  5
27B
100
AcDbEntity
  8
0
  6
ByLayer
 62
  256
370
   -1
100
AcDbLine
 10
-1776481.745884147
 20
-9919500.000000117
 11
-1774481.745884147
 21
-9921500.000000117
  0
LINE
  5
27C
100
AcDbEntity
  8
0
  6
ByLayer
 62
  256
370
   -1
100
AcDbLine
 10
-1776481.745884147
 20
-9937500.000000117
 11
-1774481.745884147
 21
-9939500.000000117
  0
LINE
  5
27D
100
AcDbEntity
  8
0
  6
ByLayer
 62
  256
370
   -1
100
AcDbLine
 10
-1776481.745884145
 20
-9928500.000000117
 11
-1774481.745884147
 21
-9930500.000000117
  0
LINE
  5
27E
100
AcDbEntity
  8
0
  6
ByLayer
 62
  256
370
   -1
100
AcDbLine
 10
-1776481.745884147
 20
-9955500.000000117
 11
-1774481.745884147
 21
-9953500.000000117
  0
LINE
  5
27F
100
AcDbEntity
  8
0
  6
ByLayer
 62
  256
370
   -1
100
AcDbLine
 10
-1776481.745884147
 20
-9941500.000000117
 11
-1774481.745884147
 21
-9939500.000000117
  0
LINE
  5
280
100
AcDbEntity
  8
0
  6
ByLayer
 62
  256
370
   -1
100
AcDbLine
 10
-1776481.745884147
 20
-9973500.000000117
 11
-1774481.745884147
 21
-9971500.000000117
  0
LINE
  5
281
100
AcDbEntity
  8
0
  6
ByLayer
 62
  256
370
   -1
100
AcDbLine
 10
-1776481.745884147
 20
-9964500.000000117
 11
-1774481.745884147
 21
-9962500.000000117
  0
LINE
  5
282
100
AcDbEntity
  8
0
  6
ByLayer
 62
  256
370
   -1
100
AcDbLine
 10
-1776481.745884143
 20
-9735500.000000117
 11
-1774481.745884143
 21
-9737500.000000117
  0
LINE
  5
283
100
AcDbEntity
  8
0
  6
ByLayer
 62
  256
370
   -1
100
AcDbLine
 10
-1776481.745884143
 20
-9767500.000000117
 11
-1774481.745884145
 21
-9769500.000000117
  0
LINE
  5
284
100
AcDbEntity
  8
0
  6
ByLayer
 62
  256
370
   -1
100
AcDbLine
 10
-1776481.745884143
 20
-9753500.000000117
 11
-1774481.745884143
 21
-9755500.000000117
  0
LINE
  5
285
100
AcDbEntity
  8
0
  6
ByLayer
 62
  256
370
   -1
100
AcDbLine
 10
-1776481.745884143
 20
-9744500.000000117
 11
-1774481.745884143
 21
-9746500.000000117
  0
LINE
  5
286
100
AcDbEntity
  8
0
  6
ByLayer
 62
  256
370
   -1
100
AcDbLine
 10
-1776481.745884143
 20
-9780500.000000117
 11
-1774481.745884143
 21
-9778500.000000117
  0
LINE
  5
287
100
AcDbEntity
  8
0
  6
ByLayer
 62
  256
370
   -1
100
AcDbLine
 10
-1776481.745884143
 20
-9771500.000000117
 11
-1774481.745884145
 21
-9769500.000000117
  0
LINE
  5
288
100
AcDbEntity
  8
0
  6
ByLayer
 62
  256
370
   -1
100
AcDbLine
 10
-1776481.745884145
 20
-9789500.000000117
 11
-1774481.745884143
 21
-9787500.000000117
  0
LINE
  5
289
100
AcDbEntity
  8
0
  6
ByLayer
 62
  256
370
   -1
100
AcDbLine
 10
-1776481.74588415
 20
-10323500.00000012
 11
-1774481.74588415
 21
-10321500.00000012
  0
LINE
  5
28A
100
AcDbEntity
  8
0
  6
ByLayer
 62
  256
370
   -1
100
AcDbLine
 10
-1776481.74588415
 20
-10332500.00000012
 11
-1774481.74588415
 21
-10330500.00000012
  0
LINE
  5
28B
100
AcDbEntity
  8
0
  6
ByLayer
 62
  256
370
   -1
100
AcDbLine
 10
-1776481.74588415
 20
-10341500.00000012
 11
-1774481.74588415
 21
-10339500.00000012
  0
LINE
  5
28C
100
AcDbEntity
  8
0
  6
ByLayer
 62
  256
370
   -1
100
AcDbLine
 10
-1776481.745884148
 20
-10103500.00000012
 11
-1774481.745884147
 21
-10105500.00000012
  0
LINE
  5
28D
100
AcDbEntity
  8
0
  6
ByLayer
 62
  256
370
   -1
100
AcDbLine
 10
-1776481.745884147
 20
-10121500.00000012
 11
-1774481.745884148
 21
-10123500.00000012
  0
LINE
  5
28E
100
AcDbEntity
  8
0
  6
ByLayer
 62
  256
370
   -1
100
AcDbLine
 10
-1776481.745884147
 20
-10112500.00000012
 11
-1774481.745884148
 21
-10114500.00000012
  0
LINE
  5
28F
100
AcDbEntity
  8
0
  6
ByLayer
 62
  256
370
   -1
100
AcDbLine
 10
-1776481.745884148
 20
-10135500.00000012
 11
-1774481.745884148
 21
-10137500.00000012
  0
LINE
  5
290
100
AcDbEntity
  8
0
  6
ByLayer
 62
  256
370
   -1
100
AcDbLine
 10
-1776481.745884148
 20
-10148500.00000012
 11
-1774481.745884147
 21
-10146500.00000012
  0
LINE
  5
291
100
AcDbEntity
  8
0
  6
ByLayer
 62
  256
370
   -1
100
AcDbLine
 10
-1776481.745884148
 20
-10139500.00000012
 11
-1774481.745884148
 21
-10137500.00000012
  0
LINE
  5
292
100
AcDbEntity
  8
0
  6
ByLayer
 62
  256
370
   -1
100
AcDbLine
 10
-1776481.745884148
 20
-10157500.00000012
 11
-1774481.745884148
 21
-10155500.00000012
  0
LINE
  5
293
100
AcDbEntity
  8
0
  6
ByLayer
 62
  256
370
   -1
100
AcDbLine
 10
-1776481.74588415
 20
-10493500.00000012
 11
-1774481.74588415
 21
-10491500.00000012
  0
LINE
  5
294
100
AcDbEntity
  8
0
  6
ByLayer
 62
  256
370
   -1
100
AcDbLine
 10
-1776481.74588415
 20
-10525500.00000012
 11
-1774481.74588415
 21
-10523500.00000012
  0
LINE
  5
295
100
AcDbEntity
  8
0
  6
ByLayer
 62
  256
370
   -1
100
AcDbLine
 10
-1776481.74588415
 20
-10249500.00000012
 11
-1774481.74588415
 21
-10247500.00000012
  0
LINE
  5
296
100
AcDbEntity
  8
0
  6
ByLayer
 62
  256
370
   -1
100
AcDbLine
 10
-1776481.74588415
 20
-10065500.00000012
 11
-1774481.74588415
 21
-10063500.00000012
  0
LINE
  5
297
100
AcDbEntity
  8
0
  6
ByLayer
 62
  256
370
   -1
100
AcDbLine
 10
-1776481.74588415
 20
-9881500.000000117
 11
-1774481.74588415
 21
-9879500.000000117
  0
LINE
  5
298
100
AcDbEntity
  8
0
  6
ByLayer
 62
  256
370
   -1
100
AcDbLine
 10
-1776481.74588415
 20
-9697500.000000117
 11
-1774481.74588415
 21
-9695500.000000117
  0
LINE
  5
299
100
AcDbEntity
  8
0
  6
ByLayer
 62
  256
370
   -1
100
AcDbLine
 10
-1776481.74588415
 20
-10433500.00000012
 11
-1774481.74588415
 21
-10431500.00000012
  0
LINE
  5
29A
100
AcDbEntity
  8
0
  6
ByLayer
 62
  256
370
   -1
100
AcDbLine
 10
-1776481.74588415
 20
-10240500.00000012
 11
-1774481.74588415
 21
-10238500.00000012
  0
LINE
  5
29B
100
AcDbEntity
  8
0
  6
ByLayer
 62
  256
370
   -1
100
AcDbLine
 10
-1776481.74588415
 20
-10056500.00000012
 11
-1774481.74588415
 21
-10054500.00000012
  0
LINE
  5
29C
100
AcDbEntity
  8
0
  6
ByLayer
 62
  256
370
   -1
100
AcDbLine
 10
-1776481.74588415
 20
-9872500.000000117
 11
-1774481.74588415
 21
-9870500.000000117
  0
LINE
  5
29D
100
AcDbEntity
  8
0
  6
ByLayer
 62
  256
370
   -1
100
AcDbLine
 10
-1776481.745884148
 20
-9688500.000000117
 11
-1774481.74588415
 21
-9686500.000000117
  0
LINE
  5
29E
100
AcDbEntity
  8
0
  6
ByLayer
 62
  256
370
   -1
100
AcDbLine
 10
-1776481.74588415
 20
-10424500.00000012
 11
-1774481.74588415
 21
-10422500.00000012
  0
LINE
  5
29F
100
AcDbEntity
  8
0
  6
ByLayer
 62
  256
370
   -1
100
AcDbLine
 10
-1776481.74588415
 20
-10231500.00000012
 11
-1774481.74588415
 21
-10229500.00000012
  0
LINE
  5
2A0
100
AcDbEntity
  8
0
  6
ByLayer
 62
  256
370
   -1
100
AcDbLine
 10
-1776481.74588415
 20
-10047500.00000012
 11
-1774481.74588415
 21
-10045500.00000012
  0
LINE
  5
2A1
100
AcDbEntity
  8
0
  6
ByLayer
 62
  256
370
   -1
100
AcDbLine
 10
-1776481.74588415
 20
-9863500.000000117
 11
-1774481.74588415
 21
-9861500.000000117
  0
LINE
  5
2A2
100
AcDbEntity
  8
0
  6
ByLayer
 62
  256
370
   -1
100
AcDbLine
 10
-1776481.74588415
 20
-9679500.000000117
 11
-1774481.74588415
 21
-9677500.000000117
  0
LINE
  5
2A3
100
AcDbEntity
  8
0
  6
ByLayer
 62
  256
370
   -1
100
AcDbLine
 10
-1776481.74588415
 20
-10415500.00000012
 11
-1774481.74588415
 21
-10413500.00000012
  0
LINE
  5
2A4
100
AcDbEntity
  8
0
  6
ByLayer
 62
  256
370
   -1
100
AcDbLine
 10
-1776481.74588415
 20
-10213500.00000012
 11
-1774481.74588415
 21
-10215500.00000012
  0
LINE
  5
2A5
100
AcDbEntity
  8
0
  6
ByLayer
 62
  256
370
   -1
100
AcDbLine
 10
-1776481.74588415
 20
-10029500.00000012
 11
-1774481.74588415
 21
-10031500.00000012
  0
LINE
  5
2A6
100
AcDbEntity
  8
0
  6
ByLayer
 62
  256
370
   -1
100
AcDbLine
 10
-1776481.74588415
 20
-9845500.000000117
 11
-1774481.74588415
 21
-9847500.000000117
  0
LINE
  5
2A7
100
AcDbEntity
  8
0
  6
ByLayer
 62
  256
370
   -1
100
AcDbLine
 10
-1776481.74588415
 20
-9661500.000000117
 11
-1774481.74588415
 21
-9663500.000000117
  0
LINE
  5
2A8
100
AcDbEntity
  8
0
  6
ByLayer
 62
  256
370
   -1
100
AcDbLine
 10
-1776481.74588415
 20
-10397500.00000012
 11
-1774481.74588415
 21
-10399500.00000012
  0
LINE
  5
2A9
100
AcDbEntity
  8
0
  6
ByLayer
 62
  256
370
   -1
100
AcDbLine
 10
-1776481.74588415
 20
-10195500.00000012
 11
-1774481.74588415
 21
-10197500.00000012
  0
LINE
  5
2AA
100
AcDbEntity
  8
0
  6
ByLayer
 62
  256
370
   -1
100
AcDbLine
 10
-1776481.74588415
 20
-10011500.00000012
 11
-1774481.74588415
 21
-10013500.00000012
  0
LINE
  5
2AB
100
AcDbEntity
  8
0
  6
ByLayer
 62
  256
370
   -1
100
AcDbLine
 10
-1776481.745884152
 20
-9827500.000000117
 11
-1774481.74588415
 21
-9829500.000000117
  0
LINE
  5
2AC
100
AcDbEntity
  8
0
  6
ByLayer
 62
  256
370
   -1
100
AcDbLine
 10
-1776481.74588415
 20
-9643500.000000117
 11
-1774481.745884152
 21
-9645500.000000117
  0
LINE
  5
2AD
100
AcDbEntity
  8
0
  6
ByLayer
 62
  256
370
   -1
100
AcDbLine
 10
-1776481.745884152
 20
-10379500.00000012
 11
-1774481.745884152
 21
-10381500.00000012
  0
LINE
  5
2AE
100
AcDbEntity
  8
0
  6
ByLayer
 62
  256
370
   -1
100
AcDbLine
 10
-1776481.74588415
 20
-10204500.00000012
 11
-1774481.74588415
 21
-10206500.00000012
  0
LINE
  5
2AF
100
AcDbEntity
  8
0
  6
ByLayer
 62
  256
370
   -1
100
AcDbLine
 10
-1776481.745884152
 20
-10020500.00000012
 11
-1774481.74588415
 21
-10022500.00000012
  0
LINE
  5
2B0
100
AcDbEntity
  8
0
  6
ByLayer
 62
  256
370
   -1
100
AcDbLine
 10
-1776481.74588415
 20
-9836500.000000117
 11
-1774481.745884152
 21
-9838500.000000117
  0
LINE
  5
2B1
100
AcDbEntity
  8
0
  6
ByLayer
 62
  256
370
   -1
100
AcDbLine
 10
-1776481.74588415
 20
-9652500.000000117
 11
-1774481.74588415
 21
-9654500.000000117
  0
LINE
  5
2B2
100
AcDbEntity
  8
0
  6
ByLayer
 62
  256
370
   -1
100
AcDbLine
 10
-1776481.745884152
 20
-10388500.00000012
 11
-1774481.74588415
 21
-10390500.00000012
  0
LINE
  5
2B3
100
AcDbEntity
  8
0
  6
ByLayer
 62
  256
370
   -1
100
AcDbLine
 10
-1776481.74588415
 20
-10287500.00000012
 11
-1774481.74588415
 21
-10289500.00000012
  0
LINE
  5
2B4
100
AcDbEntity
  8
0
  6
ByLayer
 62
  256
370
   -1
100
AcDbLine
 10
-1776481.74588415
 20
-10296500.00000012
 11
-1774481.74588415
 21
-10298500.00000012
  0
LINE
  5
2B5
100
AcDbEntity
  8
0
  6
ByLayer
 62
  256
370
   -1
100
AcDbLine
 10
-1776481.74588415
 20
-10305500.00000012
 11
-1774481.74588415
 21
-10307500.00000012
  0
LINE
  5
2B6
100
AcDbEntity
  8
0
  6
ByLayer
 62
  256
370
   -1
100
AcDbLine
 10
-1776481.74588415
 20
-10319500.00000012
 11
-1774481.74588415
 21
-10321500.00000012
  0
LINE
  5
2B7
100
AcDbEntity
  8
0
  6
ByLayer
 62
  256
370
   -1
100
AcDbLine
 10
-1776481.74588415
 20
-10471500.00000012
 11
-1774481.74588415
 21
-10473500.00000012
  0
LINE
  5
2B8
100
AcDbEntity
  8
0
  6
ByLayer
 62
  256
370
   -1
100
AcDbLine
 10
-1776481.74588415
 20
-10489500.00000012
 11
-1774481.74588415
 21
-10491500.00000012
  0
LINE
  5
2B9
100
AcDbEntity
  8
0
  6
ByLayer
 62
  256
370
   -1
100
AcDbLine
 10
-1776481.74588415
 20
-10480500.00000012
 11
-1774481.74588415
 21
-10482500.00000012
  0
LINE
  5
2BA
100
AcDbEntity
  8
0
  6
ByLayer
 62
  256
370
   -1
100
AcDbLine
 10
-1776481.74588415
 20
-10507500.00000012
 11
-1774481.74588415
 21
-10505500.00000012
  0
LINE
  5
2BB
100
AcDbEntity
  8
0
  6
ByLayer
 62
  256
370
   -1
100
AcDbLine
 10
-1776481.74588415
 20
-10516500.00000012
 11
-1774481.74588415
 21
-10514500.00000012
  0
ARC
  5
2BC
100
AcDbEntity
  8
0
  6
ByLayer
 62
  256
370
   -1
100
AcDbCircle
 10
-1814481.745884154
 20
-9559500.000000117
 40
10000
100
AcDbArc
 50
228.5903778907326
 51
270
  0
ARC
  5
2BD
100
AcDbEntity
  8
0
  6
ByLayer
 62
  256
370
   -1
100
AcDbCircle
 10
-1804481.745884152
 20
-9615500.000000117
 40
10000
100
AcDbArc
 50
90
 51
131.4096221092744
  0
ARC
  5
2BE
100
AcDbEntity
  8
0
  6
ByLayer
 62
  256
370
   -1
100
AcDbCircle
 10
-1788481.745884158
 20
-9532500.000000117
 40
10000
100
AcDbArc
 50
228.5903778907326
 51
270
  0
ARC
  5
2BF
100
AcDbEntity
  8
0
  6
ByLayer
 62
  256
370
   -1
100
AcDbCircle
 10
-1811481.745884152
 20
-9606500.000000117
 40
10000
100
AcDbArc
 50
90
 51
131.4096221092744
  0
ARC
  5
2C0
100
AcDbEntity
  8
0
  6
ByLayer
 62
  256
370
   -1
100
AcDbCircle
 10
-1814481.745884154
 20
-9597500.000000117
 40
10000
100
AcDbArc
 50
90
 51
131.4096221092744
  0
ARC
  5
2C1
100
AcDbEntity
  8
0
  6
ByLayer
 62
  256
370
   -1
100
AcDbCircle
 10
-1788481.745884152
 20
-10360500.00000012
 40
10000
100
AcDbArc
 50
90
 51
131.4096221092734
  0
ARC
  5
2C2
100
AcDbEntity
  8
0
  6
ByLayer
 62
  256
370
   -1
100
AcDbCircle
 10
-1788481.745884147
 20
-9900500.000000117
 40
10000
100
AcDbArc
 50
228.5903778907286
 51
270
  0
ARC
  5
2C3
100
AcDbEntity
  8
0
  6
ByLayer
 62
  256
370
   -1
100
AcDbCircle
 10
-1788481.745884152
 20
-9624500.000000117
 40
10000
100
AcDbArc
 50
90
 51
131.4096221092738
  0
ARC
  5
2C4
100
AcDbEntity
  8
0
  6
ByLayer
 62
  256
370
   -1
100
AcDbCircle
 10
-1811481.745884158
 20
-9550500.000000117
 40
10000
100
AcDbArc
 50
228.5903778907326
 51
270
  0
ARC
  5
2C5
100
AcDbEntity
  8
0
  6
ByLayer
 62
  256
370
   -1
100
AcDbCircle
 10
-1804481.745884156
 20
-9541500.000000117
 40
10000
100
AcDbArc
 50
228.5903778907326
 51
270
  0
ARC
  5
2C6
100
AcDbEntity
  8
0
  6
ByLayer
 62
  256
370
   -1
100
AcDbCircle
 10
-1804481.745884147
 20
-9909500.000000117
 40
10000
100
AcDbArc
 50
228.590377890728
 51
270
  0
ARC
  5
2C7
100
AcDbEntity
  8
0
  6
ByLayer
 62
  256
370
   -1
100
AcDbCircle
 10
-1788481.745884147
 20
-9992500.000000117
 40
10000
100
AcDbArc
 50
90
 51
131.4096221092699
  0
ARC
  5
2C8
100
AcDbEntity
  8
0
  6
ByLayer
 62
  256
370
   -1
100
AcDbCircle
 10
-1811481.745884147
 20
-9918500.000000117
 40
10000
100
AcDbArc
 50
228.590377890728
 51
270
  0
ARC
  5
2C9
100
AcDbEntity
  8
0
  6
ByLayer
 62
  256
370
   -1
100
AcDbCircle
 10
-1814481.745884147
 20
-9927500.000000117
 40
10000
100
AcDbArc
 50
228.590377890728
 51
270
  0
ARC
  5
2CA
100
AcDbEntity
  8
0
  6
ByLayer
 62
  256
370
   -1
100
AcDbCircle
 10
-1814481.745884147
 20
-9965500.000000117
 40
10000
100
AcDbArc
 50
90
 51
131.4096221092699
  0
ARC
  5
2CB
100
AcDbEntity
  8
0
  6
ByLayer
 62
  256
370
   -1
100
AcDbCircle
 10
-1804481.745884148
 20
-9983500.000000117
 40
10000
100
AcDbArc
 50
90
 51
131.4096221092699
  0
ARC
  5
2CC
100
AcDbEntity
  8
0
  6
ByLayer
 62
  256
370
   -1
100
AcDbCircle
 10
-1811481.745884147
 20
-9974500.000000117
 40
10000
100
AcDbArc
 50
90
 51
131.4096221092699
  0
ARC
  5
2CD
100
AcDbEntity
  8
0
  6
ByLayer
 62
  256
370
   -1
100
AcDbCircle
 10
-1804481.745884143
 20
-9725500.000000117
 40
10000
100
AcDbArc
 50
228.590377890728
 51
270
  0
ARC
  5
2CE
100
AcDbEntity
  8
0
  6
ByLayer
 62
  256
370
   -1
100
AcDbCircle
 10
-1811481.745884143
 20
-9734500.000000117
 40
10000
100
AcDbArc
 50
228.590377890728
 51
270
  0
ARC
  5
2CF
100
AcDbEntity
  8
0
  6
ByLayer
 62
  256
370
   -1
100
AcDbCircle
 10
-1811481.745884145
 20
-9790500.000000117
 40
10000
100
AcDbArc
 50
90
 51
131.4096221092699
  0
ARC
  5
2D0
100
AcDbEntity
  8
0
  6
ByLayer
 62
  256
370
   -1
100
AcDbCircle
 10
-1804481.745884145
 20
-9799500.000000117
 40
10000
100
AcDbArc
 50
90
 51
131.4096221092699
  0
ARC
  5
2D1
100
AcDbEntity
  8
0
  6
ByLayer
 62
  256
370
   -1
100
AcDbCircle
 10
-1814481.745884143
 20
-9743500.000000117
 40
10000
100
AcDbArc
 50
228.590377890728
 51
270
  0
ARC
  5
2D2
100
AcDbEntity
  8
0
  6
ByLayer
 62
  256
370
   -1
100
AcDbCircle
 10
-1788481.745884145
 20
-9808500.000000117
 40
10000
100
AcDbArc
 50
90
 51
131.4096221092699
  0
ARC
  5
2D3
100
AcDbEntity
  8
0
  6
ByLayer
 62
  256
370
   -1
100
AcDbCircle
 10
-1788481.745884143
 20
-9716500.000000117
 40
10000
100
AcDbArc
 50
228.590377890728
 51
270
  0
ARC
  5
2D4
100
AcDbEntity
  8
0
  6
ByLayer
 62
  256
370
   -1
100
AcDbCircle
 10
-1814481.745884145
 20
-9781500.000000117
 40
10000
100
AcDbArc
 50
90
 51
131.4096221092699
  0
ARC
  5
2D5
100
AcDbEntity
  8
0
  6
ByLayer
 62
  256
370
   -1
100
AcDbCircle
 10
-1804481.74588415
 20
-10351500.00000012
 40
10000
100
AcDbArc
 50
90
 51
131.4096221092709
  0
ARC
  5
2D6
100
AcDbEntity
  8
0
  6
ByLayer
 62
  256
370
   -1
100
AcDbCircle
 10
-1788481.74588415
 20
-10268500.00000012
 40
10000
100
AcDbArc
 50
228.5903778907291
 51
270
  0
ARC
  5
2D7
100
AcDbEntity
  8
0
  6
ByLayer
 62
  256
370
   -1
100
AcDbCircle
 10
-1814481.74588415
 20
-10333500.00000012
 40
10000
100
AcDbArc
 50
90
 51
131.4096221092709
  0
ARC
  5
2D8
100
AcDbEntity
  8
0
  6
ByLayer
 62
  256
370
   -1
100
AcDbCircle
 10
-1811481.74588415
 20
-10342500.00000012
 40
10000
100
AcDbArc
 50
90
 51
131.4096221092709
  0
ARC
  5
2D9
100
AcDbEntity
  8
0
  6
ByLayer
 62
  256
370
   -1
100
AcDbCircle
 10
-1804481.745884147
 20
-10093500.00000012
 40
10000
100
AcDbArc
 50
228.5903778907283
 51
270
  0
ARC
  5
2DA
100
AcDbEntity
  8
0
  6
ByLayer
 62
  256
370
   -1
100
AcDbCircle
 10
-1814481.745884147
 20
-10111500.00000012
 40
10000
100
AcDbArc
 50
228.5903778907283
 51
270
  0
ARC
  5
2DB
100
AcDbEntity
  8
0
  6
ByLayer
 62
  256
370
   -1
100
AcDbCircle
 10
-1811481.745884147
 20
-10102500.00000012
 40
10000
100
AcDbArc
 50
228.5903778907283
 51
270
  0
ARC
  5
2DC
100
AcDbEntity
  8
0
  6
ByLayer
 62
  256
370
   -1
100
AcDbCircle
 10
-1804481.745884148
 20
-10167500.00000012
 40
10000
100
AcDbArc
 50
90
 51
131.4096221092702
  0
ARC
  5
2DD
100
AcDbEntity
  8
0
  6
ByLayer
 62
  256
370
   -1
100
AcDbCircle
 10
-1811481.745884148
 20
-10158500.00000012
 40
10000
100
AcDbArc
 50
90
 51
131.4096221092702
  0
ARC
  5
2DE
100
AcDbEntity
  8
0
  6
ByLayer
 62
  256
370
   -1
100
AcDbCircle
 10
-1814481.745884148
 20
-10149500.00000012
 40
10000
100
AcDbArc
 50
90
 51
131.4096221092702
  0
ARC
  5
2DF
100
AcDbEntity
  8
0
  6
ByLayer
 62
  256
370
   -1
100
AcDbCircle
 10
-1788481.745884148
 20
-10176500.00000012
 40
10000
100
AcDbArc
 50
90
 51
131.4096221092702
  0
ARC
  5
2E0
100
AcDbEntity
  8
0
  6
ByLayer
 62
  256
370
   -1
100
AcDbCircle
 10
-1788481.745884147
 20
-10084500.00000012
 40
10000
100
AcDbArc
 50
228.5903778907283
 51
270
  0
ARC
  5
2E1
100
AcDbEntity
  8
0
  6
ByLayer
 62
  256
370
   -1
100
AcDbCircle
 10
-1818481.74588415
 20
-10259500.00000012
 40
10000
100
AcDbArc
 50
90
 51
131.4096221092709
  0
ARC
  5
2E2
100
AcDbEntity
  8
0
  6
ByLayer
 62
  256
370
   -1
100
AcDbCircle
 10
-1818481.74588415
 20
-10075500.00000012
 40
10000
100
AcDbArc
 50
90
 51
131.4096221092709
  0
ARC
  5
2E3
100
AcDbEntity
  8
0
  6
ByLayer
 62
  256
370
   -1
100
AcDbCircle
 10
-1818481.74588415
 20
-9891500.000000117
 40
10000
100
AcDbArc
 50
90
 51
131.4096221092709
  0
ARC
  5
2E4
100
AcDbEntity
  8
0
  6
ByLayer
 62
  256
370
   -1
100
AcDbCircle
 10
-1818481.745884148
 20
-9707500.000000117
 40
10000
100
AcDbArc
 50
90
 51
131.4096221092709
  0
ARC
  5
2E5
100
AcDbEntity
  8
0
  6
ByLayer
 62
  256
370
   -1
100
AcDbCircle
 10
-1818481.74588415
 20
-10443500.00000012
 40
10000
100
AcDbArc
 50
90
 51
131.4096221092709
  0
ARC
  5
2E6
100
AcDbEntity
  8
0
  6
ByLayer
 62
  256
370
   -1
100
AcDbCircle
 10
-1824481.74588415
 20
-10250500.00000012
 40
10000
100
AcDbArc
 50
90
 51
131.4096221092709
  0
ARC
  5
2E7
100
AcDbEntity
  8
0
  6
ByLayer
 62
  256
370
   -1
100
AcDbCircle
 10
-1824481.74588415
 20
-10066500.00000012
 40
10000
100
AcDbArc
 50
90
 51
131.4096221092709
  0
ARC
  5
2E8
100
AcDbEntity
  8
0
  6
ByLayer
 62
  256
370
   -1
100
AcDbCircle
 10
-1824481.74588415
 20
-9882500.000000117
 40
10000
100
AcDbArc
 50
90
 51
131.4096221092709
  0
ARC
  5
2E9
100
AcDbEntity
  8
0
  6
ByLayer
 62
  256
370
   -1
100
AcDbCircle
 10
-1824481.745884148
 20
-9698500.000000117
 40
10000
100
AcDbArc
 50
90
 51
131.4096221092709
  0
ARC
  5
2EA
100
AcDbEntity
  8
0
  6
ByLayer
 62
  256
370
   -1
100
AcDbCircle
 10
-1824481.74588415
 20
-10434500.00000012
 40
10000
100
AcDbArc
 50
90
 51
131.4096221092709
  0
ARC
  5
2EB
100
AcDbEntity
  8
0
  6
ByLayer
 62
  256
370
   -1
100
AcDbCircle
 10
-1828481.74588415
 20
-10241500.00000012
 40
10000
100
AcDbArc
 50
90
 51
131.4096221092709
  0
ARC
  5
2EC
100
AcDbEntity
  8
0
  6
ByLayer
 62
  256
370
   -1
100
AcDbCircle
 10
-1828481.74588415
 20
-10057500.00000012
 40
10000
100
AcDbArc
 50
90
 51
131.4096221092709
  0
ARC
  5
2ED
100
AcDbEntity
  8
0
  6
ByLayer
 62
  256
370
   -1
100
AcDbCircle
 10
-1828481.745884148
 20
-9873500.000000117
 40
10000
100
AcDbArc
 50
90
 51
131.4096221092709
  0
ARC
  5
2EE
100
AcDbEntity
  8
0
  6
ByLayer
 62
  256
370
   -1
100
AcDbCircle
 10
-1828481.74588415
 20
-9689500.000000117
 40
10000
100
AcDbArc
 50
90
 51
131.4096221092709
  0
ARC
  5
2EF
100
AcDbEntity
  8
0
  6
ByLayer
 62
  256
370
   -1
100
AcDbCircle
 10
-1828481.74588415
 20
-10425500.00000012
 40
10000
100
AcDbArc
 50
90
 51
131.4096221092709
  0
ARC
  5
2F0
100
AcDbEntity
  8
0
  6
ByLayer
 62
  256
370
   -1
100
AcDbCircle
 10
-1824481.745884152
 20
-10194500.00000012
 40
10000
100
AcDbArc
 50
228.5903778907315
 51
270
  0
ARC
  5
2F1
100
AcDbEntity
  8
0
  6
ByLayer
 62
  256
370
   -1
100
AcDbCircle
 10
-1824481.74588415
 20
-10010500.00000012
 40
10000
100
AcDbArc
 50
228.5903778907315
 51
270
  0
ARC
  5
2F2
100
AcDbEntity
  8
0
  6
ByLayer
 62
  256
370
   -1
100
AcDbCircle
 10
-1824481.74588415
 20
-9826500.000000117
 40
10000
100
AcDbArc
 50
228.5903778907315
 51
270
  0
ARC
  5
2F3
100
AcDbEntity
  8
0
  6
ByLayer
 62
  256
370
   -1
100
AcDbCircle
 10
-1824481.74588415
 20
-9642500.000000117
 40
10000
100
AcDbArc
 50
228.5903778907315
 51
270
  0
ARC
  5
2F4
100
AcDbEntity
  8
0
  6
ByLayer
 62
  256
370
   -1
100
AcDbCircle
 10
-1824481.74588415
 20
-10378500.00000012
 40
10000
100
AcDbArc
 50
228.5903778907315
 51
270
  0
ARC
  5
2F5
100
AcDbEntity
  8
0
  6
ByLayer
 62
  256
370
   -1
100
AcDbCircle
 10
-1828481.74588415
 20
-10203500.00000012
 40
10000
100
AcDbArc
 50
228.5903778907315
 51
270
  0
ARC
  5
2F6
100
AcDbEntity
  8
0
  6
ByLayer
 62
  256
370
   -1
100
AcDbCircle
 10
-1828481.74588415
 20
-10019500.00000012
 40
10000
100
AcDbArc
 50
228.5903778907315
 51
270
  0
ARC
  5
2F7
100
AcDbEntity
  8
0
  6
ByLayer
 62
  256
370
   -1
100
AcDbCircle
 10
-1828481.74588415
 20
-9835500.000000117
 40
10000
100
AcDbArc
 50
228.5903778907315
 51
270
  0
ARC
  5
2F8
100
AcDbEntity
  8
0
  6
ByLayer
 62
  256
370
   -1
100
AcDbCircle
 10
-1828481.74588415
 20
-9651500.000000117
 40
10000
100
AcDbArc
 50
228.5903778907315
 51
270
  0
ARC
  5
2F9
100
AcDbEntity
  8
0
  6
ByLayer
 62
  256
370
   -1
100
AcDbCircle
 10
-1828481.74588415
 20
-10387500.00000012
 40
10000
100
AcDbArc
 50
228.5903778907315
 51
270
  0
ARC
  5
2FA
100
AcDbEntity
  8
0
  6
ByLayer
 62
  256
370
   -1
100
AcDbCircle
 10
-1818481.745884152
 20
-10185500.00000012
 40
10000
100
AcDbArc
 50
228.5903778907315
 51
270
  0
ARC
  5
2FB
100
AcDbEntity
  8
0
  6
ByLayer
 62
  256
370
   -1
100
AcDbCircle
 10
-1818481.745884152
 20
-10001500.00000012
 40
10000
100
AcDbArc
 50
228.5903778907315
 51
270
  0
ARC
  5
2FC
100
AcDbEntity
  8
0
  6
ByLayer
 62
  256
370
   -1
100
AcDbCircle
 10
-1818481.745884152
 20
-9817500.000000117
 40
10000
100
AcDbArc
 50
228.5903778907315
 51
270
  0
ARC
  5
2FD
100
AcDbEntity
  8
0
  6
ByLayer
 62
  256
370
   -1
100
AcDbCircle
 10
-1818481.74588415
 20
-9633500.000000117
 40
10000
100
AcDbArc
 50
228.5903778907315
 51
270
  0
ARC
  5
2FE
100
AcDbEntity
  8
0
  6
ByLayer
 62
  256
370
   -1
100
AcDbCircle
 10
-1818481.745884152
 20
-10369500.00000012
 40
10000
100
AcDbArc
 50
228.5903778907315
 51
270
  0
ARC
  5
2FF
100
AcDbEntity
  8
0
  6
ByLayer
 62
  256
370
   -1
100
AcDbCircle
 10
-1811481.74588415
 20
-10286500.00000012
 40
10000
100
AcDbArc
 50
228.5903778907291
 51
270
  0
ARC
  5
300
100
AcDbEntity
  8
0
  6
ByLayer
 62
  256
370
   -1
100
AcDbCircle
 10
-1814481.74588415
 20
-10295500.00000012
 40
10000
100
AcDbArc
 50
228.5903778907291
 51
270
  0
ARC
  5
301
100
AcDbEntity
  8
0
  6
ByLayer
 62
  256
370
   -1
100
AcDbCircle
 10
-1804481.74588415
 20
-10277500.00000012
 40
10000
100
AcDbArc
 50
228.5903778907291
 51
270
  0
ARC
  5
302
100
AcDbEntity
  8
0
  6
ByLayer
 62
  256
370
   -1
100
AcDbCircle
 10
-1788481.74588415
 20
-10452500.00000012
 40
10000
100
AcDbArc
 50
228.5903778907291
 51
270
  0
ARC
  5
303
100
AcDbEntity
  8
0
  6
ByLayer
 62
  256
370
   -1
100
AcDbCircle
 10
-1788481.74588415
 20
-10544500.00000012
 40
10000
100
AcDbArc
 50
90
 51
131.4096221092709
  0
ARC
  5
304
100
AcDbEntity
  8
0
  6
ByLayer
 62
  256
370
   -1
100
AcDbCircle
 10
-1814481.74588415
 20
-10479500.00000012
 40
10000
100
AcDbArc
 50
228.5903778907291
 51
270
  0
ARC
  5
305
100
AcDbEntity
  8
0
  6
ByLayer
 62
  256
370
   -1
100
AcDbCircle
 10
-1804481.74588415
 20
-10461500.00000012
 40
10000
100
AcDbArc
 50
228.5903778907291
 51
270
  0
ARC
  5
306
100
AcDbEntity
  8
0
  6
ByLayer
 62
  256
370
   -1
100
AcDbCircle
 10
-1811481.74588415
 20
-10470500.00000012
 40
10000
100
AcDbArc
 50
228.5903778907291
 51
270
  0
ARC
  5
307
100
AcDbEntity
  8
0
  6
ByLayer
 62
  256
370
   -1
100
AcDbCircle
 10
-1814481.74588415
 20
-10517500.00000012
 40
10000
100
AcDbArc
 50
90
 51
131.4096221092709
  0
ARC
  5
308
100
AcDbEntity
  8
0
  6
ByLayer
 62
  256
370
   -1
100
AcDbCircle
 10
-1811481.74588415
 20
-10526500.00000012
 40
10000
100
AcDbArc
 50
90
 51
131.4096221092709
  0
ARC
  5
309
100
AcDbEntity
  8
0
  6
ByLayer
 62
  256
370
   -1
100
AcDbCircle
 10
-1804481.74588415
 20
-10535500.00000012
 40
10000
100
AcDbArc
 50
90
 51
131.4096221092709
  0
ARC
  5
30A
100
AcDbEntity
  8
0
  6
ByLayer
 62
  256
370
   -1
100
AcDbCircle
 10
-1804481.745884152
 20
-9600500.000000117
 40
10000
100
AcDbArc
 50
228.5903778907326
 51
270
  0
ARC
  5
30B
100
AcDbEntity
  8
0
  6
ByLayer
 62
  256
370
   -1
100
AcDbCircle
 10
-1811481.745884154
 20
-9591500.000000117
 40
10000
100
AcDbArc
 50
228.5903778907326
 51
270
  0
ARC
  5
30C
100
AcDbEntity
  8
0
  6
ByLayer
 62
  256
370
   -1
100
AcDbCircle
 10
-1814481.745884154
 20
-9582500.000000117
 40
10000
100
AcDbArc
 50
228.5903778907326
 51
270
  0
ARC
  5
30D
100
AcDbEntity
  8
0
  6
ByLayer
 62
  256
370
   -1
100
AcDbCircle
 10
-1804481.745884156
 20
-9556500.000000117
 40
10000
100
AcDbArc
 50
90
 51
131.4096221092744
  0
ARC
  5
30E
100
AcDbEntity
  8
0
  6
ByLayer
 62
  256
370
   -1
100
AcDbCircle
 10
-1788481.745884152
 20
-10345500.00000012
 40
10000
100
AcDbArc
 50
228.5903778907316
 51
270
  0
ARC
  5
30F
100
AcDbEntity
  8
0
  6
ByLayer
 62
  256
370
   -1
100
AcDbCircle
 10
-1788481.745884147
 20
-9915500.000000117
 40
10000
100
AcDbArc
 50
90
 51
131.4096221092705
  0
ARC
  5
310
100
AcDbEntity
  8
0
  6
ByLayer
 62
  256
370
   -1
100
AcDbCircle
 10
-1788481.745884152
 20
-9609500.000000117
 40
10000
100
AcDbArc
 50
228.5903778907319
 51
270
  0
ARC
  5
311
100
AcDbEntity
  8
0
  6
ByLayer
 62
  256
370
   -1
100
AcDbCircle
 10
-1811481.745884156
 20
-9565500.000000117
 40
10000
100
AcDbArc
 50
90
 51
131.4096221092744
  0
ARC
  5
312
100
AcDbEntity
  8
0
  6
ByLayer
 62
  256
370
   -1
100
AcDbCircle
 10
-1814481.745884154
 20
-9574500.000000117
 40
10000
100
AcDbArc
 50
90
 51
131.4096221092744
  0
ARC
  5
313
100
AcDbEntity
  8
0
  6
ByLayer
 62
  256
370
   -1
100
AcDbCircle
 10
-1788481.745884156
 20
-9547500.000000117
 40
10000
100
AcDbArc
 50
90
 51
131.4096221092744
  0
ARC
  5
314
100
AcDbEntity
  8
0
  6
ByLayer
 62
  256
370
   -1
100
AcDbCircle
 10
-1804481.745884145
 20
-9924500.000000117
 40
10000
100
AcDbArc
 50
90
 51
131.4096221092699
  0
ARC
  5
315
100
AcDbEntity
  8
0
  6
ByLayer
 62
  256
370
   -1
100
AcDbCircle
 10
-1811481.745884147
 20
-9933500.000000117
 40
10000
100
AcDbArc
 50
90
 51
131.4096221092699
  0
ARC
  5
316
100
AcDbEntity
  8
0
  6
ByLayer
 62
  256
370
   -1
100
AcDbCircle
 10
-1804481.745884147
 20
-9968500.000000117
 40
10000
100
AcDbArc
 50
228.590377890728
 51
270
  0
ARC
  5
317
100
AcDbEntity
  8
0
  6
ByLayer
 62
  256
370
   -1
100
AcDbCircle
 10
-1814481.745884147
 20
-9942500.000000117
 40
10000
100
AcDbArc
 50
90
 51
131.4096221092699
  0
ARC
  5
318
100
AcDbEntity
  8
0
  6
ByLayer
 62
  256
370
   -1
100
AcDbCircle
 10
-1811481.745884147
 20
-9959500.000000117
 40
10000
100
AcDbArc
 50
228.590377890728
 51
270
  0
ARC
  5
319
100
AcDbEntity
  8
0
  6
ByLayer
 62
  256
370
   -1
100
AcDbCircle
 10
-1814481.745884147
 20
-9950500.000000117
 40
10000
100
AcDbArc
 50
228.590377890728
 51
270
  0
ARC
  5
31A
100
AcDbEntity
  8
0
  6
ByLayer
 62
  256
370
   -1
100
AcDbCircle
 10
-1788481.745884147
 20
-9977500.000000117
 40
10000
100
AcDbArc
 50
228.590377890728
 51
270
  0
ARC
  5
31B
100
AcDbEntity
  8
0
  6
ByLayer
 62
  256
370
   -1
100
AcDbCircle
 10
-1788481.745884143
 20
-9731500.000000117
 40
10000
100
AcDbArc
 50
90
 51
131.4096221092699
  0
ARC
  5
31C
100
AcDbEntity
  8
0
  6
ByLayer
 62
  256
370
   -1
100
AcDbCircle
 10
-1788481.745884143
 20
-9793500.000000117
 40
10000
100
AcDbArc
 50
228.590377890728
 51
270
  0
ARC
  5
31D
100
AcDbEntity
  8
0
  6
ByLayer
 62
  256
370
   -1
100
AcDbCircle
 10
-1804481.745884143
 20
-9784500.000000117
 40
10000
100
AcDbArc
 50
228.590377890728
 51
270
  0
ARC
  5
31E
100
AcDbEntity
  8
0
  6
ByLayer
 62
  256
370
   -1
100
AcDbCircle
 10
-1811481.745884143
 20
-9749500.000000117
 40
10000
100
AcDbArc
 50
90
 51
131.4096221092699
  0
ARC
  5
31F
100
AcDbEntity
  8
0
  6
ByLayer
 62
  256
370
   -1
100
AcDbCircle
 10
-1814481.745884143
 20
-9758500.000000117
 40
10000
100
AcDbArc
 50
90
 51
131.4096221092699
  0
ARC
  5
320
100
AcDbEntity
  8
0
  6
ByLayer
 62
  256
370
   -1
100
AcDbCircle
 10
-1804481.745884143
 20
-9740500.000000117
 40
10000
100
AcDbArc
 50
90
 51
131.4096221092699
  0
ARC
  5
321
100
AcDbEntity
  8
0
  6
ByLayer
 62
  256
370
   -1
100
AcDbCircle
 10
-1811481.745884143
 20
-9775500.000000117
 40
10000
100
AcDbArc
 50
228.590377890728
 51
270
  0
ARC
  5
322
100
AcDbEntity
  8
0
  6
ByLayer
 62
  256
370
   -1
100
AcDbCircle
 10
-1814481.745884143
 20
-9766500.000000117
 40
10000
100
AcDbArc
 50
228.590377890728
 51
270
  0
ARC
  5
323
100
AcDbEntity
  8
0
  6
ByLayer
 62
  256
370
   -1
100
AcDbCircle
 10
-1804481.74588415
 20
-10336500.00000012
 40
10000
100
AcDbArc
 50
228.5903778907291
 51
270
  0
ARC
  5
324
100
AcDbEntity
  8
0
  6
ByLayer
 62
  256
370
   -1
100
AcDbCircle
 10
-1811481.74588415
 20
-10327500.00000012
 40
10000
100
AcDbArc
 50
228.5903778907291
 51
270
  0
ARC
  5
325
100
AcDbEntity
  8
0
  6
ByLayer
 62
  256
370
   -1
100
AcDbCircle
 10
-1814481.74588415
 20
-10318500.00000012
 40
10000
100
AcDbArc
 50
228.5903778907291
 51
270
  0
ARC
  5
326
100
AcDbEntity
  8
0
  6
ByLayer
 62
  256
370
   -1
100
AcDbCircle
 10
-1804481.74588415
 20
-10292500.00000012
 40
10000
100
AcDbArc
 50
90
 51
131.4096221092709
  0
ARC
  5
327
100
AcDbEntity
  8
0
  6
ByLayer
 62
  256
370
   -1
100
AcDbCircle
 10
-1788481.745884147
 20
-10099500.00000012
 40
10000
100
AcDbArc
 50
90
 51
131.4096221092702
  0
ARC
  5
328
100
AcDbEntity
  8
0
  6
ByLayer
 62
  256
370
   -1
100
AcDbCircle
 10
-1788481.745884148
 20
-10161500.00000012
 40
10000
100
AcDbArc
 50
228.5903778907283
 51
270
  0
ARC
  5
329
100
AcDbEntity
  8
0
  6
ByLayer
 62
  256
370
   -1
100
AcDbCircle
 10
-1804481.745884148
 20
-10152500.00000012
 40
10000
100
AcDbArc
 50
228.5903778907283
 51
270
  0
ARC
  5
32A
100
AcDbEntity
  8
0
  6
ByLayer
 62
  256
370
   -1
100
AcDbCircle
 10
-1804481.745884147
 20
-10108500.00000012
 40
10000
100
AcDbArc
 50
90
 51
131.4096221092702
  0
ARC
  5
32B
100
AcDbEntity
  8
0
  6
ByLayer
 62
  256
370
   -1
100
AcDbCircle
 10
-1811481.745884147
 20
-10117500.00000012
 40
10000
100
AcDbArc
 50
90
 51
131.4096221092702
  0
ARC
  5
32C
100
AcDbEntity
  8
0
  6
ByLayer
 62
  256
370
   -1
100
AcDbCircle
 10
-1814481.745884147
 20
-10126500.00000012
 40
10000
100
AcDbArc
 50
90
 51
131.4096221092702
  0
ARC
  5
32D
100
AcDbEntity
  8
0
  6
ByLayer
 62
  256
370
   -1
100
AcDbCircle
 10
-1811481.745884148
 20
-10143500.00000012
 40
10000
100
AcDbArc
 50
228.5903778907283
 51
270
  0
ARC
  5
32E
100
AcDbEntity
  8
0
  6
ByLayer
 62
  256
370
   -1
100
AcDbCircle
 10
-1814481.745884147
 20
-10134500.00000012
 40
10000
100
AcDbArc
 50
228.5903778907283
 51
270
  0
ARC
  5
32F
100
AcDbEntity
  8
0
  6
ByLayer
 62
  256
370
   -1
100
AcDbCircle
 10
-1828481.74588415
 20
-10410500.00000012
 40
10000
100
AcDbArc
 50
228.5903778907291
 51
270
  0
ARC
  5
330
100
AcDbEntity
  8
0
  6
ByLayer
 62
  256
370
   -1
100
AcDbCircle
 10
-1828481.74588415
 20
-10226500.00000012
 40
10000
100
AcDbArc
 50
228.5903778907291
 51
270
  0
ARC
  5
331
100
AcDbEntity
  8
0
  6
ByLayer
 62
  256
370
   -1
100
AcDbCircle
 10
-1828481.74588415
 20
-10042500.00000012
 40
10000
100
AcDbArc
 50
228.5903778907291
 51
270
  0
ARC
  5
332
100
AcDbEntity
  8
0
  6
ByLayer
 62
  256
370
   -1
100
AcDbCircle
 10
-1828481.74588415
 20
-9858500.000000117
 40
10000
100
AcDbArc
 50
228.5903778907291
 51
270
  0
ARC
  5
333
100
AcDbEntity
  8
0
  6
ByLayer
 62
  256
370
   -1
100
AcDbCircle
 10
-1828481.74588415
 20
-9674500.000000117
 40
10000
100
AcDbArc
 50
228.5903778907291
 51
270
  0
ARC
  5
334
100
AcDbEntity
  8
0
  6
ByLayer
 62
  256
370
   -1
100
AcDbCircle
 10
-1824481.74588415
 20
-10419500.00000012
 40
10000
100
AcDbArc
 50
228.5903778907291
 51
270
  0
ARC
  5
335
100
AcDbEntity
  8
0
  6
ByLayer
 62
  256
370
   -1
100
AcDbCircle
 10
-1824481.74588415
 20
-10235500.00000012
 40
10000
100
AcDbArc
 50
228.5903778907291
 51
270
  0
ARC
  5
336
100
AcDbEntity
  8
0
  6
ByLayer
 62
  256
370
   -1
100
AcDbCircle
 10
-1824481.74588415
 20
-10051500.00000012
 40
10000
100
AcDbArc
 50
228.5903778907291
 51
270
  0
ARC
  5
337
100
AcDbEntity
  8
0
  6
ByLayer
 62
  256
370
   -1
100
AcDbCircle
 10
-1824481.74588415
 20
-9867500.000000117
 40
10000
100
AcDbArc
 50
228.5903778907291
 51
270
  0
ARC
  5
338
100
AcDbEntity
  8
0
  6
ByLayer
 62
  256
370
   -1
100
AcDbCircle
 10
-1824481.74588415
 20
-9683500.000000117
 40
10000
100
AcDbArc
 50
228.5903778907291
 51
270
  0
ARC
  5
339
100
AcDbEntity
  8
0
  6
ByLayer
 62
  256
370
   -1
100
AcDbCircle
 10
-1818481.74588415
 20
-10428500.00000012
 40
10000
100
AcDbArc
 50
228.5903778907291
 51
270
  0
ARC
  5
33A
100
AcDbEntity
  8
0
  6
ByLayer
 62
  256
370
   -1
100
AcDbCircle
 10
-1818481.74588415
 20
-10244500.00000012
 40
10000
100
AcDbArc
 50
228.5903778907291
 51
270
  0
ARC
  5
33B
100
AcDbEntity
  8
0
  6
ByLayer
 62
  256
370
   -1
100
AcDbCircle
 10
-1818481.74588415
 20
-10060500.00000012
 40
10000
100
AcDbArc
 50
228.5903778907291
 51
270
  0
ARC
  5
33C
100
AcDbEntity
  8
0
  6
ByLayer
 62
  256
370
   -1
100
AcDbCircle
 10
-1818481.745884148
 20
-9876500.000000117
 40
10000
100
AcDbArc
 50
228.5903778907291
 51
270
  0
ARC
  5
33D
100
AcDbEntity
  8
0
  6
ByLayer
 62
  256
370
   -1
100
AcDbCircle
 10
-1818481.74588415
 20
-9692500.000000117
 40
10000
100
AcDbArc
 50
228.5903778907291
 51
270
  0
ARC
  5
33E
100
AcDbEntity
  8
0
  6
ByLayer
 62
  256
370
   -1
100
AcDbCircle
 10
-1828481.74588415
 20
-10402500.00000012
 40
10000
100
AcDbArc
 50
90
 51
131.4096221092734
  0
ARC
  5
33F
100
AcDbEntity
  8
0
  6
ByLayer
 62
  256
370
   -1
100
AcDbCircle
 10
-1828481.74588415
 20
-10218500.00000012
 40
10000
100
AcDbArc
 50
90
 51
131.4096221092734
  0
ARC
  5
340
100
AcDbEntity
  8
0
  6
ByLayer
 62
  256
370
   -1
100
AcDbCircle
 10
-1828481.74588415
 20
-10034500.00000012
 40
10000
100
AcDbArc
 50
90
 51
131.4096221092734
  0
ARC
  5
341
100
AcDbEntity
  8
0
  6
ByLayer
 62
  256
370
   -1
100
AcDbCircle
 10
-1828481.74588415
 20
-9850500.000000117
 40
10000
100
AcDbArc
 50
90
 51
131.4096221092734
  0
ARC
  5
342
100
AcDbEntity
  8
0
  6
ByLayer
 62
  256
370
   -1
100
AcDbCircle
 10
-1828481.74588415
 20
-9666500.000000117
 40
10000
100
AcDbArc
 50
90
 51
131.4096221092734
  0
ARC
  5
343
100
AcDbEntity
  8
0
  6
ByLayer
 62
  256
370
   -1
100
AcDbCircle
 10
-1824481.74588415
 20
-10393500.00000012
 40
10000
100
AcDbArc
 50
90
 51
131.4096221092734
  0
ARC
  5
344
100
AcDbEntity
  8
0
  6
ByLayer
 62
  256
370
   -1
100
AcDbCircle
 10
-1824481.74588415
 20
-10209500.00000012
 40
10000
100
AcDbArc
 50
90
 51
131.4096221092734
  0
ARC
  5
345
100
AcDbEntity
  8
0
  6
ByLayer
 62
  256
370
   -1
100
AcDbCircle
 10
-1824481.74588415
 20
-10025500.00000012
 40
10000
100
AcDbArc
 50
90
 51
131.4096221092734
  0
ARC
  5
346
100
AcDbEntity
  8
0
  6
ByLayer
 62
  256
370
   -1
100
AcDbCircle
 10
-1824481.74588415
 20
-9841500.000000117
 40
10000
100
AcDbArc
 50
90
 51
131.4096221092734
  0
ARC
  5
347
100
AcDbEntity
  8
0
  6
ByLayer
 62
  256
370
   -1
100
AcDbCircle
 10
-1824481.74588415
 20
-9657500.000000117
 40
10000
100
AcDbArc
 50
90
 51
131.4096221092734
  0
ARC
  5
348
100
AcDbEntity
  8
0
  6
ByLayer
 62
  256
370
   -1
100
AcDbCircle
 10
-1818481.74588415
 20
-10384500.00000012
 40
10000
100
AcDbArc
 50
90
 51
131.4096221092734
  0
ARC
  5
349
100
AcDbEntity
  8
0
  6
ByLayer
 62
  256
370
   -1
100
AcDbCircle
 10
-1818481.74588415
 20
-10200500.00000012
 40
10000
100
AcDbArc
 50
90
 51
131.4096221092734
  0
ARC
  5
34A
100
AcDbEntity
  8
0
  6
ByLayer
 62
  256
370
   -1
100
AcDbCircle
 10
-1818481.74588415
 20
-10016500.00000012
 40
10000
100
AcDbArc
 50
90
 51
131.4096221092734
  0
ARC
  5
34B
100
AcDbEntity
  8
0
  6
ByLayer
 62
  256
370
   -1
100
AcDbCircle
 10
-1818481.74588415
 20
-9832500.000000117
 40
10000
100
AcDbArc
 50
90
 51
131.4096221092734
  0
ARC
  5
34C
100
AcDbEntity
  8
0
  6
ByLayer
 62
  256
370
   -1
100
AcDbCircle
 10
-1818481.74588415
 20
-9648500.000000117
 40
10000
100
AcDbArc
 50
90
 51
131.4096221092734
  0
ARC
  5
34D
100
AcDbEntity
  8
0
  6
ByLayer
 62
  256
370
   -1
100
AcDbCircle
 10
-1811481.74588415
 20
-10301500.00000012
 40
10000
100
AcDbArc
 50
90
 51
131.4096221092709
  0
ARC
  5
34E
100
AcDbEntity
  8
0
  6
ByLayer
 62
  256
370
   -1
100
AcDbCircle
 10
-1814481.74588415
 20
-10310500.00000012
 40
10000
100
AcDbArc
 50
90
 51
131.4096221092709
  0
ARC
  5
34F
100
AcDbEntity
  8
0
  6
ByLayer
 62
  256
370
   -1
100
AcDbCircle
 10
-1788481.74588415
 20
-10283500.00000012
 40
10000
100
AcDbArc
 50
90
 51
131.4096221092709
  0
ARC
  5
350
100
AcDbEntity
  8
0
  6
ByLayer
 62
  256
370
   -1
100
AcDbCircle
 10
-1811481.74588415
 20
-10485500.00000012
 40
10000
100
AcDbArc
 50
90
 51
131.409622109271
  0
ARC
  5
351
100
AcDbEntity
  8
0
  6
ByLayer
 62
  256
370
   -1
100
AcDbCircle
 10
-1814481.74588415
 20
-10494500.00000012
 40
10000
100
AcDbArc
 50
90
 51
131.409622109271
  0
ARC
  5
352
100
AcDbEntity
  8
0
  6
ByLayer
 62
  256
370
   -1
100
AcDbCircle
 10
-1804481.74588415
 20
-10476500.00000012
 40
10000
100
AcDbArc
 50
90
 51
131.409622109271
  0
ARC
  5
353
100
AcDbEntity
  8
0
  6
ByLayer
 62
  256
370
   -1
100
AcDbCircle
 10
-1788481.74588415
 20
-10467500.00000012
 40
10000
100
AcDbArc
 50
90
 51
131.409622109271
  0
ARC
  5
354
100
AcDbEntity
  8
0
  6
ByLayer
 62
  256
370
   -1
100
AcDbCircle
 10
-1804481.74588415
 20
-10520500.00000012
 40
10000
100
AcDbArc
 50
228.5903778907291
 51
270
  0
ARC
  5
355
100
AcDbEntity
  8
0
  6
ByLayer
 62
  256
370
   -1
100
AcDbCircle
 10
-1811481.74588415
 20
-10511500.00000012
 40
10000
100
AcDbArc
 50
228.5903778907291
 51
270
  0
ARC
  5
356
100
AcDbEntity
  8
0
  6
ByLayer
 62
  256
370
   -1
100
AcDbCircle
 10
-1814481.74588415
 20
-10502500.00000012
 40
10000
100
AcDbArc
 50
228.5903778907291
 51
270
  0
ARC
  5
357
100
AcDbEntity
  8
0
  6
ByLayer
 62
  256
370
   -1
100
AcDbCircle
 10
-1788481.74588415
 20
-10529500.00000012
 40
10000
100
AcDbArc
 50
228.5903778907291
 51
270
  0
ARC
  5
358
100
AcDbEntity
  8
0
  6
ByLayer
 62
  256
370
   -1
100
AcDbCircle
 10
-1811481.745884154
 20
-9588500.000000117
 40
15000
100
AcDbArc
 50
90
 51
138.1896851042289
  0
ARC
  5
359
100
AcDbEntity
  8
0
  6
ByLayer
 62
  256
370
   -1
100
AcDbCircle
 10
-1811481.745884147
 20
-9936500.000000117
 40
15000
100
AcDbArc
 50
221.8103148957735
 51
270
  0
ARC
  5
35A
100
AcDbEntity
  8
0
  6
ByLayer
 62
  256
370
   -1
100
AcDbCircle
 10
-1811481.745884143
 20
-9772500.000000117
 40
15000
100
AcDbArc
 50
90
 51
138.1896851042245
  0
ARC
  5
35B
100
AcDbEntity
  8
0
  6
ByLayer
 62
  256
370
   -1
100
AcDbCircle
 10
-1811481.745884148
 20
-10140500.00000012
 40
15000
100
AcDbArc
 50
90
 51
138.1896851042247
  0
ARC
  5
35C
100
AcDbEntity
  8
0
  6
ByLayer
 62
  256
370
   -1
100
AcDbCircle
 10
-1811481.74588415
 20
-10488500.00000012
 40
15000
100
AcDbArc
 50
221.8103148957746
 51
270
  0
ARC
  5
35D
100
AcDbEntity
  8
0
  6
ByLayer
 62
  256
370
   -1
100
AcDbCircle
 10
-1824481.74588415
 20
-10396500.00000012
 40
15000
100
AcDbArc
 50
221.8103148957746
 51
270
  0
ARC
  5
35E
100
AcDbEntity
  8
0
  6
ByLayer
 62
  256
370
   -1
100
AcDbCircle
 10
-1824481.74588415
 20
-10212500.00000012
 40
15000
100
AcDbArc
 50
221.8103148957746
 51
270
  0
ARC
  5
35F
100
AcDbEntity
  8
0
  6
ByLayer
 62
  256
370
   -1
100
AcDbCircle
 10
-1824481.74588415
 20
-10028500.00000012
 40
15000
100
AcDbArc
 50
221.8103148957746
 51
270
  0
ARC
  5
360
100
AcDbEntity
  8
0
  6
ByLayer
 62
  256
370
   -1
100
AcDbCircle
 10
-1824481.74588415
 20
-9844500.000000117
 40
15000
100
AcDbArc
 50
221.8103148957746
 51
270
  0
ARC
  5
361
100
AcDbEntity
  8
0
  6
ByLayer
 62
  256
370
   -1
100
AcDbCircle
 10
-1824481.74588415
 20
-9660500.000000117
 40
15000
100
AcDbArc
 50
221.8103148957746
 51
270
  0
ARC
  5
362
100
AcDbEntity
  8
0
  6
ByLayer
 62
  256
370
   -1
100
AcDbCircle
 10
-1811481.74588415
 20
-10324500.00000012
 40
15000
100
AcDbArc
 50
90
 51
138.1896851042254
  0
ARC
  5
363
100
AcDbEntity
  8
0
  6
ByLayer
 62
  256
370
   -1
100
AcDbCircle
 10
-1824481.74588415
 20
-10416500.00000012
 40
15000
100
AcDbArc
 50
90
 51
138.1896851042279
  0
ARC
  5
364
100
AcDbEntity
  8
0
  6
ByLayer
 62
  256
370
   -1
100
AcDbCircle
 10
-1824481.74588415
 20
-10232500.00000012
 40
15000
100
AcDbArc
 50
90
 51
138.1896851042279
  0
ARC
  5
365
100
AcDbEntity
  8
0
  6
ByLayer
 62
  256
370
   -1
100
AcDbCircle
 10
-1824481.74588415
 20
-10048500.00000012
 40
15000
100
AcDbArc
 50
90
 51
138.1896851042279
  0
ARC
  5
366
100
AcDbEntity
  8
0
  6
ByLayer
 62
  256
370
   -1
100
AcDbCircle
 10
-1824481.745884148
 20
-9864500.000000117
 40
15000
100
AcDbArc
 50
90
 51
138.1896851042279
  0
ARC
  5
367
100
AcDbEntity
  8
0
  6
ByLayer
 62
  256
370
   -1
100
AcDbCircle
 10
-1824481.745884148
 20
-9680500.000000117
 40
15000
100
AcDbArc
 50
90
 51
138.1896851042279
  0
ARC
  5
368
100
AcDbEntity
  8
0
  6
ByLayer
 62
  256
370
   -1
100
AcDbCircle
 10
-1811481.745884156
 20
-9568500.000000117
 40
15000
100
AcDbArc
 50
221.8103148957781
 51
270
  0
ARC
  5
369
100
AcDbEntity
  8
0
  6
ByLayer
 62
  256
370
   -1
100
AcDbCircle
 10
-1811481.745884147
 20
-9956500.000000117
 40
15000
100
AcDbArc
 50
90
 51
138.1896851042243
  0
ARC
  5
36A
100
AcDbEntity
  8
0
  6
ByLayer
 62
  256
370
   -1
100
AcDbCircle
 10
-1811481.745884143
 20
-9752500.000000117
 40
15000
100
AcDbArc
 50
221.8103148957736
 51
270
  0
ARC
  5
36B
100
AcDbEntity
  8
0
  6
ByLayer
 62
  256
370
   -1
100
AcDbCircle
 10
-1811481.745884148
 20
-10120500.00000012
 40
15000
100
AcDbArc
 50
221.8103148957739
 51
270
  0
ARC
  5
36C
100
AcDbEntity
  8
0
  6
ByLayer
 62
  256
370
   -1
100
AcDbCircle
 10
-1811481.74588415
 20
-10508500.00000012
 40
15000
100
AcDbArc
 50
90
 51
138.1896851042254
  0
ARC
  5
36D
100
AcDbEntity
  8
0
  6
ByLayer
 62
  256
370
   -1
100
AcDbCircle
 10
-1811481.74588415
 20
-10304500.00000012
 40
15000
100
AcDbArc
 50
221.8103148957747
 51
270
  0
LINE
  5
36E
100
AcDbEntity
  8
0
  6
ByLayer
 62
  256
370
   -1
100
AcDbLine
 10
-1774481.745884148
 20
-9530000.000000117
 11
-1774481.74588415
 21
-9533500.000000097
  0
LINE
  5
36F
100
AcDbEntity
  8
0
  6
ByLayer
 62
  256
370
   -1
100
AcDbLine
 10
-1811650.813264886
 20
-10364500.00000012
 11
-1774481.74588415
 21
-10364500.00000012
  0
LINE
  5
370
100
AcDbEntity
  8
0
  6
ByLayer
 62
  256
370
   -1
100
AcDbLine
 10
-1811650.813264886
 20
-10448500.00000012
 11
-1774481.74588415
 21
-10448500.00000012
  0
LINE
  5
371
100
AcDbEntity
  8
0
  6
ByLayer
 62
  256
370
   -1
100
AcDbLine
 10
-1811650.813264886
 20
-10264500.00000012
 11
-1774481.74588415
 21
-10264500.00000012
  0
LINE
  5
372
100
AcDbEntity
  8
0
  6
ByLayer
 62
  256
370
   -1
100
AcDbLine
 10
-1811650.813264886
 20
-10180500.00000012
 11
-1774481.74588415
 21
-10180500.00000012
  0
LINE
  5
373
100
AcDbEntity
  8
0
  6
ByLayer
 62
  256
370
   -1
100
AcDbLine
 10
-1811650.813264886
 20
-9996500.000000117
 11
-1774481.74588415
 21
-9996500.000000117
  0
LINE
  5
374
100
AcDbEntity
  8
0
  6
ByLayer
 62
  256
370
   -1
100
AcDbLine
 10
-1811650.813264886
 20
-10080500.00000012
 11
-1774481.74588415
 21
-10080500.00000012
  0
LINE
  5
375
100
AcDbEntity
  8
0
  6
ByLayer
 62
  256
370
   -1
100
AcDbLine
 10
-1811650.813264884
 20
-9812500.000000117
 11
-1774481.74588415
 21
-9812500.000000117
  0
LINE
  5
376
100
AcDbEntity
  8
0
  6
ByLayer
 62
  256
370
   -1
100
AcDbLine
 10
-1811650.813264886
 20
-9896500.000000117
 11
-1774481.74588415
 21
-9896500.000000117
  0
LINE
  5
377
100
AcDbEntity
  8
0
  6
ByLayer
 62
  256
370
   -1
100
AcDbLine
 10
-1811650.813264886
 20
-9628500.000000117
 11
-1774481.745884148
 21
-9628500.000000117
  0
LINE
  5
378
100
AcDbEntity
  8
0
  6
ByLayer
 62
  256
370
   -1
100
AcDbLine
 10
-1811650.813264886
 20
-9712500.000000117
 11
-1774481.74588415
 21
-9712500.000000117
  0
LINE
  5
379
100
AcDbEntity
  8
0
  6
ByLayer
 62
  256
370
   -1
100
AcDbLine
 10
-1774481.74588415
 20
-10453500.00000012
 11
-1782098.071484632
 21
-10453500.00000012
  0
LINE
  5
37A
100
AcDbEntity
  8
0
  6
ByLayer
 62
  256
370
   -1
100
AcDbLine
 10
-1774481.74588415
 20
-10364500.00000012
 11
-1784481.74588415
 21
-10374500.00000012
  0
LINE
  5
37B
100
AcDbEntity
  8
0
  6
ByLayer
 62
  256
370
   -1
100
AcDbLine
 10
-1774481.74588415
 20
-10448500.00000012
 11
-1784481.74588415
 21
-10438500.00000012
  0
LINE
  5
37C
100
AcDbEntity
  8
0
  6
ByLayer
 62
  256
370
   -1
100
AcDbLine
 10
-1774481.74588415
 20
-10180500.00000012
 11
-1784481.74588415
 21
-10190500.00000012
  0
LINE
  5
37D
100
AcDbEntity
  8
0
  6
ByLayer
 62
  256
370
   -1
100
AcDbLine
 10
-1774481.74588415
 20
-10264500.00000012
 11
-1784481.74588415
 21
-10254500.00000012
  0
LINE
  5
37E
100
AcDbEntity
  8
0
  6
ByLayer
 62
  256
370
   -1
100
AcDbLine
 10
-1774481.74588415
 20
-9996500.000000117
 11
-1784481.74588415
 21
-10006500.00000012
  0
LINE
  5
37F
100
AcDbEntity
  8
0
  6
ByLayer
 62
  256
370
   -1
100
AcDbLine
 10
-1774481.74588415
 20
-10080500.00000012
 11
-1784481.74588415
 21
-10070500.00000012
  0
LINE
  5
380
100
AcDbEntity
  8
0
  6
ByLayer
 62
  256
370
   -1
100
AcDbLine
 10
-1774481.74588415
 20
-9896500.000000117
 11
-1784481.74588415
 21
-9886500.000000117
  0
LINE
  5
381
100
AcDbEntity
  8
0
  6
ByLayer
 62
  256
370
   -1
100
AcDbLine
 10
-1774481.745884148
 20
-9812500.000000117
 11
-1784481.74588415
 21
-9822500.000000117
  0
LINE
  5
382
100
AcDbEntity
  8
0
  6
ByLayer
 62
  256
370
   -1
100
AcDbLine
 10
-1774481.745884148
 20
-9628500.000000117
 11
-1784481.74588415
 21
-9638500.000000117
  0
LINE
  5
383
100
AcDbEntity
  8
0
  6
ByLayer
 62
  256
370
   -1
100
AcDbLine
 10
-1774481.74588415
 20
-9712500.000000117
 11
-1784481.745884148
 21
-9702500.000000117
  0
LINE
  5
384
100
AcDbEntity
  8
0
  6
ByLayer
 62
  256
370
   -1
100
AcDbLine
 10
-2103632.008097067
 20
-10553500.00000012
 11
-2088481.74588415
 21
-10548500.00000012
  0
LINE
  5
385
100
AcDbEntity
  8
0
  6
ByLayer
 62
  256
370
   -1
100
AcDbLine
 10
-2076837.513379365
 20
-10553500.00000012
 11
-2061687.251166446
 21
-10548500.00000012
  0
LINE
  5
386
100
AcDbEntity
  8
0
  6
ByLayer
 62
  256
370
   -1
100
AcDbLine
 10
-2023248.523943958
 20
-10553500.00000012
 11
-2008098.261731041
 21
-10548500.00000012
  0
LINE
  5
387
100
AcDbEntity
  8
0
  6
ByLayer
 62
  256
370
   -1
100
AcDbLine
 10
-1996454.029226254
 20
-10553500.00000012
 11
-1981303.767013337
 21
-10548500.00000012
  0
LINE
  5
388
100
AcDbEntity
  8
0
  6
ByLayer
 62
  256
370
   -1
100
AcDbLine
 10
-2050043.018661662
 20
-10553500.00000012
 11
-2034892.756448745
 21
-10548500.00000012
  0
LINE
  5
389
100
AcDbEntity
  8
0
  6
ByLayer
 62
  256
370
   -1
100
AcDbLine
 10
-1808892.56620233
 20
-10553500.00000012
 11
-1793742.303989413
 21
-10548500.00000012
  0
LINE
  5
38A
100
AcDbEntity
  8
0
  6
ByLayer
 62
  256
370
   -1
100
AcDbLine
 10
-1835687.060920035
 20
-10553500.00000012
 11
-1820536.798707118
 21
-10548500.00000012
  0
LINE
  5
38B
100
AcDbEntity
  8
0
  6
ByLayer
 62
  256
370
   -1
100
AcDbLine
 10
-1889276.050355313
 20
-9523500.000000175
 11
-1874125.788142398
 21
-9528500.000000175
  0
LINE
  5
38C
100
AcDbEntity
  8
0
  6
ByLayer
 62
  256
370
   -1
100
AcDbLine
 10
-1942865.039790847
 20
-10553500.00000012
 11
-1927714.777577931
 21
-10548500.00000012
  0
LINE
  5
38D
100
AcDbEntity
  8
0
  6
ByLayer
 62
  256
370
   -1
100
AcDbLine
 10
-1969659.534508552
 20
-10553500.00000012
 11
-1954509.272295632
 21
-10548500.00000012
  0
LINE
  5
38E
100
AcDbEntity
  8
0
  6
ByLayer
 62
  256
370
   -1
100
AcDbLine
 10
-1862481.555637739
 20
-10553500.00000012
 11
-1847331.293424821
 21
-10548500.00000012
  0
LINE
  5
38F
100
AcDbEntity
  8
0
  6
ByLayer
 62
  256
370
   -1
100
AcDbLine
 10
-1916070.545073144
 20
-10553500.00000012
 11
-1900920.282860227
 21
-10548500.00000012
  0
LINE
  5
390
100
AcDbEntity
  8
0
  6
ByLayer
 62
  256
370
   -1
100
AcDbLine
 10
-1889276.050355442
 20
-10553500.00000012
 11
-1874125.788142523
 21
-10548500.00000012
  0
LINE
  5
391
100
AcDbEntity
  8
0
  6
ByLayer
 62
  256
370
   -1
100
AcDbLine
 10
-2023248.523943828
 20
-9523500.000000147
 11
-2008098.261730911
 21
-9528500.000000147
  0
LINE
  5
392
100
AcDbEntity
  8
0
  6
ByLayer
 62
  256
370
   -1
100
AcDbLine
 10
-2076837.513379237
 20
-9523500.000000132
 11
-2061687.251166321
 21
-9528500.000000132
  0
LINE
  5
393
100
AcDbEntity
  8
0
  6
ByLayer
 62
  256
370
   -1
100
AcDbLine
 10
-1996454.029226125
 20
-9523500.000000147
 11
-1981303.767013209
 21
-9528500.000000162
  0
LINE
  5
394
100
AcDbEntity
  8
0
  6
ByLayer
 62
  256
370
   -1
100
AcDbLine
 10
-1835687.060919905
 20
-9523500.00000019
 11
-1820536.79870699
 21
-9528500.00000019
  0
LINE
  5
395
100
AcDbEntity
  8
0
  6
ByLayer
 62
  256
370
   -1
100
AcDbLine
 10
-1808892.566202202
 20
-9523500.000000212
 11
-1793742.303989286
 21
-9528500.000000212
  0
LINE
  5
396
100
AcDbEntity
  8
0
  6
ByLayer
 62
  256
370
   -1
100
AcDbLine
 10
-2103632.00809694
 20
-9523500.000000117
 11
-2088481.745884025
 21
-9528500.000000132
  0
LINE
  5
397
100
AcDbEntity
  8
0
  6
ByLayer
 62
  256
370
   -1
100
AcDbLine
 10
-1969659.534508421
 20
-9523500.000000162
 11
-1954509.272295508
 21
-9528500.000000162
  0
LINE
  5
398
100
AcDbEntity
  8
0
  6
ByLayer
 62
  256
370
   -1
100
AcDbLine
 10
-1916070.545073017
 20
-9523500.000000175
 11
-1900920.282860097
 21
-9528500.000000175
  0
LINE
  5
399
100
AcDbEntity
  8
0
  6
ByLayer
 62
  256
370
   -1
100
AcDbLine
 10
-1862481.555637609
 20
-9523500.00000019
 11
-1847331.293424692
 21
-9528500.00000019
  0
LINE
  5
39A
100
AcDbEntity
  8
0
  6
ByLayer
 62
  256
370
   -1
100
AcDbLine
 10
-2050043.018661533
 20
-9523500.000000132
 11
-2034892.756448615
 21
-9528500.000000147
  0
LINE
  5
39B
100
AcDbEntity
  8
0
  6
ByLayer
 62
  256
370
   -1
100
AcDbLine
 10
-1942865.039790719
 20
-9523500.000000162
 11
-1927714.777577802
 21
-9528500.000000175
  0
LINE
  5
39C
100
AcDbEntity
  8
0
  6
ByLayer
 62
  256
370
   -1
100
AcDbLine
 10
-2088481.74588415
 20
-10548500.00000012
 11
-2078481.74588415
 21
-10553500.00000012
  0
LINE
  5
39D
100
AcDbEntity
  8
0
  6
ByLayer
 62
  256
370
   -1
100
AcDbLine
 10
-2061687.251166446
 20
-10548500.00000012
 11
-2051687.251166446
 21
-10553500.00000012
  0
LINE
  5
39E
100
AcDbEntity
  8
0
  6
ByLayer
 62
  256
370
   -1
100
AcDbLine
 10
-2008098.261731041
 20
-10548500.00000012
 11
-1998098.261731041
 21
-10553500.00000012
  0
LINE
  5
39F
100
AcDbEntity
  8
0
  6
ByLayer
 62
  256
370
   -1
100
AcDbLine
 10
-2034892.756448745
 20
-10548500.00000012
 11
-2024892.756448743
 21
-10553500.00000012
  0
LINE
  5
3A0
100
AcDbEntity
  8
0
  6
ByLayer
 62
  256
370
   -1
100
AcDbLine
 10
-1793742.303989413
 20
-10548500.00000012
 11
-1783742.303989413
 21
-10553500.00000012
  0
LINE
  5
3A1
100
AcDbEntity
  8
0
  6
ByLayer
 62
  256
370
   -1
100
AcDbLine
 10
-1820536.798707118
 20
-10548500.00000012
 11
-1810536.798707118
 21
-10553500.00000012
  0
LINE
  5
3A2
100
AcDbEntity
  8
0
  6
ByLayer
 62
  256
370
   -1
100
AcDbLine
 10
-1793742.303989286
 20
-9528500.000000212
 11
-1783742.303989284
 21
-9523500.000000212
  0
LINE
  5
3A3
100
AcDbEntity
  8
0
  6
ByLayer
 62
  256
370
   -1
100
AcDbLine
 10
-1900920.282860097
 20
-9528500.000000175
 11
-1890920.282860097
 21
-9523500.000000175
  0
LINE
  5
3A4
100
AcDbEntity
  8
0
  6
ByLayer
 62
  256
370
   -1
100
AcDbLine
 10
-1927714.777577931
 20
-10548500.00000012
 11
-1917714.777577931
 21
-10553500.00000012
  0
LINE
  5
3A5
100
AcDbEntity
  8
0
  6
ByLayer
 62
  256
370
   -1
100
AcDbLine
 10
-1981303.767013337
 20
-10548500.00000012
 11
-1971303.767013337
 21
-10553500.00000012
  0
LINE
  5
3A6
100
AcDbEntity
  8
0
  6
ByLayer
 62
  256
370
   -1
100
AcDbLine
 10
-1954509.272295632
 20
-10548500.00000012
 11
-1944509.272295632
 21
-10553500.00000012
  0
LINE
  5
3A7
100
AcDbEntity
  8
0
  6
ByLayer
 62
  256
370
   -1
100
AcDbLine
 10
-1874125.788142523
 20
-10548500.00000012
 11
-1864125.788142523
 21
-10553500.00000012
  0
LINE
  5
3A8
100
AcDbEntity
  8
0
  6
ByLayer
 62
  256
370
   -1
100
AcDbLine
 10
-1847331.293424821
 20
-10548500.00000012
 11
-1837331.293424821
 21
-10553500.00000012
  0
LINE
  5
3A9
100
AcDbEntity
  8
0
  6
ByLayer
 62
  256
370
   -1
100
AcDbLine
 10
-1900920.282860227
 20
-10548500.00000012
 11
-1890920.282860227
 21
-10553500.00000012
  0
LINE
  5
3AA
100
AcDbEntity
  8
0
  6
ByLayer
 62
  256
370
   -1
100
AcDbLine
 10
-2061687.251166321
 20
-9528500.000000132
 11
-2051687.251166319
 21
-9523500.000000132
  0
LINE
  5
3AB
100
AcDbEntity
  8
0
  6
ByLayer
 62
  256
370
   -1
100
AcDbLine
 10
-1820536.79870699
 20
-9528500.00000019
 11
-1810536.798706988
 21
-9523500.000000212
  0
LINE
  5
3AC
100
AcDbEntity
  8
0
  6
ByLayer
 62
  256
370
   -1
100
AcDbLine
 10
-2008098.261730911
 20
-9528500.000000147
 11
-1998098.261730911
 21
-9523500.000000147
  0
LINE
  5
3AD
100
AcDbEntity
  8
0
  6
ByLayer
 62
  256
370
   -1
100
AcDbLine
 10
-2088481.745884025
 20
-9528500.000000132
 11
-2078481.745884021
 21
-9523500.000000132
  0
LINE
  5
3AE
100
AcDbEntity
  8
0
  6
ByLayer
 62
  256
370
   -1
100
AcDbLine
 10
-1874125.788142398
 20
-9528500.000000175
 11
-1864125.788142396
 21
-9523500.00000019
  0
LINE
  5
3AF
100
AcDbEntity
  8
0
  6
ByLayer
 62
  256
370
   -1
100
AcDbLine
 10
-1954509.272295508
 20
-9528500.000000162
 11
-1944509.272295506
 21
-9523500.000000162
  0
LINE
  5
3B0
100
AcDbEntity
  8
0
  6
ByLayer
 62
  256
370
   -1
100
AcDbLine
 10
-1847331.293424692
 20
-9528500.00000019
 11
-1837331.293424692
 21
-9523500.00000019
  0
LINE
  5
3B1
100
AcDbEntity
  8
0
  6
ByLayer
 62
  256
370
   -1
100
AcDbLine
 10
-1927714.777577802
 20
-9528500.000000175
 11
-1917714.777577802
 21
-9523500.000000175
  0
LINE
  5
3B2
100
AcDbEntity
  8
0
  6
ByLayer
 62
  256
370
   -1
100
AcDbLine
 10
-1981303.767013209
 20
-9528500.000000162
 11
-1971303.767013209
 21
-9523500.000000162
  0
LINE
  5
3B3
100
AcDbEntity
  8
0
  6
ByLayer
 62
  256
370
   -1
100
AcDbLine
 10
-2034892.756448615
 20
-9528500.000000147
 11
-2024892.756448613
 21
-9523500.000000147
  0
LINE
  5
3B4
100
AcDbEntity
  8
0
  6
ByLayer
 62
  256
370
   -1
100
AcDbLine
 10
-2024892.756448743
 20
-10553500.00000012
 11
-2023248.523943958
 21
-10553500.00000012
  0
LINE
  5
3B5
100
AcDbEntity
  8
0
  6
ByLayer
 62
  256
370
   -1
100
AcDbLine
 10
-2078481.74588415
 20
-10553500.00000012
 11
-2076837.513379365
 21
-10553500.00000012
  0
LINE
  5
3B6
100
AcDbEntity
  8
0
  6
ByLayer
 62
  256
370
   -1
100
AcDbLine
 10
-2051687.251166446
 20
-10553500.00000012
 11
-2050043.018661662
 21
-10553500.00000012
  0
LINE
  5
3B7
100
AcDbEntity
  8
0
  6
ByLayer
 62
  256
370
   -1
100
AcDbLine
 10
-1810536.798707118
 20
-10553500.00000012
 11
-1808892.56620233
 21
-10553500.00000012
  0
LINE
  5
3B8
100
AcDbEntity
  8
0
  6
ByLayer
 62
  256
370
   -1
100
AcDbLine
 10
-1837331.293424821
 20
-10553500.00000012
 11
-1835687.060920035
 21
-10553500.00000012
  0
LINE
  5
3B9
100
AcDbEntity
  8
0
  6
ByLayer
 62
  256
370
   -1
100
AcDbLine
 10
-1864125.788142523
 20
-10553500.00000012
 11
-1862481.555637739
 21
-10553500.00000012
  0
LINE
  5
3BA
100
AcDbEntity
  8
0
  6
ByLayer
 62
  256
370
   -1
100
AcDbLine
 10
-1917714.777577802
 20
-9523500.000000175
 11
-1916070.545073017
 21
-9523500.000000175
  0
LINE
  5
3BB
100
AcDbEntity
  8
0
  6
ByLayer
 62
  256
370
   -1
100
AcDbLine
 10
-1864125.788142396
 20
-9523500.00000019
 11
-1862481.555637609
 21
-9523500.00000019
  0
LINE
  5
3BC
100
AcDbEntity
  8
0
  6
ByLayer
 62
  256
370
   -1
100
AcDbLine
 10
-1837331.293424692
 20
-9523500.00000019
 11
-1835687.060919905
 21
-9523500.00000019
  0
LINE
  5
3BD
100
AcDbEntity
  8
0
  6
ByLayer
 62
  256
370
   -1
100
AcDbLine
 10
-1810536.798706988
 20
-9523500.000000212
 11
-1808892.566202202
 21
-9523500.000000212
  0
LINE
  5
3BE
100
AcDbEntity
  8
0
  6
ByLayer
 62
  256
370
   -1
100
AcDbLine
 10
-1971303.767013337
 20
-10553500.00000012
 11
-1969659.534508552
 21
-10553500.00000012
  0
LINE
  5
3BF
100
AcDbEntity
  8
0
  6
ByLayer
 62
  256
370
   -1
100
AcDbLine
 10
-1944509.272295632
 20
-10553500.00000012
 11
-1942865.039790847
 21
-10553500.00000012
  0
LINE
  5
3C0
100
AcDbEntity
  8
0
  6
ByLayer
 62
  256
370
   -1
100
AcDbLine
 10
-1998098.261731041
 20
-10553500.00000012
 11
-1996454.029226254
 21
-10553500.00000012
  0
LINE
  5
3C1
100
AcDbEntity
  8
0
  6
ByLayer
 62
  256
370
   -1
100
AcDbLine
 10
-1890920.282860227
 20
-10553500.00000012
 11
-1889276.050355442
 21
-10553500.00000012
  0
LINE
  5
3C2
100
AcDbEntity
  8
0
  6
ByLayer
 62
  256
370
   -1
100
AcDbLine
 10
-1917714.777577931
 20
-10553500.00000012
 11
-1916070.545073144
 21
-10553500.00000012
  0
LINE
  5
3C3
100
AcDbEntity
  8
0
  6
ByLayer
 62
  256
370
   -1
100
AcDbLine
 10
-1971303.767013209
 20
-9523500.000000162
 11
-1969659.534508421
 21
-9523500.000000162
  0
LINE
  5
3C4
100
AcDbEntity
  8
0
  6
ByLayer
 62
  256
370
   -1
100
AcDbLine
 10
-2024892.756448613
 20
-9523500.000000147
 11
-2023248.523943828
 21
-9523500.000000147
  0
LINE
  5
3C5
100
AcDbEntity
  8
0
  6
ByLayer
 62
  256
370
   -1
100
AcDbLine
 10
-1998098.261730911
 20
-9523500.000000147
 11
-1996454.029226125
 21
-9523500.000000147
  0
LINE
  5
3C6
100
AcDbEntity
  8
0
  6
ByLayer
 62
  256
370
   -1
100
AcDbLine
 10
-1890920.282860097
 20
-9523500.000000175
 11
-1889276.050355313
 21
-9523500.000000175
  0
LINE
  5
3C7
100
AcDbEntity
  8
0
  6
ByLayer
 62
  256
370
   -1
100
AcDbLine
 10
-2078481.745884021
 20
-9523500.000000132
 11
-2076837.513379237
 21
-9523500.000000132
  0
LINE
  5
3C8
100
AcDbEntity
  8
0
  6
ByLayer
 62
  256
370
   -1
100
AcDbLine
 10
-2051687.251166319
 20
-9523500.000000132
 11
-2050043.018661533
 21
-9523500.000000132
  0
LINE
  5
3C9
100
AcDbEntity
  8
0
  6
ByLayer
 62
  256
370
   -1
100
AcDbLine
 10
-1944509.272295506
 20
-9523500.000000162
 11
-1942865.039790719
 21
-9523500.000000162
  0
LINE
  5
3CA
100
AcDbEntity
  8
0
  6
ByLayer
 62
  256
370
   -1
100
AcDbLine
 10
-1783742.303989413
 20
-10553500.00000012
 11
-1774481.745884152
 21
-10553500.00000012
  0
LINE
  5
3CB
100
AcDbEntity
  8
0
  6
ByLayer
 62
  256
370
   -1
100
AcDbLine
 10
-1783742.303989284
 20
-9523500.000000212
 11
-1774481.745884023
 21
-9523500.000000212
  0
LINE
  5
3CC
100
AcDbEntity
  8
0
  6
ByLayer
 62
  256
370
   -1
100
AcDbLine
 10
-2239884.44703474
 20
-9523500.000000117
 11
-2674481.74588415
 21
-9523500.000000117
  0
LINE
  5
3CD
100
AcDbEntity
  8
0
  6
ByLayer
 62
  256
370
   -1
100
AcDbLine
 10
-1774481.74588415
 20
-9623500.000000117
 11
-1782098.071484639
 21
-9623500.000000117
  0
LINE
  5
3CE
100
AcDbEntity
  8
0
  6
ByLayer
 62
  256
370
   -1
100
AcDbLine
 10
-1774481.74588415
 20
-9717500.000000117
 11
-1782098.071484622
 21
-9717500.000000117
  0
LINE
  5
3CF
100
AcDbEntity
  8
0
  6
ByLayer
 62
  256
370
   -1
100
AcDbLine
 10
-1774481.74588415
 20
-9901500.000000117
 11
-1782098.071484645
 21
-9901500.000000117
  0
LINE
  5
3D0
100
AcDbEntity
  8
0
  6
ByLayer
 62
  256
370
   -1
100
AcDbLine
 10
-1774481.74588415
 20
-9991500.000000117
 11
-1782098.071484605
 21
-9991500.000000117
  0
LINE
  5
3D1
100
AcDbEntity
  8
0
  6
ByLayer
 62
  256
370
   -1
100
AcDbLine
 10
-1774481.74588415
 20
-9807500.000000117
 11
-1782098.071484604
 21
-9807500.000000117
  0
LINE
  5
3D2
100
AcDbEntity
  8
0
  6
ByLayer
 62
  256
370
   -1
100
AcDbLine
 10
-1774481.74588415
 20
-10175500.00000012
 11
-1782098.07148461
 21
-10175500.00000012
  0
LINE
  5
3D3
100
AcDbEntity
  8
0
  6
ByLayer
 62
  256
370
   -1
100
AcDbLine
 10
-1774481.74588415
 20
-10085500.00000012
 11
-1782098.071484641
 21
-10085500.00000012
  0
LINE
  5
3D4
100
AcDbEntity
  8
0
  6
ByLayer
 62
  256
370
   -1
100
AcDbLine
 10
-1774481.74588415
 20
-10269500.00000012
 11
-1782098.071484632
 21
-10269500.00000012
  0
LINE
  5
3D5
100
AcDbEntity
  8
0
  6
ByLayer
 62
  256
370
   -1
100
AcDbLine
 10
-1774481.74588415
 20
-10359500.00000012
 11
-1782098.071484625
 21
-10359500.00000012
  0
ENDSEC
  0
SECTION
  2
OBJECTS
  0
DICTIONARY
  5
C
330
0
100
AcDbDictionary
281
    1
  3
ACAD_GROUP
350
D
  0
DICTIONARY
  5
D
330
C
100
AcDbDictionary
281
    1
  0
ENDSEC
  0
EOF
