<?xml version="1.0" encoding="UTF-8" standalone="no"?>
<svg
   xmlns:dc="http://purl.org/dc/elements/1.1/"
   xmlns:cc="http://creativecommons.org/ns#"
   xmlns:rdf="http://www.w3.org/1999/02/22-rdf-syntax-ns#"
   xmlns:svg="http://www.w3.org/2000/svg"
   xmlns="http://www.w3.org/2000/svg"
   xmlns:sodipodi="http://sodipodi.sourceforge.net/DTD/sodipodi-0.dtd"
   xmlns:inkscape="http://www.inkscape.org/namespaces/inkscape"
   width="1400mm"
   height="1030.01552636mm"
   viewBox="0 0 1400 1030.01552636"
   version="1.1"
   id="svg1814"
   sodipodi:docname="Arches20reduced2.svg"
   inkscape:version="0.92.4 5da689c313, 2019-01-14">
  <metadata
     id="metadata1820">
    <rdf:RDF>
      <cc:Work
         rdf:about="">
        <dc:format>image/svg+xml</dc:format>
        <dc:type
           rdf:resource="http://purl.org/dc/dcmitype/StillImage" />
        <dc:title />
      </cc:Work>
    </rdf:RDF>
  </metadata>
  <defs
     id="defs1818" />
  <sodipodi:namedview
     pagecolor="#ffffff"
     bordercolor="#666666"
     borderopacity="1"
     objecttolerance="10"
     gridtolerance="10"
     guidetolerance="10"
     inkscape:pageopacity="0"
     inkscape:pageshadow="2"
     inkscape:window-width="1920"
     inkscape:window-height="1015"
     id="namedview1816"
     showgrid="false"
     inkscape:zoom="11.491837"
     inkscape:cx="3483.7063"
     inkscape:cy="3348.5538"
     inkscape:window-x="1919"
     inkscape:window-y="0"
     inkscape:window-maximized="1"
     inkscape:current-layer="svg1814" />
  <path
     style="fill:none;stroke:#000000;stroke-width:0.8817926"
     d="m 781.99085,278.64171 c 0,-22.42761 17.28066,-40.61119 38.6832,-40.61981 -14.85882,7.54114 -24.23124,23.31927 -24.23124,40.61981 0,17.30054 2.45777,33.37233 24.29636,40.61981 -21.66302,0.38172 -38.74832,-18.1922 -38.74832,-40.61981 z"
     id="path407"
     inkscape:connector-curvature="0"
     sodipodi:nodetypes="scscs" />
  <path
     id="path276"
     style="fill:none;stroke:#000000;stroke-width:0.8817926"
     d="m 758.90994,278.64171 c 0,-22.42761 17.47602,-40.74143 38.87856,-40.75005 -14.85882,7.54114 -24.4266,23.44951 -24.4266,40.75005 0,17.30054 9.43754,33.10169 24.29636,40.64283 -21.40254,-0.009 -38.74832,-18.21522 -38.74832,-40.64283 z"
     inkscape:connector-curvature="0"
     sodipodi:nodetypes="scscs" />
  <path
     id="path296"
     style="fill:none;stroke:#000000;stroke-width:0.8817926"
     d="m 842.60464,278.64171 c 0,-17.30054 9.56778,-33.07867 24.4266,-40.61981 -21.40254,0.009 -38.87856,18.1922 -38.87856,40.61981 0,22.42761 17.15042,40.80655 38.55296,40.81517 -14.85882,-7.54114 -24.101,-23.51463 -24.101,-40.81517 z"
     inkscape:connector-curvature="0"
     sodipodi:nodetypes="scscs" />
  <path
     id="path306"
     style="fill:none;stroke:#000000;stroke-width:0.8817926"
     d="m 819.45861,278.90219 c 0,17.30054 9.43754,33.07867 24.29636,40.61981 -21.40254,-0.009 -38.6832,-18.45268 -38.6832,-40.88029 0,-22.42761 17.54114,-40.54607 38.94368,-40.55469 -14.85882,7.54114 -24.55684,23.51463 -24.55684,40.81517 z"
     inkscape:connector-curvature="0"
     sodipodi:nodetypes="scscs" />
  <path
     id="path366"
     style="fill:none;stroke:#000000;stroke-width:0.8817926"
     d="m 841.74137,367.73906 c 0,-17.30025 9.30699,-33.40378 24.16544,-40.94506 -21.34316,0.0961 -38.46644,18.57948 -38.46644,40.94506 0,22.36559 17.25352,40.52337 38.59668,40.61947 -14.85845,-7.54128 -24.29568,-23.31921 -24.29568,-40.61947 z"
     inkscape:connector-curvature="0"
     sodipodi:nodetypes="scscs" />
  <path
     id="path378"
     style="fill:none;stroke:#000000;stroke-width:0.8817926"
     d="m 864.82229,367.73906 c 0,-17.30025 9.43723,-33.07818 24.29568,-40.61946 -21.34316,0.0961 -38.59668,18.25388 -38.59668,40.61946 0,22.36559 17.25352,40.52337 38.59668,40.61947 -14.85845,-7.54128 -24.29568,-23.31921 -24.29568,-40.61947 z"
     inkscape:connector-curvature="0"
     sodipodi:nodetypes="scscs" />
  <path
     id="path390"
     style="fill:none;stroke:#000000;stroke-width:0.8817926"
     d="m 795.57955,367.73906 c 0,-17.30025 9.43723,-33.07818 24.29568,-40.61946 -21.34316,0.0961 -38.59668,18.25388 -38.59668,40.61946 0,22.36559 17.25352,40.52337 38.59668,40.61947 -14.85845,-7.54128 -24.29568,-23.31921 -24.29568,-40.61947 z"
     inkscape:connector-curvature="0"
     sodipodi:nodetypes="scscs" />
  <path
     id="path402"
     style="fill:none;stroke:#000000;stroke-width:0.8817926"
     d="m 680.17496,367.73906 c 0,-17.30025 9.43723,-33.07818 24.29568,-40.61946 -21.34316,0.0961 -38.59668,18.25388 -38.59668,40.61946 0,22.36559 17.25352,40.52337 38.59668,40.61947 -14.85845,-7.54128 -24.29568,-23.31921 -24.29568,-40.61947 z"
     inkscape:connector-curvature="0"
     sodipodi:nodetypes="scscs" />
  <path
     id="path414"
     style="fill:none;stroke:#000000;stroke-width:0.8817926"
     d="m 818.66046,367.73906 c 0,-17.30025 9.43723,-33.07818 24.29568,-40.61946 -21.34316,0.0961 -38.59668,18.25388 -38.59668,40.61946 0,22.36559 17.25352,40.52337 38.59668,40.61947 -14.85845,-7.54128 -24.29568,-23.31921 -24.29568,-40.61947 z"
     inkscape:connector-curvature="0"
     sodipodi:nodetypes="scscs" />
  <path
     id="path438"
     style="fill:none;stroke:#000000;stroke-width:0.8817926"
     d="m 796.79431,408.35853 c -14.85845,-7.54128 -24.29568,-23.31921 -24.29568,-40.61947 0,-17.30025 9.43723,-33.07818 24.29568,-40.61946 -21.34316,0.0961 -38.59668,18.25388 -38.59668,40.61946 0,22.36559 17.25352,40.52337 38.59668,40.61947"
     inkscape:connector-curvature="0"
     sodipodi:nodetypes="cscsc" />
  <path
     id="path450"
     style="fill:none;stroke:#000000;stroke-width:0.8817926"
     d="m 657.09405,367.73906 c 0,-17.30025 9.43723,-33.07818 24.29568,-40.61946 -21.34316,0.0961 -38.59668,18.25388 -38.59668,40.61946 0,22.36559 17.25352,40.52337 38.59668,40.61947 -14.85845,-7.54128 -24.29568,-23.31921 -24.29568,-40.61947 z"
     inkscape:connector-curvature="0"
     sodipodi:nodetypes="scscs" />
  <path
     id="path462"
     style="fill:none;stroke:#000000;stroke-width:0.8817926"
     d="m 703.25588,367.73906 c 0,-17.30025 9.43723,-33.07818 24.29568,-40.61946 -21.34316,0.0961 -38.59668,18.25388 -38.59668,40.61946 0,22.36559 17.25352,40.52337 38.59668,40.61947 -14.85845,-7.54128 -24.29568,-23.31921 -24.29568,-40.61947 z"
     inkscape:connector-curvature="0"
     sodipodi:nodetypes="scscs" />
  <path
     id="path294"
     style="fill:none;stroke:#000000;stroke-width:0.8817926"
     d="m 619.71213,367.73906 c 0,-22.36558 17.25352,-40.52336 38.59668,-40.61946 -14.85845,7.54128 -24.29568,23.31921 -24.29568,40.61946 0,17.30026 9.43723,33.07819 24.29568,40.61947 -21.34316,-0.0961 -38.59668,-18.25388 -38.59668,-40.61947 z"
     inkscape:connector-curvature="0"
     sodipodi:nodetypes="scscs" />
  <path
     id="path474"
     style="fill:none;stroke:#000000;stroke-width:0.8817926"
     d="m 610.93221,367.73906 c 0,-17.30025 9.43723,-33.07818 24.29568,-40.61946 -21.34316,0.0961 -38.59668,18.25388 -38.59668,40.61946 0,22.36559 17.25352,40.52337 38.59668,40.61947 -14.85845,-7.54128 -24.29568,-23.31921 -24.29568,-40.61947 z"
     inkscape:connector-curvature="0"
     sodipodi:nodetypes="scscs" />
  <path
     id="path494"
     style="fill:none;stroke:#000000;stroke-width:0.8817926"
     d="m 595.00569,242.66973 c -17.81126,1.61565 -31.48467,17.23785 -31.48467,35.97198 0,18.73413 13.67341,34.35633 31.48467,35.97198 5.55451,3.05292 11.73303,4.64783 18.00523,4.64783 -14.85882,-7.54114 -24.29636,-23.31927 -24.29636,-40.61981 0,-17.30054 9.43754,-33.07867 24.29636,-40.61981 -6.2722,0 -12.45072,1.59491 -18.00523,4.64783 z"
     inkscape:connector-curvature="0"
     sodipodi:nodetypes="csccscc" />
  <path
     style="fill:none;stroke:#000000;stroke-width:0.8817926"
     d="m 884.30342,359.61473 c -2.0981,10e-6 -4.12407,-0.80239 -5.69766,-2.25661 1.5736,-1.45417 3.59958,-2.25653 5.69765,-2.25633 l 32.73339,1.4e-4 1.72284,-1.80536 -1.72284,-1.80548 -30.14917,3e-5 c -2.09807,8e-5 -4.12405,-0.80228 -5.69765,-2.25645 1.57359,-1.45421 3.59956,-2.2566 5.69765,-2.25658 h 30.14917 l 1.72284,-1.80536 -1.72284,-1.80536 -24.11932,8e-5 c -2.0981,7e-5 -4.12408,-0.80235 -5.69766,-2.25658 1.57358,-1.45424 3.59955,-2.25666 5.69766,-2.25673 l 24.11932,-8e-5 1.72284,-1.80529 -1.72284,-1.80536 h -1.72277 l -8.61408,8e-5 c -2.0981,7e-5 -4.12407,-0.80235 -5.69765,-2.25659 1.57358,-1.45423 3.59956,-2.25665 5.69765,-2.25672 l 8.61408,-8e-5 3.44561,-3.61065 -6.56077,7e-5 c -21.20921,0.0149 -38.46907,17.88873 -38.73424,40.11204 -0.26516,22.22331 16.56283,40.54372 37.76506,41.11454 l 7.52995,3.17239 v -3.1593 l -3.44561,-3.61072 -8.61408,-3.2e-4 c -2.09809,-3e-4 -4.12406,-0.80271 -5.69765,-2.25692 1.57357,-1.45425 3.59955,-2.25669 5.69765,-2.25638 l 8.61408,3.2e-4 h 1.72277 l 1.72284,-1.8053 -1.72284,-1.8053 -24.11932,-3.2e-4 c -2.09811,-3.3e-4 -4.12409,-0.80277 -5.69766,-2.25702 1.57359,-1.45421 3.59956,-2.25662 5.69766,-2.25628 l 24.11932,3.2e-4 1.72284,-1.80542 -1.72284,-1.8053 -30.14917,-3.1e-4 c -2.0981,-3.2e-4 -4.12408,-0.80276 -5.69765,-2.25701 1.57359,-1.45421 3.59956,-2.25662 5.69765,-2.2563 l 30.14917,3.1e-4 1.72284,-1.80542 -1.72284,-1.80529 -32.73339,-3e-4 c -2.09809,-2.8e-4 -4.12406,-0.80269 -5.69765,-2.2569 1.57357,-1.45425 3.59955,-2.25669 5.69765,-2.25649 l 32.73339,2e-4 1.72284,-1.80524 -1.72284,-1.8053 -30.14917,-2.8e-4 c -3.67684,-2.9e-4 -7.17955,-1.64177 -9.63079,-4.51359 2.45124,-2.87182 5.95395,-4.5133 9.63079,-4.51314 l 30.14917,1.6e-4 1.72284,-1.80512 -1.72284,-1.80548 h -32.73339"
     id="line1622" />
  <path
     style="fill:none;stroke:#000000;stroke-width:0.8817926"
     d="m 908.11575,240.69742 -8.64663,9.05923 -29.2878,-7e-5 c -2.09814,-7e-5 -4.12411,0.80235 -5.69769,2.25659 1.57358,1.61984 4.21821,2.01239 5.43008,2.03685 l 36.44664,0.21982 1.72284,1.80523 -1.72284,1.80536 -41.34745,2e-5 c -2.09815,2e-5 -4.12412,0.80244 -5.6977,2.25668 1.57358,1.45423 3.59956,2.25665 5.6977,2.25663 l 41.34745,-2e-5 1.72284,1.8053 -1.72284,1.80535 -44.7931,2e-5 c -2.09812,2e-5 -4.12409,0.80244 -5.69767,2.25668 1.57358,1.45424 3.59955,2.25666 5.69767,2.25664 l 44.7931,-3e-5 1.72284,1.8053 -1.72284,1.80536 -41.34745,2e-5 c -3.67689,2e-5 -7.17961,1.64151 -9.63084,4.51333 2.45123,2.87182 5.95395,4.51331 9.63084,4.51329 l 41.34745,-3e-5 1.72284,1.8053 -1.72284,1.80535 -44.7931,3e-5 c -2.09812,2e-5 -4.12409,0.80244 -5.69767,2.25668 1.57358,1.45424 3.59955,2.25666 5.69767,2.25663 l 44.7931,-3e-5 1.72284,1.8053 -1.72284,1.80536 -41.34745,3e-5 c -2.09814,2e-5 -4.12412,0.80244 -5.6977,2.25667 1.57358,1.45424 3.59955,2.25666 5.6977,2.25663 l 41.34745,-3e-5 1.72284,1.8053 -1.72284,1.80536 -36.17903,3e-5 c -2.09813,2e-5 -4.12411,0.80244 -5.69769,2.25667 1.57358,1.45424 3.59955,2.25666 5.69768,2.25664 l 29.28781,-3e-5 8.77687,9.09173 -32.18047,-0.0651 c -14.96944,-6.03379 -24.84685,-21.10496 -24.84685,-37.91179 0,-16.80683 9.87741,-31.878 24.84685,-37.91178 z"
     id="line1626" />
  <path
     style="fill:none;stroke:#000000;stroke-width:0.79375005;stroke-linecap:butt;stroke-linejoin:miter;stroke-miterlimit:4;stroke-dasharray:none;stroke-opacity:1"
     d="m 774.57654,142.38667 h -1.41632 l -8.61408,4.51332 -13.05053,-4.51332 h -1.41633 l -8.61407,4.51332 -13.05054,-4.51332 h -1.41632 l -8.61407,4.51332 -13.05048,-4.51332 h -1.41638 l -8.61401,4.51332 -13.05054,-4.51332 h -1.41632 l -8.61408,4.51332 -13.05053,-4.51332 h -1.41632 l -8.61408,4.51332 -13.05049,-4.51332 c -20.69729,1e-5 -38.99905,14.07878 -45.20057,34.7709 -6.20152,20.69211 1.13273,43.20772 18.11369,55.60767 -18.01245,2.39448 -33.89741,-13.05231 -33.89741,-32.07875 0.48622,-32.81372 -25.00522,-58.61396 -56.31915,-58.10445 l -113.54919,0.0349 -0.023,274.77948 112.64392,-0.0109 c 31.31395,0.50918 56.82446,-26.22318 56.33824,-59.03691 4.2e-4,-19.02615 15.93129,-33.73572 33.94346,-31.34128 -16.98033,12.40016 -24.31412,34.91536 -18.11267,55.60706 6.20145,20.6917 24.50266,34.77033 45.19955,34.77111 l 13.05048,-4.51296 8.61408,4.51332 h 1.41632 l 13.05053,-4.51332 8.61408,4.51332 h 1.41632 l 13.05054,-4.51332 8.61401,4.51332 h 1.41638 l 13.05048,-4.51332 8.61407,4.51332 h 1.41632 l 13.05054,-4.5133 8.61408,4.51332 1.41632,-2e-5 13.05053,-4.5133 8.61408,4.51332 1.41632,-2e-5 13.05054,-4.5133 8.61401,4.51332 1.41638,-2e-5 13.05048,-4.5133 8.61407,4.51332 1.41632,-2e-5 13.05054,-4.5133 8.61407,4.51332 1.41633,-2e-5 13.05053,-4.5133 8.61402,4.51332 1.41638,-2e-5 12.72821,-4.46725 8.93634,4.46727 1.55452,-2e-5 13.05048,-4.46724 12.80194,4.44949 148.57046,0.0104 0.049,-274.94578 -144.04758,0.024 -8.02084,0.004 -8.62756,4.43934 -13.05048,-4.51332 h -1.41638 l -8.61402,4.51332 -13.05053,-4.51332 h -1.41638 l -8.61402,4.51332 -13.05054,-4.51332 h -1.41632 l -8.61407,4.51332 -13.05054,-4.51332 h -1.41632 l -8.61407,4.51332 -13.05048,-4.51332 h -1.41638 l -8.61401,4.51332 z"
     id="path4941"
     inkscape:connector-curvature="0"
     sodipodi:nodetypes="cccccccccccccccccccsccccccccsccccccccccccccccccccccccccccccccccccccccccccccccccccccccc" />
  <path
     id="path366-3"
     style="fill:none;stroke:#000000;stroke-width:0.8817926"
     d="m 842.1319,191.71734 c 0,-17.30025 9.30699,-33.40378 24.16545,-40.94506 -21.34317,0.0961 -38.46645,18.57948 -38.46645,40.94506 0,22.36559 17.25352,40.52337 38.59669,40.61947 -14.85846,-7.54128 -24.29569,-23.31921 -24.29569,-40.61947 z"
     inkscape:connector-curvature="0"
     sodipodi:nodetypes="scscs" />
  <path
     id="path378-6"
     style="fill:none;stroke:#000000;stroke-width:0.8817926"
     d="m 865.21282,191.71734 c 0,-17.30025 9.43724,-33.07818 24.29569,-40.61946 -21.34317,0.0961 -38.59669,18.25388 -38.59669,40.61946 0,22.36559 17.25352,40.52337 38.59669,40.61947 -14.85845,-7.54128 -24.29569,-23.31921 -24.29569,-40.61947 z"
     inkscape:connector-curvature="0"
     sodipodi:nodetypes="scscs" />
  <path
     id="path390-7"
     style="fill:none;stroke:#000000;stroke-width:0.8817926"
     d="m 795.97008,191.71734 c 0,-17.30025 9.43723,-33.07818 24.29568,-40.61946 -21.34316,0.0961 -38.59668,18.25388 -38.59668,40.61946 0,22.36559 17.25352,40.52337 38.59668,40.61947 -14.85845,-7.54128 -24.29568,-23.31921 -24.29568,-40.61947 z"
     inkscape:connector-curvature="0"
     sodipodi:nodetypes="scscs" />
  <path
     id="path414-5"
     style="fill:none;stroke:#000000;stroke-width:0.8817926"
     d="m 819.05099,191.71734 c 0,-17.30025 9.43723,-33.07818 24.29568,-40.61946 -21.34316,0.0961 -38.59668,18.25388 -38.59668,40.61946 0,22.36559 17.25352,40.52337 38.59668,40.61947 -14.85845,-7.54128 -24.29568,-23.31921 -24.29568,-40.61947 z"
     inkscape:connector-curvature="0"
     sodipodi:nodetypes="scscs" />
  <path
     id="path438-3"
     style="fill:none;stroke:#000000;stroke-width:0.8817926"
     d="m 797.18484,232.33681 c -14.85845,-7.54128 -24.29568,-23.31921 -24.29568,-40.61947 0,-17.30025 9.43723,-33.07818 24.29568,-40.61946 -21.34316,0.0961 -38.59668,18.25388 -38.59668,40.61946 0,22.36559 17.25352,40.52337 38.59668,40.61947"
     inkscape:connector-curvature="0"
     sodipodi:nodetypes="cscsc" />
  <path
     inkscape:connector-curvature="0"
     style="fill:none;stroke:#000000;stroke-width:0.8817926"
     d="m 884.69396,183.59301 c -2.0981,1e-5 -4.12407,-0.80239 -5.69766,-2.25661 1.5736,-1.45417 3.59958,-2.25653 5.69765,-2.25633 l 32.7334,1.4e-4 1.7228,-1.80536 -1.7228,-1.80548 -30.14918,3e-5 c -2.09807,8e-5 -4.12405,-0.80228 -5.69765,-2.25645 1.57358,-1.45421 3.59956,-2.2566 5.69765,-2.25658 h 30.14918 l 1.7228,-1.80536 -1.7228,-1.80536 -24.1193,8e-5 c -2.09813,7e-5 -4.12411,-0.80235 -5.69769,-2.25658 1.57358,-1.45424 3.59955,-2.25666 5.69769,-2.25673 l 24.1193,-8e-5 1.7228,-1.80529 -1.7228,-1.80536 h -1.7228 l -8.6141,8e-5 c -2.0981,7e-5 -4.124,-0.80235 -5.6976,-2.25659 1.5736,-1.45423 3.5995,-2.25665 5.6976,-2.25672 l 8.6141,-8e-5 3.4456,-3.61065 -6.5607,7e-5 c -21.2093,0.0149 -38.46911,17.88873 -38.73429,40.11204 -0.26516,22.22331 16.56283,40.54372 37.76509,41.11454 l 7.5299,3.17239 v -3.1593 l -3.4456,-3.61072 -8.6141,-2.6e-4 c -2.0981,-2.7e-4 -4.124,-0.80271 -5.6976,-2.25692 1.5735,-1.45425 3.5995,-2.25669 5.6976,-2.25638 l 8.6141,2.6e-4 h 1.7228 l 1.7228,-1.8053 -1.7228,-1.8053 -24.1193,-2.6e-4 c -2.09814,-2.6e-4 -4.12413,-0.80277 -5.69769,-2.25702 1.57359,-1.45421 3.59956,-2.25662 5.69769,-2.25628 l 24.1193,2.6e-4 1.7228,-1.80542 -1.7228,-1.8053 -30.14918,-2.6e-4 c -2.09811,-2.7e-4 -4.12408,-0.80276 -5.69765,-2.25701 1.57358,-1.45421 3.59956,-2.25662 5.69765,-2.2563 l 30.14918,2.6e-4 1.7228,-1.80542 -1.7228,-1.80529 -32.7334,-2.6e-4 c -2.09809,-2.7e-4 -4.12406,-0.80269 -5.69765,-2.2569 1.57357,-1.45425 3.59954,-2.25669 5.69765,-2.25649 l 32.7334,2e-4 1.7228,-1.80524 -1.7228,-1.8053 -30.14918,-2.7e-4 c -3.67685,-2.6e-4 -7.17956,-1.64177 -9.63079,-4.51359 2.45123,-2.87182 5.95394,-4.5133 9.63079,-4.51314 l 30.14918,1.6e-4 1.7228,-1.80512 -1.7228,-1.80548 h -32.7334"
     id="line1622-5" />
  <path
     id="path474-6"
     style="fill:none;stroke:#000000;stroke-width:0.8817926"
     d="m 612.15555,278.52555 c 0,-17.30025 9.43723,-33.07818 24.29568,-40.61946 -21.34316,0.0961 -38.59668,18.25388 -38.59668,40.61946 0,22.36559 17.25352,40.52337 38.59668,40.61947 -14.85845,-7.54128 -24.29568,-23.31921 -24.29568,-40.61947 z"
     inkscape:connector-curvature="0"
     sodipodi:nodetypes="scscs" />
  <path
     id="path402-2"
     style="fill:none;stroke:#000000;stroke-width:0.8817926"
     d="m 679.48929,278.52442 c 0,-17.30025 9.43723,-33.07818 24.29568,-40.61946 -21.34316,0.0961 -38.59668,18.25388 -38.59668,40.61946 0,22.36559 17.25352,40.52337 38.59668,40.61947 -14.85845,-7.54128 -24.29568,-23.31921 -24.29568,-40.61947 z"
     inkscape:connector-curvature="0"
     sodipodi:nodetypes="scscs" />
  <path
     id="path450-9"
     style="fill:none;stroke:#000000;stroke-width:0.8817926"
     d="m 656.40838,278.52442 c 0,-17.30025 9.43723,-33.07818 24.29568,-40.61946 -21.34316,0.0961 -38.59668,18.25388 -38.59668,40.61946 0,22.36559 17.25352,40.52337 38.59668,40.61947 -14.85845,-7.54128 -24.29568,-23.31921 -24.29568,-40.61947 z"
     inkscape:connector-curvature="0"
     sodipodi:nodetypes="scscs" />
  <path
     id="path462-1"
     style="fill:none;stroke:#000000;stroke-width:0.8817926"
     d="m 702.57021,278.52442 c 0,-17.30025 9.43723,-33.07818 24.29568,-40.61946 -21.34316,0.0961 -38.59668,18.25388 -38.59668,40.61946 0,22.36559 17.25352,40.52337 38.59668,40.61947 -14.85845,-7.54128 -24.29568,-23.31921 -24.29568,-40.61947 z"
     inkscape:connector-curvature="0"
     sodipodi:nodetypes="scscs" />
  <path
     id="path294-2"
     style="fill:none;stroke:#000000;stroke-width:0.8817926"
     d="m 619.02646,278.52442 c 0,-22.36558 17.25352,-40.52336 38.59668,-40.61946 -14.85845,7.54128 -24.29568,23.31921 -24.29568,40.61946 0,17.30026 9.43723,33.07819 24.29568,40.61947 -21.34316,-0.0961 -38.59668,-18.25388 -38.59668,-40.61947 z"
     inkscape:connector-curvature="0"
     sodipodi:nodetypes="scscs" />
  <path
     id="path474-6-7"
     style="fill:none;stroke:#000000;stroke-width:0.8817926"
     d="m 612.5827,192.56586 c 0,-17.30025 9.43723,-33.07818 24.29568,-40.61946 -21.34316,0.0961 -38.59668,18.25388 -38.59668,40.61946 0,22.36559 17.25352,40.52337 38.59668,40.61947 -14.85845,-7.54128 -24.29568,-23.31921 -24.29568,-40.61947 z"
     inkscape:connector-curvature="0"
     sodipodi:nodetypes="scscs" />
  <path
     id="path402-2-0"
     style="fill:none;stroke:#000000;stroke-width:0.8817926"
     d="m 679.91644,192.56473 c 0,-17.30025 9.43723,-33.07818 24.29568,-40.61946 -21.34316,0.0961 -38.59668,18.25388 -38.59668,40.61946 0,22.36559 17.25352,40.52337 38.59668,40.61947 -14.85845,-7.54128 -24.29568,-23.31921 -24.29568,-40.61947 z"
     inkscape:connector-curvature="0"
     sodipodi:nodetypes="scscs" />
  <path
     id="path450-9-9"
     style="fill:none;stroke:#000000;stroke-width:0.8817926"
     d="m 656.83553,192.56473 c 0,-17.30025 9.43723,-33.07818 24.29568,-40.61946 -21.34316,0.0961 -38.59668,18.25388 -38.59668,40.61946 0,22.36559 17.25352,40.52337 38.59668,40.61947 -14.85845,-7.54128 -24.29568,-23.31921 -24.29568,-40.61947 z"
     inkscape:connector-curvature="0"
     sodipodi:nodetypes="scscs" />
  <path
     id="path462-1-3"
     style="fill:none;stroke:#000000;stroke-width:0.8817926"
     d="m 702.99737,192.56473 c 0,-17.30025 9.43723,-33.07818 24.29567,-40.61946 -21.34315,0.0961 -38.59668,18.25388 -38.59668,40.61946 0,22.36559 17.25353,40.52337 38.59668,40.61947 -14.85844,-7.54128 -24.29567,-23.31921 -24.29567,-40.61947 z"
     inkscape:connector-curvature="0"
     sodipodi:nodetypes="scscs" />
  <path
     id="path294-2-6"
     style="fill:none;stroke:#000000;stroke-width:0.8817926"
     d="m 619.45361,192.56473 c 0,-22.36558 17.25352,-40.52336 38.59668,-40.61946 -14.85845,7.54128 -24.29568,23.31921 -24.29568,40.61946 0,17.30026 9.43723,33.07819 24.29568,40.61947 -21.34316,-0.0961 -38.59668,-18.25388 -38.59668,-40.61947 z"
     inkscape:connector-curvature="0"
     sodipodi:nodetypes="scscs" />
  <rect
     style="fill:none;stroke-width:0.79375005;stroke-miterlimit:4;stroke-dasharray:none"
     id="rect5171"
     width="153.24501"
     height="42.731785"
     x="909.15552"
     y="92.126564" />
</svg>
