<?xml version="1.0" encoding="UTF-8" standalone="no"?>
<!-- Created with Inkscape (http://www.inkscape.org/) -->

<svg
   xmlns:dc="http://purl.org/dc/elements/1.1/"
   xmlns:cc="http://creativecommons.org/ns#"
   xmlns:rdf="http://www.w3.org/1999/02/22-rdf-syntax-ns#"
   xmlns:svg="http://www.w3.org/2000/svg"
   xmlns="http://www.w3.org/2000/svg"
   xmlns:sodipodi="http://sodipodi.sourceforge.net/DTD/sodipodi-0.dtd"
   xmlns:inkscape="http://www.inkscape.org/namespaces/inkscape"
   width="210mm"
   height="297mm"
   viewBox="0 0 210 297"
   version="1.1"
   id="svg6551"
   sodipodi:docname="angles10.svg"
   inkscape:version="0.92.4 5da689c313, 2019-01-14">
  <defs
     id="defs6545" />
  <sodipodi:namedview
     id="base"
     pagecolor="#ffffff"
     bordercolor="#666666"
     borderopacity="1.0"
     inkscape:pageopacity="0.0"
     inkscape:pageshadow="2"
     inkscape:zoom="4"
     inkscape:cx="206.38897"
     inkscape:cy="574.82145"
     inkscape:document-units="mm"
     inkscape:current-layer="layer1"
     showgrid="false"
     inkscape:window-width="1920"
     inkscape:window-height="1015"
     inkscape:window-x="0"
     inkscape:window-y="0"
     inkscape:window-maximized="1" />
  <metadata
     id="metadata6548">
    <rdf:RDF>
      <cc:Work
         rdf:about="">
        <dc:format>image/svg+xml</dc:format>
        <dc:type
           rdf:resource="http://purl.org/dc/dcmitype/StillImage" />
        <dc:title />
      </cc:Work>
    </rdf:RDF>
  </metadata>
  <g
     inkscape:label="Layer 1"
     inkscape:groupmode="layer"
     id="layer1">
    <path
       id="path8"
       style="fill:none;fill-opacity:0.99215686;stroke:#1a1a1a;stroke-width:0.155;stroke-linecap:round;stroke-linejoin:round;stroke-miterlimit:4;stroke-dasharray:none;stroke-opacity:0.99215686;paint-order:stroke fill markers"
       d="m 98.760604,150.30927 a 5.1620331,5.1620331 0 0 1 4.184856,-5.96588 5.1620331,5.1620331 0 0 1 5.98064,4.16375 l -5.07957,0.91901 z m -0.275846,51.78922 c -1.624719,13.28282 -8.582819,19.53838 -16.716293,33.69154 -4.438065,7.72274 -8.650118,13.82703 -8.650119,22.68651 3e-6,17.71894 13.222818,32.08243 29.533604,32.08244 16.31077,-1e-5 29.53307,-14.3635 29.53307,-32.08243 1e-5,-8.85949 -4.80272,-16.20131 -8.65012,-22.68651 -8.94612,-15.07968 -12.83924,-18.93349 -15.51223,-33.78949 -1.88341,-14.45764 -4.10893,-26.86795 -3.96804,-45.3748 l 96.90694,-0.42372 c 0.40346,-0.002 0.72864,-0.35111 0.72864,-0.78742 l 0,-149.0435283 c 3e-5,-0.4363187 -0.3252,-0.7879773 -0.72864,-0.7879781 l -196.618868,1.3e-6 c -0.4034555,-7e-7 -0.7286376,0.3516652 -0.7286377,0.7879778 L 3.6140629,155.4146 c 5.8e-6,0.43632 0.3252087,0.79193 0.7286387,0.78742 0,0 95.1676764,0.41016 99.3771684,0.41016 -0.025,21.03687 -3.23969,32.18176 -5.235112,45.48631 z"
       inkscape:connector-curvature="0" />
  </g>
</svg>
