<?xml version="1.0" encoding="UTF-8" standalone="no"?>
<svg
   xmlns:dc="http://purl.org/dc/elements/1.1/"
   xmlns:cc="http://creativecommons.org/ns#"
   xmlns:rdf="http://www.w3.org/1999/02/22-rdf-syntax-ns#"
   xmlns:svg="http://www.w3.org/2000/svg"
   xmlns="http://www.w3.org/2000/svg"
   id="svg2"
   version="1.1"
   xml:space="preserve"
   width="711.69434"
   height="211.69238"
   viewBox="0 0 711.69434 211.69238"><metadata
     id="metadata8"><rdf:RDF><cc:Work
         rdf:about=""><dc:format>image/svg+xml</dc:format><dc:type
           rdf:resource="http://purl.org/dc/dcmitype/StillImage" /><dc:title></dc:title></cc:Work></rdf:RDF></metadata><defs
     id="defs6" /><path
     id="path9195"
     d="M 105.52539 -0.1015625 A 105.52489 105.89711 0 0 0 0 105.79492 A 105.52489 105.89711 0 0 0 105.52539 211.69141 A 105.52489 105.89711 0 0 0 206.10156 137.73633 L 504.37305 135.71875 A 105.52489 105.89711 0 0 0 605.52539 211.69141 A 105.52489 105.89711 0 0 0 711.04883 105.79492 A 105.52489 105.89711 0 0 0 605.52539 -0.1015625 A 105.52489 105.89711 0 0 0 504.14648 76.728516 L 206.26172 74.619141 A 105.52489 105.89711 0 0 0 105.52539 -0.1015625 z M 503.79883 78.091797 A 105.52489 105.89711 0 0 0 501.88867 86.1875 L 208.68945 84.109375 A 105.52489 105.89711 0 0 0 207.79102 80.09375 L 503.79883 78.091797 z M 501.67773 87.580078 A 105.52489 105.89711 0 0 0 500.50586 95.650391 L 210.21484 93.59375 A 105.52489 105.89711 0 0 0 209.72656 89.552734 L 501.67773 87.580078 z M 500.43555 97.060547 A 105.52489 105.89711 0 0 0 500.02148 105.38281 L 210.96289 103.33594 A 105.52489 105.89711 0 0 0 210.81055 99.019531 L 500.43555 97.060547 z M 500.03516 106.80078 A 105.52489 105.89711 0 0 0 500.45312 114.86133 L 210.70117 112.80664 A 105.52489 105.89711 0 0 0 210.90234 108.75586 L 500.03516 106.80078 z M 500.625 116.27148 A 105.52489 105.89711 0 0 0 501.7168 124.60547 L 209.59375 122.53711 A 105.52489 105.89711 0 0 0 210.24219 118.23438 L 500.625 116.27148 z M 502.02734 125.99805 A 105.52489 105.89711 0 0 0 503.92383 134.35742 L 207.56641 132.25977 A 105.52489 105.89711 0 0 0 208.6543 127.98242 L 502.02734 125.99805 z "
     style="color:#000000;clip-rule:nonzero;display:inline;overflow:visible;visibility:visible;opacity:1;isolation:auto;mix-blend-mode:normal;color-interpolation:sRGB;color-interpolation-filters:linearRGB;solid-color:#000000;solid-opacity:1;fill:#000000;fill-opacity:1;fill-rule:evenodd;stroke:none;stroke-width:5;stroke-linecap:butt;stroke-linejoin:round;stroke-miterlimit:4;stroke-dasharray:none;stroke-dashoffset:0;stroke-opacity:1;marker:none;paint-order:fill markers stroke;color-rendering:auto;image-rendering:auto;shape-rendering:auto;text-rendering:auto;enable-background:accumulate" /></svg>