<?xml version="1.0" encoding="UTF-8" standalone="no"?>
<svg
   xmlns:dc="http://purl.org/dc/elements/1.1/"
   xmlns:cc="http://creativecommons.org/ns#"
   xmlns:rdf="http://www.w3.org/1999/02/22-rdf-syntax-ns#"
   xmlns:svg="http://www.w3.org/2000/svg"
   xmlns="http://www.w3.org/2000/svg"
   xmlns:sodipodi="http://sodipodi.sourceforge.net/DTD/sodipodi-0.dtd"
   xmlns:inkscape="http://www.inkscape.org/namespaces/inkscape"
   viewBox="0 0 1097.0027 213.17726"
   height="213.17726"
   width="1097.0027"
   xml:space="preserve"
   version="1.1"
   id="svg2"
   sodipodi:docname="2chamber_culture_sharpen.svg"
   inkscape:version="0.92.2 2405546, 2018-03-11"><sodipodi:namedview
     pagecolor="#ffffff"
     bordercolor="#666666"
     borderopacity="1"
     objecttolerance="10"
     gridtolerance="10"
     guidetolerance="10"
     inkscape:pageopacity="0"
     inkscape:pageshadow="2"
     inkscape:window-width="1920"
     inkscape:window-height="969"
     id="namedview9"
     showgrid="false"
     inkscape:zoom="0.95182475"
     inkscape:cx="838.46606"
     inkscape:cy="229.9112"
     inkscape:window-x="0"
     inkscape:window-y="38"
     inkscape:window-maximized="1"
     inkscape:current-layer="g14"
     fit-margin-top="0"
     fit-margin-left="0"
     fit-margin-right="0"
     fit-margin-bottom="0" /><metadata
     id="metadata8"><rdf:RDF><cc:Work
         rdf:about=""><dc:format>image/svg+xml</dc:format><dc:type
           rdf:resource="http://purl.org/dc/dcmitype/StillImage" /><dc:title /></cc:Work></rdf:RDF></metadata><defs
     id="defs6" /><g
     transform="matrix(1.25,0,0,-1.25,-73.004055,211.58874)"
     id="g10"><g
       id="g12"><g
         transform="matrix(1,0,0,-1,0,169.35391)"
         id="g14"><path
           style="fill:#f1dbb9;fill-opacity:1;fill-rule:evenodd;stroke:#000000;stroke-width:1;stroke-linecap:butt;stroke-linejoin:miter;stroke-miterlimit:4;stroke-dasharray:none;stroke-opacity:1"
           d="M 178.34195,3.1129459 C 129.09619,7.2718466 73.504055,50.049586 73.504055,107.95084 c 0,57.895 46.936645,104.83508 104.837895,104.83008 41.72425,-0.0491 81.36441,-26.65286 96.57839,-65.22735 1.4027,-3.55649 2.70626,-11.44348 10.05033,-11.34199 l 219.48615,3.03328 c -12.61975,-0.1744 27.63097,45.09676 34.96115,47.63597 18.20704,15.25295 41.66755,24.44141 67.27539,24.44141 51.66978,12.03886 113.93159,-71.55961 100.73437,-75.25586 l 253.8297,0.76792 c 11.67859,0.0773 6.4418,11.91867 17.23517,27.37428 16.7009,23.91491 52.9351,47.04301 86.1763,46.06305 57.9013,0 104.8378,-46.93861 104.8378,-104.83985 0,-57.895012 -46.9365,-104.83312667 -104.8378,-104.82812667 -33.9648,0.0400352 -72.73562,14.14668867 -85.12474,45.28239067 -4.69851,11.808061 -6.96655,29.363351 -18.16104,30.961927 L 706.4668,76.337861 C 715.93772,67.858734 678.14683,29.615548 673.14062,25.464844 654.93143,10.204248 631.4646,1.0117188 605.84961,1.0117188 556.97229,-4.2954516 489.32732,65.605692 505.11523,76.267578 404.23376,73.980146 290.92627,78.57022 281.75334,76.455453 268.78356,73.465341 220.45188,-0.44332029 178.34195,3.1129459 Z M 505.35539,77.931557 c -5.66517,2.487349 -5.31582,5.598634 -2.45891,8.507896 L 279.69491,84.982302 c -4.96574,-0.371077 -9.27129,-3.738612 1.21685,-3.770217 75.39679,-0.227202 128.04131,-3.493003 224.44363,-3.280528 z m 202.31294,0.173557 254.32593,4.068248 c 10.6263,-0.466166 3.8577,4.091607 -0.6248,5.209438 L 709.89844,86.369143 c 1.25454,-2.158584 4.66706,-2.449801 -2.23011,-8.264029 z M 502.62305,87.65625 c -7.83596,4.273721 -0.81467,6.427399 -1.06055,8.339844 -97.61393,-1.419922 -217.08328,-1.924284 -220.34946,-2.158539 -5.01153,-0.359434 -8.9782,-2.887746 1.79527,-3.115596 69.66384,-1.473335 119.67264,-2.572051 219.61474,-3.065714 z m 207.14062,0.130859 251.33679,4.506027 c 4.6658,1.288572 10.3991,2.51245 -0.7764,4.761099 l -249.13851,0.061 c 4.97244,-2.755 3.4639,-6.608125 -1.42188,-9.328125 z m -241.97851,9.373047 c 11.77944,-0.01259 23.05728,-0.01187 33.64648,0.002 -0.77284,1.845136 -6.5219,2.967484 -0.40625,8.326174 l -219.0232,-2.09777 c -6.30137,-0.0604 -10.27025,-3.20685 -0.0461,-3.428383 68.40466,-1.482157 105.8521,-2.716478 185.82911,-2.801974 z m 243.93247,2.305412 248.42303,3.233552 c 5.5853,1.26151 10.4805,2.52302 0.049,3.78452 l -248.42787,-1.4705 c 4.02322,-2.52292 2.17749,-2.7933 -0.0443,-5.547572 z M 500.9668,106.76367 c -5.26879,4.19019 -0.95837,6.61659 0.5039,8.36914 l -219.20688,-3.03158 c -6.60517,-1.00524 -12.94558,-2.01047 -0.0417,-3.01571 z m 210.55078,0.0801 248.96568,4.85759 c 8.6605,1.52721 1.8894,3.83811 -1.2877,3.79051 -79.05955,-1.1845 -164.56619,-0.21288 -248.08423,-0.32193 2.43927,-2.0846 5.81033,-3.85083 0.40625,-8.32617 z m -210.0945,10.41056 c -2.97338,4.22003 -1.20761,5.31526 1.35622,7.29257 l -220.86899,-3.45737 c -11.46621,-0.65325 -5.83911,-1.99024 -0.21473,-3.32712 z m 209.55739,-0.17352 251.74589,3.20916 c 5.2305,-0.0101 4.9792,3.05955 -1.4993,3.26632 -88.41893,2.82206 -159.10682,0.29513 -251.30714,1.12151 6.11864,-3.88744 2.97292,-5.33475 1.06055,-7.59694 z m -430.02766,11.82691 c -3.25156,-0.56523 -14.57757,-1.74148 0.21733,-3.27349 l 221.47636,0.32868 c -1.72767,3.3179 -3.37167,6.62465 2.59961,8.91602 -98.42198,0.27609 -118.31632,-2.93378 -224.2933,-5.97121 z m 428.41508,-2.27027 254.34197,3.47212 c 6.7812,-0.30061 5.9176,2.20124 -0.1391,2.38448 -87.60509,2.65038 -163.33847,1.03551 -256.41504,1.87458 5.43727,-2.27138 5.12212,-4.67096 2.21217,-7.73118 z"
           transform="matrix(0.8,0,0,0.8,0,-2e-6)"
           id="path16"
           inkscape:connector-curvature="0"
           sodipodi:nodetypes="sscsssccccscscscccccsscccsccccccccssccccccccccsscccccccccccccccscccccccccsccccccccccsccc" /></g></g></g></svg>