<?xml version="1.0" encoding="UTF-8" standalone="no"?>
<!-- Created with Inkscape (http://www.inkscape.org/) -->

<svg
   xmlns:dc="http://purl.org/dc/elements/1.1/"
   xmlns:cc="http://creativecommons.org/ns#"
   xmlns:rdf="http://www.w3.org/1999/02/22-rdf-syntax-ns#"
   xmlns:svg="http://www.w3.org/2000/svg"
   xmlns="http://www.w3.org/2000/svg"
   xmlns:sodipodi="http://sodipodi.sourceforge.net/DTD/sodipodi-0.dtd"
   xmlns:inkscape="http://www.inkscape.org/namespaces/inkscape"
   width="210mm"
   height="297mm"
   viewBox="0 0 210 297"
   version="1.1"
   id="svg6551"
   sodipodi:docname="angles80.svg"
   inkscape:version="0.92.4 5da689c313, 2019-01-14">
  <defs
     id="defs6545" />
  <sodipodi:namedview
     id="base"
     pagecolor="#ffffff"
     bordercolor="#666666"
     borderopacity="1.0"
     inkscape:pageopacity="0.0"
     inkscape:pageshadow="2"
     inkscape:zoom="4"
     inkscape:cx="296.88897"
     inkscape:cy="574.82145"
     inkscape:document-units="mm"
     inkscape:current-layer="layer1"
     showgrid="false"
     inkscape:window-width="1920"
     inkscape:window-height="1015"
     inkscape:window-x="0"
     inkscape:window-y="0"
     inkscape:window-maximized="1" />
  <metadata
     id="metadata6548">
    <rdf:RDF>
      <cc:Work
         rdf:about="">
        <dc:format>image/svg+xml</dc:format>
        <dc:type
           rdf:resource="http://purl.org/dc/dcmitype/StillImage" />
        <dc:title />
      </cc:Work>
    </rdf:RDF>
  </metadata>
  <g
     inkscape:label="Layer 1"
     inkscape:groupmode="layer"
     id="layer1">
    <path
       id="path8"
       style="fill:none;fill-opacity:0.99215686;stroke:#1a1a1a;stroke-width:0.155;stroke-linecap:round;stroke-linejoin:round;stroke-miterlimit:4;stroke-dasharray:none;stroke-opacity:0.99215686;paint-order:stroke fill markers"
       d="m 101.27055,152.53275 a 5.1620331,5.1620331 0 0 1 -4.174784,-5.97292 5.1620331,5.1620331 0 0 1 5.958144,-4.19588 l -0.87372,5.08755 z m -4.409799,47.66665 c -1.62472,13.28282 -8.582816,19.53838 -16.716292,33.69154 -4.438064,7.72274 -8.650114,13.82704 -8.650116,22.68651 -2e-6,17.71894 13.222818,32.08243 29.533597,32.08243 16.31078,0 29.53308,-14.36349 29.53308,-32.08243 0,-8.85948 -4.80273,-16.2013 -8.65012,-22.6865 -8.94612,-15.07968 -12.83925,-18.9335 -15.51223,-33.78949 -1.88341,-14.45764 -4.10894,-26.86795 -3.96804,-45.37481 l 96.90693,-0.42372 c 0.40345,-0.002 0.72864,-0.35111 0.72864,-0.78742 V 4.471991 c -3e-5,-0.4363187 -0.32519,-0.7879777 -0.72864,-0.7879779 l -196.618863,-3e-7 c -0.403455,0 -0.728638,0.3516653 -0.728638,0.7879779 l 10e-7,149.0435193 c 4e-6,0.43632 0.325206,0.79192 0.728638,0.78742 0,0 95.16768,0.41016 99.377172,0.41016 -0.025,21.03687 -3.239692,32.18176 -5.235119,45.48631 z"
       inkscape:connector-curvature="0" />
  </g>
</svg>
