<?xml version="1.0" encoding="UTF-8" standalone="no"?>
<!-- Created with Inkscape (http://www.inkscape.org/) -->

<svg
   xmlns:dc="http://purl.org/dc/elements/1.1/"
   xmlns:cc="http://creativecommons.org/ns#"
   xmlns:rdf="http://www.w3.org/1999/02/22-rdf-syntax-ns#"
   xmlns:svg="http://www.w3.org/2000/svg"
   xmlns="http://www.w3.org/2000/svg"
   xmlns:sodipodi="http://sodipodi.sourceforge.net/DTD/sodipodi-0.dtd"
   xmlns:inkscape="http://www.inkscape.org/namespaces/inkscape"
   width="210mm"
   height="297mm"
   viewBox="0 0 210 297"
   version="1.1"
   id="svg6551"
   sodipodi:docname="angles5.svg"
   inkscape:version="0.92.4 5da689c313, 2019-01-14">
  <defs
     id="defs6545" />
  <sodipodi:namedview
     id="base"
     pagecolor="#ffffff"
     bordercolor="#666666"
     borderopacity="1.0"
     inkscape:pageopacity="0.0"
     inkscape:pageshadow="2"
     inkscape:zoom="4"
     inkscape:cx="296.76397"
     inkscape:cy="574.82145"
     inkscape:document-units="mm"
     inkscape:current-layer="layer1"
     showgrid="false"
     inkscape:window-width="1920"
     inkscape:window-height="1015"
     inkscape:window-x="0"
     inkscape:window-y="0"
     inkscape:window-maximized="1" />
  <metadata
     id="metadata6548">
    <rdf:RDF>
      <cc:Work
         rdf:about="">
        <dc:format>image/svg+xml</dc:format>
        <dc:type
           rdf:resource="http://purl.org/dc/dcmitype/StillImage" />
        <dc:title />
      </cc:Work>
    </rdf:RDF>
  </metadata>
  <g
     inkscape:label="Layer 1"
     inkscape:groupmode="layer"
     id="layer1">
    <path
       id="path8"
       style="fill:none;fill-opacity:0.99215686;stroke:#1a1a1a;stroke-width:0.155;stroke-linecap:round;stroke-linejoin:round;stroke-miterlimit:4;stroke-dasharray:none;stroke-opacity:0.99215686;paint-order:stroke fill markers"
       d="m 97.46924,148.46427 a 5.1620331,5.1620331 0 0 1 4.68889,-5.57845 5.1620331,5.1620331 0 0 1 5.59499,4.66915 l -5.14034,0.47281 z m -0.21729,52.22933 c -1.624718,13.28282 -8.582819,19.53838 -16.716292,33.69154 -4.438065,7.72274 -8.650118,13.82703 -8.650119,22.68651 3e-6,17.71894 13.222817,32.08243 29.533601,32.08243 16.31078,10e-6 29.53308,-14.36349 29.53308,-32.08243 0,-8.85948 -4.80273,-16.2013 -8.65012,-22.68651 -8.94613,-15.07967 -12.83925,-18.93349 -15.51223,-33.78948 -1.88341,-14.45764 -4.10894,-26.86795 -3.96777,-45.37483 l 96.90692,-0.42373 c 0.40346,-0.002 0.72864,-0.3511 0.72864,-0.78741 l 0,-149.043523 c -3e-5,-0.436311 -0.32519,-0.787978 -0.72864,-0.7879784 L 3.1098946,4.1782119 c -0.4034552,5e-7 -0.728638,0.3516653 -0.7286379,0.7879779 l -2e-7,149.0435202 c -3e-6,0.43631 0.3252069,0.79192 0.728638,0.78742 0,0 95.1676765,0.41016 99.3771755,0.41016 -0.025,21.03687 -3.239699,32.18176 -5.23512,45.48631 z"
       inkscape:connector-curvature="0" />
  </g>
</svg>
