<?xml version="1.0" encoding="UTF-8" standalone="no"?>
<!-- Created with Inkscape (http://www.inkscape.org/) -->

<svg
   xmlns:dc="http://purl.org/dc/elements/1.1/"
   xmlns:cc="http://creativecommons.org/ns#"
   xmlns:rdf="http://www.w3.org/1999/02/22-rdf-syntax-ns#"
   xmlns:svg="http://www.w3.org/2000/svg"
   xmlns="http://www.w3.org/2000/svg"
   xmlns:sodipodi="http://sodipodi.sourceforge.net/DTD/sodipodi-0.dtd"
   xmlns:inkscape="http://www.inkscape.org/namespaces/inkscape"
   width="210mm"
   height="297mm"
   viewBox="0 0 210 297"
   version="1.1"
   id="svg6551"
   sodipodi:docname="angles40.svg"
   inkscape:version="0.92.4 5da689c313, 2019-01-14">
  <defs
     id="defs6545" />
  <sodipodi:namedview
     id="base"
     pagecolor="#ffffff"
     bordercolor="#666666"
     borderopacity="1.0"
     inkscape:pageopacity="0.0"
     inkscape:pageshadow="2"
     inkscape:zoom="4"
     inkscape:cx="530.29585"
     inkscape:cy="574.82145"
     inkscape:document-units="mm"
     inkscape:current-layer="layer1"
     showgrid="false"
     inkscape:window-width="1920"
     inkscape:window-height="1015"
     inkscape:window-x="0"
     inkscape:window-y="0"
     inkscape:window-maximized="1" />
  <metadata
     id="metadata6548">
    <rdf:RDF>
      <cc:Work
         rdf:about="">
        <dc:format>image/svg+xml</dc:format>
        <dc:type
           rdf:resource="http://purl.org/dc/dcmitype/StillImage" />
        <dc:title />
      </cc:Work>
    </rdf:RDF>
  </metadata>
  <g
     inkscape:label="Layer 1"
     inkscape:groupmode="layer"
     id="layer1">
    <path
       id="path8"
       style="fill:none;fill-opacity:0.99215686;stroke:#1a1a1a;stroke-width:0.155;stroke-linecap:round;stroke-linejoin:round;stroke-miterlimit:4;stroke-dasharray:none;stroke-opacity:0.99215686;paint-order:stroke fill markers"
       d="m 124.20188,165.21595 a 5.1620331,5.1620331 0 0 1 0.64125,-7.25904 5.1620331,5.1620331 0 0 1 7.26126,0.61559 l -3.93953,3.33569 z m -1.39251,49.40315 c -1.62472,13.28282 -8.58282,19.53838 -16.71629,33.69154 -4.43807,7.72274 -8.650123,13.82703 -8.650117,22.68651 -7e-6,17.71894 13.222807,32.08243 29.533597,32.08243 16.31078,0 29.53308,-14.36349 29.53308,-32.08243 0,-8.85948 -4.80274,-16.20131 -8.65012,-22.68651 -8.94612,-15.07967 -12.83925,-18.93349 -15.51223,-33.78948 -1.88341,-14.45764 -4.10894,-26.86795 -3.96804,-45.37481 l 96.90693,-0.42372 c 0.40345,-0.002 0.72864,-0.35111 0.72864,-0.78742 l 0,-149.04352 c 0,-0.436319 -0.3252,-0.787981 -0.72867,-0.78796 l -196.61884,-1.7e-5 c -0.403452,-3e-6 -0.728634,0.351662 -0.728637,0.787977 l 3e-6,149.04352 c -1e-6,0.43631 0.325204,0.79191 0.728643,0.78742 0,0 95.167671,0.41015 99.377171,0.41015 -0.025,21.03687 -3.23969,32.18177 -5.23512,45.48632 z"
       inkscape:connector-curvature="0" />
  </g>
</svg>
