<?xml version="1.0" encoding="UTF-8" standalone="no"?>
<svg
   xmlns:dc="http://purl.org/dc/elements/1.1/"
   xmlns:cc="http://creativecommons.org/ns#"
   xmlns:rdf="http://www.w3.org/1999/02/22-rdf-syntax-ns#"
   xmlns:svg="http://www.w3.org/2000/svg"
   xmlns="http://www.w3.org/2000/svg"
   xmlns:sodipodi="http://sodipodi.sourceforge.net/DTD/sodipodi-0.dtd"
   xmlns:inkscape="http://www.inkscape.org/namespaces/inkscape"
   viewBox="0 0 711.69434 211.69238"
   height="211.69238"
   width="711.69434"
   xml:space="preserve"
   version="1.1"
   id="svg2"
   sodipodi:docname="2chamber_culture.svg"
   inkscape:version="0.92.2 5c3e80d, 2017-08-06"><sodipodi:namedview
     pagecolor="#ffffff"
     bordercolor="#666666"
     borderopacity="1"
     objecttolerance="10"
     gridtolerance="10"
     guidetolerance="10"
     inkscape:pageopacity="0"
     inkscape:pageshadow="2"
     inkscape:window-width="1920"
     inkscape:window-height="969"
     id="namedview9"
     showgrid="false"
     inkscape:zoom="7.614598"
     inkscape:cx="251.05569"
     inkscape:cy="111.91943"
     inkscape:window-x="0"
     inkscape:window-y="38"
     inkscape:window-maximized="1"
     inkscape:current-layer="g14" /><metadata
     id="metadata8"><rdf:RDF><cc:Work
         rdf:about=""><dc:format>image/svg+xml</dc:format><dc:type
           rdf:resource="http://purl.org/dc/dcmitype/StillImage" /><dc:title /></cc:Work></rdf:RDF></metadata><defs
     id="defs6" /><g
     transform="matrix(1.25,0,0,-1.25,0,211.69239)"
     id="g10"><g
       id="g12"><g
         transform="matrix(1,0,0,-1,0,169.35391)"
         id="g14"><path
           id="path16"
           style="fill:#f1dbb9;fill-opacity:1;fill-rule:evenodd;stroke:#000000;stroke-width:0.80000001;stroke-linecap:butt;stroke-linejoin:miter;stroke-miterlimit:4;stroke-dasharray:none;stroke-opacity:1"
           d="m 568.547,84.68 c 0,-46.321 -37.551,-83.871 -83.867,-83.871 -36.12785,0.0183832 -68.03188,23.14042 -79.45227,57.128665 -0.38317,1.140367 0.96537,1.921518 0.62893,3.085887 L 164.734,59.707 C 153.809,24.676 121.375,0.812 84.68,0.809 38.359,0.809 0.809,38.359 0.809,84.68 c 0,46.316 37.55,83.867 83.871,83.863 36.48,-0.043 69.48143,-26.08041 80.54743,-60.84641 l 241.61042,1.10857 c 0.32949,1.11198 -1.84524,1.91589 -1.47306,3.00565 11.54142,33.79323 43.35002,56.71281 79.31521,56.73219 46.316,0.004 83.867,-37.547 83.867,-83.863 z m -164.508,22.75 -237.61054,-4.59587 c 0.281,-1.141 0.35278,-0.97925 0.58273,-2.12829 L 402.391,100.738 c 0.457,2.254 1.007,4.485 1.648,6.692 z m -0.227,-44.953 c -0.578,2.16 -1.066,4.343 -1.468,6.543 L 166.707,67.355 c -0.258,-1.101 -0.43393,-2.195 -0.73493,-3.285 z m -1.589,37.16 -234.54056,-3.554385 c 0.157,-1.11 0.0516,-0.332615 0.16556,-1.449615 l 233.386,-1.567 c 0.243,2.204 0.571,4.395 0.989,6.571 z m -0.125,-29.512 c -0.36,2.148 -0.629,4.313 -0.821,6.488 L 167.922,74.965 c -0.141,-1.094 -0.50235,-1.64904 -0.68938,-2.73504 z m -0.922,21.824 -232.828,-1.644 c 0.058,-1.075 0.18931,-2.382961 0.20531,-3.460961 L 400.852,85.516 c 0.023,2.148 0.132,4.293 0.324,6.433 z M 401.145,77.73 c -0.2,2.215 -0.305,4.438 -0.325,6.661 L 168.449,82.081394 c -0.24512,-2.942043 -0.0375,-1.402846 -0.11946,-2.554846 z"
           inkscape:connector-curvature="0"
           sodipodi:nodetypes="scscccscccscscccccccccccccccccccccccccccccc" /></g></g></g></svg>