<?xml version="1.0" encoding="UTF-8" standalone="no"?>
<svg
   xmlns:dc="http://purl.org/dc/elements/1.1/"
   xmlns:cc="http://creativecommons.org/ns#"
   xmlns:rdf="http://www.w3.org/1999/02/22-rdf-syntax-ns#"
   xmlns:svg="http://www.w3.org/2000/svg"
   xmlns="http://www.w3.org/2000/svg"
   xmlns:sodipodi="http://sodipodi.sourceforge.net/DTD/sodipodi-0.dtd"
   xmlns:inkscape="http://www.inkscape.org/namespaces/inkscape"
   viewBox="0 0 711.69434 211.69238"
   height="211.69238"
   width="711.69434"
   xml:space="preserve"
   version="1.1"
   id="svg2"
   sodipodi:docname="2chamber_culture_sharpen.svg"
   inkscape:version="0.92.2 5c3e80d, 2017-08-06"><sodipodi:namedview
     pagecolor="#ffffff"
     bordercolor="#666666"
     borderopacity="1"
     objecttolerance="10"
     gridtolerance="10"
     guidetolerance="10"
     inkscape:pageopacity="0"
     inkscape:pageshadow="2"
     inkscape:window-width="1920"
     inkscape:window-height="969"
     id="namedview9"
     showgrid="false"
     inkscape:zoom="1.9036495"
     inkscape:cx="245.1764"
     inkscape:cy="210.28228"
     inkscape:window-x="0"
     inkscape:window-y="38"
     inkscape:window-maximized="1"
     inkscape:current-layer="g14" /><metadata
     id="metadata8"><rdf:RDF><cc:Work
         rdf:about=""><dc:format>image/svg+xml</dc:format><dc:type
           rdf:resource="http://purl.org/dc/dcmitype/StillImage" /><dc:title></dc:title></cc:Work></rdf:RDF></metadata><defs
     id="defs6" /><g
     transform="matrix(1.25,0,0,-1.25,0,211.69239)"
     id="g10"><g
       id="g12"><g
         transform="matrix(1,0,0,-1,0,169.35391)"
         id="g14"><path
           id="path16"
           style="fill:#f1dbb9;fill-opacity:1;fill-rule:evenodd;stroke:#000000;stroke-width:0.80000001;stroke-linecap:butt;stroke-linejoin:miter;stroke-miterlimit:4;stroke-dasharray:none;stroke-opacity:1"
           d="m 568.547,84.68 c 0,-46.321 -37.551,-83.871 -83.867,-83.871 -36.12785,0.0183832 -68.03188,23.14042 -79.45227,57.128665 -0.98783,2.085246 2.12818,1.969556 -1.1358,3.076251 L 164.734,59.707 C 153.809,24.676 121.375,0.812 84.68,0.809 38.359,0.809 0.809,38.359 0.809,84.68 c 0,46.316 37.55,83.867 83.871,83.863 36.48,-0.043 69.48143,-26.08041 80.54743,-60.84641 l 239.7055,1.09983 c 3.39209,1.71686 1.41662,2.11222 0.43186,3.01439 11.54142,33.79323 43.35002,56.71281 79.31521,56.73219 46.316,0.004 83.867,-37.547 83.867,-83.863 z m -164.35041,23.22278 -237.32239,-7.29734 235.24228,0.16551 z m -0.33206,-45.977352 c -0.578,2.16 -1.1448,5.025899 -1.5468,7.225899 L 165.44626,64.938589 c 70.68543,-0.8493 162.46249,-2.328429 238.41827,-3.013161 z M 402.223,99.637 167.53386,95.19114 401.08542,92.174525 c 0.243,2.204 0.71958,5.286475 1.13758,7.462475 z m -0.125,-29.512 c -0.36,2.148 -0.65527,4.496857 -0.84727,6.671857 L 166.97645,73.389079 C 239.6769,70.074628 325.21323,70.814073 402.098,70.125 Z M 401.176,92.106592 167.81788,87.999714 400.7732,85.410939 c 0.023,2.148 0.2108,4.555653 0.4028,6.695653 z M 401.145,77.73 c -0.2,2.215 -0.305,4.438 -0.325,6.661 L 168.02875,79.664983 C 230.39414,78.21615 333.37411,77.64151 401.145,77.73 Z"
           inkscape:connector-curvature="0"
           sodipodi:nodetypes="scccccscccccscccccccccccccccccccccccc" /></g></g></g></svg>