<?xml version="1.0" encoding="UTF-8" standalone="no"?>
<svg
   xmlns:dc="http://purl.org/dc/elements/1.1/"
   xmlns:cc="http://creativecommons.org/ns#"
   xmlns:rdf="http://www.w3.org/1999/02/22-rdf-syntax-ns#"
   xmlns:svg="http://www.w3.org/2000/svg"
   xmlns="http://www.w3.org/2000/svg"
   viewBox="0 0 711.69434 211.69238"
   height="211.69238"
   width="711.69434"
   xml:space="preserve"
   version="1.1"
   id="svg2"><metadata
     id="metadata8"><rdf:RDF><cc:Work
         rdf:about=""><dc:format>image/svg+xml</dc:format><dc:type
           rdf:resource="http://purl.org/dc/dcmitype/StillImage" /><dc:title></dc:title></cc:Work></rdf:RDF></metadata><defs
     id="defs6" /><g
     transform="matrix(1.25,0,0,-1.25,0,211.69239)"
     id="g10"><g
       id="g12"><g
         transform="matrix(1,0,0,-1,0,169.35391)"
         id="g14"><path
           id="path16"
           style="fill:#f1dbb9;fill-opacity:1;fill-rule:evenodd;stroke:#000000;stroke-width:0.80000001;stroke-linecap:butt;stroke-linejoin:miter;stroke-miterlimit:4;stroke-dasharray:none;stroke-opacity:1"
           d="M 568.547,84.68 C 568.547,38.359 530.996,0.809 484.68,0.809 447.34,0.828 414.512,25.527 404.148,61.395 L 164.734,59.707 C 153.809,24.676 121.375,0.812 84.68,0.809 38.359,0.809 0.809,38.359 0.809,84.68 c 0,46.316 37.55,83.867 83.871,83.863 36.48,-0.043 68.746,-23.664 79.812,-58.43 l 239.82,-1.605 c 10.547,35.594 43.243,60.015 80.368,60.035 46.316,0.004 83.867,-37.547 83.867,-83.863 z m -164.508,22.75 -238.242,-1.68 c 0.281,-1.141 0.539,-2.281 0.769,-3.43 l 235.825,-1.582 c 0.457,2.254 1.007,4.485 1.648,6.692 z m -0.227,-44.953 c -0.578,2.16 -1.066,4.343 -1.468,6.543 L 166.707,67.355 c -0.258,-1.101 -0.539,-2.195 -0.84,-3.285 l 237.945,-1.593 z m -1.589,37.16 -234.782,-1.66 c 0.157,-1.11 0.293,-2.227 0.407,-3.344 l 233.386,-1.567 c 0.243,2.204 0.571,4.395 0.989,6.571 z m -0.125,-29.512 c -0.36,2.148 -0.629,4.313 -0.821,6.488 L 167.922,74.965 c -0.141,-1.094 -0.305,-2.184 -0.492,-3.27 l 234.668,-1.57 z m -0.922,21.824 -232.828,-1.644 c 0.058,-1.075 0.097,-2.157 0.113,-3.235 l 232.391,-1.554 c 0.023,2.148 0.132,4.293 0.324,6.433 z M 401.145,77.73 c -0.2,2.215 -0.305,4.438 -0.325,6.661 L 168.449,82.75 c -0.035,-1.156 -0.09,-2.309 -0.172,-3.461 L 401.145,77.73 Z" /></g></g></g></svg>