<?xml version="1.0" encoding="UTF-8" standalone="no"?>
<!-- Created with Inkscape (http://www.inkscape.org/) -->

<svg
   xmlns:dc="http://purl.org/dc/elements/1.1/"
   xmlns:cc="http://creativecommons.org/ns#"
   xmlns:rdf="http://www.w3.org/1999/02/22-rdf-syntax-ns#"
   xmlns:svg="http://www.w3.org/2000/svg"
   xmlns="http://www.w3.org/2000/svg"
   xmlns:sodipodi="http://sodipodi.sourceforge.net/DTD/sodipodi-0.dtd"
   xmlns:inkscape="http://www.inkscape.org/namespaces/inkscape"
   width="24.260914mm"
   height="54.053772mm"
   viewBox="0 0 24.260914 54.053772"
   version="1.1"
   id="svg1229"
   inkscape:version="0.92.2 2405546, 2018-03-11"
   sodipodi:docname="arches_2.svg">
  <defs
     id="defs1223" />
  <sodipodi:namedview
     id="base"
     pagecolor="#ffffff"
     bordercolor="#666666"
     borderopacity="1.0"
     inkscape:pageopacity="0.0"
     inkscape:pageshadow="2"
     inkscape:zoom="1.979899"
     inkscape:cx="-36.358233"
     inkscape:cy="125.80818"
     inkscape:document-units="mm"
     inkscape:current-layer="layer1"
     showgrid="false"
     fit-margin-top="0"
     fit-margin-left="0"
     fit-margin-right="0"
     fit-margin-bottom="0"
     inkscape:window-width="1920"
     inkscape:window-height="1056"
     inkscape:window-x="1080"
     inkscape:window-y="436"
     inkscape:window-maximized="1" />
  <metadata
     id="metadata1226">
    <rdf:RDF>
      <cc:Work
         rdf:about="">
        <dc:format>image/svg+xml</dc:format>
        <dc:type
           rdf:resource="http://purl.org/dc/dcmitype/StillImage" />
        <dc:title></dc:title>
      </cc:Work>
    </rdf:RDF>
  </metadata>
  <g
     inkscape:label="Calque 1"
     inkscape:groupmode="layer"
     id="layer1"
     transform="translate(131.57093,-148.26478)">
    <path
       style="fill:none;stroke:#000000;stroke-width:0.26458332px;stroke-linecap:butt;stroke-linejoin:miter;stroke-opacity:1"
       d="m -111.68733,189.94947 -0.0433,-11.21881 c 0.64817,0.81892 1.91472,0.81257 2.55563,0 v 11.21881 z"
       id="path819"
       inkscape:connector-curvature="0"
       sodipodi:nodetypes="ccccc" />
    <path
       sodipodi:nodetypes="ccccc"
       inkscape:connector-curvature="0"
       id="path821"
       d="m -111.68733,178.05146 -0.0433,-8.27332 c 0.64817,0.81892 1.91472,0.81257 2.55563,0 v 8.27332 c -0.68343,1.10772 -1.89557,1.07649 -2.51231,0 z"
       style="fill:none;stroke:#000000;stroke-width:0.26458332px;stroke-linecap:butt;stroke-linejoin:miter;stroke-opacity:1" />
    <path
       style="fill:none;stroke:#000000;stroke-width:0.26458332px;stroke-linecap:butt;stroke-linejoin:miter;stroke-opacity:1"
       d="m -111.68733,169.07728 -0.0433,-8.65406 h 2.55563 v 8.65406 c -0.68343,1.10772 -1.89557,1.0765 -2.51231,0 z"
       id="path823"
       inkscape:connector-curvature="0"
       sodipodi:nodetypes="ccccc" />
    <path
       sodipodi:nodetypes="ccccc"
       inkscape:connector-curvature="0"
       id="path825"
       d="m -114.67855,189.94947 -0.0433,-7.98255 c 0.64816,0.81892 1.91471,0.81257 2.55563,0 v 7.98255 z"
       style="fill:none;stroke:#000000;stroke-width:0.26458332px;stroke-linecap:butt;stroke-linejoin:miter;stroke-opacity:1" />
    <path
       style="fill:none;stroke:#000000;stroke-width:0.26458332px;stroke-linecap:butt;stroke-linejoin:miter;stroke-opacity:1"
       d="m -114.67855,181.28772 -0.0433,-8.27332 c 0.64816,0.81892 1.91471,0.81257 2.55563,0 v 8.27332 c -0.68343,1.10772 -1.89557,1.07649 -2.51232,0 z"
       id="path827"
       inkscape:connector-curvature="0"
       sodipodi:nodetypes="ccccc" />
    <path
       sodipodi:nodetypes="ccccc"
       inkscape:connector-curvature="0"
       id="path829"
       d="m -114.67855,172.31354 -0.0433,-11.89032 h 2.55563 v 11.89032 c -0.68343,1.10772 -1.89557,1.0765 -2.51232,0 z"
       style="fill:none;stroke:#000000;stroke-width:0.26458332px;stroke-linecap:butt;stroke-linejoin:miter;stroke-opacity:1" />
    <path
       sodipodi:nodetypes="ccccc"
       inkscape:connector-curvature="0"
       id="path843"
       d="m -117.66978,189.94947 -0.0433,-11.21881 c 0.64817,0.81892 1.91472,0.81257 2.55563,0 v 11.21881 z"
       style="fill:none;stroke:#000000;stroke-width:0.26458332px;stroke-linecap:butt;stroke-linejoin:miter;stroke-opacity:1" />
    <path
       style="fill:none;stroke:#000000;stroke-width:0.26458332px;stroke-linecap:butt;stroke-linejoin:miter;stroke-opacity:1"
       d="m -117.66978,178.05146 -0.0433,-8.27332 c 0.64817,0.81892 1.91472,0.81257 2.55563,0 v 8.27332 c -0.68343,1.10772 -1.89557,1.07649 -2.51232,0 z"
       id="path845"
       inkscape:connector-curvature="0"
       sodipodi:nodetypes="ccccc" />
    <path
       sodipodi:nodetypes="ccccc"
       inkscape:connector-curvature="0"
       id="path847"
       d="m -117.66978,169.07728 -0.0433,-8.65406 h 2.55563 v 8.65406 c -0.68343,1.10772 -1.89557,1.0765 -2.51232,0 z"
       style="fill:none;stroke:#000000;stroke-width:0.26458332px;stroke-linecap:butt;stroke-linejoin:miter;stroke-opacity:1" />
    <path
       style="fill:none;stroke:#000000;stroke-width:0.26458332px;stroke-linecap:butt;stroke-linejoin:miter;stroke-opacity:1"
       d="m -108.71821,181.96683 0.0429,7.98245 h 1.233 v -7.3706 c -0.47623,-5.3e-4 -0.95285,-0.20372 -1.27589,-0.61185 z"
       id="path849"
       inkscape:connector-curvature="0" />
    <path
       style="fill:none;stroke:#000000;stroke-width:0.26458332px;stroke-linecap:butt;stroke-linejoin:miter;stroke-opacity:1"
       d="m -108.71821,173.0144 0.0429,8.2734 c 0.30872,0.53884 0.76691,0.81577 1.233,0.81907 v -8.48062 c -0.47623,-5.3e-4 -0.95285,-0.20371 -1.27589,-0.61185 z"
       id="path851"
       inkscape:connector-curvature="0" />
    <path
       style="fill:none;stroke:#000000;stroke-width:0.26458332px;stroke-linecap:butt;stroke-linejoin:miter;stroke-opacity:1"
       d="m -108.71821,160.42344 0.0429,11.89023 c 0.30872,0.53884 0.76691,0.81577 1.233,0.81907 v -12.7093 z"
       id="path853"
       inkscape:connector-curvature="0" />
    <path
       inkscape:connector-curvature="0"
       style="fill:none;stroke:#000000;stroke-width:0.26458332px;stroke-linecap:butt;stroke-linejoin:miter;stroke-opacity:1"
       d="m -119.55217,148.3973 v 12.02614 h -1.12086 l -0.0429,7.98246 c 0.3228,-0.40784 0.79897,-0.61103 1.27486,-0.61185 v 0.4718 c -0.46574,0.004 -0.92348,0.28063 -1.23197,0.81908 l -0.0429,8.27339 c 0.3228,-0.40783 0.79897,-0.61102 1.27486,-0.61185 v 0.49351 c -0.46574,0.004 -0.92348,0.28063 -1.23197,0.81908 l -0.0429,11.89022 h 1.27589 1.27951 v -7.98245 c -0.3215,0.40761 -0.80017,0.61187 -1.27951,0.61133 v -0.47129 c 0.46506,0.003 0.93817,-0.26582 1.27951,-0.81907 v -8.2734 c -0.3215,0.40761 -0.80017,0.61187 -1.27951,0.61133 v -0.49299 c 0.46506,0.003 0.93817,-0.26582 1.27951,-0.81907 v -11.89023 h -1.02423 V 148.3973 h -0.25528 -10e-4 z"
       id="path855" />
    <path
       style="fill:none;fill-opacity:1;stroke:#260704;stroke-width:0.26458332;stroke-linecap:round;stroke-miterlimit:4;stroke-dasharray:none;stroke-dashoffset:0;stroke-opacity:1"
       d="m -131.43827,148.39707 v 53.78919 h 11.9972 10e-4 11.99772 v -53.78919 h -11.99772 -10e-4 z"
       id="rect865"
       inkscape:connector-curvature="0"
       sodipodi:nodetypes="ccccccccc" />
    <path
       sodipodi:nodetypes="ccccc"
       inkscape:connector-curvature="0"
       id="path897"
       d="m -123.6849,160.42322 -0.0433,11.21881 c 0.64816,-0.81892 1.91471,-0.81257 2.55563,0 v -11.21881 z"
       style="fill:none;stroke:#000000;stroke-width:0.26458332px;stroke-linecap:butt;stroke-linejoin:miter;stroke-opacity:1" />
    <path
       style="fill:none;stroke:#000000;stroke-width:0.26458332px;stroke-linecap:butt;stroke-linejoin:miter;stroke-opacity:1"
       d="m -123.6849,172.32123 -0.0433,8.27332 c 0.64816,-0.81892 1.91471,-0.81257 2.55563,0 v -8.27332 c -0.68343,-1.10772 -1.89557,-1.07649 -2.51232,0 z"
       id="path899"
       inkscape:connector-curvature="0"
       sodipodi:nodetypes="ccccc" />
    <path
       sodipodi:nodetypes="ccccc"
       inkscape:connector-curvature="0"
       id="path901"
       d="m -123.6849,181.29541 -0.0433,8.65406 h 2.55563 v -8.65406 c -0.68343,-1.10772 -1.89557,-1.0765 -2.51232,0 z"
       style="fill:none;stroke:#000000;stroke-width:0.26458332px;stroke-linecap:butt;stroke-linejoin:miter;stroke-opacity:1" />
    <path
       style="fill:none;stroke:#000000;stroke-width:0.26458332px;stroke-linecap:butt;stroke-linejoin:miter;stroke-opacity:1"
       d="m -126.67612,160.42322 -0.0433,7.98255 c 0.64817,-0.81892 1.91472,-0.81257 2.55563,0 v -7.98255 z"
       id="path903"
       inkscape:connector-curvature="0"
       sodipodi:nodetypes="ccccc" />
    <path
       sodipodi:nodetypes="ccccc"
       inkscape:connector-curvature="0"
       id="path905"
       d="m -126.67612,169.08497 -0.0433,8.27332 c 0.64817,-0.81892 1.91472,-0.81257 2.55563,0 v -8.27332 c -0.68343,-1.10772 -1.89557,-1.07649 -2.51231,0 z"
       style="fill:none;stroke:#000000;stroke-width:0.26458332px;stroke-linecap:butt;stroke-linejoin:miter;stroke-opacity:1" />
    <path
       style="fill:none;stroke:#000000;stroke-width:0.26458332px;stroke-linecap:butt;stroke-linejoin:miter;stroke-opacity:1"
       d="m -126.67612,178.05915 -0.0433,11.89032 h 2.55563 v -11.89032 c -0.68343,-1.10772 -1.89557,-1.0765 -2.51231,0 z"
       id="path907"
       inkscape:connector-curvature="0"
       sodipodi:nodetypes="ccccc" />
    <path
       style="fill:none;stroke:#000000;stroke-width:0.26458332px;stroke-linecap:butt;stroke-linejoin:miter;stroke-opacity:1"
       d="m -129.66735,160.42322 -0.0433,11.21881 c 0.64817,-0.81892 1.91472,-0.81257 2.55564,0 v -11.21881 z"
       id="path909"
       inkscape:connector-curvature="0"
       sodipodi:nodetypes="ccccc" />
    <path
       sodipodi:nodetypes="ccccc"
       inkscape:connector-curvature="0"
       id="path911"
       d="m -129.66735,172.32123 -0.0433,8.27332 c 0.64817,-0.81892 1.91472,-0.81257 2.55564,0 v -8.27332 c -0.68343,-1.10772 -1.89557,-1.07649 -2.51232,0 z"
       style="fill:none;stroke:#000000;stroke-width:0.26458332px;stroke-linecap:butt;stroke-linejoin:miter;stroke-opacity:1" />
    <path
       style="fill:none;stroke:#000000;stroke-width:0.26458332px;stroke-linecap:butt;stroke-linejoin:miter;stroke-opacity:1"
       d="m -129.66735,181.29541 -0.0433,8.65406 h 2.55564 v -8.65406 c -0.68343,-1.10772 -1.89557,-1.0765 -2.51232,0 z"
       id="path913"
       inkscape:connector-curvature="0"
       sodipodi:nodetypes="ccccc" />
    <path
       id="path921"
       d="m -130.15809,168.40586 c -0.32174,-0.4079 -0.80086,-0.61216 -1.28055,-0.61133 v -7.37112 h 1.28055 z"
       style="fill:none;stroke:#000000;stroke-width:0.26458332px;stroke-linecap:butt;stroke-linejoin:miter;stroke-opacity:1"
       inkscape:connector-curvature="0" />
    <path
       id="path923"
       d="m -130.15809,177.35829 c -0.32174,-0.40791 -0.80086,-0.61217 -1.28055,-0.61133 v -8.48114 c 0.4654,-0.004 0.93896,0.26541 1.28055,0.81907 z"
       style="fill:none;stroke:#000000;stroke-width:0.26458332px;stroke-linecap:butt;stroke-linejoin:miter;stroke-opacity:1"
       inkscape:connector-curvature="0" />
    <path
       id="path925"
       d="m -131.43864,189.94925 v -12.7093 c 0.4654,-0.004 0.93896,0.26541 1.28055,0.81907 v 11.89023 z"
       style="fill:none;stroke:#000000;stroke-width:0.26458332px;stroke-linecap:butt;stroke-linejoin:miter;stroke-opacity:1"
       inkscape:connector-curvature="0" />
  </g>
</svg>
