<?xml version="1.0" encoding="UTF-8" standalone="no"?>
<!-- Created with Inkscape (http://www.inkscape.org/) -->

<svg
   xmlns:dc="http://purl.org/dc/elements/1.1/"
   xmlns:cc="http://creativecommons.org/ns#"
   xmlns:rdf="http://www.w3.org/1999/02/22-rdf-syntax-ns#"
   xmlns:svg="http://www.w3.org/2000/svg"
   xmlns="http://www.w3.org/2000/svg"
   xmlns:sodipodi="http://sodipodi.sourceforge.net/DTD/sodipodi-0.dtd"
   xmlns:inkscape="http://www.inkscape.org/namespaces/inkscape"
   width="24.225033mm"
   height="54.053783mm"
   viewBox="0 0 24.225033 54.053783"
   version="1.1"
   id="svg1229"
   inkscape:version="0.92.2 2405546, 2018-03-11"
   sodipodi:docname="arches_3_nonflat.svg">
  <defs
     id="defs1223" />
  <sodipodi:namedview
     id="base"
     pagecolor="#ffffff"
     bordercolor="#666666"
     borderopacity="1.0"
     inkscape:pageopacity="0.0"
     inkscape:pageshadow="2"
     inkscape:zoom="1.979899"
     inkscape:cx="232.55074"
     inkscape:cy="9.8876066"
     inkscape:document-units="mm"
     inkscape:current-layer="layer1"
     showgrid="false"
     fit-margin-top="0"
     fit-margin-left="0"
     fit-margin-right="0"
     fit-margin-bottom="0"
     inkscape:window-width="1920"
     inkscape:window-height="1056"
     inkscape:window-x="1080"
     inkscape:window-y="436"
     inkscape:window-maximized="1" />
  <metadata
     id="metadata1226">
    <rdf:RDF>
      <cc:Work
         rdf:about="">
        <dc:format>image/svg+xml</dc:format>
        <dc:type
           rdf:resource="http://purl.org/dc/dcmitype/StillImage" />
        <dc:title></dc:title>
      </cc:Work>
    </rdf:RDF>
  </metadata>
  <g
     inkscape:label="Calque 1"
     inkscape:groupmode="layer"
     id="layer1"
     transform="translate(202.71976,-117.59412)">
    <path
       style="fill:none;stroke:#000000;stroke-width:0.26458332px;stroke-linecap:butt;stroke-linejoin:miter;stroke-opacity:1"
       d="m -182.87204,142.6698 -0.0433,8.27331 c 0.64817,-0.81891 1.91472,-0.81257 2.55563,0 v -8.27331 c -0.68343,-1.10772 -1.89557,-1.0765 -2.51231,0 z"
       id="path1015"
       inkscape:connector-curvature="0"
       sodipodi:nodetypes="ccccc" />
    <path
       sodipodi:nodetypes="ccccc"
       inkscape:connector-curvature="0"
       id="path1021"
       d="m -185.86327,145.59977 -0.0433,8.24269 c 0.64817,-0.81892 1.91472,-0.81257 2.55563,0 v -8.24269 c -0.68342,-1.10772 -1.89556,-1.07649 -2.51231,0 z"
       style="fill:none;stroke:#000000;stroke-width:0.26458332px;stroke-linecap:butt;stroke-linejoin:miter;stroke-opacity:1" />
    <path
       sodipodi:nodetypes="ccccc"
       inkscape:connector-curvature="0"
       id="path1027"
       d="m -188.8545,142.6698 -0.0433,8.27331 c 0.64817,-0.81891 1.91472,-0.81257 2.55563,0 v -8.27331 c -0.68343,-1.10772 -1.89557,-1.0765 -2.51232,0 z"
       style="fill:none;stroke:#000000;stroke-width:0.26458332px;stroke-linecap:butt;stroke-linejoin:miter;stroke-opacity:1" />
    <path
       sodipodi:nodetypes="ccccc"
       id="path1033"
       d="m -179.90292,153.84245 0.0429,-8.24276 c 0.30871,-0.53884 0.76691,-0.81577 1.233,-0.81907 v 8.44999 c -0.47623,5.2e-4 -0.95286,0.20371 -1.27589,0.61184 z"
       style="fill:none;stroke:#000000;stroke-width:0.26458332px;stroke-linecap:butt;stroke-linejoin:miter;stroke-opacity:1"
       inkscape:connector-curvature="0" />
    <path
       inkscape:connector-curvature="0"
       style="fill:none;stroke:#000000;stroke-width:0.26458332px;stroke-linecap:butt;stroke-linejoin:miter;stroke-opacity:1"
       d="m -190.81196,117.72664 v 12.56461 c -0.19797,0.29571 -0.43608,0.47791 -1.05265,-0.27802 l 0.0429,4.29328 c 0.24781,0.43253 0.59243,0.69343 0.95964,0.78238 v 0.4656 c -0.38021,-0.0634 -0.74159,-0.25685 -1.00253,-0.58652 l 0.0429,8.2429 c 0.24781,0.43253 0.59243,0.69292 0.95964,0.78187 v 0.4656 c -0.38019,-0.0634 -0.74161,-0.25687 -1.00253,-0.58652 l 0.0429,8.2429 c 0.2478,0.43251 0.59244,0.6929 0.95964,0.78187 v 0.4656 c -0.38019,-0.0634 -0.74161,-0.25686 -1.00253,-0.58652 l 0.0429,5.4746 c 1.59585,2.18752 1.07041,-1.18349 2.47634,0.54673 v -4.29327 c -0.26853,-0.43524 -0.61882,-0.69209 -0.98237,-0.78135 v -0.46302 c 0.37423,0.0669 0.72763,0.25994 0.98237,0.58291 v -8.24291 c -0.26851,-0.4352 -0.61884,-0.69156 -0.98237,-0.78083 v -0.46302 c 0.37423,0.0669 0.72763,0.25995 0.98237,0.58291 v -8.24291 c -0.26853,-0.43523 -0.61882,-0.69209 -0.98237,-0.78135 v -0.4625 c 0.37423,0.0669 0.72763,0.25995 0.98237,0.58291 v -5.4746 c -0.58134,-0.75717 -0.8881,-0.85543 -1.09864,-0.72967 v -12.10366 h -0.1447 -0.0367 z"
       id="path1039" />
    <path
       style="fill:none;fill-opacity:1;stroke:#260704;stroke-width:0.26458332;stroke-linecap:round;stroke-miterlimit:4;stroke-dasharray:none;stroke-dashoffset:0;stroke-opacity:1"
       d="m -202.58747,117.72641 v 53.7892 h 11.96206 0.0367 11.96155 v -53.7892 h -11.96155 -0.0367 z"
       id="rect1043"
       inkscape:connector-curvature="0"
       sodipodi:nodetypes="ccccccccc" />
    <path
       sodipodi:nodetypes="ccccc"
       inkscape:connector-curvature="0"
       id="path1045"
       d="m -182.87204,133.70459 -0.0433,8.27332 c 0.64817,-0.81892 1.91472,-0.81257 2.55563,0 v -8.27332 c -0.68343,-1.10772 -1.89557,-1.07649 -2.51231,0 z"
       style="fill:none;stroke:#000000;stroke-width:0.26458332px;stroke-linecap:butt;stroke-linejoin:miter;stroke-opacity:1" />
    <path
       style="fill:none;stroke:#000000;stroke-width:0.26458332px;stroke-linecap:butt;stroke-linejoin:miter;stroke-opacity:1"
       d="m -188.8545,133.70459 -0.0433,8.27332 c 0.64817,-0.81892 1.91472,-0.81257 2.55563,0 v -8.27332 c -0.68343,-1.10772 -1.89557,-1.07649 -2.51232,0 z"
       id="path1047"
       inkscape:connector-curvature="0"
       sodipodi:nodetypes="ccccc" />
    <path
       style="fill:none;stroke:#000000;stroke-width:0.26458332px;stroke-linecap:butt;stroke-linejoin:miter;stroke-opacity:1"
       d="m -185.86327,136.69582 -0.0433,8.24269 c 0.64817,-0.81892 1.91472,-0.81257 2.55563,0 v -8.24269 c -0.68342,-1.10772 -1.89556,-1.07649 -2.51231,0 z"
       id="path1049"
       inkscape:connector-curvature="0"
       sodipodi:nodetypes="ccccc" />
    <path
       inkscape:connector-curvature="0"
       style="fill:none;stroke:#000000;stroke-width:0.26458332px;stroke-linecap:butt;stroke-linejoin:miter;stroke-opacity:1"
       d="m -179.90292,144.93851 0.0429,-8.24277 c 0.30871,-0.53884 0.76691,-0.81576 1.233,-0.81907 v 8.44999 c -0.47623,5.3e-4 -0.95286,0.20371 -1.27589,0.61185 z"
       id="path1051"
       sodipodi:nodetypes="ccccc" />
    <path
       sodipodi:nodetypes="ccccc"
       inkscape:connector-curvature="0"
       id="path1063"
       d="m -182.87204,151.57375 -0.0433,7.24561 c 0.64817,-0.81892 1.91472,-0.81257 2.55563,0 v -7.24561 c -0.68343,-1.10773 -1.89557,-1.0765 -2.51231,0 z"
       style="fill:none;stroke:#000000;stroke-width:0.26458332px;stroke-linecap:butt;stroke-linejoin:miter;stroke-opacity:1" />
    <path
       style="fill:none;stroke:#000000;stroke-width:0.26458332px;stroke-linecap:butt;stroke-linejoin:miter;stroke-opacity:1"
       d="m -185.86327,154.50372 -0.0433,4.29349 c 0.64817,-0.81892 1.91472,-0.81257 2.55563,0 v -4.29349 c -0.68342,-1.10772 -1.89556,-1.07649 -2.51231,0 z"
       id="path1065"
       inkscape:connector-curvature="0"
       sodipodi:nodetypes="ccccc" />
    <path
       style="fill:none;stroke:#000000;stroke-width:0.26458332px;stroke-linecap:butt;stroke-linejoin:miter;stroke-opacity:1"
       d="m -188.8545,151.57375 -0.0433,7.24561 c 0.64817,-0.81892 1.91472,-0.81257 2.55563,0 v -7.24561 c -0.68343,-1.10773 -1.89557,-1.0765 -2.51232,0 z"
       id="path1067"
       inkscape:connector-curvature="0"
       sodipodi:nodetypes="ccccc" />
    <path
       inkscape:connector-curvature="0"
       style="fill:none;stroke:#000000;stroke-width:0.26458332px;stroke-linecap:butt;stroke-linejoin:miter;stroke-opacity:1"
       d="m -179.90292,158.79721 0.0429,-4.29357 c 0.30871,-0.53884 0.76691,-0.81577 1.233,-0.81907 v 4.50079 c -0.47623,5.3e-4 -0.95286,0.20371 -1.27589,0.61185 z"
       id="path1069"
       sodipodi:nodetypes="ccccc" />
    <path
       style="fill:none;stroke:#000000;stroke-width:0.26458332px;stroke-linecap:butt;stroke-linejoin:miter;stroke-opacity:1"
       d="m -182.87204,130.56022 -0.0433,2.51374 c 0.64817,-0.81892 1.91472,-0.81257 2.55563,0 v -2.51374 c -0.68343,-1.10772 -1.89557,-1.07649 -2.51231,0 z"
       id="path1073"
       inkscape:connector-curvature="0"
       sodipodi:nodetypes="ccccc" />
    <path
       sodipodi:nodetypes="ccccc"
       inkscape:connector-curvature="0"
       id="path1075"
       d="m -188.8545,130.56022 -0.0433,2.51374 c 0.64817,-0.81892 1.91472,-0.81257 2.55563,0 v -2.51374 c -0.68343,-1.10772 -1.89557,-1.07649 -2.51232,0 z"
       style="fill:none;stroke:#000000;stroke-width:0.26458332px;stroke-linecap:butt;stroke-linejoin:miter;stroke-opacity:1" />
    <path
       sodipodi:nodetypes="ccccc"
       inkscape:connector-curvature="0"
       id="path1077"
       d="m -185.86327,130.56023 -0.0433,5.47433 c 0.64817,-0.81891 1.91472,-0.81257 2.55563,0 v -5.47433 c -0.68342,-1.10772 -1.89556,-1.0765 -2.51231,0 z"
       style="fill:none;stroke:#000000;stroke-width:0.26458332px;stroke-linecap:butt;stroke-linejoin:miter;stroke-opacity:1" />
    <path
       sodipodi:nodetypes="ccccc"
       id="path1079"
       d="m -179.90292,136.03456 0.0429,-5.47441 c 0.30871,-0.53884 0.76691,-0.81577 1.233,-0.81908 v 5.68164 c -0.47623,5.3e-4 -0.95286,0.20372 -1.27589,0.61185 z"
       style="fill:none;stroke:#000000;stroke-width:0.26458332px;stroke-linecap:butt;stroke-linejoin:miter;stroke-opacity:1"
       inkscape:connector-curvature="0" />
    <path
       sodipodi:nodetypes="ccccc"
       inkscape:connector-curvature="0"
       id="path1083"
       d="m -194.83373,146.1406 -0.0433,-8.27332 c 0.64816,0.81892 1.91471,0.81257 2.55563,0 v 8.27332 c -0.68343,1.10772 -1.89557,1.07649 -2.51232,0 z"
       style="fill:none;stroke:#000000;stroke-width:0.26458332px;stroke-linecap:butt;stroke-linejoin:miter;stroke-opacity:1" />
    <path
       style="fill:none;stroke:#000000;stroke-width:0.26458332px;stroke-linecap:butt;stroke-linejoin:miter;stroke-opacity:1"
       d="m -197.82496,143.21063 -0.0433,-8.24269 c 0.64817,0.81892 1.91472,0.81257 2.55563,0 v 8.24269 c -0.68343,1.10772 -1.89557,1.07649 -2.51232,0 z"
       id="path1085"
       inkscape:connector-curvature="0"
       sodipodi:nodetypes="ccccc" />
    <path
       style="fill:none;stroke:#000000;stroke-width:0.26458332px;stroke-linecap:butt;stroke-linejoin:miter;stroke-opacity:1"
       d="m -200.81618,146.1406 -0.0433,-8.27332 c 0.64817,0.81892 1.91472,0.81257 2.55563,0 v 8.27332 c -0.68343,1.10772 -1.89556,1.07649 -2.51231,0 z"
       id="path1087"
       inkscape:connector-curvature="0"
       sodipodi:nodetypes="ccccc" />
    <path
       inkscape:connector-curvature="0"
       style="fill:none;stroke:#000000;stroke-width:0.26458332px;stroke-linecap:butt;stroke-linejoin:miter;stroke-opacity:1"
       d="m -201.30692,134.96794 c -0.32174,0.40791 -0.80087,0.61217 -1.28055,0.61133 v 8.45051 c 0.46539,0.004 0.93896,-0.26542 1.28055,-0.81907 z"
       id="path1091"
       sodipodi:nodetypes="ccccc" />
    <path
       style="fill:none;stroke:#000000;stroke-width:0.26458332px;stroke-linecap:butt;stroke-linejoin:miter;stroke-opacity:1"
       d="m -194.83373,155.10581 -0.0433,-8.27332 c 0.64816,0.81892 1.91471,0.81257 2.55563,0 v 8.27332 c -0.68343,1.10772 -1.89557,1.07649 -2.51232,0 z"
       id="path1095"
       inkscape:connector-curvature="0"
       sodipodi:nodetypes="ccccc" />
    <path
       sodipodi:nodetypes="ccccc"
       inkscape:connector-curvature="0"
       id="path1097"
       d="m -200.81618,155.10581 -0.0433,-8.27332 c 0.64817,0.81892 1.91472,0.81257 2.55563,0 v 8.27332 c -0.68343,1.10772 -1.89556,1.07649 -2.51231,0 z"
       style="fill:none;stroke:#000000;stroke-width:0.26458332px;stroke-linecap:butt;stroke-linejoin:miter;stroke-opacity:1" />
    <path
       sodipodi:nodetypes="ccccc"
       inkscape:connector-curvature="0"
       id="path1099"
       d="m -197.82496,152.11457 -0.0433,-8.24268 c 0.64817,0.81892 1.91472,0.81257 2.55563,0 v 8.24268 c -0.68343,1.10773 -1.89557,1.0765 -2.51232,0 z"
       style="fill:none;stroke:#000000;stroke-width:0.26458332px;stroke-linecap:butt;stroke-linejoin:miter;stroke-opacity:1" />
    <path
       sodipodi:nodetypes="ccccc"
       id="path1103"
       d="m -201.30692,143.87189 c -0.32174,0.4079 -0.80087,0.61216 -1.28055,0.61133 v 8.45051 c 0.46539,0.004 0.93896,-0.26542 1.28055,-0.81907 z"
       style="fill:none;stroke:#000000;stroke-width:0.26458332px;stroke-linecap:butt;stroke-linejoin:miter;stroke-opacity:1"
       inkscape:connector-curvature="0" />
    <path
       style="fill:none;stroke:#000000;stroke-width:0.26458332px;stroke-linecap:butt;stroke-linejoin:miter;stroke-opacity:1"
       d="m -194.83373,137.23665 -0.0433,-7.24561 c 0.64816,0.81892 1.91471,0.81257 2.55563,0 v 7.24561 c -0.68343,1.10772 -1.89557,1.0765 -2.51232,0 z"
       id="path1105"
       inkscape:connector-curvature="0"
       sodipodi:nodetypes="ccccc" />
    <path
       sodipodi:nodetypes="ccccc"
       inkscape:connector-curvature="0"
       id="path1107"
       d="m -197.82496,134.30668 -0.0433,-4.29349 c 0.64817,0.81892 1.91472,0.81257 2.55563,0 v 4.29349 c -0.68343,1.10772 -1.89557,1.07649 -2.51232,0 z"
       style="fill:none;stroke:#000000;stroke-width:0.26458332px;stroke-linecap:butt;stroke-linejoin:miter;stroke-opacity:1" />
    <path
       sodipodi:nodetypes="ccccc"
       inkscape:connector-curvature="0"
       id="path1109"
       d="m -200.81618,137.23665 -0.0433,-7.24561 c 0.64817,0.81892 1.91472,0.81257 2.55563,0 v 7.24561 c -0.68343,1.10772 -1.89556,1.0765 -2.51231,0 z"
       style="fill:none;stroke:#000000;stroke-width:0.26458332px;stroke-linecap:butt;stroke-linejoin:miter;stroke-opacity:1" />
    <path
       sodipodi:nodetypes="ccccc"
       id="path1113"
       d="m -201.30692,130.01319 c -0.32174,0.4079 -0.80087,0.61217 -1.28055,0.61133 v 4.50131 c 0.46539,0.004 0.93896,-0.26541 1.28055,-0.81907 z"
       style="fill:none;stroke:#000000;stroke-width:0.26458332px;stroke-linecap:butt;stroke-linejoin:miter;stroke-opacity:1"
       inkscape:connector-curvature="0" />
    <path
       sodipodi:nodetypes="ccccc"
       inkscape:connector-curvature="0"
       id="path1115"
       d="m -194.83373,158.25018 -0.0433,-2.51374 c 0.64816,0.81891 1.91471,0.81257 2.55563,0 v 2.51374 c -0.68343,1.10772 -1.89557,1.07649 -2.51232,0 z"
       style="fill:none;stroke:#000000;stroke-width:0.26458332px;stroke-linecap:butt;stroke-linejoin:miter;stroke-opacity:1" />
    <path
       style="fill:none;stroke:#000000;stroke-width:0.26458332px;stroke-linecap:butt;stroke-linejoin:miter;stroke-opacity:1"
       d="m -200.81618,158.25018 -0.0433,-2.51374 c 0.64817,0.81891 1.91472,0.81257 2.55563,0 v 2.51374 c -0.68343,1.10772 -1.89556,1.07649 -2.51231,0 z"
       id="path1117"
       inkscape:connector-curvature="0"
       sodipodi:nodetypes="ccccc" />
    <path
       style="fill:none;stroke:#000000;stroke-width:0.26458332px;stroke-linecap:butt;stroke-linejoin:miter;stroke-opacity:1"
       d="m -197.82496,158.25017 -0.0433,-5.47433 c 0.64817,0.81891 1.91472,0.81257 2.55563,0 v 5.47433 c -0.68343,1.10772 -1.89557,1.0765 -2.51232,0 z"
       id="path1119"
       inkscape:connector-curvature="0"
       sodipodi:nodetypes="ccccc" />
    <path
       inkscape:connector-curvature="0"
       style="fill:none;stroke:#000000;stroke-width:0.26458332px;stroke-linecap:butt;stroke-linejoin:miter;stroke-opacity:1"
       d="m -201.30692,152.77584 c -0.32174,0.4079 -0.80087,0.61216 -1.28055,0.61133 v 5.68215 c 0.46539,0.004 0.93896,-0.26541 1.28055,-0.81907 z"
       id="path1123"
       sodipodi:nodetypes="ccccc" />
  </g>
</svg>
