<?xml version="1.0" encoding="UTF-8" standalone="no"?>
<!-- Created with Inkscape (http://www.inkscape.org/) -->

<svg
   xmlns:dc="http://purl.org/dc/elements/1.1/"
   xmlns:cc="http://creativecommons.org/ns#"
   xmlns:rdf="http://www.w3.org/1999/02/22-rdf-syntax-ns#"
   xmlns:svg="http://www.w3.org/2000/svg"
   xmlns="http://www.w3.org/2000/svg"
   xmlns:sodipodi="http://sodipodi.sourceforge.net/DTD/sodipodi-0.dtd"
   xmlns:inkscape="http://www.inkscape.org/namespaces/inkscape"
   width="58.340622mm"
   height="58.340614mm"
   viewBox="0 0 58.340622 58.340614"
   version="1.1"
   id="svg8"
   sodipodi:docname="simple_pattern.svg"
   inkscape:version="0.92.3 (2405546, 2018-03-11)">
  <defs
     id="defs2" />
  <sodipodi:namedview
     id="base"
     pagecolor="#ffffff"
     bordercolor="#666666"
     borderopacity="1.0"
     inkscape:pageopacity="0.0"
     inkscape:pageshadow="2"
     inkscape:zoom="2.8"
     inkscape:cx="89.281176"
     inkscape:cy="98.435121"
     inkscape:document-units="mm"
     inkscape:current-layer="layer1"
     showgrid="true"
     inkscape:window-width="1920"
     inkscape:window-height="1023"
     inkscape:window-x="0"
     inkscape:window-y="0"
     inkscape:window-maximized="1"
     fit-margin-top="0"
     fit-margin-left="0"
     fit-margin-right="0"
     fit-margin-bottom="0">
    <inkscape:grid
       type="xygrid"
       id="grid815"
       originx="-116.28438"
       originy="-333.24277" />
  </sodipodi:namedview>
  <metadata
     id="metadata5">
    <rdf:RDF>
      <cc:Work
         rdf:about="">
        <dc:format>image/svg+xml</dc:format>
        <dc:type
           rdf:resource="http://purl.org/dc/dcmitype/StillImage" />
        <dc:title></dc:title>
      </cc:Work>
    </rdf:RDF>
  </metadata>
  <g
     inkscape:label="Calque 1"
     inkscape:groupmode="layer"
     id="layer1"
     transform="translate(-58.142185,-72.038021)">
    <path
       style="opacity:1;vector-effect:none;fill:#95b4f2;fill-opacity:1;stroke:#005c9f;stroke-width:0.49999997;stroke-linecap:round;stroke-linejoin:bevel;stroke-miterlimit:4;stroke-dasharray:none;stroke-dashoffset:0;stroke-opacity:1"
       d="M 110.25 0.25 A 9.9999997 9.9999997 0 0 0 100.5 8.0664062 A 102.67189 102.67189 0 0 0 44.671875 31.292969 A 9.9999997 9.9999997 0 0 0 40.25 30.25 A 9.9999997 9.9999997 0 0 0 30.25 40.25 A 9.9999997 9.9999997 0 0 0 31.314453 44.732422 A 102.67189 102.67189 0 0 0 8.1386719 100.48828 A 9.9999997 9.9999997 0 0 0 0.25 110.25 A 9.9999997 9.9999997 0 0 0 8.0664062 120 A 102.67189 102.67189 0 0 0 31.292969 175.82812 A 9.9999997 9.9999997 0 0 0 30.25 180.25 A 9.9999997 9.9999997 0 0 0 40.25 190.25 A 9.9999997 9.9999997 0 0 0 44.732422 189.18555 A 102.67189 102.67189 0 0 0 100.48828 212.36133 A 9.9999997 9.9999997 0 0 0 110.25 220.25 A 9.9999997 9.9999997 0 0 0 120 212.43359 A 102.67189 102.67189 0 0 0 175.82812 189.20703 A 9.9999997 9.9999997 0 0 0 180.25 190.25 A 9.9999997 9.9999997 0 0 0 190.25 180.25 A 9.9999997 9.9999997 0 0 0 189.18555 175.76758 A 102.67189 102.67189 0 0 0 212.31641 120.37891 A 9.9999997 9.9999997 0 0 0 220.25 110.60742 A 9.9999997 9.9999997 0 0 0 212.45117 100.86133 A 102.67189 102.67189 0 0 0 189.20703 44.671875 A 9.9999997 9.9999997 0 0 0 190.25 40.25 A 9.9999997 9.9999997 0 0 0 180.25 30.25 A 9.9999997 9.9999997 0 0 0 175.76758 31.314453 A 102.67189 102.67189 0 0 0 120.01172 8.1386719 A 9.9999997 9.9999997 0 0 0 110.25 0.25 z M 119.88867 12.869141 A 97.862483 97.862483 0 0 1 172.08984 34.482422 A 9.9999997 9.9999997 0 0 0 170.25 40.25 A 9.9999997 9.9999997 0 0 0 171.43555 44.957031 L 164.65625 51.736328 A 79.999998 79.999998 0 0 0 112.96484 30.386719 L 112.96484 19.871094 A 9.9999997 9.9999997 0 0 0 119.88867 12.869141 z M 100.62695 12.958984 A 9.9999997 9.9999997 0 0 0 107.96484 19.974609 L 107.96484 30.332031 A 79.999998 79.999998 0 0 0 55.363281 52.113281 L 48.748047 45.498047 A 9.9999997 9.9999997 0 0 0 50.25 40.25 A 9.9999997 9.9999997 0 0 0 48.402344 34.480469 A 97.862483 97.862483 0 0 1 100.62695 12.958984 z M 186.01953 48.402344 A 97.862483 97.862483 0 0 1 207.58203 100.96875 A 9.9999997 9.9999997 0 0 0 200.54492 108.25 L 190.17969 108.25 A 79.999998 79.999998 0 0 0 168.25195 55.212891 L 174.82422 48.640625 A 9.9999997 9.9999997 0 0 0 180.25 50.25 A 9.9999997 9.9999997 0 0 0 186.01953 48.402344 z M 34.482422 48.410156 A 9.9999997 9.9999997 0 0 0 40.25 50.25 A 9.9999997 9.9999997 0 0 0 45.136719 48.958984 L 51.873047 55.695312 A 79.999998 79.999998 0 0 0 30.349609 108.25 L 20.037109 108.25 A 9.9999997 9.9999997 0 0 0 12.869141 100.61133 A 97.862483 97.862483 0 0 1 34.482422 48.410156 z M 19.787109 113.25 L 30.357422 113.25 A 79.999998 79.999998 0 0 0 51.712891 164.67969 L 44.958984 171.43359 A 9.9999997 9.9999997 0 0 0 40.25 170.25 A 9.9999997 9.9999997 0 0 0 34.480469 172.09766 A 97.862483 97.862483 0 0 1 12.960938 119.87305 A 9.9999997 9.9999997 0 0 0 19.787109 113.25 z M 190.09961 113.25 L 200.60742 113.25 A 9.9999997 9.9999997 0 0 0 207.5918 120.23633 A 97.862483 97.862483 0 0 1 186.01758 172.08984 A 9.9999997 9.9999997 0 0 0 180.25 170.25 A 9.9999997 9.9999997 0 0 0 174.99805 171.74805 L 168.35156 165.10156 A 79.999998 79.999998 0 0 0 190.09961 113.25 z M 55.251953 168.21289 A 79.999998 79.999998 0 0 0 107.96484 190.13477 L 107.96484 200.52734 A 9.9999997 9.9999997 0 0 0 100.61133 207.63086 A 97.862483 97.862483 0 0 1 48.412109 186.01758 A 9.9999997 9.9999997 0 0 0 50.25 180.25 A 9.9999997 9.9999997 0 0 0 48.644531 174.82031 L 55.251953 168.21289 z M 164.83203 168.6543 L 171.53516 175.35742 A 9.9999997 9.9999997 0 0 0 170.25 180.25 A 9.9999997 9.9999997 0 0 0 172.09766 186.01953 A 97.862483 97.862483 0 0 1 119.87305 207.53906 A 9.9999997 9.9999997 0 0 0 112.96484 200.63672 L 112.96484 190.1543 A 79.999998 79.999998 0 0 0 164.83203 168.6543 z "
       transform="matrix(0.26458333,0,0,0.26458333,58.142185,72.038021)"
       id="rect852" />
  </g>
</svg>
