<?xml version="1.0" encoding="UTF-8" standalone="no"?>
<!-- Created with Inkscape (http://www.inkscape.org/) -->

<svg
   xmlns:dc="http://purl.org/dc/elements/1.1/"
   xmlns:cc="http://creativecommons.org/ns#"
   xmlns:rdf="http://www.w3.org/1999/02/22-rdf-syntax-ns#"
   xmlns:svg="http://www.w3.org/2000/svg"
   xmlns="http://www.w3.org/2000/svg"
   xmlns:sodipodi="http://sodipodi.sourceforge.net/DTD/sodipodi-0.dtd"
   xmlns:inkscape="http://www.inkscape.org/namespaces/inkscape"
   width="69.188538mm"
   height="73.519371mm"
   viewBox="0 0 69.188538 73.519371"
   version="1.1"
   id="svg8"
   inkscape:version="0.92.3 (d244b95, 2018-08-02)"
   sodipodi:docname="mask_high_3.svg">
  <defs
     id="defs2" />
  <sodipodi:namedview
     id="base"
     pagecolor="#ffffff"
     bordercolor="#666666"
     borderopacity="1.0"
     inkscape:pageopacity="0.0"
     inkscape:pageshadow="2"
     inkscape:zoom="1.979899"
     inkscape:cx="129.35872"
     inkscape:cy="67.771939"
     inkscape:document-units="mm"
     inkscape:current-layer="layer1"
     showgrid="true"
     fit-margin-top="0"
     fit-margin-left="0"
     fit-margin-right="0"
     fit-margin-bottom="0"
     inkscape:window-width="1080"
     inkscape:window-height="1896"
     inkscape:window-x="0"
     inkscape:window-y="0"
     inkscape:window-maximized="1">
    <inkscape:grid
       type="xygrid"
       id="grid4504"
       originx="-58.009898"
       originy="-170.14447" />
  </sodipodi:namedview>
  <metadata
     id="metadata5">
    <rdf:RDF>
      <cc:Work
         rdf:about="">
        <dc:format>image/svg+xml</dc:format>
        <dc:type
           rdf:resource="http://purl.org/dc/dcmitype/StillImage" />
        <dc:title />
      </cc:Work>
    </rdf:RDF>
  </metadata>
  <g
     inkscape:label="Calque 1"
     inkscape:groupmode="layer"
     id="layer1"
     transform="translate(-58.009895,-53.336145)">
    <path
       style="fill:#ff0000;stroke:#000000;stroke-width:0.26458332px;stroke-linecap:butt;stroke-linejoin:miter;stroke-opacity:1"
       d="M 84.666665,57.942228 A 34.395833,34.395833 0 0 0 68.791666,68.665087 v 3.439067 h 7.9375 v 7.9375 h -7.9375 -6.248198 a 34.395833,34.395833 0 0 0 -1.556494,7.937499 h 7.804692 v 7.9375 h 7.9375 v -7.9375 h 7.937499 V 72.104154 h 7.9375 v -7.9375 h -7.9375 z"
       id="path4508"
       inkscape:connector-curvature="0" />
    <path
       style="fill:#ff0000;stroke:#000000;stroke-width:0.26458332px;stroke-linecap:butt;stroke-linejoin:miter;stroke-opacity:1"
       d="m 113.77085,61.684635 v 5.127852 h -7.9375 v 7.9375 h -7.937518 v 7.937499 h -7.9375 v 7.9375 h 15.875018 v -7.9375 h 7.9375 v 15.875 h -7.9375 v 7.937504 h 7.9375 7.9375 V 90.624986 77.39582 72.104154 68.692476 a 34.395833,34.395833 0 0 0 -7.9375,-7.007841 z"
       id="path4510"
       inkscape:connector-curvature="0" />
    <path
       style="fill:#ff0000;stroke:#000000;stroke-width:0.26458332px;stroke-linecap:butt;stroke-linejoin:miter;stroke-opacity:1"
       d="m 82.020832,97.504153 v 7.937497 h -7.9375 v 7.9375 h 7.9375 v 8.98705 a 34.395833,34.395833 0 0 0 7.9375,2.20245 v -3.252 h 15.875018 v -7.9375 h -7.937518 v -7.9375 h -7.9375 v -7.937497 z"
       id="path4512"
       inkscape:connector-curvature="0" />
  </g>
</svg>
