<?xml version="1.0" encoding="UTF-8" standalone="no"?>
<!-- Created with Inkscape (http://www.inkscape.org/) -->

<svg
   xmlns:dc="http://purl.org/dc/elements/1.1/"
   xmlns:cc="http://creativecommons.org/ns#"
   xmlns:rdf="http://www.w3.org/1999/02/22-rdf-syntax-ns#"
   xmlns:svg="http://www.w3.org/2000/svg"
   xmlns="http://www.w3.org/2000/svg"
   xmlns:sodipodi="http://sodipodi.sourceforge.net/DTD/sodipodi-0.dtd"
   xmlns:inkscape="http://www.inkscape.org/namespaces/inkscape"
   width="210mm"
   height="297mm"
   viewBox="0 0 210 297"
   version="1.1"
   id="svg6551"
   sodipodi:docname="angles50.svg"
   inkscape:version="0.92.4 5da689c313, 2019-01-14">
  <defs
     id="defs6545" />
  <sodipodi:namedview
     id="base"
     pagecolor="#ffffff"
     bordercolor="#666666"
     borderopacity="1.0"
     inkscape:pageopacity="0.0"
     inkscape:pageshadow="2"
     inkscape:zoom="4"
     inkscape:cx="296.88897"
     inkscape:cy="574.82145"
     inkscape:document-units="mm"
     inkscape:current-layer="layer1"
     showgrid="false"
     inkscape:window-width="1920"
     inkscape:window-height="1015"
     inkscape:window-x="0"
     inkscape:window-y="0"
     inkscape:window-maximized="1" />
  <metadata
     id="metadata6548">
    <rdf:RDF>
      <cc:Work
         rdf:about="">
        <dc:format>image/svg+xml</dc:format>
        <dc:type
           rdf:resource="http://purl.org/dc/dcmitype/StillImage" />
        <dc:title />
      </cc:Work>
    </rdf:RDF>
  </metadata>
  <g
     inkscape:label="Layer 1"
     inkscape:groupmode="layer"
     id="layer1">
    <path
       id="path8"
       style="fill:none;fill-opacity:0.99215686;stroke:#1a1a1a;stroke-width:0.155;stroke-linecap:round;stroke-linejoin:round;stroke-miterlimit:4;stroke-dasharray:none;stroke-opacity:0.99215686;paint-order:stroke fill markers"
       d="m 134.15291,161.49571 a 5.1620331,5.1620331 0 0 1 -0.62901,-7.26011 5.1620331,5.1620331 0 0 1 7.25784,-0.65466 l -3.30044,3.96909 z m -2.02067,48.77672 c -1.62472,13.28282 -8.58282,19.53837 -16.71629,33.69154 -4.43807,7.72273 -8.65012,13.82703 -8.65012,22.68651 0,17.71894 13.22281,32.08243 29.5336,32.08243 16.31078,0 29.53307,-14.3635 29.53308,-32.08244 0,-8.85947 -4.80273,-16.2013 -8.65012,-22.6865 -8.94612,-15.07967 -12.83925,-18.93349 -15.51223,-33.78948 -1.88341,-14.45764 -4.10894,-26.86796 -3.96804,-45.37481 l 96.90693,-0.42373 c 0.40345,-0.002 0.72863,-0.3511 0.72862,-0.78743 l 2e-5,-149.043505 c 0,-0.436319 -0.32519,-0.787978 -0.72864,-0.787979 l -196.618863,1e-5 c -0.403452,-5e-6 -0.728638,0.351665 -0.728637,0.787972 l -10e-7,149.043522 c 6e-6,0.43631 0.325211,0.79192 0.728635,0.78742 0,0 95.167676,0.41016 99.377176,0.41016 -0.025,21.03687 -3.2397,32.18176 -5.23512,45.48631 z"
       inkscape:connector-curvature="0" />
  </g>
</svg>
