  0
SECTION
  2
HEADER
  9
$ACADVER
  1
AC1009
  9
$INSBASE
 10
0.0
 20
0.0
 30
0.0
  9
$EXTMIN
 10
0.0
 20
0.0
 30
0.0
  9
$EXTMAX
 10
0.0
 20
0.0
 30
0.0
  0
ENDSEC
  0
SECTION
  2
TABLES
  0
TABLE
  2
VPORT
 70
0
  0
ENDTAB
  0
TABLE
  2
LTYPE
 70
1
  0
LTYPE
  2
CONTINUOUS
 70
0
  3
Solid line
 72
65
 73
0
 40
0.0
  0
ENDTAB
  0
TABLE
  2
LAYER
 70
1
  0
LAYER
  2
0
 70
64
 62
7
  6
continuous
  0
ENDTAB
  0
TABLE
  2
STYLE
 70
1
  0
STYLE
  2
STANDARD
 70
0
 40
0
 41
1.0
 50
0.0
 71
0
 42
1
 3
ARIAL.TTF
 4

  0
ENDTAB
  0
TABLE
  2
VIEW
 70
0
  0
ENDTAB
  0
ENDSEC
  0
SECTION
  2
BLOCKS
  0
ENDSEC
  0
SECTION
  2
ENTITIES
  0
POLYLINE
  8
0
 62
0
 70
0
 66
1
 10
0.0
 20
0.0
 30
0.0
  0
VERTEX
  8
0
 10
117.772239267
 20
-127.001066803
 30
0.0
  0
VERTEX
  8
0
 10
116.633773952
 20
-122.838209516
 30
0.0
  0
VERTEX
  8
0
 10
112.91812342
 20
-119.527666562
 30
0.0
  0
VERTEX
  8
0
 10
108.122916747
 20
-118.954010536
 30
0.0
  0
VERTEX
  8
0
 10
104.396696328
 20
-120.682761362
 30
0.0
  0
VERTEX
  8
0
 10
101.807881566
 20
-124.48733238
 30
0.0
  0
VERTEX
  8
0
 10
101.807881566
 20
-129.514801226
 30
0.0
  0
VERTEX
  8
0
 10
104.396696328
 20
-133.319372244
 30
0.0
  0
VERTEX
  8
0
 10
108.122916747
 20
-135.04812307
 30
0.0
  0
VERTEX
  8
0
 10
112.91812342
 20
-134.474467044
 30
0.0
  0
VERTEX
  8
0
 10
116.633773952
 20
-131.163924089
 30
0.0
  0
VERTEX
  8
0
 10
117.772239267
 20
-127.001066803
 30
0.0
  0
SEQEND
  8
0
  0
POLYLINE
  8
0
 62
0
 70
1
 66
1
 10
0.0
 20
0.0
 30
0.0
  0
VERTEX
  8
0
 10
104.168707644
 20
-31.8070455785
 30
0.0
  0
VERTEX
  8
0
 10
99.3370364828
 20
-32.5991223771
 30
0.0
  0
VERTEX
  8
0
 10
94.5053653214
 20
-33.3911991756
 30
0.0
  0
VERTEX
  8
0
 10
89.6736941599
 20
-34.1832759741
 30
0.0
  0
VERTEX
  8
0
 10
84.8420229984
 20
-34.9753527727
 30
0.0
  0
VERTEX
  8
0
 10
80.0103518369
 20
-35.7674295712
 30
0.0
  0
VERTEX
  8
0
 10
75.1786806755
 20
-36.5595063697
 30
0.0
  0
VERTEX
  8
0
 10
70.347009514
 20
-37.3515831683
 30
0.0
  0
VERTEX
  8
0
 10
65.5153383525
 20
-38.1436599668
 30
0.0
  0
VERTEX
  8
0
 10
60.683667191
 20
-38.9357367653
 30
0.0
  0
VERTEX
  8
0
 10
55.8519960296
 20
-39.7278135639
 30
0.0
  0
VERTEX
  8
0
 10
51.0203248681
 20
-40.5198903624
 30
0.0
  0
VERTEX
  8
0
 10
46.1886537066
 20
-41.311967161
 30
0.0
  0
VERTEX
  8
0
 10
41.3569825451
 20
-42.1040439595
 30
0.0
  0
VERTEX
  8
0
 10
36.5253113837
 20
-42.896120758
 30
0.0
  0
VERTEX
  8
0
 10
31.6936402222
 20
-43.6881975566
 30
0.0
  0
VERTEX
  8
0
 10
31.8633710857
 20
-48.4406611297
 30
0.0
  0
VERTEX
  8
0
 10
32.0331019492
 20
-53.1931247028
 30
0.0
  0
VERTEX
  8
0
 10
32.2028328127
 20
-57.9455882759
 30
0.0
  0
VERTEX
  8
0
 10
32.3725636761
 20
-62.6980518491
 30
0.0
  0
VERTEX
  8
0
 10
32.5422945396
 20
-67.4505154222
 30
0.0
  0
VERTEX
  8
0
 10
32.7120254031
 20
-72.2029789953
 30
0.0
  0
VERTEX
  8
0
 10
32.8817562666
 20
-76.9554425685
 30
0.0
  0
VERTEX
  8
0
 10
33.0514871301
 20
-81.7079061416
 30
0.0
  0
VERTEX
  8
0
 10
33.2212179936
 20
-86.4603697147
 30
0.0
  0
VERTEX
  8
0
 10
33.3909488571
 20
-91.2128332878
 30
0.0
  0
VERTEX
  8
0
 10
33.5606797206
 20
-95.965296861
 30
0.0
  0
VERTEX
  8
0
 10
33.7304105841
 20
-100.717760434
 30
0.0
  0
VERTEX
  8
0
 10
33.9001414476
 20
-105.470224007
 30
0.0
  0
VERTEX
  8
0
 10
34.0698723111
 20
-110.22268758
 30
0.0
  0
VERTEX
  8
0
 10
34.5932189911
 20
-115.182849252
 30
0.0
  0
VERTEX
  8
0
 10
35.1165656711
 20
-120.143010923
 30
0.0
  0
VERTEX
  8
0
 10
35.6399123511
 20
-125.103172594
 30
0.0
  0
VERTEX
  8
0
 10
36.1632590311
 20
-130.063334265
 30
0.0
  0
VERTEX
  8
0
 10
36.6866057111
 20
-135.023495936
 30
0.0
  0
VERTEX
  8
0
 10
37.2099523911
 20
-139.983657608
 30
0.0
  0
VERTEX
  8
0
 10
37.7332990711
 20
-144.943819279
 30
0.0
  0
VERTEX
  8
0
 10
38.2566457511
 20
-149.90398095
 30
0.0
  0
VERTEX
  8
0
 10
38.7799924311
 20
-154.864142621
 30
0.0
  0
VERTEX
  8
0
 10
39.3033391111
 20
-159.824304293
 30
0.0
  0
VERTEX
  8
0
 10
44.2507873968
 20
-160.132020555
 30
0.0
  0
VERTEX
  8
0
 10
49.1982356825
 20
-160.439736818
 30
0.0
  0
VERTEX
  8
0
 10
54.1456839682
 20
-160.747453081
 30
0.0
  0
VERTEX
  8
0
 10
59.0931322539
 20
-161.055169343
 30
0.0
  0
VERTEX
  8
0
 10
64.0405805396
 20
-161.362885606
 30
0.0
  0
VERTEX
  8
0
 10
68.9880288253
 20
-161.670601869
 30
0.0
  0
VERTEX
  8
0
 10
73.935477111
 20
-161.978318132
 30
0.0
  0
VERTEX
  8
0
 10
78.8829253967
 20
-162.286034394
 30
0.0
  0
VERTEX
  8
0
 10
83.8303736824
 20
-162.593750657
 30
0.0
  0
VERTEX
  8
0
 10
88.7778219681
 20
-162.90146692
 30
0.0
  0
VERTEX
  8
0
 10
93.7252702538
 20
-163.209183182
 30
0.0
  0
VERTEX
  8
0
 10
98.6727185395
 20
-163.516899445
 30
0.0
  0
VERTEX
  8
0
 10
103.620166825
 20
-163.824615708
 30
0.0
  0
VERTEX
  8
0
 10
108.567615111
 20
-164.13233197
 30
0.0
  0
VERTEX
  8
0
 10
113.515063397
 20
-164.440048233
 30
0.0
  0
VERTEX
  8
0
 10
118.462511682
 20
-164.747764496
 30
0.0
  0
VERTEX
  8
0
 10
123.409959968
 20
-165.055480759
 30
0.0
  0
VERTEX
  8
0
 10
128.357408254
 20
-165.363197021
 30
0.0
  0
VERTEX
  8
0
 10
133.304856539
 20
-165.670913284
 30
0.0
  0
VERTEX
  8
0
 10
138.252304825
 20
-165.978629547
 30
0.0
  0
VERTEX
  8
0
 10
143.199753111
 20
-166.286345809
 30
0.0
  0
VERTEX
  8
0
 10
148.147201397
 20
-166.594062072
 30
0.0
  0
VERTEX
  8
0
 10
153.094649682
 20
-166.901778335
 30
0.0
  0
VERTEX
  8
0
 10
158.042097968
 20
-167.209494598
 30
0.0
  0
VERTEX
  8
0
 10
162.989546254
 20
-167.51721086
 30
0.0
  0
VERTEX
  8
0
 10
167.936994539
 20
-167.824927123
 30
0.0
  0
VERTEX
  8
0
 10
172.884442825
 20
-168.132643386
 30
0.0
  0
VERTEX
  8
0
 10
177.831891111
 20
-168.440359648
 30
0.0
  0
VERTEX
  8
0
 10
177.379615324
 20
-163.599936117
 30
0.0
  0
VERTEX
  8
0
 10
176.927339538
 20
-158.759512586
 30
0.0
  0
VERTEX
  8
0
 10
176.475063751
 20
-153.919089055
 30
0.0
  0
VERTEX
  8
0
 10
176.022787964
 20
-149.078665523
 30
0.0
  0
VERTEX
  8
0
 10
175.570512178
 20
-144.238241992
 30
0.0
  0
VERTEX
  8
0
 10
175.118236391
 20
-139.397818461
 30
0.0
  0
VERTEX
  8
0
 10
174.665960604
 20
-134.55739493
 30
0.0
  0
VERTEX
  8
0
 10
174.213684818
 20
-129.716971399
 30
0.0
  0
VERTEX
  8
0
 10
173.761409031
 20
-124.876547867
 30
0.0
  0
VERTEX
  8
0
 10
173.309133244
 20
-120.036124336
 30
0.0
  0
VERTEX
  8
0
 10
171.469534011
 20
-115.800591786
 30
0.0
  0
VERTEX
  8
0
 10
169.629934778
 20
-111.565059236
 30
0.0
  0
VERTEX
  8
0
 10
167.790335544
 20
-107.329526686
 30
0.0
  0
VERTEX
  8
0
 10
165.950736311
 20
-103.093994136
 30
0.0
  0
VERTEX
  8
0
 10
164.542593864
 20
-99.9704848053
 30
0.0
  0
VERTEX
  8
0
 10
163.855600375
 20
-96.2900516458
 30
0.0
  0
VERTEX
  8
0
 10
163.755586238
 20
-92.1459624202
 30
0.0
  0
VERTEX
  8
0
 10
164.108381841
 20
-87.6314848917
 30
0.0
  0
VERTEX
  8
0
 10
164.779817577
 20
-82.8398868234
 30
0.0
  0
VERTEX
  8
0
 10
165.635723837
 20
-77.8644359784
 30
0.0
  0
VERTEX
  8
0
 10
166.541931012
 20
-72.7984001199
 30
0.0
  0
VERTEX
  8
0
 10
167.364269492
 20
-67.735047011
 30
0.0
  0
VERTEX
  8
0
 10
167.968569669
 20
-62.7676444147
 30
0.0
  0
VERTEX
  8
0
 10
168.220661935
 20
-57.9894600941
 30
0.0
  0
VERTEX
  8
0
 10
167.986376679
 20
-53.4937618125
 30
0.0
  0
VERTEX
  8
0
 10
167.131544294
 20
-49.373817333
 30
0.0
  0
VERTEX
  8
0
 10
165.521995171
 20
-45.7228944185
 30
0.0
  0
VERTEX
  8
0
 10
163.0235597
 20
-42.6342608323
 30
0.0
  0
VERTEX
  8
0
 10
159.502068272
 20
-40.2011843375
 30
0.0
  0
VERTEX
  8
0
 10
154.82335128
 20
-38.5169326972
 30
0.0
  0
VERTEX
  8
0
 10
148.853239113
 20
-37.6747736744
 30
0.0
  0
VERTEX
  8
0
 10
141.457562163
 20
-37.7679750324
 30
0.0
  0
VERTEX
  8
0
 10
132.502150822
 20
-38.8898045342
 30
0.0
  0
VERTEX
  8
0
 10
127.779910292
 20
-37.7093447083
 30
0.0
  0
VERTEX
  8
0
 10
123.057669763
 20
-36.5288848823
 30
0.0
  0
VERTEX
  8
0
 10
118.335429233
 20
-35.3484250564
 30
0.0
  0
VERTEX
  8
0
 10
113.613188704
 20
-34.1679652304
 30
0.0
  0
VERTEX
  8
0
 10
108.890948174
 20
-32.9875054045
 30
0.0
  0
SEQEND
  8
0
  0
POLYLINE
  8
0
 62
0
 70
0
 66
1
 10
0.0
 20
0.0
 30
0.0
  0
VERTEX
  8
0
 10
137.27860276
 20
-74.4177920684
 30
0.0
  0
VERTEX
  8
0
 10
136.447110658
 20
-70.0972323685
 30
0.0
  0
VERTEX
  8
0
 10
133.602532415
 20
-65.9282712546
 30
0.0
  0
VERTEX
  8
0
 10
129.007444483
 20
-63.2752960003
 30
0.0
  0
VERTEX
  8
0
 10
123.974729129
 20
-62.8962995354
 30
0.0
  0
VERTEX
  8
0
 10
119.81726862
 20
-64.336486102
 30
0.0
  0
VERTEX
  8
0
 10
116.491300212
 20
-67.2168592353
 30
0.0
  0
VERTEX
  8
0
 10
114.303163102
 20
-71.7648168141
 30
0.0
  0
VERTEX
  8
0
 10
114.303163102
 20
-77.0707673227
 30
0.0
  0
VERTEX
  8
0
 10
116.491300212
 20
-81.6187249015
 30
0.0
  0
VERTEX
  8
0
 10
119.81726862
 20
-84.4990980348
 30
0.0
  0
VERTEX
  8
0
 10
123.974729129
 20
-85.9392846014
 30
0.0
  0
VERTEX
  8
0
 10
129.007444483
 20
-85.5602881365
 30
0.0
  0
VERTEX
  8
0
 10
133.602532415
 20
-82.9073128822
 30
0.0
  0
VERTEX
  8
0
 10
136.447110658
 20
-78.7383517683
 30
0.0
  0
VERTEX
  8
0
 10
137.27860276
 20
-74.4177920684
 30
0.0
  0
SEQEND
  8
0
  0
POLYLINE
  8
0
 62
0
 70
1
 66
1
 10
0.0
 20
0.0
 30
0.0
  0
VERTEX
  8
0
 10
83.5417401777
 20
-41.8023322232
 30
0.0
  0
VERTEX
  8
0
 10
88.1561469828
 20
-41.8023322232
 30
0.0
  0
VERTEX
  8
0
 10
92.770553788
 20
-41.8023322232
 30
0.0
  0
VERTEX
  8
0
 10
97.3849605932
 20
-41.8023322232
 30
0.0
  0
VERTEX
  8
0
 10
97.3849605932
 20
-46.7103828781
 30
0.0
  0
VERTEX
  8
0
 10
97.3849605932
 20
-51.618433533
 30
0.0
  0
VERTEX
  8
0
 10
97.3849605932
 20
-56.526484188
 30
0.0
  0
VERTEX
  8
0
 10
97.3849605932
 20
-61.4345348429
 30
0.0
  0
VERTEX
  8
0
 10
97.3849605932
 20
-66.3425854978
 30
0.0
  0
VERTEX
  8
0
 10
97.3849605932
 20
-71.2506361528
 30
0.0
  0
VERTEX
  8
0
 10
97.3849605932
 20
-76.1586868077
 30
0.0
  0
VERTEX
  8
0
 10
97.3849605932
 20
-81.0667374626
 30
0.0
  0
VERTEX
  8
0
 10
97.3849605932
 20
-85.9747881175
 30
0.0
  0
VERTEX
  8
0
 10
97.3849605932
 20
-90.8828387725
 30
0.0
  0
VERTEX
  8
0
 10
97.3849605932
 20
-95.7908894274
 30
0.0
  0
VERTEX
  8
0
 10
97.3849605932
 20
-100.698940082
 30
0.0
  0
VERTEX
  8
0
 10
97.3849605932
 20
-105.606990737
 30
0.0
  0
VERTEX
  8
0
 10
97.3849605932
 20
-110.515041392
 30
0.0
  0
VERTEX
  8
0
 10
97.3849605932
 20
-115.423092047
 30
0.0
  0
VERTEX
  8
0
 10
92.770553788
 20
-115.423092047
 30
0.0
  0
VERTEX
  8
0
 10
88.1561469828
 20
-115.423092047
 30
0.0
  0
VERTEX
  8
0
 10
83.5417401777
 20
-115.423092047
 30
0.0
  0
VERTEX
  8
0
 10
83.5417401777
 20
-110.515041392
 30
0.0
  0
VERTEX
  8
0
 10
83.5417401777
 20
-105.606990737
 30
0.0
  0
VERTEX
  8
0
 10
83.5417401777
 20
-100.698940082
 30
0.0
  0
VERTEX
  8
0
 10
83.5417401777
 20
-95.7908894274
 30
0.0
  0
VERTEX
  8
0
 10
83.5417401777
 20
-90.8828387725
 30
0.0
  0
VERTEX
  8
0
 10
83.5417401777
 20
-85.9747881175
 30
0.0
  0
VERTEX
  8
0
 10
83.5417401777
 20
-81.0667374626
 30
0.0
  0
VERTEX
  8
0
 10
83.5417401777
 20
-76.1586868077
 30
0.0
  0
VERTEX
  8
0
 10
83.5417401777
 20
-71.2506361528
 30
0.0
  0
VERTEX
  8
0
 10
83.5417401777
 20
-66.3425854978
 30
0.0
  0
VERTEX
  8
0
 10
83.5417401777
 20
-61.4345348429
 30
0.0
  0
VERTEX
  8
0
 10
83.5417401777
 20
-56.526484188
 30
0.0
  0
VERTEX
  8
0
 10
83.5417401777
 20
-51.618433533
 30
0.0
  0
VERTEX
  8
0
 10
83.5417401777
 20
-46.7103828781
 30
0.0
  0
SEQEND
  8
0
  0
POLYLINE
  8
0
 62
0
 70
1
 66
1
 10
0.0
 20
0.0
 30
0.0
  0
VERTEX
  8
0
 10
41.1311372222
 20
-48.0108034233
 30
0.0
  0
VERTEX
  8
0
 10
45.7874951377
 20
-48.0108034233
 30
0.0
  0
VERTEX
  8
0
 10
50.4438530533
 20
-48.0108034233
 30
0.0
  0
VERTEX
  8
0
 10
55.1002109688
 20
-48.0108034233
 30
0.0
  0
VERTEX
  8
0
 10
59.7565688844
 20
-48.0108034233
 30
0.0
  0
VERTEX
  8
0
 10
64.4129267999
 20
-48.0108034233
 30
0.0
  0
VERTEX
  8
0
 10
64.4129267999
 20
-52.667161339
 30
0.0
  0
VERTEX
  8
0
 10
64.4129267999
 20
-57.3235192547
 30
0.0
  0
VERTEX
  8
0
 10
64.4129267999
 20
-61.9798771703
 30
0.0
  0
VERTEX
  8
0
 10
64.4129267999
 20
-66.636235086
 30
0.0
  0
VERTEX
  8
0
 10
64.4129267999
 20
-71.2925930017
 30
0.0
  0
VERTEX
  8
0
 10
59.7565688844
 20
-71.2925930017
 30
0.0
  0
VERTEX
  8
0
 10
55.1002109688
 20
-71.2925930017
 30
0.0
  0
VERTEX
  8
0
 10
50.4438530533
 20
-71.2925930017
 30
0.0
  0
VERTEX
  8
0
 10
45.7874951377
 20
-71.2925930017
 30
0.0
  0
VERTEX
  8
0
 10
41.1311372222
 20
-71.2925930017
 30
0.0
  0
VERTEX
  8
0
 10
41.1311372222
 20
-66.636235086
 30
0.0
  0
VERTEX
  8
0
 10
41.1311372222
 20
-61.9798771703
 30
0.0
  0
VERTEX
  8
0
 10
41.1311372222
 20
-57.3235192547
 30
0.0
  0
VERTEX
  8
0
 10
41.1311372222
 20
-52.667161339
 30
0.0
  0
SEQEND
  8
0
  0
ENDSEC
  0
EOF
