<?xml version="1.0" encoding="UTF-8" standalone="no"?>
<svg
   xmlns:dc="http://purl.org/dc/elements/1.1/"
   xmlns:cc="http://creativecommons.org/ns#"
   xmlns:rdf="http://www.w3.org/1999/02/22-rdf-syntax-ns#"
   xmlns:svg="http://www.w3.org/2000/svg"
   xmlns="http://www.w3.org/2000/svg"
   xmlns:sodipodi="http://sodipodi.sourceforge.net/DTD/sodipodi-0.dtd"
   xmlns:inkscape="http://www.inkscape.org/namespaces/inkscape"
   sodipodi:docname="test_culture3.svg"
   version="1.1"
   id="svg2"
   viewBox="0 0 744.09448819 1052.3622047"
   height="297mm"
   width="210mm"
   inkscape:version="0.92.1 r">
  <sodipodi:namedview
     inkscape:current-layer="svg2"
     inkscape:window-maximized="1"
     inkscape:window-y="444"
     inkscape:window-x="1080"
     inkscape:cy="739.17748"
     inkscape:cx="409.39836"
     inkscape:zoom="0.84096521"
     showgrid="false"
     id="namedview6"
     inkscape:window-height="1054"
     inkscape:window-width="1920"
     inkscape:pageshadow="2"
     inkscape:pageopacity="0"
     guidetolerance="10"
     gridtolerance="10"
     objecttolerance="10"
     borderopacity="1"
     bordercolor="#666666"
     pagecolor="#ffffff" />
  <defs
     id="defs4" />
  <metadata
     id="metadata7">
    <rdf:RDF>
      <cc:Work
         rdf:about="">
        <dc:format>image/svg+xml</dc:format>
        <dc:type
           rdf:resource="http://purl.org/dc/dcmitype/StillImage" />
        <dc:title></dc:title>
      </cc:Work>
    </rdf:RDF>
  </metadata>
  <path
     id="path4538"
     d="M 369.10156 112.70117 L 112.30078 154.80078 L 120.7207 390.55273 L 139.26367 566.30664 L 630.11328 596.83594 L 614.08789 425.32422 L 588.01367 365.29297 C 547.31836 302.14509 688.96857 100.38455 469.49609 137.79883 L 369.10156 112.70117 z M 296.01367 148.11914 L 345.06445 148.11914 L 345.06445 408.97852 L 296.01367 408.97852 L 296.01367 148.11914 z M 145.74023 170.11719 L 228.23438 170.11719 L 228.23438 252.61133 L 145.74023 252.61133 L 145.74023 170.11719 z M 445.17383 222.4375 A 41.247246 41.247246 0 0 1 486.41992 263.68555 A 41.247246 41.247246 0 0 1 445.17383 304.93164 A 41.247246 41.247246 0 0 1 403.92578 263.68555 A 41.247246 41.247246 0 0 1 445.17383 222.4375 z M 175.54297 301.14258 L 249.11914 301.14258 L 249.11914 374.71875 L 175.54297 374.71875 L 175.54297 301.14258 z M 388.31836 421.01953 A 28.98455 28.98455 0 0 1 417.30273 450.00391 A 28.98455 28.98455 0 0 1 388.31836 478.98828 A 28.98455 28.98455 0 0 1 359.33398 450.00391 A 28.98455 28.98455 0 0 1 388.31836 421.01953 z "
     style="fill:#000000;fill-rule:evenodd;stroke:#000000;stroke-width:3.54034519px;stroke-linecap:butt;stroke-linejoin:miter;stroke-opacity:1;fill-opacity:1" />
</svg>
