<?xml version="1.0" encoding="UTF-8" standalone="no"?>
<!-- Created with Inkscape (http://www.inkscape.org/) -->

<svg
   xmlns:dc="http://purl.org/dc/elements/1.1/"
   xmlns:cc="http://creativecommons.org/ns#"
   xmlns:rdf="http://www.w3.org/1999/02/22-rdf-syntax-ns#"
   xmlns:svg="http://www.w3.org/2000/svg"
   xmlns="http://www.w3.org/2000/svg"
   xmlns:sodipodi="http://sodipodi.sourceforge.net/DTD/sodipodi-0.dtd"
   xmlns:inkscape="http://www.inkscape.org/namespaces/inkscape"
   width="69.188538mm"
   height="73.519371mm"
   viewBox="0 0 69.188538 73.519371"
   version="1.1"
   id="svg8"
   inkscape:version="0.92.3 (d244b95, 2018-08-02)"
   sodipodi:docname="mask_high_2.svg">
  <defs
     id="defs2" />
  <sodipodi:namedview
     id="base"
     pagecolor="#ffffff"
     bordercolor="#666666"
     borderopacity="1.0"
     inkscape:pageopacity="0.0"
     inkscape:pageshadow="2"
     inkscape:zoom="1.979899"
     inkscape:cx="118.32792"
     inkscape:cy="102.12354"
     inkscape:document-units="mm"
     inkscape:current-layer="layer1"
     showgrid="true"
     fit-margin-top="0"
     fit-margin-left="0"
     fit-margin-right="0"
     fit-margin-bottom="0"
     inkscape:window-width="1080"
     inkscape:window-height="1896"
     inkscape:window-x="0"
     inkscape:window-y="0"
     inkscape:window-maximized="1">
    <inkscape:grid
       type="xygrid"
       id="grid4504"
       originx="-58.009898"
       originy="-170.14447" />
  </sodipodi:namedview>
  <metadata
     id="metadata5">
    <rdf:RDF>
      <cc:Work
         rdf:about="">
        <dc:format>image/svg+xml</dc:format>
        <dc:type
           rdf:resource="http://purl.org/dc/dcmitype/StillImage" />
        <dc:title />
      </cc:Work>
    </rdf:RDF>
  </metadata>
  <g
     inkscape:label="Calque 1"
     inkscape:groupmode="layer"
     id="layer1"
     transform="translate(-58.009895,-53.336145)">
    <circle
       style="fill:#00ffff;fill-opacity:1;stroke:#000000;stroke-width:0.39687499;stroke-linecap:round;stroke-miterlimit:4;stroke-dasharray:none;stroke-opacity:1"
       id="path871"
       cx="92.604164"
       cy="87.979156"
       r="34.395832" />
    <path
       style="fill:#ff0000;stroke:#000000;stroke-width:0.99999994px;stroke-linecap:butt;stroke-linejoin:miter;stroke-opacity:1"
       d="M 90.75 7.4082031 A 130 130 0 0 0 30.75 47.935547 L 30.75 60.933594 L 60.75 60.933594 L 60.75 90.933594 L 30.75 90.933594 L 7.1347656 90.933594 A 130 130 0 0 0 1.2519531 120.93359 L 30.75 120.93359 L 30.75 150.93359 L 60.75 150.93359 L 60.75 120.93359 L 90.75 120.93359 L 90.75 60.933594 L 120.75 60.933594 L 120.75 30.933594 L 90.75 30.933594 L 90.75 7.4082031 z "
       transform="matrix(0.26458333,0,0,0.26458333,58.009895,53.336145)"
       id="path4508" />
    <path
       style="fill:#ff0000;stroke:#000000;stroke-width:0.99999994px;stroke-linecap:butt;stroke-linejoin:miter;stroke-opacity:1"
       d="M 200.75 21.552734 L 200.75 40.933594 L 170.75 40.933594 L 170.75 70.933594 L 140.75 70.933594 L 140.75 100.93359 L 110.75 100.93359 L 110.75 130.93359 L 170.75 130.93359 L 170.75 100.93359 L 200.75 100.93359 L 200.75 160.93359 L 170.75 160.93359 L 170.75 190.93359 L 200.75 190.93359 L 230.75 190.93359 L 230.75 130.93359 L 230.75 80.933594 L 230.75 60.933594 L 230.75 48.039062 A 130 130 0 0 0 200.75 21.552734 z "
       transform="matrix(0.26458333,0,0,0.26458333,58.009895,53.336145)"
       id="path4510" />
    <path
       style="fill:#ff0000;stroke:#000000;stroke-width:0.99999994px;stroke-linecap:butt;stroke-linejoin:miter;stroke-opacity:1"
       d="M 80.75 156.93359 L 80.75 186.93359 L 50.75 186.93359 L 50.75 216.93359 L 80.75 216.93359 L 80.75 250.90039 A 130 130 0 0 0 110.75 259.22461 L 110.75 246.93359 L 170.75 246.93359 L 170.75 216.93359 L 140.75 216.93359 L 140.75 186.93359 L 110.75 186.93359 L 110.75 156.93359 L 80.75 156.93359 z "
       transform="matrix(0.26458333,0,0,0.26458333,58.009895,53.336145)"
       id="path4512" />
    <path
       inkscape:connector-curvature="0"
       id="path873"
       d="m -2.116705,56.229153 v 13.229166 h 7.9374944 v 7.9375 H -2.116705 -10.0542 v 7.9375 h 7.937495 v 7.9375 h 7.9374944 v -7.9375 h 7.9374986 v -15.875 h 7.937499 v -7.9375 h -7.937499 v -7.9375 H -2.116705 Z"
       style="fill:none;stroke:#000000;stroke-width:0.26458332px;stroke-linecap:butt;stroke-linejoin:miter;stroke-opacity:1" />
    <path
       inkscape:connector-curvature="0"
       id="path875"
       d="m 42.862384,53.583321 v 10.583333 h -7.937445 v 7.9375 h -7.937485 v 7.9375 h -7.9375 v 7.9375 h 15.874985 v -7.9375 h 7.937445 v 15.875 h -7.937445 v 7.937506 h 7.937445 7.937455 V 87.979154 74.749987 69.458321 58.874988 Z"
       style="fill:none;stroke:#000000;stroke-width:0.26458332px;stroke-linecap:butt;stroke-linejoin:miter;stroke-opacity:1" />
    <path
       inkscape:connector-curvature="0"
       id="path877"
       d="M 11.112454,121.31665 V 110.73332 H 3.1749589 v -7.9375 h 7.9374951 v -7.9375 h 7.9375 v 7.9375 h 7.9375 v 7.9375 h 7.937485 v 7.9375 H 19.049954 v 7.9375 z"
       style="fill:none;stroke:#000000;stroke-width:0.26458332px;stroke-linecap:butt;stroke-linejoin:miter;stroke-opacity:1" />
  </g>
</svg>
